M48
; DRILL file {KiCad (5.1.9)-1} date 06/15/21 15:46:40
; FORMAT={-:-/ absolute / inch / decimal}
; #@! TF.CreationDate,2021-06-15T15:46:40-04:00
; #@! TF.GenerationSoftware,Kicad,Pcbnew,(5.1.9)-1
; #@! TF.FileFunction,Plated,1,2,PTH
FMAT,2
INCH
T1C0.0157
T2C0.0354
T3C0.0394
T4C0.0433
T5C0.0591
T6C0.1378
%
G90
G05
T1
X1.025Y-4.855
X1.065Y-4.16
X1.08Y-2.95
X1.08Y-3.14
X1.0825Y-3.59
X1.175Y-4.5907
X1.215Y-3.565
X1.24Y-3.365
X1.4163Y-4.6338
X1.4843Y-4.2982
X1.565Y-4.695
X1.7Y-5.21
X1.705Y-5.35
X1.74Y-4.39
X1.7913Y-5.0236
X1.815Y-4.63
X1.9044Y-4.5644
X2.1775Y-2.9525
X2.2589Y-4.4724
X2.28Y-4.61
X2.2957Y-3.6693
X2.4Y-4.585
X2.715Y-4.6
X2.7375Y-2.9475
X2.845Y-4.4641
X2.8996Y-4.63
X3.0525Y-4.9975
X3.0998Y-4.5537
X3.1325Y-3.86
X3.1998Y-4.7629
X3.2913Y-4.7605
X3.3125Y-4.93
X3.385Y-4.295
X3.54Y-3.4025
X3.8425Y-2.93
X3.9275Y-4.545
X3.93Y-4.2975
X3.97Y-5.08
X3.975Y-4.745
X4.04Y-5.115
X4.1275Y-5.09
X4.1348Y-4.564
X4.1665Y-5.0135
X4.2425Y-3.8575
X4.285Y-4.69
X4.4925Y-4.485
X4.495Y-4.3075
X4.635Y-3.395
X4.95Y-2.9325
X5.035Y-4.29
X5.3325Y-3.8625
X5.58Y-4.2975
X5.6Y-4.495
X5.7Y-4.7629
X5.745Y-3.395
X5.9198Y-5.0702
X6.0325Y-2.9525
X6.135Y-4.2975
X6.14Y-5.5225
X6.2Y-4.6
X6.335Y-5.18
X6.34Y-4.565
X6.375Y-4.75
X6.375Y-4.92
X6.3775Y-4.1075
X6.4375Y-5.4225
X6.44Y-3.86
X6.447Y-4.872
X6.49Y-5.085
X6.4946Y-5.2454
X6.5079Y-4.93
X6.51Y-5.055
X6.5525Y-5.4225
X6.5754Y-5.255
X6.5875Y-5.135
X6.5985Y-4.9085
X6.69Y-4.305
X6.7121Y-5.4304
X6.7163Y-5.1462
X6.7475Y-5.105
X6.7536Y-5.3639
X6.755Y-5.25
X6.77Y-5.08
X6.8075Y-4.995
X6.86Y-5.3425
X6.8625Y-5.23
X6.8988Y-5.0438
X6.9275Y-5.375
X6.9425Y-5.1725
X6.9675Y-5.0825
X6.985Y-5.1275
X6.9925Y-5.335
X7.0125Y-5.0025
X7.015Y-5.255
X7.04Y-5.485
X7.11Y-5.275
X7.13Y-2.945
X7.2175Y-4.9325
X7.2325Y-4.3075
X7.235Y-5.1225
X7.2746Y-5.4304
X7.3125Y-4.9825
X7.3675Y-5.105
X7.4025Y-4.5725
X7.405Y-5.255
X7.43Y-5.105
X7.45Y-4.1175
X7.475Y-5.075
X7.4825Y-5.425
X7.53Y-5.255
X7.55Y-3.8575
X7.57Y-4.7
X7.625Y-5.1575
X7.6696Y-4.6304
X7.716Y-4.564
X7.905Y-4.37
X8.1097Y-5.5222
X8.23Y-2.9475
X8.3Y-4.7
X8.7362Y-4.2992
X8.9975Y-4.385
X9.115Y-4.1175
X9.3275Y-2.955
X9.49Y-5.24
X9.5435Y-4.9865
X9.645Y-3.915
X9.7215Y-3.748
X9.7265Y-4.4415
X9.8386Y-3.7362
X9.935Y-2.92
X10.005Y-3.92
X10.26Y-4.625
X10.305Y-2.47
T2
X9.71Y-2.25
X9.81Y-2.25
X10.1Y-2.25
X10.2Y-2.25
T3
X1.3Y-4.9
X1.4Y-4.9
X1.5Y-4.9
X1.6Y-4.9
X1.7Y-4.9
X1.8Y-4.9
X1.9Y-4.9
X2.0Y-4.9
X2.1Y-4.9
X2.2Y-4.9
X2.3Y-4.9
X2.4Y-4.9
X2.5Y-4.9
X2.6Y-4.9
X2.7Y-4.9
X2.8Y-4.9
X2.9Y-4.9
X3.0Y-4.9
X3.1Y-4.9
X3.2Y-4.9
X6.95Y-2.25
X7.05Y-2.25
X7.15Y-2.25
X7.25Y-2.25
X7.35Y-2.25
X7.45Y-2.25
T4
X1.05Y-3.85
X1.05Y-4.0272
X1.05Y-4.3
X1.05Y-4.4772
X1.2Y-2.95
X1.2Y-3.1272
X1.3059Y-3.85
X1.3059Y-4.0272
X1.3059Y-4.3
X1.3059Y-4.4772
X1.325Y-3.4
X1.325Y-3.5772
X1.4559Y-2.95
X1.4559Y-3.1272
X1.5809Y-3.4
X1.5809Y-3.5772
X1.6Y-2.25
X1.6Y-2.4272
X1.6Y-3.85
X1.6Y-4.0272
X1.725Y-4.3
X1.725Y-4.4772
X1.75Y-2.95
X1.75Y-3.1272
X1.8559Y-2.25
X1.8559Y-2.4272
X1.8559Y-3.85
X1.8559Y-4.0272
X1.9809Y-4.3
X1.9809Y-4.4772
X2.0Y-3.4
X2.0Y-3.5772
X2.0059Y-2.95
X2.0059Y-3.1272
X2.15Y-3.85
X2.15Y-4.0272
X2.2559Y-3.4
X2.2559Y-3.5772
X2.3Y-2.95
X2.3Y-3.1272
X2.4Y-4.3
X2.4Y-4.4772
X2.4059Y-3.85
X2.4059Y-4.0272
X2.55Y-3.4
X2.55Y-3.5772
X2.5559Y-2.95
X2.5559Y-3.1272
X2.6559Y-4.3
X2.6559Y-4.4772
X2.7Y-3.85
X2.7Y-4.0272
X2.8059Y-3.4
X2.8059Y-3.5772
X2.85Y-2.95
X2.85Y-3.1272
X2.95Y-4.3
X2.95Y-4.4772
X2.9559Y-3.85
X2.9559Y-4.0272
X3.1Y-3.4
X3.1Y-3.5772
X3.1059Y-2.95
X3.1059Y-3.1272
X3.2059Y-4.3
X3.2059Y-4.4772
X3.25Y-3.85
X3.25Y-4.0272
X3.3559Y-3.4
X3.3559Y-3.5772
X3.4Y-2.95
X3.4Y-3.1272
X3.5Y-4.3
X3.5Y-4.4772
X3.5059Y-3.85
X3.5059Y-4.0272
X3.6Y-4.75
X3.6Y-4.9272
X3.65Y-3.4
X3.65Y-3.5772
X3.6559Y-2.95
X3.6559Y-3.1272
X3.7559Y-4.3
X3.7559Y-4.4772
X3.8Y-3.85
X3.8Y-4.0272
X3.8559Y-4.75
X3.8559Y-4.9272
X3.9059Y-3.4
X3.9059Y-3.5772
X3.95Y-2.95
X3.95Y-3.1272
X4.05Y-4.3
X4.05Y-4.4772
X4.0559Y-3.85
X4.0559Y-4.0272
X4.2Y-3.4
X4.2Y-3.5772
X4.2059Y-2.95
X4.2059Y-3.1272
X4.3059Y-4.3
X4.3059Y-4.4772
X4.35Y-3.85
X4.35Y-4.0272
X4.4559Y-3.4
X4.4559Y-3.5772
X4.5Y-2.95
X4.5Y-3.1272
X4.6Y-4.3
X4.6Y-4.4772
X4.6059Y-3.85
X4.6059Y-4.0272
X4.75Y-3.4
X4.75Y-3.5772
X4.7559Y-2.95
X4.7559Y-3.1272
X4.8559Y-4.3
X4.8559Y-4.4772
X4.9Y-3.85
X4.9Y-4.0272
X5.0059Y-3.4
X5.0059Y-3.5772
X5.05Y-2.95
X5.05Y-3.1272
X5.15Y-4.3
X5.15Y-4.4772
X5.1559Y-3.85
X5.1559Y-4.0272
X5.3Y-3.4
X5.3Y-3.5772
X5.3059Y-2.95
X5.3059Y-3.1272
X5.4059Y-4.3
X5.4059Y-4.4772
X5.45Y-3.85
X5.45Y-4.0272
X5.5559Y-3.4
X5.5559Y-3.5772
X5.6Y-2.95
X5.6Y-3.1272
X5.7Y-4.3
X5.7Y-4.4772
X5.7059Y-3.85
X5.7059Y-4.0272
X5.8Y-4.75
X5.8Y-4.9272
X5.85Y-3.4
X5.85Y-3.5772
X5.8559Y-2.95
X5.8559Y-3.1272
X5.9559Y-4.3
X5.9559Y-4.4772
X6.0Y-3.85
X6.0Y-4.0272
X6.0559Y-4.75
X6.0559Y-4.9272
X6.1059Y-3.4
X6.1059Y-3.5772
X6.15Y-2.95
X6.15Y-3.1272
X6.25Y-4.3
X6.25Y-4.4772
X6.2559Y-3.85
X6.2559Y-4.0272
X6.4Y-3.4
X6.4Y-3.5772
X6.4059Y-2.95
X6.4059Y-3.1272
X6.5059Y-4.3
X6.5059Y-4.4772
X6.55Y-3.85
X6.55Y-4.0272
X6.6559Y-3.4
X6.6559Y-3.5772
X6.7Y-2.95
X6.7Y-3.1272
X6.8Y-4.3
X6.8Y-4.4772
X6.8059Y-3.85
X6.8059Y-4.0272
X6.95Y-3.4
X6.95Y-3.5772
X6.9559Y-2.95
X6.9559Y-3.1272
X7.0559Y-4.3
X7.0559Y-4.4772
X7.1Y-3.85
X7.1Y-4.0272
X7.2059Y-3.4
X7.2059Y-3.5772
X7.25Y-2.95
X7.25Y-3.1272
X7.35Y-4.3
X7.35Y-4.4772
X7.3559Y-3.85
X7.3559Y-4.0272
X7.5Y-3.4
X7.5Y-3.5772
X7.5059Y-2.95
X7.5059Y-3.1272
X7.6059Y-4.3
X7.6059Y-4.4772
X7.65Y-3.85
X7.65Y-4.0272
X7.7559Y-3.4
X7.7559Y-3.5772
X7.8Y-2.95
X7.8Y-3.1272
X7.9059Y-3.85
X7.9059Y-4.0272
X8.025Y-4.3
X8.025Y-4.4772
X8.05Y-3.4
X8.05Y-3.5772
X8.0559Y-2.95
X8.0559Y-3.1272
X8.2Y-3.85
X8.2Y-4.0272
X8.2809Y-4.3
X8.2809Y-4.4772
X8.3059Y-3.4
X8.3059Y-3.5772
X8.35Y-2.95
X8.35Y-3.1272
X8.4559Y-3.85
X8.4559Y-4.0272
X8.6Y-3.4
X8.6Y-3.5772
X8.6059Y-2.95
X8.6059Y-3.1272
X8.65Y-2.25
X8.65Y-2.4272
X8.8559Y-3.4
X8.8559Y-3.5772
X8.9Y-2.95
X8.9Y-3.1272
X8.9059Y-2.25
X8.9059Y-2.4272
X9.0Y-3.85
X9.0Y-4.0272
X9.05Y-4.85
X9.05Y-5.0272
X9.15Y-2.25
X9.15Y-2.4272
X9.1559Y-2.95
X9.1559Y-3.1272
X9.2559Y-3.85
X9.2559Y-4.0272
X9.275Y-3.4
X9.275Y-3.5772
X9.3059Y-4.85
X9.3059Y-5.0272
X9.35Y-4.35
X9.35Y-4.5272
X9.35Y-5.35
X9.35Y-5.5272
X9.4059Y-2.25
X9.4059Y-2.4272
X9.45Y-2.95
X9.45Y-3.1272
X9.5309Y-3.4
X9.5309Y-3.5772
X9.6059Y-4.35
X9.6059Y-4.5272
X9.6059Y-5.35
X9.6059Y-5.5272
X9.65Y-4.85
X9.65Y-5.0272
X9.7059Y-2.95
X9.7059Y-3.1272
X9.9059Y-4.85
X9.9059Y-5.0272
X10.4Y-2.95
X10.4Y-3.1272
X10.4Y-3.4
X10.4Y-3.5772
X10.4Y-3.85
X10.4Y-4.0272
X10.4Y-4.3
X10.4Y-4.4772
X10.6559Y-2.95
X10.6559Y-3.1272
X10.6559Y-3.4
X10.6559Y-3.5772
X10.6559Y-3.85
X10.6559Y-4.0272
X10.6559Y-4.3
X10.6559Y-4.4772
T6
X1.1319Y-2.4606
X1.1319Y-5.4134
X3.4941Y-2.4606
X3.4941Y-5.4134
X5.8563Y-2.4606
X5.8563Y-5.4134
X8.2185Y-2.4606
X8.2185Y-5.4134
X10.5807Y-2.4606
X10.5807Y-5.4134
T5
G00X3.9876Y-2.4508
M15
G01X3.9876Y-2.5492
M16
G05
G00X4.1844Y-2.4508
M15
G01X4.1844Y-2.5492
M16
G05
G00X5.3656Y-2.4508
M15
G01X5.3656Y-2.5492
M16
G05
G00X5.5624Y-2.4508
M15
G01X5.5624Y-2.5492
M16
G05
T0
M30
