%TF.GenerationSoftware,KiCad,Pcbnew,(5.1.9)-1*%
%TF.CreationDate,2021-06-15T15:46:33-04:00*%
%TF.ProjectId,CMicro-Keyboard,434d6963-726f-42d4-9b65-79626f617264,rev?*%
%TF.SameCoordinates,Original*%
%TF.FileFunction,Soldermask,Top*%
%TF.FilePolarity,Negative*%
%FSLAX46Y46*%
G04 Gerber Fmt 4.6, Leading zero omitted, Abs format (unit mm)*
G04 Created by KiCad (PCBNEW (5.1.9)-1) date 2021-06-15 15:46:33*
%MOMM*%
%LPD*%
G01*
G04 APERTURE LIST*
%ADD10C,2.000000*%
%ADD11R,1.800000X1.800000*%
%ADD12C,1.800000*%
%ADD13R,1.700000X1.700000*%
%ADD14O,1.700000X1.700000*%
%ADD15O,2.500000X5.000000*%
G04 APERTURE END LIST*
D10*
%TO.C,SW0103-Restore1*%
X235585000Y-90860000D03*
X235585000Y-86360000D03*
X242085000Y-90860000D03*
X242085000Y-86360000D03*
%TD*%
%TO.C,SW1305-F7-key1*%
X270660000Y-109220000D03*
X270660000Y-113720000D03*
X264160000Y-109220000D03*
X264160000Y-113720000D03*
%TD*%
%TO.C,SW1306-F5-key1*%
X270660000Y-97790000D03*
X270660000Y-102290000D03*
X264160000Y-97790000D03*
X264160000Y-102290000D03*
%TD*%
%TO.C,SW1307-F3-key1*%
X270660000Y-86360000D03*
X270660000Y-90860000D03*
X264160000Y-86360000D03*
X264160000Y-90860000D03*
%TD*%
%TO.C,SW1308-F1-Key1*%
X270660000Y-74930000D03*
X270660000Y-79430000D03*
X264160000Y-74930000D03*
X264160000Y-79430000D03*
%TD*%
%TO.C,SW1309-CrsrUD1*%
X243990000Y-135890000D03*
X243990000Y-140390000D03*
X237490000Y-135890000D03*
X237490000Y-140390000D03*
%TD*%
%TO.C,SW1309-CrsrUp1*%
X237490000Y-114990000D03*
X237490000Y-110490000D03*
X243990000Y-114990000D03*
X243990000Y-110490000D03*
%TD*%
%TO.C,SW1310-CrsrLeft1*%
X236370000Y-123190000D03*
X236370000Y-127690000D03*
X229870000Y-123190000D03*
X229870000Y-127690000D03*
%TD*%
%TO.C,SW1310-CrsrLR1*%
X251610000Y-123190000D03*
X251610000Y-127690000D03*
X245110000Y-123190000D03*
X245110000Y-127690000D03*
%TD*%
%TO.C,SW1311-Return1*%
X235100000Y-97790000D03*
X235100000Y-102290000D03*
X228600000Y-97790000D03*
X228600000Y-102290000D03*
%TD*%
%TO.C,SW1312-InstDel1*%
X246530000Y-74930000D03*
X246530000Y-79430000D03*
X240030000Y-74930000D03*
X240030000Y-79430000D03*
%TD*%
%TO.C,SW1405-ClrHome1*%
X232560000Y-74930000D03*
X232560000Y-79430000D03*
X226060000Y-74930000D03*
X226060000Y-79430000D03*
%TD*%
%TO.C,SW1406-UpArrow1*%
X224940000Y-86360000D03*
X224940000Y-90860000D03*
X218440000Y-86360000D03*
X218440000Y-90860000D03*
%TD*%
%TO.C,SW1407-Key=1*%
X214780000Y-97790000D03*
X214780000Y-102290000D03*
X208280000Y-97790000D03*
X208280000Y-102290000D03*
%TD*%
%TO.C,SW1408-RShift1*%
X210335000Y-109220000D03*
X210335000Y-113720000D03*
X203835000Y-109220000D03*
X203835000Y-113720000D03*
%TD*%
%TO.C,SW1409-Key/1*%
X186690000Y-113720000D03*
X186690000Y-109220000D03*
X193190000Y-113720000D03*
X193190000Y-109220000D03*
%TD*%
%TO.C,SW1410-Key;1*%
X200810000Y-97790000D03*
X200810000Y-102290000D03*
X194310000Y-97790000D03*
X194310000Y-102290000D03*
%TD*%
%TO.C,SW1411-Key\u002A1*%
X210970000Y-86360000D03*
X210970000Y-90860000D03*
X204470000Y-86360000D03*
X204470000Y-90860000D03*
%TD*%
%TO.C,SW1412-KeyPound1*%
X218590000Y-74930000D03*
X218590000Y-79430000D03*
X212090000Y-74930000D03*
X212090000Y-79430000D03*
%TD*%
%TO.C,SW1505-Key-1*%
X198120000Y-79430000D03*
X198120000Y-74930000D03*
X204620000Y-79430000D03*
X204620000Y-74930000D03*
%TD*%
%TO.C,SW1506-Key@1*%
X190500000Y-90860000D03*
X190500000Y-86360000D03*
X197000000Y-90860000D03*
X197000000Y-86360000D03*
%TD*%
%TO.C,SW1507-Key:1*%
X180340000Y-102290000D03*
X180340000Y-97790000D03*
X186840000Y-102290000D03*
X186840000Y-97790000D03*
%TD*%
%TO.C,SW1508-Key.1*%
X172720000Y-113720000D03*
X172720000Y-109220000D03*
X179220000Y-113720000D03*
X179220000Y-109220000D03*
%TD*%
%TO.C,SW1509-Key\u002C1*%
X165250000Y-109220000D03*
X165250000Y-113720000D03*
X158750000Y-109220000D03*
X158750000Y-113720000D03*
%TD*%
%TO.C,SW1510-KeyL1*%
X166370000Y-102290000D03*
X166370000Y-97790000D03*
X172870000Y-102290000D03*
X172870000Y-97790000D03*
%TD*%
%TO.C,SW1511-KeyP1*%
X176530000Y-90860000D03*
X176530000Y-86360000D03*
X183030000Y-90860000D03*
X183030000Y-86360000D03*
%TD*%
%TO.C,SW1512-Key+1*%
X184150000Y-79430000D03*
X184150000Y-74930000D03*
X190650000Y-79430000D03*
X190650000Y-74930000D03*
%TD*%
%TO.C,SW1605-0-key1*%
X176680000Y-74930000D03*
X176680000Y-79430000D03*
X170180000Y-74930000D03*
X170180000Y-79430000D03*
%TD*%
%TO.C,SW1606-KeyO1*%
X169060000Y-86360000D03*
X169060000Y-90860000D03*
X162560000Y-86360000D03*
X162560000Y-90860000D03*
%TD*%
%TO.C,SW1607-KeyK1*%
X158900000Y-97790000D03*
X158900000Y-102290000D03*
X152400000Y-97790000D03*
X152400000Y-102290000D03*
%TD*%
%TO.C,SW1608-KeyM1*%
X151280000Y-109220000D03*
X151280000Y-113720000D03*
X144780000Y-109220000D03*
X144780000Y-113720000D03*
%TD*%
%TO.C,SW1609-KeyN1*%
X130810000Y-113720000D03*
X130810000Y-109220000D03*
X137310000Y-113720000D03*
X137310000Y-109220000D03*
%TD*%
%TO.C,SW1610-KeyJ1*%
X144930000Y-97790000D03*
X144930000Y-102290000D03*
X138430000Y-97790000D03*
X138430000Y-102290000D03*
%TD*%
%TO.C,SW1611-KeyI1*%
X155090000Y-86360000D03*
X155090000Y-90860000D03*
X148590000Y-86360000D03*
X148590000Y-90860000D03*
%TD*%
%TO.C,SW1612-9-key1*%
X162710000Y-74930000D03*
X162710000Y-79430000D03*
X156210000Y-74930000D03*
X156210000Y-79430000D03*
%TD*%
%TO.C,SW1705-8-key1*%
X142240000Y-79430000D03*
X142240000Y-74930000D03*
X148740000Y-79430000D03*
X148740000Y-74930000D03*
%TD*%
%TO.C,SW1706-KeyU1*%
X134620000Y-90860000D03*
X134620000Y-86360000D03*
X141120000Y-90860000D03*
X141120000Y-86360000D03*
%TD*%
%TO.C,SW1707-KeyH1*%
X124460000Y-102290000D03*
X124460000Y-97790000D03*
X130960000Y-102290000D03*
X130960000Y-97790000D03*
%TD*%
%TO.C,SW1708-KeyB1*%
X116840000Y-113720000D03*
X116840000Y-109220000D03*
X123340000Y-113720000D03*
X123340000Y-109220000D03*
%TD*%
%TO.C,SW1709-KeyV1*%
X109370000Y-109220000D03*
X109370000Y-113720000D03*
X102870000Y-109220000D03*
X102870000Y-113720000D03*
%TD*%
%TO.C,SW1710-KeyG1*%
X110490000Y-102290000D03*
X110490000Y-97790000D03*
X116990000Y-102290000D03*
X116990000Y-97790000D03*
%TD*%
%TO.C,SW1711-KeyY1*%
X120650000Y-90860000D03*
X120650000Y-86360000D03*
X127150000Y-90860000D03*
X127150000Y-86360000D03*
%TD*%
%TO.C,SW1712-7-key1*%
X128270000Y-79430000D03*
X128270000Y-74930000D03*
X134770000Y-79430000D03*
X134770000Y-74930000D03*
%TD*%
%TO.C,SW1805-6-key1*%
X120800000Y-74930000D03*
X120800000Y-79430000D03*
X114300000Y-74930000D03*
X114300000Y-79430000D03*
%TD*%
%TO.C,SW1806-KeyT1*%
X113180000Y-86360000D03*
X113180000Y-90860000D03*
X106680000Y-86360000D03*
X106680000Y-90860000D03*
%TD*%
%TO.C,SW1807-F-key1*%
X103020000Y-97790000D03*
X103020000Y-102290000D03*
X96520000Y-97790000D03*
X96520000Y-102290000D03*
%TD*%
%TO.C,SW1808-KeyC1*%
X95400000Y-109220000D03*
X95400000Y-113720000D03*
X88900000Y-109220000D03*
X88900000Y-113720000D03*
%TD*%
%TO.C,SW1809-KeyX1*%
X74930000Y-113720000D03*
X74930000Y-109220000D03*
X81430000Y-113720000D03*
X81430000Y-109220000D03*
%TD*%
%TO.C,SW1810-KeyD1*%
X89050000Y-97790000D03*
X89050000Y-102290000D03*
X82550000Y-97790000D03*
X82550000Y-102290000D03*
%TD*%
%TO.C,SW1811-KeyR1*%
X99210000Y-86360000D03*
X99210000Y-90860000D03*
X92710000Y-86360000D03*
X92710000Y-90860000D03*
%TD*%
%TO.C,SW1812-5-key1*%
X106830000Y-74930000D03*
X106830000Y-79430000D03*
X100330000Y-74930000D03*
X100330000Y-79430000D03*
%TD*%
%TO.C,SW1905-4-key1*%
X86360000Y-79430000D03*
X86360000Y-74930000D03*
X92860000Y-79430000D03*
X92860000Y-74930000D03*
%TD*%
%TO.C,SW1906-KeyE1*%
X78740000Y-90860000D03*
X78740000Y-86360000D03*
X85240000Y-90860000D03*
X85240000Y-86360000D03*
%TD*%
%TO.C,SW1907-KeyS1*%
X68580000Y-102290000D03*
X68580000Y-97790000D03*
X75080000Y-102290000D03*
X75080000Y-97790000D03*
%TD*%
%TO.C,SW1908-KeyZ1*%
X60960000Y-113720000D03*
X60960000Y-109220000D03*
X67460000Y-113720000D03*
X67460000Y-109220000D03*
%TD*%
%TO.C,SW1909&2501-ShiftCapsLock1*%
X47140000Y-97790000D03*
X47140000Y-102290000D03*
X40640000Y-97790000D03*
X40640000Y-102290000D03*
%TD*%
%TO.C,SW1909-LShift1*%
X43815000Y-113720000D03*
X43815000Y-109220000D03*
X50315000Y-113720000D03*
X50315000Y-109220000D03*
%TD*%
%TO.C,SW1910-KeyA1*%
X54610000Y-102290000D03*
X54610000Y-97790000D03*
X61110000Y-102290000D03*
X61110000Y-97790000D03*
%TD*%
%TO.C,SW1911-KeyW1*%
X64770000Y-90860000D03*
X64770000Y-86360000D03*
X71270000Y-90860000D03*
X71270000Y-86360000D03*
%TD*%
%TO.C,SW1912-3-key1*%
X72390000Y-79430000D03*
X72390000Y-74930000D03*
X78890000Y-79430000D03*
X78890000Y-74930000D03*
%TD*%
%TO.C,SW2005-2-key1*%
X58420000Y-79430000D03*
X58420000Y-74930000D03*
X64920000Y-79430000D03*
X64920000Y-74930000D03*
%TD*%
%TO.C,SW2006-KeyQ1*%
X50800000Y-90860000D03*
X50800000Y-86360000D03*
X57300000Y-90860000D03*
X57300000Y-86360000D03*
%TD*%
%TO.C,SW2007-C=1*%
X26670000Y-113720000D03*
X26670000Y-109220000D03*
X33170000Y-113720000D03*
X33170000Y-109220000D03*
%TD*%
%TO.C,SW2008-Space1*%
X91440000Y-125150000D03*
X91440000Y-120650000D03*
X97940000Y-125150000D03*
X97940000Y-120650000D03*
%TD*%
%TO.C,SW2009-RunStop1*%
X33170000Y-97790000D03*
X33170000Y-102290000D03*
X26670000Y-97790000D03*
X26670000Y-102290000D03*
%TD*%
%TO.C,SW2010-CTRL1*%
X33655000Y-90860000D03*
X33655000Y-86360000D03*
X40155000Y-90860000D03*
X40155000Y-86360000D03*
%TD*%
%TO.C,SW2011-LeftArrow1*%
X30480000Y-79430000D03*
X30480000Y-74930000D03*
X36980000Y-79430000D03*
X36980000Y-74930000D03*
%TD*%
%TO.C,SW2012-1-key1*%
X44450000Y-79430000D03*
X44450000Y-74930000D03*
X50950000Y-79430000D03*
X50950000Y-74930000D03*
%TD*%
%TO.C,SW2008-SpaceB1*%
X147320000Y-125150000D03*
X147320000Y-120650000D03*
X153820000Y-125150000D03*
X153820000Y-120650000D03*
%TD*%
D11*
%TO.C,D1*%
X256540000Y-57150000D03*
D12*
X259080000Y-57150000D03*
%TD*%
%TO.C,D20*%
X249174000Y-57150000D03*
D11*
X246634000Y-57150000D03*
%TD*%
D13*
%TO.C,J1*%
X33020000Y-124460000D03*
D14*
X35560000Y-124460000D03*
X38100000Y-124460000D03*
X40640000Y-124460000D03*
X43180000Y-124460000D03*
X45720000Y-124460000D03*
X48260000Y-124460000D03*
X50800000Y-124460000D03*
X53340000Y-124460000D03*
X55880000Y-124460000D03*
X58420000Y-124460000D03*
X60960000Y-124460000D03*
X63500000Y-124460000D03*
X66040000Y-124460000D03*
X68580000Y-124460000D03*
X71120000Y-124460000D03*
X73660000Y-124460000D03*
X76200000Y-124460000D03*
X78740000Y-124460000D03*
X81280000Y-124460000D03*
%TD*%
D10*
%TO.C,SW_MENU1*%
X232410000Y-61650000D03*
X232410000Y-57150000D03*
X238910000Y-61650000D03*
X238910000Y-57150000D03*
%TD*%
%TO.C,SW_RESET1*%
X47140000Y-57150000D03*
X47140000Y-61650000D03*
X40640000Y-57150000D03*
X40640000Y-61650000D03*
%TD*%
%TO.C,SW_SPECIAL1*%
X219710000Y-61650000D03*
X219710000Y-57150000D03*
X226210000Y-61650000D03*
X226210000Y-57150000D03*
%TD*%
D13*
%TO.C,J2*%
X176530000Y-57150000D03*
D14*
X179070000Y-57150000D03*
X181610000Y-57150000D03*
X184150000Y-57150000D03*
X186690000Y-57150000D03*
X189230000Y-57150000D03*
%TD*%
D15*
%TO.C,ZT1*%
X101285000Y-63500000D03*
X106285000Y-63500000D03*
X136285000Y-63500000D03*
X141285000Y-63500000D03*
%TD*%
M02*
