%TF.GenerationSoftware,KiCad,Pcbnew,(5.1.9)-1*%
%TF.CreationDate,2021-06-15T15:46:33-04:00*%
%TF.ProjectId,CMicro-Keyboard,434d6963-726f-42d4-9b65-79626f617264,rev?*%
%TF.SameCoordinates,Original*%
%TF.FileFunction,Legend,Top*%
%TF.FilePolarity,Positive*%
%FSLAX46Y46*%
G04 Gerber Fmt 4.6, Leading zero omitted, Abs format (unit mm)*
G04 Created by KiCad (PCBNEW (5.1.9)-1) date 2021-06-15 15:46:33*
%MOMM*%
%LPD*%
G01*
G04 APERTURE LIST*
%ADD10C,0.400000*%
%ADD11C,0.300000*%
%ADD12C,2.000000*%
%ADD13C,0.120000*%
%ADD14C,0.200000*%
%ADD15C,0.150000*%
%ADD16C,0.450000*%
%ADD17C,0.600000*%
G04 APERTURE END LIST*
D10*
X245713523Y-63198285D02*
X245618285Y-63293523D01*
X245332571Y-63388761D01*
X245142095Y-63388761D01*
X244856380Y-63293523D01*
X244665904Y-63103047D01*
X244570666Y-62912571D01*
X244475428Y-62531619D01*
X244475428Y-62245904D01*
X244570666Y-61864952D01*
X244665904Y-61674476D01*
X244856380Y-61484000D01*
X245142095Y-61388761D01*
X245332571Y-61388761D01*
X245618285Y-61484000D01*
X245713523Y-61579238D01*
X246475428Y-62817333D02*
X247427809Y-62817333D01*
X246284952Y-63388761D02*
X246951619Y-61388761D01*
X247618285Y-63388761D01*
X248284952Y-63388761D02*
X248284952Y-61388761D01*
X249046857Y-61388761D01*
X249237333Y-61484000D01*
X249332571Y-61579238D01*
X249427809Y-61769714D01*
X249427809Y-62055428D01*
X249332571Y-62245904D01*
X249237333Y-62341142D01*
X249046857Y-62436380D01*
X248284952Y-62436380D01*
X250189714Y-63293523D02*
X250475428Y-63388761D01*
X250951619Y-63388761D01*
X251142095Y-63293523D01*
X251237333Y-63198285D01*
X251332571Y-63007809D01*
X251332571Y-62817333D01*
X251237333Y-62626857D01*
X251142095Y-62531619D01*
X250951619Y-62436380D01*
X250570666Y-62341142D01*
X250380190Y-62245904D01*
X250284952Y-62150666D01*
X250189714Y-61960190D01*
X250189714Y-61769714D01*
X250284952Y-61579238D01*
X250380190Y-61484000D01*
X250570666Y-61388761D01*
X251046857Y-61388761D01*
X251332571Y-61484000D01*
X255143333Y-63388761D02*
X255143333Y-61388761D01*
X255905238Y-61388761D01*
X256095714Y-61484000D01*
X256190952Y-61579238D01*
X256286190Y-61769714D01*
X256286190Y-62055428D01*
X256190952Y-62245904D01*
X256095714Y-62341142D01*
X255905238Y-62436380D01*
X255143333Y-62436380D01*
X256952857Y-61388761D02*
X257429047Y-63388761D01*
X257810000Y-61960190D01*
X258190952Y-63388761D01*
X258667142Y-61388761D01*
X260571904Y-63388761D02*
X259905238Y-62436380D01*
X259429047Y-63388761D02*
X259429047Y-61388761D01*
X260190952Y-61388761D01*
X260381428Y-61484000D01*
X260476666Y-61579238D01*
X260571904Y-61769714D01*
X260571904Y-62055428D01*
X260476666Y-62245904D01*
X260381428Y-62341142D01*
X260190952Y-62436380D01*
X259429047Y-62436380D01*
D11*
X71389761Y-142838809D02*
X69389761Y-142838809D01*
X71389761Y-141695952D02*
X70246904Y-142553095D01*
X69389761Y-141695952D02*
X70532619Y-142838809D01*
X70342142Y-140838809D02*
X70342142Y-140172142D01*
X71389761Y-139886428D02*
X71389761Y-140838809D01*
X69389761Y-140838809D01*
X69389761Y-139886428D01*
X70437380Y-138648333D02*
X71389761Y-138648333D01*
X69389761Y-139315000D02*
X70437380Y-138648333D01*
X69389761Y-137981666D01*
X70342142Y-136648333D02*
X70437380Y-136362619D01*
X70532619Y-136267380D01*
X70723095Y-136172142D01*
X71008809Y-136172142D01*
X71199285Y-136267380D01*
X71294523Y-136362619D01*
X71389761Y-136553095D01*
X71389761Y-137315000D01*
X69389761Y-137315000D01*
X69389761Y-136648333D01*
X69485000Y-136457857D01*
X69580238Y-136362619D01*
X69770714Y-136267380D01*
X69961190Y-136267380D01*
X70151666Y-136362619D01*
X70246904Y-136457857D01*
X70342142Y-136648333D01*
X70342142Y-137315000D01*
X69389761Y-134934047D02*
X69389761Y-134553095D01*
X69485000Y-134362619D01*
X69675476Y-134172142D01*
X70056428Y-134076904D01*
X70723095Y-134076904D01*
X71104047Y-134172142D01*
X71294523Y-134362619D01*
X71389761Y-134553095D01*
X71389761Y-134934047D01*
X71294523Y-135124523D01*
X71104047Y-135315000D01*
X70723095Y-135410238D01*
X70056428Y-135410238D01*
X69675476Y-135315000D01*
X69485000Y-135124523D01*
X69389761Y-134934047D01*
X70818333Y-133315000D02*
X70818333Y-132362619D01*
X71389761Y-133505476D02*
X69389761Y-132838809D01*
X71389761Y-132172142D01*
X71389761Y-130362619D02*
X70437380Y-131029285D01*
X71389761Y-131505476D02*
X69389761Y-131505476D01*
X69389761Y-130743571D01*
X69485000Y-130553095D01*
X69580238Y-130457857D01*
X69770714Y-130362619D01*
X70056428Y-130362619D01*
X70246904Y-130457857D01*
X70342142Y-130553095D01*
X70437380Y-130743571D01*
X70437380Y-131505476D01*
X71389761Y-129505476D02*
X69389761Y-129505476D01*
X69389761Y-129029285D01*
X69485000Y-128743571D01*
X69675476Y-128553095D01*
X69865952Y-128457857D01*
X70246904Y-128362619D01*
X70532619Y-128362619D01*
X70913571Y-128457857D01*
X71104047Y-128553095D01*
X71294523Y-128743571D01*
X71389761Y-129029285D01*
X71389761Y-129505476D01*
D12*
X30972619Y-141366428D02*
X30534523Y-141842619D01*
X29220238Y-142318809D01*
X28344047Y-142318809D01*
X27029761Y-141842619D01*
X26153571Y-140890238D01*
X25715476Y-139937857D01*
X25277380Y-138033095D01*
X25277380Y-136604523D01*
X25715476Y-134699761D01*
X26153571Y-133747380D01*
X27029761Y-132795000D01*
X28344047Y-132318809D01*
X29220238Y-132318809D01*
X30534523Y-132795000D01*
X30972619Y-133271190D01*
X34915476Y-142318809D02*
X34915476Y-132318809D01*
X37982142Y-139461666D01*
X41048809Y-132318809D01*
X41048809Y-142318809D01*
X45429761Y-142318809D02*
X45429761Y-135652142D01*
X45429761Y-132318809D02*
X44991666Y-132795000D01*
X45429761Y-133271190D01*
X45867857Y-132795000D01*
X45429761Y-132318809D01*
X45429761Y-133271190D01*
X53753571Y-141842619D02*
X52877380Y-142318809D01*
X51125000Y-142318809D01*
X50248809Y-141842619D01*
X49810714Y-141366428D01*
X49372619Y-140414047D01*
X49372619Y-137556904D01*
X49810714Y-136604523D01*
X50248809Y-136128333D01*
X51125000Y-135652142D01*
X52877380Y-135652142D01*
X53753571Y-136128333D01*
X57696428Y-142318809D02*
X57696428Y-135652142D01*
X57696428Y-137556904D02*
X58134523Y-136604523D01*
X58572619Y-136128333D01*
X59448809Y-135652142D01*
X60325000Y-135652142D01*
X64705952Y-142318809D02*
X63829761Y-141842619D01*
X63391666Y-141366428D01*
X62953571Y-140414047D01*
X62953571Y-137556904D01*
X63391666Y-136604523D01*
X63829761Y-136128333D01*
X64705952Y-135652142D01*
X66020238Y-135652142D01*
X66896428Y-136128333D01*
X67334523Y-136604523D01*
X67772619Y-137556904D01*
X67772619Y-140414047D01*
X67334523Y-141366428D01*
X66896428Y-141842619D01*
X66020238Y-142318809D01*
X64705952Y-142318809D01*
D10*
X24802619Y-128444761D02*
X24802619Y-129873333D01*
X24707380Y-130159047D01*
X24516904Y-130349523D01*
X24231190Y-130444761D01*
X24040714Y-130444761D01*
X26612142Y-130444761D02*
X26612142Y-129397142D01*
X26516904Y-129206666D01*
X26326428Y-129111428D01*
X25945476Y-129111428D01*
X25755000Y-129206666D01*
X26612142Y-130349523D02*
X26421666Y-130444761D01*
X25945476Y-130444761D01*
X25755000Y-130349523D01*
X25659761Y-130159047D01*
X25659761Y-129968571D01*
X25755000Y-129778095D01*
X25945476Y-129682857D01*
X26421666Y-129682857D01*
X26612142Y-129587619D01*
X27374047Y-129111428D02*
X27850238Y-130444761D01*
X28326428Y-129111428D02*
X27850238Y-130444761D01*
X27659761Y-130920952D01*
X27564523Y-131016190D01*
X27374047Y-131111428D01*
X28993095Y-130349523D02*
X29183571Y-130444761D01*
X29564523Y-130444761D01*
X29755000Y-130349523D01*
X29850238Y-130159047D01*
X29850238Y-130063809D01*
X29755000Y-129873333D01*
X29564523Y-129778095D01*
X29278809Y-129778095D01*
X29088333Y-129682857D01*
X28993095Y-129492380D01*
X28993095Y-129397142D01*
X29088333Y-129206666D01*
X29278809Y-129111428D01*
X29564523Y-129111428D01*
X29755000Y-129206666D01*
X30421666Y-129111428D02*
X31183571Y-129111428D01*
X30707380Y-128444761D02*
X30707380Y-130159047D01*
X30802619Y-130349523D01*
X30993095Y-130444761D01*
X31183571Y-130444761D01*
X32135952Y-130444761D02*
X31945476Y-130349523D01*
X31850238Y-130254285D01*
X31755000Y-130063809D01*
X31755000Y-129492380D01*
X31850238Y-129301904D01*
X31945476Y-129206666D01*
X32135952Y-129111428D01*
X32421666Y-129111428D01*
X32612142Y-129206666D01*
X32707380Y-129301904D01*
X32802619Y-129492380D01*
X32802619Y-130063809D01*
X32707380Y-130254285D01*
X32612142Y-130349523D01*
X32421666Y-130444761D01*
X32135952Y-130444761D01*
X33659761Y-129111428D02*
X33659761Y-130444761D01*
X33659761Y-129301904D02*
X33755000Y-129206666D01*
X33945476Y-129111428D01*
X34231190Y-129111428D01*
X34421666Y-129206666D01*
X34516904Y-129397142D01*
X34516904Y-130444761D01*
X35469285Y-130444761D02*
X35469285Y-129111428D01*
X35469285Y-128444761D02*
X35374047Y-128540000D01*
X35469285Y-128635238D01*
X35564523Y-128540000D01*
X35469285Y-128444761D01*
X35469285Y-128635238D01*
X37278809Y-130444761D02*
X37278809Y-129397142D01*
X37183571Y-129206666D01*
X36993095Y-129111428D01*
X36612142Y-129111428D01*
X36421666Y-129206666D01*
X37278809Y-130349523D02*
X37088333Y-130444761D01*
X36612142Y-130444761D01*
X36421666Y-130349523D01*
X36326428Y-130159047D01*
X36326428Y-129968571D01*
X36421666Y-129778095D01*
X36612142Y-129682857D01*
X37088333Y-129682857D01*
X37278809Y-129587619D01*
X38231190Y-129111428D02*
X38231190Y-130444761D01*
X38231190Y-129301904D02*
X38326428Y-129206666D01*
X38516904Y-129111428D01*
X38802619Y-129111428D01*
X38993095Y-129206666D01*
X39088333Y-129397142D01*
X39088333Y-130444761D01*
X40135952Y-128444761D02*
X39945476Y-128825714D01*
X40897857Y-130349523D02*
X41088333Y-130444761D01*
X41469285Y-130444761D01*
X41659761Y-130349523D01*
X41755000Y-130159047D01*
X41755000Y-130063809D01*
X41659761Y-129873333D01*
X41469285Y-129778095D01*
X41183571Y-129778095D01*
X40993095Y-129682857D01*
X40897857Y-129492380D01*
X40897857Y-129397142D01*
X40993095Y-129206666D01*
X41183571Y-129111428D01*
X41469285Y-129111428D01*
X41659761Y-129206666D01*
D13*
%TO.C,SW0103-Restore1*%
X242335000Y-89360000D02*
X242335000Y-87860000D01*
X241085000Y-85360000D02*
X236585000Y-85360000D01*
X235335000Y-87860000D02*
X235335000Y-89360000D01*
X236585000Y-91860000D02*
X241085000Y-91860000D01*
%TO.C,SW1305-F7-key1*%
X265160000Y-114720000D02*
X269660000Y-114720000D01*
X263910000Y-110720000D02*
X263910000Y-112220000D01*
X269660000Y-108220000D02*
X265160000Y-108220000D01*
X270910000Y-112220000D02*
X270910000Y-110720000D01*
%TO.C,SW1306-F5-key1*%
X265160000Y-103290000D02*
X269660000Y-103290000D01*
X263910000Y-99290000D02*
X263910000Y-100790000D01*
X269660000Y-96790000D02*
X265160000Y-96790000D01*
X270910000Y-100790000D02*
X270910000Y-99290000D01*
%TO.C,SW1307-F3-key1*%
X265160000Y-91860000D02*
X269660000Y-91860000D01*
X263910000Y-87860000D02*
X263910000Y-89360000D01*
X269660000Y-85360000D02*
X265160000Y-85360000D01*
X270910000Y-89360000D02*
X270910000Y-87860000D01*
%TO.C,SW1308-F1-Key1*%
X265160000Y-80430000D02*
X269660000Y-80430000D01*
X263910000Y-76430000D02*
X263910000Y-77930000D01*
X269660000Y-73930000D02*
X265160000Y-73930000D01*
X270910000Y-77930000D02*
X270910000Y-76430000D01*
%TO.C,SW1309-CrsrUD1*%
X238490000Y-141390000D02*
X242990000Y-141390000D01*
X237240000Y-137390000D02*
X237240000Y-138890000D01*
X242990000Y-134890000D02*
X238490000Y-134890000D01*
X244240000Y-138890000D02*
X244240000Y-137390000D01*
%TO.C,SW1309-CrsrUp1*%
X244240000Y-113490000D02*
X244240000Y-111990000D01*
X242990000Y-109490000D02*
X238490000Y-109490000D01*
X237240000Y-111990000D02*
X237240000Y-113490000D01*
X238490000Y-115990000D02*
X242990000Y-115990000D01*
%TO.C,SW1310-CrsrLeft1*%
X230870000Y-128690000D02*
X235370000Y-128690000D01*
X229620000Y-124690000D02*
X229620000Y-126190000D01*
X235370000Y-122190000D02*
X230870000Y-122190000D01*
X236620000Y-126190000D02*
X236620000Y-124690000D01*
%TO.C,SW1310-CrsrLR1*%
X246110000Y-128690000D02*
X250610000Y-128690000D01*
X244860000Y-124690000D02*
X244860000Y-126190000D01*
X250610000Y-122190000D02*
X246110000Y-122190000D01*
X251860000Y-126190000D02*
X251860000Y-124690000D01*
%TO.C,SW1311-Return1*%
X229600000Y-103290000D02*
X234100000Y-103290000D01*
X228350000Y-99290000D02*
X228350000Y-100790000D01*
X234100000Y-96790000D02*
X229600000Y-96790000D01*
X235350000Y-100790000D02*
X235350000Y-99290000D01*
%TO.C,SW1312-InstDel1*%
X241030000Y-80430000D02*
X245530000Y-80430000D01*
X239780000Y-76430000D02*
X239780000Y-77930000D01*
X245530000Y-73930000D02*
X241030000Y-73930000D01*
X246780000Y-77930000D02*
X246780000Y-76430000D01*
%TO.C,SW1405-ClrHome1*%
X227060000Y-80430000D02*
X231560000Y-80430000D01*
X225810000Y-76430000D02*
X225810000Y-77930000D01*
X231560000Y-73930000D02*
X227060000Y-73930000D01*
X232810000Y-77930000D02*
X232810000Y-76430000D01*
%TO.C,SW1406-UpArrow1*%
X219440000Y-91860000D02*
X223940000Y-91860000D01*
X218190000Y-87860000D02*
X218190000Y-89360000D01*
X223940000Y-85360000D02*
X219440000Y-85360000D01*
X225190000Y-89360000D02*
X225190000Y-87860000D01*
%TO.C,SW1407-Key=1*%
X209280000Y-103290000D02*
X213780000Y-103290000D01*
X208030000Y-99290000D02*
X208030000Y-100790000D01*
X213780000Y-96790000D02*
X209280000Y-96790000D01*
X215030000Y-100790000D02*
X215030000Y-99290000D01*
%TO.C,SW1408-RShift1*%
X204835000Y-114720000D02*
X209335000Y-114720000D01*
X203585000Y-110720000D02*
X203585000Y-112220000D01*
X209335000Y-108220000D02*
X204835000Y-108220000D01*
X210585000Y-112220000D02*
X210585000Y-110720000D01*
%TO.C,SW1409-Key/1*%
X193440000Y-112220000D02*
X193440000Y-110720000D01*
X192190000Y-108220000D02*
X187690000Y-108220000D01*
X186440000Y-110720000D02*
X186440000Y-112220000D01*
X187690000Y-114720000D02*
X192190000Y-114720000D01*
%TO.C,SW1410-Key;1*%
X195310000Y-103290000D02*
X199810000Y-103290000D01*
X194060000Y-99290000D02*
X194060000Y-100790000D01*
X199810000Y-96790000D02*
X195310000Y-96790000D01*
X201060000Y-100790000D02*
X201060000Y-99290000D01*
%TO.C,SW1411-Key\u002A1*%
X205470000Y-91860000D02*
X209970000Y-91860000D01*
X204220000Y-87860000D02*
X204220000Y-89360000D01*
X209970000Y-85360000D02*
X205470000Y-85360000D01*
X211220000Y-89360000D02*
X211220000Y-87860000D01*
%TO.C,SW1412-KeyPound1*%
X213090000Y-80430000D02*
X217590000Y-80430000D01*
X211840000Y-76430000D02*
X211840000Y-77930000D01*
X217590000Y-73930000D02*
X213090000Y-73930000D01*
X218840000Y-77930000D02*
X218840000Y-76430000D01*
%TO.C,SW1505-Key-1*%
X204870000Y-77930000D02*
X204870000Y-76430000D01*
X203620000Y-73930000D02*
X199120000Y-73930000D01*
X197870000Y-76430000D02*
X197870000Y-77930000D01*
X199120000Y-80430000D02*
X203620000Y-80430000D01*
%TO.C,SW1506-Key@1*%
X197250000Y-89360000D02*
X197250000Y-87860000D01*
X196000000Y-85360000D02*
X191500000Y-85360000D01*
X190250000Y-87860000D02*
X190250000Y-89360000D01*
X191500000Y-91860000D02*
X196000000Y-91860000D01*
%TO.C,SW1507-Key:1*%
X187090000Y-100790000D02*
X187090000Y-99290000D01*
X185840000Y-96790000D02*
X181340000Y-96790000D01*
X180090000Y-99290000D02*
X180090000Y-100790000D01*
X181340000Y-103290000D02*
X185840000Y-103290000D01*
%TO.C,SW1508-Key.1*%
X179470000Y-112220000D02*
X179470000Y-110720000D01*
X178220000Y-108220000D02*
X173720000Y-108220000D01*
X172470000Y-110720000D02*
X172470000Y-112220000D01*
X173720000Y-114720000D02*
X178220000Y-114720000D01*
%TO.C,SW1509-Key\u002C1*%
X159750000Y-114720000D02*
X164250000Y-114720000D01*
X158500000Y-110720000D02*
X158500000Y-112220000D01*
X164250000Y-108220000D02*
X159750000Y-108220000D01*
X165500000Y-112220000D02*
X165500000Y-110720000D01*
%TO.C,SW1510-KeyL1*%
X173120000Y-100790000D02*
X173120000Y-99290000D01*
X171870000Y-96790000D02*
X167370000Y-96790000D01*
X166120000Y-99290000D02*
X166120000Y-100790000D01*
X167370000Y-103290000D02*
X171870000Y-103290000D01*
%TO.C,SW1511-KeyP1*%
X183280000Y-89360000D02*
X183280000Y-87860000D01*
X182030000Y-85360000D02*
X177530000Y-85360000D01*
X176280000Y-87860000D02*
X176280000Y-89360000D01*
X177530000Y-91860000D02*
X182030000Y-91860000D01*
%TO.C,SW1512-Key+1*%
X190900000Y-77930000D02*
X190900000Y-76430000D01*
X189650000Y-73930000D02*
X185150000Y-73930000D01*
X183900000Y-76430000D02*
X183900000Y-77930000D01*
X185150000Y-80430000D02*
X189650000Y-80430000D01*
%TO.C,SW1605-0-key1*%
X171180000Y-80430000D02*
X175680000Y-80430000D01*
X169930000Y-76430000D02*
X169930000Y-77930000D01*
X175680000Y-73930000D02*
X171180000Y-73930000D01*
X176930000Y-77930000D02*
X176930000Y-76430000D01*
%TO.C,SW1606-KeyO1*%
X163560000Y-91860000D02*
X168060000Y-91860000D01*
X162310000Y-87860000D02*
X162310000Y-89360000D01*
X168060000Y-85360000D02*
X163560000Y-85360000D01*
X169310000Y-89360000D02*
X169310000Y-87860000D01*
%TO.C,SW1607-KeyK1*%
X153400000Y-103290000D02*
X157900000Y-103290000D01*
X152150000Y-99290000D02*
X152150000Y-100790000D01*
X157900000Y-96790000D02*
X153400000Y-96790000D01*
X159150000Y-100790000D02*
X159150000Y-99290000D01*
%TO.C,SW1608-KeyM1*%
X145780000Y-114720000D02*
X150280000Y-114720000D01*
X144530000Y-110720000D02*
X144530000Y-112220000D01*
X150280000Y-108220000D02*
X145780000Y-108220000D01*
X151530000Y-112220000D02*
X151530000Y-110720000D01*
%TO.C,SW1609-KeyN1*%
X137560000Y-112220000D02*
X137560000Y-110720000D01*
X136310000Y-108220000D02*
X131810000Y-108220000D01*
X130560000Y-110720000D02*
X130560000Y-112220000D01*
X131810000Y-114720000D02*
X136310000Y-114720000D01*
%TO.C,SW1610-KeyJ1*%
X139430000Y-103290000D02*
X143930000Y-103290000D01*
X138180000Y-99290000D02*
X138180000Y-100790000D01*
X143930000Y-96790000D02*
X139430000Y-96790000D01*
X145180000Y-100790000D02*
X145180000Y-99290000D01*
%TO.C,SW1611-KeyI1*%
X149590000Y-91860000D02*
X154090000Y-91860000D01*
X148340000Y-87860000D02*
X148340000Y-89360000D01*
X154090000Y-85360000D02*
X149590000Y-85360000D01*
X155340000Y-89360000D02*
X155340000Y-87860000D01*
%TO.C,SW1612-9-key1*%
X157210000Y-80430000D02*
X161710000Y-80430000D01*
X155960000Y-76430000D02*
X155960000Y-77930000D01*
X161710000Y-73930000D02*
X157210000Y-73930000D01*
X162960000Y-77930000D02*
X162960000Y-76430000D01*
%TO.C,SW1705-8-key1*%
X148990000Y-77930000D02*
X148990000Y-76430000D01*
X147740000Y-73930000D02*
X143240000Y-73930000D01*
X141990000Y-76430000D02*
X141990000Y-77930000D01*
X143240000Y-80430000D02*
X147740000Y-80430000D01*
%TO.C,SW1706-KeyU1*%
X141370000Y-89360000D02*
X141370000Y-87860000D01*
X140120000Y-85360000D02*
X135620000Y-85360000D01*
X134370000Y-87860000D02*
X134370000Y-89360000D01*
X135620000Y-91860000D02*
X140120000Y-91860000D01*
%TO.C,SW1707-KeyH1*%
X131210000Y-100790000D02*
X131210000Y-99290000D01*
X129960000Y-96790000D02*
X125460000Y-96790000D01*
X124210000Y-99290000D02*
X124210000Y-100790000D01*
X125460000Y-103290000D02*
X129960000Y-103290000D01*
%TO.C,SW1708-KeyB1*%
X123590000Y-112220000D02*
X123590000Y-110720000D01*
X122340000Y-108220000D02*
X117840000Y-108220000D01*
X116590000Y-110720000D02*
X116590000Y-112220000D01*
X117840000Y-114720000D02*
X122340000Y-114720000D01*
%TO.C,SW1709-KeyV1*%
X103870000Y-114720000D02*
X108370000Y-114720000D01*
X102620000Y-110720000D02*
X102620000Y-112220000D01*
X108370000Y-108220000D02*
X103870000Y-108220000D01*
X109620000Y-112220000D02*
X109620000Y-110720000D01*
%TO.C,SW1710-KeyG1*%
X117240000Y-100790000D02*
X117240000Y-99290000D01*
X115990000Y-96790000D02*
X111490000Y-96790000D01*
X110240000Y-99290000D02*
X110240000Y-100790000D01*
X111490000Y-103290000D02*
X115990000Y-103290000D01*
%TO.C,SW1711-KeyY1*%
X127400000Y-89360000D02*
X127400000Y-87860000D01*
X126150000Y-85360000D02*
X121650000Y-85360000D01*
X120400000Y-87860000D02*
X120400000Y-89360000D01*
X121650000Y-91860000D02*
X126150000Y-91860000D01*
%TO.C,SW1712-7-key1*%
X135020000Y-77930000D02*
X135020000Y-76430000D01*
X133770000Y-73930000D02*
X129270000Y-73930000D01*
X128020000Y-76430000D02*
X128020000Y-77930000D01*
X129270000Y-80430000D02*
X133770000Y-80430000D01*
%TO.C,SW1805-6-key1*%
X115300000Y-80430000D02*
X119800000Y-80430000D01*
X114050000Y-76430000D02*
X114050000Y-77930000D01*
X119800000Y-73930000D02*
X115300000Y-73930000D01*
X121050000Y-77930000D02*
X121050000Y-76430000D01*
%TO.C,SW1806-KeyT1*%
X107680000Y-91860000D02*
X112180000Y-91860000D01*
X106430000Y-87860000D02*
X106430000Y-89360000D01*
X112180000Y-85360000D02*
X107680000Y-85360000D01*
X113430000Y-89360000D02*
X113430000Y-87860000D01*
%TO.C,SW1807-F-key1*%
X97520000Y-103290000D02*
X102020000Y-103290000D01*
X96270000Y-99290000D02*
X96270000Y-100790000D01*
X102020000Y-96790000D02*
X97520000Y-96790000D01*
X103270000Y-100790000D02*
X103270000Y-99290000D01*
%TO.C,SW1808-KeyC1*%
X89900000Y-114720000D02*
X94400000Y-114720000D01*
X88650000Y-110720000D02*
X88650000Y-112220000D01*
X94400000Y-108220000D02*
X89900000Y-108220000D01*
X95650000Y-112220000D02*
X95650000Y-110720000D01*
%TO.C,SW1809-KeyX1*%
X81680000Y-112220000D02*
X81680000Y-110720000D01*
X80430000Y-108220000D02*
X75930000Y-108220000D01*
X74680000Y-110720000D02*
X74680000Y-112220000D01*
X75930000Y-114720000D02*
X80430000Y-114720000D01*
%TO.C,SW1810-KeyD1*%
X83550000Y-103290000D02*
X88050000Y-103290000D01*
X82300000Y-99290000D02*
X82300000Y-100790000D01*
X88050000Y-96790000D02*
X83550000Y-96790000D01*
X89300000Y-100790000D02*
X89300000Y-99290000D01*
%TO.C,SW1811-KeyR1*%
X93710000Y-91860000D02*
X98210000Y-91860000D01*
X92460000Y-87860000D02*
X92460000Y-89360000D01*
X98210000Y-85360000D02*
X93710000Y-85360000D01*
X99460000Y-89360000D02*
X99460000Y-87860000D01*
%TO.C,SW1812-5-key1*%
X101330000Y-80430000D02*
X105830000Y-80430000D01*
X100080000Y-76430000D02*
X100080000Y-77930000D01*
X105830000Y-73930000D02*
X101330000Y-73930000D01*
X107080000Y-77930000D02*
X107080000Y-76430000D01*
%TO.C,SW1905-4-key1*%
X93110000Y-77930000D02*
X93110000Y-76430000D01*
X91860000Y-73930000D02*
X87360000Y-73930000D01*
X86110000Y-76430000D02*
X86110000Y-77930000D01*
X87360000Y-80430000D02*
X91860000Y-80430000D01*
%TO.C,SW1906-KeyE1*%
X85490000Y-89360000D02*
X85490000Y-87860000D01*
X84240000Y-85360000D02*
X79740000Y-85360000D01*
X78490000Y-87860000D02*
X78490000Y-89360000D01*
X79740000Y-91860000D02*
X84240000Y-91860000D01*
%TO.C,SW1907-KeyS1*%
X75330000Y-100790000D02*
X75330000Y-99290000D01*
X74080000Y-96790000D02*
X69580000Y-96790000D01*
X68330000Y-99290000D02*
X68330000Y-100790000D01*
X69580000Y-103290000D02*
X74080000Y-103290000D01*
%TO.C,SW1908-KeyZ1*%
X67710000Y-112220000D02*
X67710000Y-110720000D01*
X66460000Y-108220000D02*
X61960000Y-108220000D01*
X60710000Y-110720000D02*
X60710000Y-112220000D01*
X61960000Y-114720000D02*
X66460000Y-114720000D01*
%TO.C,SW1909&2501-ShiftCapsLock1*%
X41640000Y-103290000D02*
X46140000Y-103290000D01*
X40390000Y-99290000D02*
X40390000Y-100790000D01*
X46140000Y-96790000D02*
X41640000Y-96790000D01*
X47390000Y-100790000D02*
X47390000Y-99290000D01*
%TO.C,SW1909-LShift1*%
X50565000Y-112220000D02*
X50565000Y-110720000D01*
X49315000Y-108220000D02*
X44815000Y-108220000D01*
X43565000Y-110720000D02*
X43565000Y-112220000D01*
X44815000Y-114720000D02*
X49315000Y-114720000D01*
%TO.C,SW1910-KeyA1*%
X61360000Y-100790000D02*
X61360000Y-99290000D01*
X60110000Y-96790000D02*
X55610000Y-96790000D01*
X54360000Y-99290000D02*
X54360000Y-100790000D01*
X55610000Y-103290000D02*
X60110000Y-103290000D01*
%TO.C,SW1911-KeyW1*%
X71520000Y-89360000D02*
X71520000Y-87860000D01*
X70270000Y-85360000D02*
X65770000Y-85360000D01*
X64520000Y-87860000D02*
X64520000Y-89360000D01*
X65770000Y-91860000D02*
X70270000Y-91860000D01*
%TO.C,SW1912-3-key1*%
X79140000Y-77930000D02*
X79140000Y-76430000D01*
X77890000Y-73930000D02*
X73390000Y-73930000D01*
X72140000Y-76430000D02*
X72140000Y-77930000D01*
X73390000Y-80430000D02*
X77890000Y-80430000D01*
%TO.C,SW2005-2-key1*%
X65170000Y-77930000D02*
X65170000Y-76430000D01*
X63920000Y-73930000D02*
X59420000Y-73930000D01*
X58170000Y-76430000D02*
X58170000Y-77930000D01*
X59420000Y-80430000D02*
X63920000Y-80430000D01*
%TO.C,SW2006-KeyQ1*%
X57550000Y-89360000D02*
X57550000Y-87860000D01*
X56300000Y-85360000D02*
X51800000Y-85360000D01*
X50550000Y-87860000D02*
X50550000Y-89360000D01*
X51800000Y-91860000D02*
X56300000Y-91860000D01*
%TO.C,SW2007-C=1*%
X33420000Y-112220000D02*
X33420000Y-110720000D01*
X32170000Y-108220000D02*
X27670000Y-108220000D01*
X26420000Y-110720000D02*
X26420000Y-112220000D01*
X27670000Y-114720000D02*
X32170000Y-114720000D01*
%TO.C,SW2008-Space1*%
X98190000Y-123650000D02*
X98190000Y-122150000D01*
X96940000Y-119650000D02*
X92440000Y-119650000D01*
X91190000Y-122150000D02*
X91190000Y-123650000D01*
X92440000Y-126150000D02*
X96940000Y-126150000D01*
%TO.C,SW2009-RunStop1*%
X27670000Y-103290000D02*
X32170000Y-103290000D01*
X26420000Y-99290000D02*
X26420000Y-100790000D01*
X32170000Y-96790000D02*
X27670000Y-96790000D01*
X33420000Y-100790000D02*
X33420000Y-99290000D01*
%TO.C,SW2010-CTRL1*%
X40405000Y-89360000D02*
X40405000Y-87860000D01*
X39155000Y-85360000D02*
X34655000Y-85360000D01*
X33405000Y-87860000D02*
X33405000Y-89360000D01*
X34655000Y-91860000D02*
X39155000Y-91860000D01*
%TO.C,SW2011-LeftArrow1*%
X37230000Y-77930000D02*
X37230000Y-76430000D01*
X35980000Y-73930000D02*
X31480000Y-73930000D01*
X30230000Y-76430000D02*
X30230000Y-77930000D01*
X31480000Y-80430000D02*
X35980000Y-80430000D01*
%TO.C,SW2012-1-key1*%
X51200000Y-77930000D02*
X51200000Y-76430000D01*
X49950000Y-73930000D02*
X45450000Y-73930000D01*
X44200000Y-76430000D02*
X44200000Y-77930000D01*
X45450000Y-80430000D02*
X49950000Y-80430000D01*
%TO.C,SW2008-SpaceB1*%
X154070000Y-123650000D02*
X154070000Y-122150000D01*
X152820000Y-119650000D02*
X148320000Y-119650000D01*
X147070000Y-122150000D02*
X147070000Y-123650000D01*
X148320000Y-126150000D02*
X152820000Y-126150000D01*
%TO.C,D1*%
X255250000Y-55605000D02*
X255250000Y-58695000D01*
X260310000Y-57150000D02*
G75*
G03*
X260310000Y-57150000I-2500000J0D01*
G01*
X260800000Y-57150462D02*
G75*
G03*
X255250000Y-55605170I-2990000J462D01*
G01*
X260800000Y-57149538D02*
G75*
G02*
X255250000Y-58694830I-2990000J-462D01*
G01*
%TO.C,D20*%
X250404000Y-57150000D02*
G75*
G03*
X250404000Y-57150000I-2500000J0D01*
G01*
X245344000Y-55605000D02*
X245344000Y-58695000D01*
X250894000Y-57149538D02*
G75*
G02*
X245344000Y-58694830I-2990000J-462D01*
G01*
X250894000Y-57150462D02*
G75*
G03*
X245344000Y-55605170I-2990000J462D01*
G01*
%TO.C,SW_MENU1*%
X239160000Y-60150000D02*
X239160000Y-58650000D01*
X237910000Y-56150000D02*
X233410000Y-56150000D01*
X232160000Y-58650000D02*
X232160000Y-60150000D01*
X233410000Y-62650000D02*
X237910000Y-62650000D01*
%TO.C,SW_RESET1*%
X41640000Y-62650000D02*
X46140000Y-62650000D01*
X40390000Y-58650000D02*
X40390000Y-60150000D01*
X46140000Y-56150000D02*
X41640000Y-56150000D01*
X47390000Y-60150000D02*
X47390000Y-58650000D01*
%TO.C,SW_SPECIAL1*%
X226460000Y-60150000D02*
X226460000Y-58650000D01*
X225210000Y-56150000D02*
X220710000Y-56150000D01*
X219460000Y-58650000D02*
X219460000Y-60150000D01*
X220710000Y-62650000D02*
X225210000Y-62650000D01*
%TO.C,SW0103-Restore1*%
D14*
X235045714Y-84498571D02*
X234545714Y-83784285D01*
X234188571Y-84498571D02*
X234188571Y-82998571D01*
X234760000Y-82998571D01*
X234902857Y-83070000D01*
X234974285Y-83141428D01*
X235045714Y-83284285D01*
X235045714Y-83498571D01*
X234974285Y-83641428D01*
X234902857Y-83712857D01*
X234760000Y-83784285D01*
X234188571Y-83784285D01*
X235688571Y-83712857D02*
X236188571Y-83712857D01*
X236402857Y-84498571D02*
X235688571Y-84498571D01*
X235688571Y-82998571D01*
X236402857Y-82998571D01*
X236974285Y-84427142D02*
X237188571Y-84498571D01*
X237545714Y-84498571D01*
X237688571Y-84427142D01*
X237760000Y-84355714D01*
X237831428Y-84212857D01*
X237831428Y-84070000D01*
X237760000Y-83927142D01*
X237688571Y-83855714D01*
X237545714Y-83784285D01*
X237260000Y-83712857D01*
X237117142Y-83641428D01*
X237045714Y-83570000D01*
X236974285Y-83427142D01*
X236974285Y-83284285D01*
X237045714Y-83141428D01*
X237117142Y-83070000D01*
X237260000Y-82998571D01*
X237617142Y-82998571D01*
X237831428Y-83070000D01*
X238260000Y-82998571D02*
X239117142Y-82998571D01*
X238688571Y-84498571D02*
X238688571Y-82998571D01*
X239902857Y-82998571D02*
X240188571Y-82998571D01*
X240331428Y-83070000D01*
X240474285Y-83212857D01*
X240545714Y-83498571D01*
X240545714Y-83998571D01*
X240474285Y-84284285D01*
X240331428Y-84427142D01*
X240188571Y-84498571D01*
X239902857Y-84498571D01*
X239760000Y-84427142D01*
X239617142Y-84284285D01*
X239545714Y-83998571D01*
X239545714Y-83498571D01*
X239617142Y-83212857D01*
X239760000Y-83070000D01*
X239902857Y-82998571D01*
X242045714Y-84498571D02*
X241545714Y-83784285D01*
X241188571Y-84498571D02*
X241188571Y-82998571D01*
X241760000Y-82998571D01*
X241902857Y-83070000D01*
X241974285Y-83141428D01*
X242045714Y-83284285D01*
X242045714Y-83498571D01*
X241974285Y-83641428D01*
X241902857Y-83712857D01*
X241760000Y-83784285D01*
X241188571Y-83784285D01*
X242688571Y-83712857D02*
X243188571Y-83712857D01*
X243402857Y-84498571D02*
X242688571Y-84498571D01*
X242688571Y-82998571D01*
X243402857Y-82998571D01*
%TO.C,SW1305-F7-key1*%
X264549285Y-106572857D02*
X264049285Y-106572857D01*
X264049285Y-107358571D02*
X264049285Y-105858571D01*
X264763571Y-105858571D01*
X265192142Y-105858571D02*
X266192142Y-105858571D01*
X265549285Y-107358571D01*
X267977857Y-107358571D02*
X267906428Y-107358571D01*
X267763571Y-107287142D01*
X267549285Y-107072857D01*
X267192142Y-106644285D01*
X267049285Y-106430000D01*
X266977857Y-106215714D01*
X266977857Y-106072857D01*
X267049285Y-105930000D01*
X267192142Y-105858571D01*
X267263571Y-105858571D01*
X267406428Y-105930000D01*
X267477857Y-106072857D01*
X267477857Y-106144285D01*
X267406428Y-106287142D01*
X267335000Y-106358571D01*
X266906428Y-106644285D01*
X266835000Y-106715714D01*
X266763571Y-106858571D01*
X266763571Y-107072857D01*
X266835000Y-107215714D01*
X266906428Y-107287142D01*
X267049285Y-107358571D01*
X267263571Y-107358571D01*
X267406428Y-107287142D01*
X267477857Y-107215714D01*
X267692142Y-106930000D01*
X267763571Y-106715714D01*
X267763571Y-106572857D01*
X269120714Y-106572857D02*
X268620714Y-106572857D01*
X268620714Y-107358571D02*
X268620714Y-105858571D01*
X269335000Y-105858571D01*
X270120714Y-106501428D02*
X269977857Y-106430000D01*
X269906428Y-106358571D01*
X269835000Y-106215714D01*
X269835000Y-106144285D01*
X269906428Y-106001428D01*
X269977857Y-105930000D01*
X270120714Y-105858571D01*
X270406428Y-105858571D01*
X270549285Y-105930000D01*
X270620714Y-106001428D01*
X270692142Y-106144285D01*
X270692142Y-106215714D01*
X270620714Y-106358571D01*
X270549285Y-106430000D01*
X270406428Y-106501428D01*
X270120714Y-106501428D01*
X269977857Y-106572857D01*
X269906428Y-106644285D01*
X269835000Y-106787142D01*
X269835000Y-107072857D01*
X269906428Y-107215714D01*
X269977857Y-107287142D01*
X270120714Y-107358571D01*
X270406428Y-107358571D01*
X270549285Y-107287142D01*
X270620714Y-107215714D01*
X270692142Y-107072857D01*
X270692142Y-106787142D01*
X270620714Y-106644285D01*
X270549285Y-106572857D01*
X270406428Y-106501428D01*
%TO.C,SW1306-F5-key1*%
X264624285Y-95142857D02*
X264124285Y-95142857D01*
X264124285Y-95928571D02*
X264124285Y-94428571D01*
X264838571Y-94428571D01*
X266124285Y-94428571D02*
X265410000Y-94428571D01*
X265338571Y-95142857D01*
X265410000Y-95071428D01*
X265552857Y-95000000D01*
X265910000Y-95000000D01*
X266052857Y-95071428D01*
X266124285Y-95142857D01*
X266195714Y-95285714D01*
X266195714Y-95642857D01*
X266124285Y-95785714D01*
X266052857Y-95857142D01*
X265910000Y-95928571D01*
X265552857Y-95928571D01*
X265410000Y-95857142D01*
X265338571Y-95785714D01*
X268052857Y-95928571D02*
X267981428Y-95928571D01*
X267838571Y-95857142D01*
X267624285Y-95642857D01*
X267267142Y-95214285D01*
X267124285Y-95000000D01*
X267052857Y-94785714D01*
X267052857Y-94642857D01*
X267124285Y-94500000D01*
X267267142Y-94428571D01*
X267338571Y-94428571D01*
X267481428Y-94500000D01*
X267552857Y-94642857D01*
X267552857Y-94714285D01*
X267481428Y-94857142D01*
X267410000Y-94928571D01*
X266981428Y-95214285D01*
X266910000Y-95285714D01*
X266838571Y-95428571D01*
X266838571Y-95642857D01*
X266910000Y-95785714D01*
X266981428Y-95857142D01*
X267124285Y-95928571D01*
X267338571Y-95928571D01*
X267481428Y-95857142D01*
X267552857Y-95785714D01*
X267767142Y-95500000D01*
X267838571Y-95285714D01*
X267838571Y-95142857D01*
X269195714Y-95142857D02*
X268695714Y-95142857D01*
X268695714Y-95928571D02*
X268695714Y-94428571D01*
X269410000Y-94428571D01*
X270624285Y-94428571D02*
X270338571Y-94428571D01*
X270195714Y-94500000D01*
X270124285Y-94571428D01*
X269981428Y-94785714D01*
X269910000Y-95071428D01*
X269910000Y-95642857D01*
X269981428Y-95785714D01*
X270052857Y-95857142D01*
X270195714Y-95928571D01*
X270481428Y-95928571D01*
X270624285Y-95857142D01*
X270695714Y-95785714D01*
X270767142Y-95642857D01*
X270767142Y-95285714D01*
X270695714Y-95142857D01*
X270624285Y-95071428D01*
X270481428Y-95000000D01*
X270195714Y-95000000D01*
X270052857Y-95071428D01*
X269981428Y-95142857D01*
X269910000Y-95285714D01*
%TO.C,SW1307-F3-key1*%
X264549285Y-83712857D02*
X264049285Y-83712857D01*
X264049285Y-84498571D02*
X264049285Y-82998571D01*
X264763571Y-82998571D01*
X265192142Y-82998571D02*
X266120714Y-82998571D01*
X265620714Y-83570000D01*
X265835000Y-83570000D01*
X265977857Y-83641428D01*
X266049285Y-83712857D01*
X266120714Y-83855714D01*
X266120714Y-84212857D01*
X266049285Y-84355714D01*
X265977857Y-84427142D01*
X265835000Y-84498571D01*
X265406428Y-84498571D01*
X265263571Y-84427142D01*
X265192142Y-84355714D01*
X267977857Y-84498571D02*
X267906428Y-84498571D01*
X267763571Y-84427142D01*
X267549285Y-84212857D01*
X267192142Y-83784285D01*
X267049285Y-83570000D01*
X266977857Y-83355714D01*
X266977857Y-83212857D01*
X267049285Y-83070000D01*
X267192142Y-82998571D01*
X267263571Y-82998571D01*
X267406428Y-83070000D01*
X267477857Y-83212857D01*
X267477857Y-83284285D01*
X267406428Y-83427142D01*
X267335000Y-83498571D01*
X266906428Y-83784285D01*
X266835000Y-83855714D01*
X266763571Y-83998571D01*
X266763571Y-84212857D01*
X266835000Y-84355714D01*
X266906428Y-84427142D01*
X267049285Y-84498571D01*
X267263571Y-84498571D01*
X267406428Y-84427142D01*
X267477857Y-84355714D01*
X267692142Y-84070000D01*
X267763571Y-83855714D01*
X267763571Y-83712857D01*
X269120714Y-83712857D02*
X268620714Y-83712857D01*
X268620714Y-84498571D02*
X268620714Y-82998571D01*
X269335000Y-82998571D01*
X270549285Y-83498571D02*
X270549285Y-84498571D01*
X270192142Y-82927142D02*
X269835000Y-83998571D01*
X270763571Y-83998571D01*
%TO.C,SW1308-F1-Key1*%
X264624285Y-72282857D02*
X264124285Y-72282857D01*
X264124285Y-73068571D02*
X264124285Y-71568571D01*
X264838571Y-71568571D01*
X266195714Y-73068571D02*
X265338571Y-73068571D01*
X265767142Y-73068571D02*
X265767142Y-71568571D01*
X265624285Y-71782857D01*
X265481428Y-71925714D01*
X265338571Y-71997142D01*
X268052857Y-73068571D02*
X267981428Y-73068571D01*
X267838571Y-72997142D01*
X267624285Y-72782857D01*
X267267142Y-72354285D01*
X267124285Y-72140000D01*
X267052857Y-71925714D01*
X267052857Y-71782857D01*
X267124285Y-71640000D01*
X267267142Y-71568571D01*
X267338571Y-71568571D01*
X267481428Y-71640000D01*
X267552857Y-71782857D01*
X267552857Y-71854285D01*
X267481428Y-71997142D01*
X267410000Y-72068571D01*
X266981428Y-72354285D01*
X266910000Y-72425714D01*
X266838571Y-72568571D01*
X266838571Y-72782857D01*
X266910000Y-72925714D01*
X266981428Y-72997142D01*
X267124285Y-73068571D01*
X267338571Y-73068571D01*
X267481428Y-72997142D01*
X267552857Y-72925714D01*
X267767142Y-72640000D01*
X267838571Y-72425714D01*
X267838571Y-72282857D01*
X269195714Y-72282857D02*
X268695714Y-72282857D01*
X268695714Y-73068571D02*
X268695714Y-71568571D01*
X269410000Y-71568571D01*
X269910000Y-71711428D02*
X269981428Y-71640000D01*
X270124285Y-71568571D01*
X270481428Y-71568571D01*
X270624285Y-71640000D01*
X270695714Y-71711428D01*
X270767142Y-71854285D01*
X270767142Y-71997142D01*
X270695714Y-72211428D01*
X269838571Y-73068571D01*
X270767142Y-73068571D01*
%TO.C,SW1309-CrsrUD1*%
D15*
X234069761Y-133707142D02*
X234022142Y-133754761D01*
X233879285Y-133802380D01*
X233784047Y-133802380D01*
X233641190Y-133754761D01*
X233545952Y-133659523D01*
X233498333Y-133564285D01*
X233450714Y-133373809D01*
X233450714Y-133230952D01*
X233498333Y-133040476D01*
X233545952Y-132945238D01*
X233641190Y-132850000D01*
X233784047Y-132802380D01*
X233879285Y-132802380D01*
X234022142Y-132850000D01*
X234069761Y-132897619D01*
X234498333Y-132802380D02*
X234498333Y-133611904D01*
X234545952Y-133707142D01*
X234593571Y-133754761D01*
X234688809Y-133802380D01*
X234879285Y-133802380D01*
X234974523Y-133754761D01*
X235022142Y-133707142D01*
X235069761Y-133611904D01*
X235069761Y-132802380D01*
X236117380Y-133802380D02*
X235784047Y-133326190D01*
X235545952Y-133802380D02*
X235545952Y-132802380D01*
X235926904Y-132802380D01*
X236022142Y-132850000D01*
X236069761Y-132897619D01*
X236117380Y-132992857D01*
X236117380Y-133135714D01*
X236069761Y-133230952D01*
X236022142Y-133278571D01*
X235926904Y-133326190D01*
X235545952Y-133326190D01*
X236498333Y-133754761D02*
X236641190Y-133802380D01*
X236879285Y-133802380D01*
X236974523Y-133754761D01*
X237022142Y-133707142D01*
X237069761Y-133611904D01*
X237069761Y-133516666D01*
X237022142Y-133421428D01*
X236974523Y-133373809D01*
X236879285Y-133326190D01*
X236688809Y-133278571D01*
X236593571Y-133230952D01*
X236545952Y-133183333D01*
X236498333Y-133088095D01*
X236498333Y-132992857D01*
X236545952Y-132897619D01*
X236593571Y-132850000D01*
X236688809Y-132802380D01*
X236926904Y-132802380D01*
X237069761Y-132850000D01*
X237688809Y-132802380D02*
X237879285Y-132802380D01*
X237974523Y-132850000D01*
X238069761Y-132945238D01*
X238117380Y-133135714D01*
X238117380Y-133469047D01*
X238069761Y-133659523D01*
X237974523Y-133754761D01*
X237879285Y-133802380D01*
X237688809Y-133802380D01*
X237593571Y-133754761D01*
X237498333Y-133659523D01*
X237450714Y-133469047D01*
X237450714Y-133135714D01*
X237498333Y-132945238D01*
X237593571Y-132850000D01*
X237688809Y-132802380D01*
X239117380Y-133802380D02*
X238784047Y-133326190D01*
X238545952Y-133802380D02*
X238545952Y-132802380D01*
X238926904Y-132802380D01*
X239022142Y-132850000D01*
X239069761Y-132897619D01*
X239117380Y-132992857D01*
X239117380Y-133135714D01*
X239069761Y-133230952D01*
X239022142Y-133278571D01*
X238926904Y-133326190D01*
X238545952Y-133326190D01*
X239545952Y-133421428D02*
X240307857Y-133421428D01*
X240784047Y-133802380D02*
X240784047Y-132802380D01*
X241022142Y-132802380D01*
X241165000Y-132850000D01*
X241260238Y-132945238D01*
X241307857Y-133040476D01*
X241355476Y-133230952D01*
X241355476Y-133373809D01*
X241307857Y-133564285D01*
X241260238Y-133659523D01*
X241165000Y-133754761D01*
X241022142Y-133802380D01*
X240784047Y-133802380D01*
X241974523Y-132802380D02*
X242165000Y-132802380D01*
X242260238Y-132850000D01*
X242355476Y-132945238D01*
X242403095Y-133135714D01*
X242403095Y-133469047D01*
X242355476Y-133659523D01*
X242260238Y-133754761D01*
X242165000Y-133802380D01*
X241974523Y-133802380D01*
X241879285Y-133754761D01*
X241784047Y-133659523D01*
X241736428Y-133469047D01*
X241736428Y-133135714D01*
X241784047Y-132945238D01*
X241879285Y-132850000D01*
X241974523Y-132802380D01*
X242736428Y-132802380D02*
X242974523Y-133802380D01*
X243165000Y-133088095D01*
X243355476Y-133802380D01*
X243593571Y-132802380D01*
X243974523Y-133802380D02*
X243974523Y-132802380D01*
X244545952Y-133802380D01*
X244545952Y-132802380D01*
X245831666Y-133802380D02*
X245784047Y-133802380D01*
X245688809Y-133754761D01*
X245545952Y-133611904D01*
X245307857Y-133326190D01*
X245212619Y-133183333D01*
X245165000Y-133040476D01*
X245165000Y-132945238D01*
X245212619Y-132850000D01*
X245307857Y-132802380D01*
X245355476Y-132802380D01*
X245450714Y-132850000D01*
X245498333Y-132945238D01*
X245498333Y-132992857D01*
X245450714Y-133088095D01*
X245403095Y-133135714D01*
X245117380Y-133326190D01*
X245069761Y-133373809D01*
X245022142Y-133469047D01*
X245022142Y-133611904D01*
X245069761Y-133707142D01*
X245117380Y-133754761D01*
X245212619Y-133802380D01*
X245355476Y-133802380D01*
X245450714Y-133754761D01*
X245498333Y-133707142D01*
X245641190Y-133516666D01*
X245688809Y-133373809D01*
X245688809Y-133278571D01*
X246260238Y-132802380D02*
X246260238Y-133611904D01*
X246307857Y-133707142D01*
X246355476Y-133754761D01*
X246450714Y-133802380D01*
X246641190Y-133802380D01*
X246736428Y-133754761D01*
X246784047Y-133707142D01*
X246831666Y-133611904D01*
X246831666Y-132802380D01*
X247307857Y-133802380D02*
X247307857Y-132802380D01*
X247688809Y-132802380D01*
X247784047Y-132850000D01*
X247831666Y-132897619D01*
X247879285Y-132992857D01*
X247879285Y-133135714D01*
X247831666Y-133230952D01*
X247784047Y-133278571D01*
X247688809Y-133326190D01*
X247307857Y-133326190D01*
%TO.C,SW1309-CrsrUp1*%
X236882857Y-108307142D02*
X236835238Y-108354761D01*
X236692380Y-108402380D01*
X236597142Y-108402380D01*
X236454285Y-108354761D01*
X236359047Y-108259523D01*
X236311428Y-108164285D01*
X236263809Y-107973809D01*
X236263809Y-107830952D01*
X236311428Y-107640476D01*
X236359047Y-107545238D01*
X236454285Y-107450000D01*
X236597142Y-107402380D01*
X236692380Y-107402380D01*
X236835238Y-107450000D01*
X236882857Y-107497619D01*
X237311428Y-107402380D02*
X237311428Y-108211904D01*
X237359047Y-108307142D01*
X237406666Y-108354761D01*
X237501904Y-108402380D01*
X237692380Y-108402380D01*
X237787619Y-108354761D01*
X237835238Y-108307142D01*
X237882857Y-108211904D01*
X237882857Y-107402380D01*
X238930476Y-108402380D02*
X238597142Y-107926190D01*
X238359047Y-108402380D02*
X238359047Y-107402380D01*
X238740000Y-107402380D01*
X238835238Y-107450000D01*
X238882857Y-107497619D01*
X238930476Y-107592857D01*
X238930476Y-107735714D01*
X238882857Y-107830952D01*
X238835238Y-107878571D01*
X238740000Y-107926190D01*
X238359047Y-107926190D01*
X239311428Y-108354761D02*
X239454285Y-108402380D01*
X239692380Y-108402380D01*
X239787619Y-108354761D01*
X239835238Y-108307142D01*
X239882857Y-108211904D01*
X239882857Y-108116666D01*
X239835238Y-108021428D01*
X239787619Y-107973809D01*
X239692380Y-107926190D01*
X239501904Y-107878571D01*
X239406666Y-107830952D01*
X239359047Y-107783333D01*
X239311428Y-107688095D01*
X239311428Y-107592857D01*
X239359047Y-107497619D01*
X239406666Y-107450000D01*
X239501904Y-107402380D01*
X239740000Y-107402380D01*
X239882857Y-107450000D01*
X240501904Y-107402380D02*
X240692380Y-107402380D01*
X240787619Y-107450000D01*
X240882857Y-107545238D01*
X240930476Y-107735714D01*
X240930476Y-108069047D01*
X240882857Y-108259523D01*
X240787619Y-108354761D01*
X240692380Y-108402380D01*
X240501904Y-108402380D01*
X240406666Y-108354761D01*
X240311428Y-108259523D01*
X240263809Y-108069047D01*
X240263809Y-107735714D01*
X240311428Y-107545238D01*
X240406666Y-107450000D01*
X240501904Y-107402380D01*
X241930476Y-108402380D02*
X241597142Y-107926190D01*
X241359047Y-108402380D02*
X241359047Y-107402380D01*
X241740000Y-107402380D01*
X241835238Y-107450000D01*
X241882857Y-107497619D01*
X241930476Y-107592857D01*
X241930476Y-107735714D01*
X241882857Y-107830952D01*
X241835238Y-107878571D01*
X241740000Y-107926190D01*
X241359047Y-107926190D01*
X242359047Y-108021428D02*
X243120952Y-108021428D01*
X243597142Y-107402380D02*
X243597142Y-108211904D01*
X243644761Y-108307142D01*
X243692380Y-108354761D01*
X243787619Y-108402380D01*
X243978095Y-108402380D01*
X244073333Y-108354761D01*
X244120952Y-108307142D01*
X244168571Y-108211904D01*
X244168571Y-107402380D01*
X244644761Y-108402380D02*
X244644761Y-107402380D01*
X245025714Y-107402380D01*
X245120952Y-107450000D01*
X245168571Y-107497619D01*
X245216190Y-107592857D01*
X245216190Y-107735714D01*
X245168571Y-107830952D01*
X245120952Y-107878571D01*
X245025714Y-107926190D01*
X244644761Y-107926190D01*
%TO.C,SW1310-CrsrLeft1*%
X228620000Y-121007142D02*
X228572380Y-121054761D01*
X228429523Y-121102380D01*
X228334285Y-121102380D01*
X228191428Y-121054761D01*
X228096190Y-120959523D01*
X228048571Y-120864285D01*
X228000952Y-120673809D01*
X228000952Y-120530952D01*
X228048571Y-120340476D01*
X228096190Y-120245238D01*
X228191428Y-120150000D01*
X228334285Y-120102380D01*
X228429523Y-120102380D01*
X228572380Y-120150000D01*
X228620000Y-120197619D01*
X229048571Y-120102380D02*
X229048571Y-120911904D01*
X229096190Y-121007142D01*
X229143809Y-121054761D01*
X229239047Y-121102380D01*
X229429523Y-121102380D01*
X229524761Y-121054761D01*
X229572380Y-121007142D01*
X229620000Y-120911904D01*
X229620000Y-120102380D01*
X230667619Y-121102380D02*
X230334285Y-120626190D01*
X230096190Y-121102380D02*
X230096190Y-120102380D01*
X230477142Y-120102380D01*
X230572380Y-120150000D01*
X230620000Y-120197619D01*
X230667619Y-120292857D01*
X230667619Y-120435714D01*
X230620000Y-120530952D01*
X230572380Y-120578571D01*
X230477142Y-120626190D01*
X230096190Y-120626190D01*
X231048571Y-121054761D02*
X231191428Y-121102380D01*
X231429523Y-121102380D01*
X231524761Y-121054761D01*
X231572380Y-121007142D01*
X231620000Y-120911904D01*
X231620000Y-120816666D01*
X231572380Y-120721428D01*
X231524761Y-120673809D01*
X231429523Y-120626190D01*
X231239047Y-120578571D01*
X231143809Y-120530952D01*
X231096190Y-120483333D01*
X231048571Y-120388095D01*
X231048571Y-120292857D01*
X231096190Y-120197619D01*
X231143809Y-120150000D01*
X231239047Y-120102380D01*
X231477142Y-120102380D01*
X231620000Y-120150000D01*
X232239047Y-120102380D02*
X232429523Y-120102380D01*
X232524761Y-120150000D01*
X232620000Y-120245238D01*
X232667619Y-120435714D01*
X232667619Y-120769047D01*
X232620000Y-120959523D01*
X232524761Y-121054761D01*
X232429523Y-121102380D01*
X232239047Y-121102380D01*
X232143809Y-121054761D01*
X232048571Y-120959523D01*
X232000952Y-120769047D01*
X232000952Y-120435714D01*
X232048571Y-120245238D01*
X232143809Y-120150000D01*
X232239047Y-120102380D01*
X233667619Y-121102380D02*
X233334285Y-120626190D01*
X233096190Y-121102380D02*
X233096190Y-120102380D01*
X233477142Y-120102380D01*
X233572380Y-120150000D01*
X233620000Y-120197619D01*
X233667619Y-120292857D01*
X233667619Y-120435714D01*
X233620000Y-120530952D01*
X233572380Y-120578571D01*
X233477142Y-120626190D01*
X233096190Y-120626190D01*
X234096190Y-120721428D02*
X234858095Y-120721428D01*
X235810476Y-121102380D02*
X235334285Y-121102380D01*
X235334285Y-120102380D01*
X236143809Y-120578571D02*
X236477142Y-120578571D01*
X236620000Y-121102380D02*
X236143809Y-121102380D01*
X236143809Y-120102380D01*
X236620000Y-120102380D01*
X237381904Y-120578571D02*
X237048571Y-120578571D01*
X237048571Y-121102380D02*
X237048571Y-120102380D01*
X237524761Y-120102380D01*
X237762857Y-120102380D02*
X238334285Y-120102380D01*
X238048571Y-121102380D02*
X238048571Y-120102380D01*
%TO.C,SW1310-CrsrLR1*%
X241098095Y-121007142D02*
X241050476Y-121054761D01*
X240907619Y-121102380D01*
X240812380Y-121102380D01*
X240669523Y-121054761D01*
X240574285Y-120959523D01*
X240526666Y-120864285D01*
X240479047Y-120673809D01*
X240479047Y-120530952D01*
X240526666Y-120340476D01*
X240574285Y-120245238D01*
X240669523Y-120150000D01*
X240812380Y-120102380D01*
X240907619Y-120102380D01*
X241050476Y-120150000D01*
X241098095Y-120197619D01*
X241526666Y-120102380D02*
X241526666Y-120911904D01*
X241574285Y-121007142D01*
X241621904Y-121054761D01*
X241717142Y-121102380D01*
X241907619Y-121102380D01*
X242002857Y-121054761D01*
X242050476Y-121007142D01*
X242098095Y-120911904D01*
X242098095Y-120102380D01*
X243145714Y-121102380D02*
X242812380Y-120626190D01*
X242574285Y-121102380D02*
X242574285Y-120102380D01*
X242955238Y-120102380D01*
X243050476Y-120150000D01*
X243098095Y-120197619D01*
X243145714Y-120292857D01*
X243145714Y-120435714D01*
X243098095Y-120530952D01*
X243050476Y-120578571D01*
X242955238Y-120626190D01*
X242574285Y-120626190D01*
X243526666Y-121054761D02*
X243669523Y-121102380D01*
X243907619Y-121102380D01*
X244002857Y-121054761D01*
X244050476Y-121007142D01*
X244098095Y-120911904D01*
X244098095Y-120816666D01*
X244050476Y-120721428D01*
X244002857Y-120673809D01*
X243907619Y-120626190D01*
X243717142Y-120578571D01*
X243621904Y-120530952D01*
X243574285Y-120483333D01*
X243526666Y-120388095D01*
X243526666Y-120292857D01*
X243574285Y-120197619D01*
X243621904Y-120150000D01*
X243717142Y-120102380D01*
X243955238Y-120102380D01*
X244098095Y-120150000D01*
X244717142Y-120102380D02*
X244907619Y-120102380D01*
X245002857Y-120150000D01*
X245098095Y-120245238D01*
X245145714Y-120435714D01*
X245145714Y-120769047D01*
X245098095Y-120959523D01*
X245002857Y-121054761D01*
X244907619Y-121102380D01*
X244717142Y-121102380D01*
X244621904Y-121054761D01*
X244526666Y-120959523D01*
X244479047Y-120769047D01*
X244479047Y-120435714D01*
X244526666Y-120245238D01*
X244621904Y-120150000D01*
X244717142Y-120102380D01*
X246145714Y-121102380D02*
X245812380Y-120626190D01*
X245574285Y-121102380D02*
X245574285Y-120102380D01*
X245955238Y-120102380D01*
X246050476Y-120150000D01*
X246098095Y-120197619D01*
X246145714Y-120292857D01*
X246145714Y-120435714D01*
X246098095Y-120530952D01*
X246050476Y-120578571D01*
X245955238Y-120626190D01*
X245574285Y-120626190D01*
X246574285Y-120721428D02*
X247336190Y-120721428D01*
X248383809Y-121102380D02*
X248050476Y-120626190D01*
X247812380Y-121102380D02*
X247812380Y-120102380D01*
X248193333Y-120102380D01*
X248288571Y-120150000D01*
X248336190Y-120197619D01*
X248383809Y-120292857D01*
X248383809Y-120435714D01*
X248336190Y-120530952D01*
X248288571Y-120578571D01*
X248193333Y-120626190D01*
X247812380Y-120626190D01*
X248812380Y-121102380D02*
X248812380Y-120102380D01*
X249812380Y-120150000D02*
X249717142Y-120102380D01*
X249574285Y-120102380D01*
X249431428Y-120150000D01*
X249336190Y-120245238D01*
X249288571Y-120340476D01*
X249240952Y-120530952D01*
X249240952Y-120673809D01*
X249288571Y-120864285D01*
X249336190Y-120959523D01*
X249431428Y-121054761D01*
X249574285Y-121102380D01*
X249669523Y-121102380D01*
X249812380Y-121054761D01*
X249860000Y-121007142D01*
X249860000Y-120673809D01*
X249669523Y-120673809D01*
X250288571Y-121102380D02*
X250288571Y-120102380D01*
X250288571Y-120578571D02*
X250860000Y-120578571D01*
X250860000Y-121102380D02*
X250860000Y-120102380D01*
X251193333Y-120102380D02*
X251764761Y-120102380D01*
X251479047Y-121102380D02*
X251479047Y-120102380D01*
X252907619Y-121102380D02*
X252860000Y-121102380D01*
X252764761Y-121054761D01*
X252621904Y-120911904D01*
X252383809Y-120626190D01*
X252288571Y-120483333D01*
X252240952Y-120340476D01*
X252240952Y-120245238D01*
X252288571Y-120150000D01*
X252383809Y-120102380D01*
X252431428Y-120102380D01*
X252526666Y-120150000D01*
X252574285Y-120245238D01*
X252574285Y-120292857D01*
X252526666Y-120388095D01*
X252479047Y-120435714D01*
X252193333Y-120626190D01*
X252145714Y-120673809D01*
X252098095Y-120769047D01*
X252098095Y-120911904D01*
X252145714Y-121007142D01*
X252193333Y-121054761D01*
X252288571Y-121102380D01*
X252431428Y-121102380D01*
X252526666Y-121054761D01*
X252574285Y-121007142D01*
X252717142Y-120816666D01*
X252764761Y-120673809D01*
X252764761Y-120578571D01*
X253812380Y-121102380D02*
X253336190Y-121102380D01*
X253336190Y-120102380D01*
X254145714Y-120578571D02*
X254479047Y-120578571D01*
X254621904Y-121102380D02*
X254145714Y-121102380D01*
X254145714Y-120102380D01*
X254621904Y-120102380D01*
X255383809Y-120578571D02*
X255050476Y-120578571D01*
X255050476Y-121102380D02*
X255050476Y-120102380D01*
X255526666Y-120102380D01*
X255764761Y-120102380D02*
X256336190Y-120102380D01*
X256050476Y-121102380D02*
X256050476Y-120102380D01*
%TO.C,SW1311-Return1*%
D14*
X228742857Y-95928571D02*
X228242857Y-95214285D01*
X227885714Y-95928571D02*
X227885714Y-94428571D01*
X228457142Y-94428571D01*
X228600000Y-94500000D01*
X228671428Y-94571428D01*
X228742857Y-94714285D01*
X228742857Y-94928571D01*
X228671428Y-95071428D01*
X228600000Y-95142857D01*
X228457142Y-95214285D01*
X227885714Y-95214285D01*
X229385714Y-95142857D02*
X229885714Y-95142857D01*
X230100000Y-95928571D02*
X229385714Y-95928571D01*
X229385714Y-94428571D01*
X230100000Y-94428571D01*
X230528571Y-94428571D02*
X231385714Y-94428571D01*
X230957142Y-95928571D02*
X230957142Y-94428571D01*
X231885714Y-94428571D02*
X231885714Y-95642857D01*
X231957142Y-95785714D01*
X232028571Y-95857142D01*
X232171428Y-95928571D01*
X232457142Y-95928571D01*
X232600000Y-95857142D01*
X232671428Y-95785714D01*
X232742857Y-95642857D01*
X232742857Y-94428571D01*
X234314285Y-95928571D02*
X233814285Y-95214285D01*
X233457142Y-95928571D02*
X233457142Y-94428571D01*
X234028571Y-94428571D01*
X234171428Y-94500000D01*
X234242857Y-94571428D01*
X234314285Y-94714285D01*
X234314285Y-94928571D01*
X234242857Y-95071428D01*
X234171428Y-95142857D01*
X234028571Y-95214285D01*
X233457142Y-95214285D01*
X234957142Y-95928571D02*
X234957142Y-94428571D01*
X235814285Y-95928571D01*
X235814285Y-94428571D01*
%TO.C,SW1312-InstDel1*%
X238387142Y-73068571D02*
X238387142Y-71568571D01*
X239101428Y-73068571D02*
X239101428Y-71568571D01*
X239958571Y-73068571D01*
X239958571Y-71568571D01*
X240601428Y-72997142D02*
X240815714Y-73068571D01*
X241172857Y-73068571D01*
X241315714Y-72997142D01*
X241387142Y-72925714D01*
X241458571Y-72782857D01*
X241458571Y-72640000D01*
X241387142Y-72497142D01*
X241315714Y-72425714D01*
X241172857Y-72354285D01*
X240887142Y-72282857D01*
X240744285Y-72211428D01*
X240672857Y-72140000D01*
X240601428Y-71997142D01*
X240601428Y-71854285D01*
X240672857Y-71711428D01*
X240744285Y-71640000D01*
X240887142Y-71568571D01*
X241244285Y-71568571D01*
X241458571Y-71640000D01*
X241887142Y-71568571D02*
X242744285Y-71568571D01*
X242315714Y-73068571D02*
X242315714Y-71568571D01*
X244315714Y-71497142D02*
X243030000Y-73425714D01*
X244815714Y-73068571D02*
X244815714Y-71568571D01*
X245172857Y-71568571D01*
X245387142Y-71640000D01*
X245530000Y-71782857D01*
X245601428Y-71925714D01*
X245672857Y-72211428D01*
X245672857Y-72425714D01*
X245601428Y-72711428D01*
X245530000Y-72854285D01*
X245387142Y-72997142D01*
X245172857Y-73068571D01*
X244815714Y-73068571D01*
X246315714Y-72282857D02*
X246815714Y-72282857D01*
X247030000Y-73068571D02*
X246315714Y-73068571D01*
X246315714Y-71568571D01*
X247030000Y-71568571D01*
X248387142Y-73068571D02*
X247672857Y-73068571D01*
X247672857Y-71568571D01*
%TO.C,SW1405-ClrHome1*%
X224449285Y-72925714D02*
X224377857Y-72997142D01*
X224163571Y-73068571D01*
X224020714Y-73068571D01*
X223806428Y-72997142D01*
X223663571Y-72854285D01*
X223592142Y-72711428D01*
X223520714Y-72425714D01*
X223520714Y-72211428D01*
X223592142Y-71925714D01*
X223663571Y-71782857D01*
X223806428Y-71640000D01*
X224020714Y-71568571D01*
X224163571Y-71568571D01*
X224377857Y-71640000D01*
X224449285Y-71711428D01*
X225806428Y-73068571D02*
X225092142Y-73068571D01*
X225092142Y-71568571D01*
X227163571Y-73068571D02*
X226663571Y-72354285D01*
X226306428Y-73068571D02*
X226306428Y-71568571D01*
X226877857Y-71568571D01*
X227020714Y-71640000D01*
X227092142Y-71711428D01*
X227163571Y-71854285D01*
X227163571Y-72068571D01*
X227092142Y-72211428D01*
X227020714Y-72282857D01*
X226877857Y-72354285D01*
X226306428Y-72354285D01*
X228877857Y-71497142D02*
X227592142Y-73425714D01*
X229377857Y-73068571D02*
X229377857Y-71568571D01*
X229377857Y-72282857D02*
X230235000Y-72282857D01*
X230235000Y-73068571D02*
X230235000Y-71568571D01*
X231235000Y-71568571D02*
X231520714Y-71568571D01*
X231663571Y-71640000D01*
X231806428Y-71782857D01*
X231877857Y-72068571D01*
X231877857Y-72568571D01*
X231806428Y-72854285D01*
X231663571Y-72997142D01*
X231520714Y-73068571D01*
X231235000Y-73068571D01*
X231092142Y-72997142D01*
X230949285Y-72854285D01*
X230877857Y-72568571D01*
X230877857Y-72068571D01*
X230949285Y-71782857D01*
X231092142Y-71640000D01*
X231235000Y-71568571D01*
X232520714Y-73068571D02*
X232520714Y-71568571D01*
X233020714Y-72640000D01*
X233520714Y-71568571D01*
X233520714Y-73068571D01*
X234235000Y-72282857D02*
X234735000Y-72282857D01*
X234949285Y-73068571D02*
X234235000Y-73068571D01*
X234235000Y-71568571D01*
X234949285Y-71568571D01*
%TO.C,SW1406-UpArrow1*%
D16*
X220047142Y-84796142D02*
X220047142Y-82510428D01*
X219475714Y-83081857D02*
X220047142Y-82510428D01*
X220618571Y-83081857D01*
X224190000Y-82796142D02*
X224190000Y-84796142D01*
X223190000Y-82796142D02*
X223190000Y-84367571D01*
X223047142Y-84653285D01*
X222761428Y-84796142D01*
X224761428Y-82796142D02*
X222904285Y-82796142D01*
X222618571Y-82939000D01*
X222475714Y-83224714D01*
%TO.C,SW1407-Key=1*%
D11*
X210693095Y-95107142D02*
X212216904Y-95107142D01*
X212216904Y-95678571D02*
X210693095Y-95678571D01*
%TO.C,SW1408-RShift1*%
D14*
X204299285Y-107287142D02*
X204513571Y-107358571D01*
X204870714Y-107358571D01*
X205013571Y-107287142D01*
X205085000Y-107215714D01*
X205156428Y-107072857D01*
X205156428Y-106930000D01*
X205085000Y-106787142D01*
X205013571Y-106715714D01*
X204870714Y-106644285D01*
X204585000Y-106572857D01*
X204442142Y-106501428D01*
X204370714Y-106430000D01*
X204299285Y-106287142D01*
X204299285Y-106144285D01*
X204370714Y-106001428D01*
X204442142Y-105930000D01*
X204585000Y-105858571D01*
X204942142Y-105858571D01*
X205156428Y-105930000D01*
X205799285Y-107358571D02*
X205799285Y-105858571D01*
X205799285Y-106572857D02*
X206656428Y-106572857D01*
X206656428Y-107358571D02*
X206656428Y-105858571D01*
X207370714Y-107358571D02*
X207370714Y-105858571D01*
X208585000Y-106572857D02*
X208085000Y-106572857D01*
X208085000Y-107358571D02*
X208085000Y-105858571D01*
X208799285Y-105858571D01*
X209156428Y-105858571D02*
X210013571Y-105858571D01*
X209585000Y-107358571D02*
X209585000Y-105858571D01*
%TO.C,SW1409-Key/1*%
D11*
X189940000Y-105489523D02*
X188225714Y-108060952D01*
X190892380Y-107394285D02*
X190987619Y-107489523D01*
X190892380Y-107584761D01*
X190797142Y-107489523D01*
X190892380Y-107394285D01*
X190892380Y-107584761D01*
X190511428Y-105680000D02*
X190701904Y-105584761D01*
X191178095Y-105584761D01*
X191368571Y-105680000D01*
X191463809Y-105870476D01*
X191463809Y-106060952D01*
X191368571Y-106251428D01*
X191273333Y-106346666D01*
X191082857Y-106441904D01*
X190987619Y-106537142D01*
X190892380Y-106727619D01*
X190892380Y-106822857D01*
%TO.C,SW1410-Key;1*%
X196988571Y-96059523D02*
X196988571Y-96154761D01*
X196893333Y-96345238D01*
X196798095Y-96440476D01*
X196893333Y-94916666D02*
X196988571Y-95011904D01*
X196893333Y-95107142D01*
X196798095Y-95011904D01*
X196893333Y-94916666D01*
X196893333Y-95107142D01*
X197655238Y-96821428D02*
X198131428Y-96821428D01*
X198131428Y-93964285D01*
X197655238Y-93964285D01*
%TO.C,SW1411-Key\u002A1*%
D17*
X207645000Y-82899523D02*
X207645000Y-83851904D01*
X206692619Y-83470952D02*
X207645000Y-83851904D01*
X208597380Y-83470952D01*
X207073571Y-84613809D02*
X207645000Y-83851904D01*
X208216428Y-84613809D01*
%TO.C,SW1412-KeyPound1*%
D11*
X214816190Y-71961428D02*
X215578095Y-71961428D01*
X214816190Y-73294761D02*
X215863809Y-73294761D01*
X215101904Y-73294761D02*
X215101904Y-71580476D01*
X215197142Y-71390000D01*
X215387619Y-71294761D01*
X215673333Y-71294761D01*
X215863809Y-71390000D01*
%TO.C,SW1505-Key-1*%
X200608095Y-72532857D02*
X202131904Y-72532857D01*
%TO.C,SW1506-Key@1*%
X194178571Y-83772380D02*
X194083333Y-83677142D01*
X193892857Y-83581904D01*
X193702380Y-83581904D01*
X193511904Y-83677142D01*
X193416666Y-83772380D01*
X193321428Y-83962857D01*
X193321428Y-84153333D01*
X193416666Y-84343809D01*
X193511904Y-84439047D01*
X193702380Y-84534285D01*
X193892857Y-84534285D01*
X194083333Y-84439047D01*
X194178571Y-84343809D01*
X194178571Y-83581904D02*
X194178571Y-84343809D01*
X194273809Y-84439047D01*
X194369047Y-84439047D01*
X194559523Y-84343809D01*
X194654761Y-84153333D01*
X194654761Y-83677142D01*
X194464285Y-83391428D01*
X194178571Y-83200952D01*
X193797619Y-83105714D01*
X193416666Y-83200952D01*
X193130952Y-83391428D01*
X192940476Y-83677142D01*
X192845238Y-84058095D01*
X192940476Y-84439047D01*
X193130952Y-84724761D01*
X193416666Y-84915238D01*
X193797619Y-85010476D01*
X194178571Y-84915238D01*
X194464285Y-84724761D01*
%TO.C,SW1507-Key:1*%
X182923333Y-95964285D02*
X183018571Y-96059523D01*
X182923333Y-96154761D01*
X182828095Y-96059523D01*
X182923333Y-95964285D01*
X182923333Y-96154761D01*
X182923333Y-94916666D02*
X183018571Y-95011904D01*
X182923333Y-95107142D01*
X182828095Y-95011904D01*
X182923333Y-94916666D01*
X182923333Y-95107142D01*
X184447142Y-96821428D02*
X183970952Y-96821428D01*
X183970952Y-93964285D01*
X184447142Y-93964285D01*
%TO.C,SW1508-Key.1*%
X174731904Y-106759285D02*
X174827142Y-106854523D01*
X174731904Y-106949761D01*
X174636666Y-106854523D01*
X174731904Y-106759285D01*
X174731904Y-106949761D01*
X175684285Y-105616428D02*
X177208095Y-106187857D01*
X175684285Y-106759285D01*
%TO.C,SW1509-Key\u002C1*%
X160782142Y-106854523D02*
X160782142Y-106949761D01*
X160686904Y-107140238D01*
X160591666Y-107235476D01*
X163163095Y-105616428D02*
X161639285Y-106187857D01*
X163163095Y-106759285D01*
%TO.C,SW1510-KeyL1*%
X170239047Y-96154761D02*
X169286666Y-96154761D01*
X169286666Y-94154761D01*
%TO.C,SW1511-KeyP1*%
X179256190Y-84724761D02*
X179256190Y-82724761D01*
X180018095Y-82724761D01*
X180208571Y-82820000D01*
X180303809Y-82915238D01*
X180399047Y-83105714D01*
X180399047Y-83391428D01*
X180303809Y-83581904D01*
X180208571Y-83677142D01*
X180018095Y-83772380D01*
X179256190Y-83772380D01*
%TO.C,SW1512-Key+1*%
X186638095Y-72532857D02*
X188161904Y-72532857D01*
X187400000Y-73294761D02*
X187400000Y-71770952D01*
%TO.C,SW1605-0-key1*%
X173334761Y-71294761D02*
X173525238Y-71294761D01*
X173715714Y-71390000D01*
X173810952Y-71485238D01*
X173906190Y-71675714D01*
X174001428Y-72056666D01*
X174001428Y-72532857D01*
X173906190Y-72913809D01*
X173810952Y-73104285D01*
X173715714Y-73199523D01*
X173525238Y-73294761D01*
X173334761Y-73294761D01*
X173144285Y-73199523D01*
X173049047Y-73104285D01*
X172953809Y-72913809D01*
X172858571Y-72532857D01*
X172858571Y-72056666D01*
X172953809Y-71675714D01*
X173049047Y-71485238D01*
X173144285Y-71390000D01*
X173334761Y-71294761D01*
%TO.C,SW1606-KeyO1*%
X165619523Y-82724761D02*
X166000476Y-82724761D01*
X166190952Y-82820000D01*
X166381428Y-83010476D01*
X166476666Y-83391428D01*
X166476666Y-84058095D01*
X166381428Y-84439047D01*
X166190952Y-84629523D01*
X166000476Y-84724761D01*
X165619523Y-84724761D01*
X165429047Y-84629523D01*
X165238571Y-84439047D01*
X165143333Y-84058095D01*
X165143333Y-83391428D01*
X165238571Y-83010476D01*
X165429047Y-82820000D01*
X165619523Y-82724761D01*
%TO.C,SW1607-KeyK1*%
X155126190Y-96154761D02*
X155126190Y-94154761D01*
X156269047Y-96154761D02*
X155411904Y-95011904D01*
X156269047Y-94154761D02*
X155126190Y-95297619D01*
%TO.C,SW1608-KeyM1*%
X147363333Y-107584761D02*
X147363333Y-105584761D01*
X148030000Y-107013333D01*
X148696666Y-105584761D01*
X148696666Y-107584761D01*
%TO.C,SW1609-KeyN1*%
X133413571Y-107584761D02*
X133413571Y-105584761D01*
X134556428Y-107584761D01*
X134556428Y-105584761D01*
%TO.C,SW1610-KeyJ1*%
X142525714Y-94154761D02*
X142525714Y-95583333D01*
X142430476Y-95869047D01*
X142240000Y-96059523D01*
X141954285Y-96154761D01*
X141763809Y-96154761D01*
%TO.C,SW1611-KeyI1*%
X151840000Y-84724761D02*
X151840000Y-82724761D01*
%TO.C,SW1612-9-key1*%
X158412380Y-73294761D02*
X158793333Y-73294761D01*
X158983809Y-73199523D01*
X159079047Y-73104285D01*
X159269523Y-72818571D01*
X159364761Y-72437619D01*
X159364761Y-71675714D01*
X159269523Y-71485238D01*
X159174285Y-71390000D01*
X158983809Y-71294761D01*
X158602857Y-71294761D01*
X158412380Y-71390000D01*
X158317142Y-71485238D01*
X158221904Y-71675714D01*
X158221904Y-72151904D01*
X158317142Y-72342380D01*
X158412380Y-72437619D01*
X158602857Y-72532857D01*
X158983809Y-72532857D01*
X159174285Y-72437619D01*
X159269523Y-72342380D01*
X159364761Y-72151904D01*
X160031428Y-74056666D02*
X160126666Y-73961428D01*
X160317142Y-73675714D01*
X160412380Y-73485238D01*
X160507619Y-73199523D01*
X160602857Y-72723333D01*
X160602857Y-72342380D01*
X160507619Y-71866190D01*
X160412380Y-71580476D01*
X160317142Y-71390000D01*
X160126666Y-71104285D01*
X160031428Y-71009047D01*
%TO.C,SW1705-8-key1*%
X144632857Y-72151904D02*
X144442380Y-72056666D01*
X144347142Y-71961428D01*
X144251904Y-71770952D01*
X144251904Y-71675714D01*
X144347142Y-71485238D01*
X144442380Y-71390000D01*
X144632857Y-71294761D01*
X145013809Y-71294761D01*
X145204285Y-71390000D01*
X145299523Y-71485238D01*
X145394761Y-71675714D01*
X145394761Y-71770952D01*
X145299523Y-71961428D01*
X145204285Y-72056666D01*
X145013809Y-72151904D01*
X144632857Y-72151904D01*
X144442380Y-72247142D01*
X144347142Y-72342380D01*
X144251904Y-72532857D01*
X144251904Y-72913809D01*
X144347142Y-73104285D01*
X144442380Y-73199523D01*
X144632857Y-73294761D01*
X145013809Y-73294761D01*
X145204285Y-73199523D01*
X145299523Y-73104285D01*
X145394761Y-72913809D01*
X145394761Y-72532857D01*
X145299523Y-72342380D01*
X145204285Y-72247142D01*
X145013809Y-72151904D01*
X146823333Y-74056666D02*
X146728095Y-73961428D01*
X146537619Y-73675714D01*
X146442380Y-73485238D01*
X146347142Y-73199523D01*
X146251904Y-72723333D01*
X146251904Y-72342380D01*
X146347142Y-71866190D01*
X146442380Y-71580476D01*
X146537619Y-71390000D01*
X146728095Y-71104285D01*
X146823333Y-71009047D01*
%TO.C,SW1706-KeyU1*%
X137298571Y-82724761D02*
X137298571Y-84343809D01*
X137393809Y-84534285D01*
X137489047Y-84629523D01*
X137679523Y-84724761D01*
X138060476Y-84724761D01*
X138250952Y-84629523D01*
X138346190Y-84534285D01*
X138441428Y-84343809D01*
X138441428Y-82724761D01*
%TO.C,SW1707-KeyH1*%
X127138571Y-96154761D02*
X127138571Y-94154761D01*
X127138571Y-95107142D02*
X128281428Y-95107142D01*
X128281428Y-96154761D02*
X128281428Y-94154761D01*
%TO.C,SW1708-KeyB1*%
X120157857Y-106537142D02*
X120443571Y-106632380D01*
X120538809Y-106727619D01*
X120634047Y-106918095D01*
X120634047Y-107203809D01*
X120538809Y-107394285D01*
X120443571Y-107489523D01*
X120253095Y-107584761D01*
X119491190Y-107584761D01*
X119491190Y-105584761D01*
X120157857Y-105584761D01*
X120348333Y-105680000D01*
X120443571Y-105775238D01*
X120538809Y-105965714D01*
X120538809Y-106156190D01*
X120443571Y-106346666D01*
X120348333Y-106441904D01*
X120157857Y-106537142D01*
X119491190Y-106537142D01*
%TO.C,SW1709-KeyV1*%
X105378333Y-105584761D02*
X106045000Y-107584761D01*
X106711666Y-105584761D01*
%TO.C,SW1710-KeyG1*%
X114263809Y-94250000D02*
X114073333Y-94154761D01*
X113787619Y-94154761D01*
X113501904Y-94250000D01*
X113311428Y-94440476D01*
X113216190Y-94630952D01*
X113120952Y-95011904D01*
X113120952Y-95297619D01*
X113216190Y-95678571D01*
X113311428Y-95869047D01*
X113501904Y-96059523D01*
X113787619Y-96154761D01*
X113978095Y-96154761D01*
X114263809Y-96059523D01*
X114359047Y-95964285D01*
X114359047Y-95297619D01*
X113978095Y-95297619D01*
%TO.C,SW1711-KeyY1*%
X123900000Y-83772380D02*
X123900000Y-84724761D01*
X123233333Y-82724761D02*
X123900000Y-83772380D01*
X124566666Y-82724761D01*
%TO.C,SW1712-7-key1*%
X130377142Y-71294761D02*
X131710476Y-71294761D01*
X130853333Y-73294761D01*
X132567619Y-71294761D02*
X132377142Y-71675714D01*
%TO.C,SW1805-6-key1*%
X116692857Y-71294761D02*
X116311904Y-71294761D01*
X116121428Y-71390000D01*
X116026190Y-71485238D01*
X115835714Y-71770952D01*
X115740476Y-72151904D01*
X115740476Y-72913809D01*
X115835714Y-73104285D01*
X115930952Y-73199523D01*
X116121428Y-73294761D01*
X116502380Y-73294761D01*
X116692857Y-73199523D01*
X116788095Y-73104285D01*
X116883333Y-72913809D01*
X116883333Y-72437619D01*
X116788095Y-72247142D01*
X116692857Y-72151904D01*
X116502380Y-72056666D01*
X116121428Y-72056666D01*
X115930952Y-72151904D01*
X115835714Y-72247142D01*
X115740476Y-72437619D01*
X119359523Y-73294761D02*
X119264285Y-73294761D01*
X119073809Y-73199523D01*
X118788095Y-72913809D01*
X118311904Y-72342380D01*
X118121428Y-72056666D01*
X118026190Y-71770952D01*
X118026190Y-71580476D01*
X118121428Y-71390000D01*
X118311904Y-71294761D01*
X118407142Y-71294761D01*
X118597619Y-71390000D01*
X118692857Y-71580476D01*
X118692857Y-71675714D01*
X118597619Y-71866190D01*
X118502380Y-71961428D01*
X117930952Y-72342380D01*
X117835714Y-72437619D01*
X117740476Y-72628095D01*
X117740476Y-72913809D01*
X117835714Y-73104285D01*
X117930952Y-73199523D01*
X118121428Y-73294761D01*
X118407142Y-73294761D01*
X118597619Y-73199523D01*
X118692857Y-73104285D01*
X118978571Y-72723333D01*
X119073809Y-72437619D01*
X119073809Y-72247142D01*
%TO.C,SW1806-KeyT1*%
X109358571Y-82724761D02*
X110501428Y-82724761D01*
X109930000Y-84724761D02*
X109930000Y-82724761D01*
%TO.C,SW1807-F-key1*%
X100055714Y-95107142D02*
X99389047Y-95107142D01*
X99389047Y-96154761D02*
X99389047Y-94154761D01*
X100341428Y-94154761D01*
%TO.C,SW1808-KeyC1*%
X92694047Y-107394285D02*
X92598809Y-107489523D01*
X92313095Y-107584761D01*
X92122619Y-107584761D01*
X91836904Y-107489523D01*
X91646428Y-107299047D01*
X91551190Y-107108571D01*
X91455952Y-106727619D01*
X91455952Y-106441904D01*
X91551190Y-106060952D01*
X91646428Y-105870476D01*
X91836904Y-105680000D01*
X92122619Y-105584761D01*
X92313095Y-105584761D01*
X92598809Y-105680000D01*
X92694047Y-105775238D01*
%TO.C,SW1809-KeyX1*%
X77513333Y-105584761D02*
X78846666Y-107584761D01*
X78846666Y-105584761D02*
X77513333Y-107584761D01*
%TO.C,SW1810-KeyD1*%
X85276190Y-96154761D02*
X85276190Y-94154761D01*
X85752380Y-94154761D01*
X86038095Y-94250000D01*
X86228571Y-94440476D01*
X86323809Y-94630952D01*
X86419047Y-95011904D01*
X86419047Y-95297619D01*
X86323809Y-95678571D01*
X86228571Y-95869047D01*
X86038095Y-96059523D01*
X85752380Y-96154761D01*
X85276190Y-96154761D01*
%TO.C,SW1811-KeyR1*%
X96579047Y-84724761D02*
X95912380Y-83772380D01*
X95436190Y-84724761D02*
X95436190Y-82724761D01*
X96198095Y-82724761D01*
X96388571Y-82820000D01*
X96483809Y-82915238D01*
X96579047Y-83105714D01*
X96579047Y-83391428D01*
X96483809Y-83581904D01*
X96388571Y-83677142D01*
X96198095Y-83772380D01*
X95436190Y-83772380D01*
%TO.C,SW1812-5-key1*%
X102913333Y-71294761D02*
X101960952Y-71294761D01*
X101865714Y-72247142D01*
X101960952Y-72151904D01*
X102151428Y-72056666D01*
X102627619Y-72056666D01*
X102818095Y-72151904D01*
X102913333Y-72247142D01*
X103008571Y-72437619D01*
X103008571Y-72913809D01*
X102913333Y-73104285D01*
X102818095Y-73199523D01*
X102627619Y-73294761D01*
X102151428Y-73294761D01*
X101960952Y-73199523D01*
X101865714Y-73104285D01*
X103770476Y-73294761D02*
X105294285Y-71294761D01*
X104056190Y-71294761D02*
X104246666Y-71390000D01*
X104341904Y-71580476D01*
X104246666Y-71770952D01*
X104056190Y-71866190D01*
X103865714Y-71770952D01*
X103770476Y-71580476D01*
X103865714Y-71390000D01*
X104056190Y-71294761D01*
X105199047Y-73199523D02*
X105294285Y-73009047D01*
X105199047Y-72818571D01*
X105008571Y-72723333D01*
X104818095Y-72818571D01*
X104722857Y-73009047D01*
X104818095Y-73199523D01*
X105008571Y-73294761D01*
X105199047Y-73199523D01*
%TO.C,SW1905-4-key1*%
X89038571Y-71961428D02*
X89038571Y-73294761D01*
X88562380Y-71199523D02*
X88086190Y-72628095D01*
X89324285Y-72628095D01*
X89990952Y-73199523D02*
X90276666Y-73294761D01*
X90752857Y-73294761D01*
X90943333Y-73199523D01*
X91038571Y-73104285D01*
X91133809Y-72913809D01*
X91133809Y-72723333D01*
X91038571Y-72532857D01*
X90943333Y-72437619D01*
X90752857Y-72342380D01*
X90371904Y-72247142D01*
X90181428Y-72151904D01*
X90086190Y-72056666D01*
X89990952Y-71866190D01*
X89990952Y-71675714D01*
X90086190Y-71485238D01*
X90181428Y-71390000D01*
X90371904Y-71294761D01*
X90848095Y-71294761D01*
X91133809Y-71390000D01*
X90562380Y-71009047D02*
X90562380Y-73580476D01*
%TO.C,SW1906-KeyE1*%
X81561428Y-83677142D02*
X82228095Y-83677142D01*
X82513809Y-84724761D02*
X81561428Y-84724761D01*
X81561428Y-82724761D01*
X82513809Y-82724761D01*
%TO.C,SW1907-KeyS1*%
X71258571Y-96059523D02*
X71544285Y-96154761D01*
X72020476Y-96154761D01*
X72210952Y-96059523D01*
X72306190Y-95964285D01*
X72401428Y-95773809D01*
X72401428Y-95583333D01*
X72306190Y-95392857D01*
X72210952Y-95297619D01*
X72020476Y-95202380D01*
X71639523Y-95107142D01*
X71449047Y-95011904D01*
X71353809Y-94916666D01*
X71258571Y-94726190D01*
X71258571Y-94535714D01*
X71353809Y-94345238D01*
X71449047Y-94250000D01*
X71639523Y-94154761D01*
X72115714Y-94154761D01*
X72401428Y-94250000D01*
%TO.C,SW1908-KeyZ1*%
X63468333Y-105584761D02*
X64801666Y-105584761D01*
X63468333Y-107584761D01*
X64801666Y-107584761D01*
%TO.C,SW1909&2501-ShiftCapsLock1*%
D14*
X38211428Y-95857142D02*
X38425714Y-95928571D01*
X38782857Y-95928571D01*
X38925714Y-95857142D01*
X38997142Y-95785714D01*
X39068571Y-95642857D01*
X39068571Y-95500000D01*
X38997142Y-95357142D01*
X38925714Y-95285714D01*
X38782857Y-95214285D01*
X38497142Y-95142857D01*
X38354285Y-95071428D01*
X38282857Y-95000000D01*
X38211428Y-94857142D01*
X38211428Y-94714285D01*
X38282857Y-94571428D01*
X38354285Y-94500000D01*
X38497142Y-94428571D01*
X38854285Y-94428571D01*
X39068571Y-94500000D01*
X39711428Y-95928571D02*
X39711428Y-94428571D01*
X39711428Y-95142857D02*
X40568571Y-95142857D01*
X40568571Y-95928571D02*
X40568571Y-94428571D01*
X41282857Y-95928571D02*
X41282857Y-94428571D01*
X42497142Y-95142857D02*
X41997142Y-95142857D01*
X41997142Y-95928571D02*
X41997142Y-94428571D01*
X42711428Y-94428571D01*
X43068571Y-94428571D02*
X43925714Y-94428571D01*
X43497142Y-95928571D02*
X43497142Y-94428571D01*
X45140000Y-95928571D02*
X44425714Y-95928571D01*
X44425714Y-94428571D01*
X45925714Y-94428571D02*
X46211428Y-94428571D01*
X46354285Y-94500000D01*
X46497142Y-94642857D01*
X46568571Y-94928571D01*
X46568571Y-95428571D01*
X46497142Y-95714285D01*
X46354285Y-95857142D01*
X46211428Y-95928571D01*
X45925714Y-95928571D01*
X45782857Y-95857142D01*
X45640000Y-95714285D01*
X45568571Y-95428571D01*
X45568571Y-94928571D01*
X45640000Y-94642857D01*
X45782857Y-94500000D01*
X45925714Y-94428571D01*
X48068571Y-95785714D02*
X47997142Y-95857142D01*
X47782857Y-95928571D01*
X47640000Y-95928571D01*
X47425714Y-95857142D01*
X47282857Y-95714285D01*
X47211428Y-95571428D01*
X47140000Y-95285714D01*
X47140000Y-95071428D01*
X47211428Y-94785714D01*
X47282857Y-94642857D01*
X47425714Y-94500000D01*
X47640000Y-94428571D01*
X47782857Y-94428571D01*
X47997142Y-94500000D01*
X48068571Y-94571428D01*
X48711428Y-95928571D02*
X48711428Y-94428571D01*
X49568571Y-95928571D02*
X48925714Y-95071428D01*
X49568571Y-94428571D02*
X48711428Y-95285714D01*
%TO.C,SW1909-LShift1*%
X44204285Y-107287142D02*
X44418571Y-107358571D01*
X44775714Y-107358571D01*
X44918571Y-107287142D01*
X44990000Y-107215714D01*
X45061428Y-107072857D01*
X45061428Y-106930000D01*
X44990000Y-106787142D01*
X44918571Y-106715714D01*
X44775714Y-106644285D01*
X44490000Y-106572857D01*
X44347142Y-106501428D01*
X44275714Y-106430000D01*
X44204285Y-106287142D01*
X44204285Y-106144285D01*
X44275714Y-106001428D01*
X44347142Y-105930000D01*
X44490000Y-105858571D01*
X44847142Y-105858571D01*
X45061428Y-105930000D01*
X45704285Y-107358571D02*
X45704285Y-105858571D01*
X45704285Y-106572857D02*
X46561428Y-106572857D01*
X46561428Y-107358571D02*
X46561428Y-105858571D01*
X47275714Y-107358571D02*
X47275714Y-105858571D01*
X48490000Y-106572857D02*
X47990000Y-106572857D01*
X47990000Y-107358571D02*
X47990000Y-105858571D01*
X48704285Y-105858571D01*
X49061428Y-105858571D02*
X49918571Y-105858571D01*
X49490000Y-107358571D02*
X49490000Y-105858571D01*
%TO.C,SW1910-KeyA1*%
D11*
X57383809Y-95583333D02*
X58336190Y-95583333D01*
X57193333Y-96154761D02*
X57860000Y-94154761D01*
X58526666Y-96154761D01*
%TO.C,SW1911-KeyW1*%
X67162857Y-82724761D02*
X67639047Y-84724761D01*
X68020000Y-83296190D01*
X68400952Y-84724761D01*
X68877142Y-82724761D01*
%TO.C,SW1912-3-key1*%
X73973333Y-71294761D02*
X75211428Y-71294761D01*
X74544761Y-72056666D01*
X74830476Y-72056666D01*
X75020952Y-72151904D01*
X75116190Y-72247142D01*
X75211428Y-72437619D01*
X75211428Y-72913809D01*
X75116190Y-73104285D01*
X75020952Y-73199523D01*
X74830476Y-73294761D01*
X74259047Y-73294761D01*
X74068571Y-73199523D01*
X73973333Y-73104285D01*
X75973333Y-71961428D02*
X77401904Y-71961428D01*
X76544761Y-71104285D02*
X75973333Y-73675714D01*
X77211428Y-72818571D02*
X75782857Y-72818571D01*
X76640000Y-73675714D02*
X77211428Y-71104285D01*
%TO.C,SW2005-2-key1*%
X60336666Y-71485238D02*
X60431904Y-71390000D01*
X60622380Y-71294761D01*
X61098571Y-71294761D01*
X61289047Y-71390000D01*
X61384285Y-71485238D01*
X61479523Y-71675714D01*
X61479523Y-71866190D01*
X61384285Y-72151904D01*
X60241428Y-73294761D01*
X61479523Y-73294761D01*
X62241428Y-71294761D02*
X62241428Y-71675714D01*
X63003333Y-71294761D02*
X63003333Y-71675714D01*
%TO.C,SW2006-KeyQ1*%
X54811904Y-84915238D02*
X54621428Y-84820000D01*
X54430952Y-84629523D01*
X54145238Y-84343809D01*
X53954761Y-84248571D01*
X53764285Y-84248571D01*
X53859523Y-84724761D02*
X53669047Y-84629523D01*
X53478571Y-84439047D01*
X53383333Y-84058095D01*
X53383333Y-83391428D01*
X53478571Y-83010476D01*
X53669047Y-82820000D01*
X53859523Y-82724761D01*
X54240476Y-82724761D01*
X54430952Y-82820000D01*
X54621428Y-83010476D01*
X54716666Y-83391428D01*
X54716666Y-84058095D01*
X54621428Y-84439047D01*
X54430952Y-84629523D01*
X54240476Y-84724761D01*
X53859523Y-84724761D01*
%TO.C,SW2007-C=1*%
X29300952Y-107394285D02*
X29205714Y-107489523D01*
X28920000Y-107584761D01*
X28729523Y-107584761D01*
X28443809Y-107489523D01*
X28253333Y-107299047D01*
X28158095Y-107108571D01*
X28062857Y-106727619D01*
X28062857Y-106441904D01*
X28158095Y-106060952D01*
X28253333Y-105870476D01*
X28443809Y-105680000D01*
X28729523Y-105584761D01*
X28920000Y-105584761D01*
X29205714Y-105680000D01*
X29300952Y-105775238D01*
X30158095Y-106537142D02*
X31681904Y-106537142D01*
X31681904Y-107108571D02*
X30158095Y-107108571D01*
%TO.C,SW2008-Space1*%
D14*
X89222142Y-118717142D02*
X89436428Y-118788571D01*
X89793571Y-118788571D01*
X89936428Y-118717142D01*
X90007857Y-118645714D01*
X90079285Y-118502857D01*
X90079285Y-118360000D01*
X90007857Y-118217142D01*
X89936428Y-118145714D01*
X89793571Y-118074285D01*
X89507857Y-118002857D01*
X89365000Y-117931428D01*
X89293571Y-117860000D01*
X89222142Y-117717142D01*
X89222142Y-117574285D01*
X89293571Y-117431428D01*
X89365000Y-117360000D01*
X89507857Y-117288571D01*
X89865000Y-117288571D01*
X90079285Y-117360000D01*
X90722142Y-118788571D02*
X90722142Y-117288571D01*
X91293571Y-117288571D01*
X91436428Y-117360000D01*
X91507857Y-117431428D01*
X91579285Y-117574285D01*
X91579285Y-117788571D01*
X91507857Y-117931428D01*
X91436428Y-118002857D01*
X91293571Y-118074285D01*
X90722142Y-118074285D01*
X92150714Y-118360000D02*
X92865000Y-118360000D01*
X92007857Y-118788571D02*
X92507857Y-117288571D01*
X93007857Y-118788571D01*
X94365000Y-118645714D02*
X94293571Y-118717142D01*
X94079285Y-118788571D01*
X93936428Y-118788571D01*
X93722142Y-118717142D01*
X93579285Y-118574285D01*
X93507857Y-118431428D01*
X93436428Y-118145714D01*
X93436428Y-117931428D01*
X93507857Y-117645714D01*
X93579285Y-117502857D01*
X93722142Y-117360000D01*
X93936428Y-117288571D01*
X94079285Y-117288571D01*
X94293571Y-117360000D01*
X94365000Y-117431428D01*
X95007857Y-118002857D02*
X95507857Y-118002857D01*
X95722142Y-118788571D02*
X95007857Y-118788571D01*
X95007857Y-117288571D01*
X95722142Y-117288571D01*
X96865000Y-118002857D02*
X97079285Y-118074285D01*
X97150714Y-118145714D01*
X97222142Y-118288571D01*
X97222142Y-118502857D01*
X97150714Y-118645714D01*
X97079285Y-118717142D01*
X96936428Y-118788571D01*
X96365000Y-118788571D01*
X96365000Y-117288571D01*
X96865000Y-117288571D01*
X97007857Y-117360000D01*
X97079285Y-117431428D01*
X97150714Y-117574285D01*
X97150714Y-117717142D01*
X97079285Y-117860000D01*
X97007857Y-117931428D01*
X96865000Y-118002857D01*
X96365000Y-118002857D01*
X97793571Y-118360000D02*
X98507857Y-118360000D01*
X97650714Y-118788571D02*
X98150714Y-117288571D01*
X98650714Y-118788571D01*
X100007857Y-118788571D02*
X99507857Y-118074285D01*
X99150714Y-118788571D02*
X99150714Y-117288571D01*
X99722142Y-117288571D01*
X99865000Y-117360000D01*
X99936428Y-117431428D01*
X100007857Y-117574285D01*
X100007857Y-117788571D01*
X99936428Y-117931428D01*
X99865000Y-118002857D01*
X99722142Y-118074285D01*
X99150714Y-118074285D01*
%TO.C,SW2009-RunStop1*%
X25130714Y-95928571D02*
X24630714Y-95214285D01*
X24273571Y-95928571D02*
X24273571Y-94428571D01*
X24845000Y-94428571D01*
X24987857Y-94500000D01*
X25059285Y-94571428D01*
X25130714Y-94714285D01*
X25130714Y-94928571D01*
X25059285Y-95071428D01*
X24987857Y-95142857D01*
X24845000Y-95214285D01*
X24273571Y-95214285D01*
X25773571Y-94428571D02*
X25773571Y-95642857D01*
X25845000Y-95785714D01*
X25916428Y-95857142D01*
X26059285Y-95928571D01*
X26345000Y-95928571D01*
X26487857Y-95857142D01*
X26559285Y-95785714D01*
X26630714Y-95642857D01*
X26630714Y-94428571D01*
X27345000Y-95928571D02*
X27345000Y-94428571D01*
X28202142Y-95928571D01*
X28202142Y-94428571D01*
X29987857Y-94357142D02*
X28702142Y-96285714D01*
X30416428Y-95857142D02*
X30630714Y-95928571D01*
X30987857Y-95928571D01*
X31130714Y-95857142D01*
X31202142Y-95785714D01*
X31273571Y-95642857D01*
X31273571Y-95500000D01*
X31202142Y-95357142D01*
X31130714Y-95285714D01*
X30987857Y-95214285D01*
X30702142Y-95142857D01*
X30559285Y-95071428D01*
X30487857Y-95000000D01*
X30416428Y-94857142D01*
X30416428Y-94714285D01*
X30487857Y-94571428D01*
X30559285Y-94500000D01*
X30702142Y-94428571D01*
X31059285Y-94428571D01*
X31273571Y-94500000D01*
X31702142Y-94428571D02*
X32559285Y-94428571D01*
X32130714Y-95928571D02*
X32130714Y-94428571D01*
X33344999Y-94428571D02*
X33630714Y-94428571D01*
X33773571Y-94500000D01*
X33916428Y-94642857D01*
X33987857Y-94928571D01*
X33987857Y-95428571D01*
X33916428Y-95714285D01*
X33773571Y-95857142D01*
X33630714Y-95928571D01*
X33344999Y-95928571D01*
X33202142Y-95857142D01*
X33059285Y-95714285D01*
X32987857Y-95428571D01*
X32987857Y-94928571D01*
X33059285Y-94642857D01*
X33202142Y-94500000D01*
X33344999Y-94428571D01*
X34630714Y-95928571D02*
X34630714Y-94428571D01*
X35202142Y-94428571D01*
X35345000Y-94500000D01*
X35416428Y-94571428D01*
X35487857Y-94714285D01*
X35487857Y-94928571D01*
X35416428Y-95071428D01*
X35345000Y-95142857D01*
X35202142Y-95214285D01*
X34630714Y-95214285D01*
%TO.C,SW2010-CTRL1*%
X35365714Y-84355714D02*
X35294285Y-84427142D01*
X35080000Y-84498571D01*
X34937142Y-84498571D01*
X34722857Y-84427142D01*
X34580000Y-84284285D01*
X34508571Y-84141428D01*
X34437142Y-83855714D01*
X34437142Y-83641428D01*
X34508571Y-83355714D01*
X34580000Y-83212857D01*
X34722857Y-83070000D01*
X34937142Y-82998571D01*
X35080000Y-82998571D01*
X35294285Y-83070000D01*
X35365714Y-83141428D01*
X35794285Y-82998571D02*
X36651428Y-82998571D01*
X36222857Y-84498571D02*
X36222857Y-82998571D01*
X38008571Y-84498571D02*
X37508571Y-83784285D01*
X37151428Y-84498571D02*
X37151428Y-82998571D01*
X37722857Y-82998571D01*
X37865714Y-83070000D01*
X37937142Y-83141428D01*
X38008571Y-83284285D01*
X38008571Y-83498571D01*
X37937142Y-83641428D01*
X37865714Y-83712857D01*
X37722857Y-83784285D01*
X37151428Y-83784285D01*
X39365714Y-84498571D02*
X38651428Y-84498571D01*
X38651428Y-82998571D01*
%TO.C,SW2011-LeftArrow1*%
D16*
X34797857Y-72223285D02*
X32512142Y-72223285D01*
X33083571Y-72794714D02*
X32512142Y-72223285D01*
X33083571Y-71651857D01*
%TO.C,SW2012-1-key1*%
D11*
X47720238Y-73294761D02*
X46577380Y-73294761D01*
X47148809Y-73294761D02*
X47148809Y-71294761D01*
X46958333Y-71580476D01*
X46767857Y-71770952D01*
X46577380Y-71866190D01*
X48577380Y-73104285D02*
X48672619Y-73199523D01*
X48577380Y-73294761D01*
X48482142Y-73199523D01*
X48577380Y-73104285D01*
X48577380Y-73294761D01*
X48577380Y-72532857D02*
X48482142Y-71390000D01*
X48577380Y-71294761D01*
X48672619Y-71390000D01*
X48577380Y-72532857D01*
X48577380Y-71294761D01*
%TO.C,SW2008-SpaceB1*%
D14*
X145177142Y-118717142D02*
X145391428Y-118788571D01*
X145748571Y-118788571D01*
X145891428Y-118717142D01*
X145962857Y-118645714D01*
X146034285Y-118502857D01*
X146034285Y-118360000D01*
X145962857Y-118217142D01*
X145891428Y-118145714D01*
X145748571Y-118074285D01*
X145462857Y-118002857D01*
X145320000Y-117931428D01*
X145248571Y-117860000D01*
X145177142Y-117717142D01*
X145177142Y-117574285D01*
X145248571Y-117431428D01*
X145320000Y-117360000D01*
X145462857Y-117288571D01*
X145820000Y-117288571D01*
X146034285Y-117360000D01*
X146677142Y-118788571D02*
X146677142Y-117288571D01*
X147248571Y-117288571D01*
X147391428Y-117360000D01*
X147462857Y-117431428D01*
X147534285Y-117574285D01*
X147534285Y-117788571D01*
X147462857Y-117931428D01*
X147391428Y-118002857D01*
X147248571Y-118074285D01*
X146677142Y-118074285D01*
X148105714Y-118360000D02*
X148820000Y-118360000D01*
X147962857Y-118788571D02*
X148462857Y-117288571D01*
X148962857Y-118788571D01*
X150320000Y-118645714D02*
X150248571Y-118717142D01*
X150034285Y-118788571D01*
X149891428Y-118788571D01*
X149677142Y-118717142D01*
X149534285Y-118574285D01*
X149462857Y-118431428D01*
X149391428Y-118145714D01*
X149391428Y-117931428D01*
X149462857Y-117645714D01*
X149534285Y-117502857D01*
X149677142Y-117360000D01*
X149891428Y-117288571D01*
X150034285Y-117288571D01*
X150248571Y-117360000D01*
X150320000Y-117431428D01*
X150962857Y-118002857D02*
X151462857Y-118002857D01*
X151677142Y-118788571D02*
X150962857Y-118788571D01*
X150962857Y-117288571D01*
X151677142Y-117288571D01*
X152820000Y-118002857D02*
X153034285Y-118074285D01*
X153105714Y-118145714D01*
X153177142Y-118288571D01*
X153177142Y-118502857D01*
X153105714Y-118645714D01*
X153034285Y-118717142D01*
X152891428Y-118788571D01*
X152320000Y-118788571D01*
X152320000Y-117288571D01*
X152820000Y-117288571D01*
X152962857Y-117360000D01*
X153034285Y-117431428D01*
X153105714Y-117574285D01*
X153105714Y-117717142D01*
X153034285Y-117860000D01*
X152962857Y-117931428D01*
X152820000Y-118002857D01*
X152320000Y-118002857D01*
X153748571Y-118360000D02*
X154462857Y-118360000D01*
X153605714Y-118788571D02*
X154105714Y-117288571D01*
X154605714Y-118788571D01*
X155962857Y-118788571D02*
X155462857Y-118074285D01*
X155105714Y-118788571D02*
X155105714Y-117288571D01*
X155677142Y-117288571D01*
X155820000Y-117360000D01*
X155891428Y-117431428D01*
X155962857Y-117574285D01*
X155962857Y-117788571D01*
X155891428Y-117931428D01*
X155820000Y-118002857D01*
X155677142Y-118074285D01*
X155105714Y-118074285D01*
%TO.C,SW_MENU1*%
D15*
X233751666Y-55062380D02*
X233751666Y-54062380D01*
X234085000Y-54776666D01*
X234418333Y-54062380D01*
X234418333Y-55062380D01*
X234894523Y-54538571D02*
X235227857Y-54538571D01*
X235370714Y-55062380D02*
X234894523Y-55062380D01*
X234894523Y-54062380D01*
X235370714Y-54062380D01*
X235799285Y-55062380D02*
X235799285Y-54062380D01*
X236370714Y-55062380D01*
X236370714Y-54062380D01*
X236846904Y-54062380D02*
X236846904Y-54871904D01*
X236894523Y-54967142D01*
X236942142Y-55014761D01*
X237037380Y-55062380D01*
X237227857Y-55062380D01*
X237323095Y-55014761D01*
X237370714Y-54967142D01*
X237418333Y-54871904D01*
X237418333Y-54062380D01*
%TO.C,SW_RESET1*%
X42437619Y-55062380D02*
X42104285Y-54586190D01*
X41866190Y-55062380D02*
X41866190Y-54062380D01*
X42247142Y-54062380D01*
X42342380Y-54110000D01*
X42390000Y-54157619D01*
X42437619Y-54252857D01*
X42437619Y-54395714D01*
X42390000Y-54490952D01*
X42342380Y-54538571D01*
X42247142Y-54586190D01*
X41866190Y-54586190D01*
X42866190Y-54538571D02*
X43199523Y-54538571D01*
X43342380Y-55062380D02*
X42866190Y-55062380D01*
X42866190Y-54062380D01*
X43342380Y-54062380D01*
X43723333Y-55014761D02*
X43866190Y-55062380D01*
X44104285Y-55062380D01*
X44199523Y-55014761D01*
X44247142Y-54967142D01*
X44294761Y-54871904D01*
X44294761Y-54776666D01*
X44247142Y-54681428D01*
X44199523Y-54633809D01*
X44104285Y-54586190D01*
X43913809Y-54538571D01*
X43818571Y-54490952D01*
X43770952Y-54443333D01*
X43723333Y-54348095D01*
X43723333Y-54252857D01*
X43770952Y-54157619D01*
X43818571Y-54110000D01*
X43913809Y-54062380D01*
X44151904Y-54062380D01*
X44294761Y-54110000D01*
X44723333Y-54538571D02*
X45056666Y-54538571D01*
X45199523Y-55062380D02*
X44723333Y-55062380D01*
X44723333Y-54062380D01*
X45199523Y-54062380D01*
X45485238Y-54062380D02*
X46056666Y-54062380D01*
X45770952Y-55062380D02*
X45770952Y-54062380D01*
%TO.C,SW_SPECIAL1*%
X220150476Y-55014761D02*
X220293333Y-55062380D01*
X220531428Y-55062380D01*
X220626666Y-55014761D01*
X220674285Y-54967142D01*
X220721904Y-54871904D01*
X220721904Y-54776666D01*
X220674285Y-54681428D01*
X220626666Y-54633809D01*
X220531428Y-54586190D01*
X220340952Y-54538571D01*
X220245714Y-54490952D01*
X220198095Y-54443333D01*
X220150476Y-54348095D01*
X220150476Y-54252857D01*
X220198095Y-54157619D01*
X220245714Y-54110000D01*
X220340952Y-54062380D01*
X220579047Y-54062380D01*
X220721904Y-54110000D01*
X221150476Y-55062380D02*
X221150476Y-54062380D01*
X221531428Y-54062380D01*
X221626666Y-54110000D01*
X221674285Y-54157619D01*
X221721904Y-54252857D01*
X221721904Y-54395714D01*
X221674285Y-54490952D01*
X221626666Y-54538571D01*
X221531428Y-54586190D01*
X221150476Y-54586190D01*
X222150476Y-54538571D02*
X222483809Y-54538571D01*
X222626666Y-55062380D02*
X222150476Y-55062380D01*
X222150476Y-54062380D01*
X222626666Y-54062380D01*
X223626666Y-54967142D02*
X223579047Y-55014761D01*
X223436190Y-55062380D01*
X223340952Y-55062380D01*
X223198095Y-55014761D01*
X223102857Y-54919523D01*
X223055238Y-54824285D01*
X223007619Y-54633809D01*
X223007619Y-54490952D01*
X223055238Y-54300476D01*
X223102857Y-54205238D01*
X223198095Y-54110000D01*
X223340952Y-54062380D01*
X223436190Y-54062380D01*
X223579047Y-54110000D01*
X223626666Y-54157619D01*
X224055238Y-55062380D02*
X224055238Y-54062380D01*
X224483809Y-54776666D02*
X224960000Y-54776666D01*
X224388571Y-55062380D02*
X224721904Y-54062380D01*
X225055238Y-55062380D01*
X225864761Y-55062380D02*
X225388571Y-55062380D01*
X225388571Y-54062380D01*
%TO.C,ZT1*%
X100094523Y-63452380D02*
X100761190Y-63452380D01*
X100094523Y-64452380D01*
X100761190Y-64452380D01*
X100999285Y-63452380D02*
X101570714Y-63452380D01*
X101285000Y-64452380D02*
X101285000Y-63452380D01*
X102427857Y-64452380D02*
X101856428Y-64452380D01*
X102142142Y-64452380D02*
X102142142Y-63452380D01*
X102046904Y-63595238D01*
X101951666Y-63690476D01*
X101856428Y-63738095D01*
%TD*%
M02*
