%TF.GenerationSoftware,KiCad,Pcbnew,(5.1.9)-1*%
%TF.CreationDate,2021-06-15T15:46:33-04:00*%
%TF.ProjectId,CMicro-Keyboard,434d6963-726f-42d4-9b65-79626f617264,rev?*%
%TF.SameCoordinates,Original*%
%TF.FileFunction,Legend,Bot*%
%TF.FilePolarity,Positive*%
%FSLAX46Y46*%
G04 Gerber Fmt 4.6, Leading zero omitted, Abs format (unit mm)*
G04 Created by KiCad (PCBNEW (5.1.9)-1) date 2021-06-15 15:46:33*
%MOMM*%
%LPD*%
G01*
G04 APERTURE LIST*
%ADD10C,0.120000*%
%ADD11C,0.150000*%
%ADD12C,1.000000*%
%ADD13C,0.300000*%
G04 APERTURE END LIST*
D10*
%TO.C,R5*%
X249630000Y-72128748D02*
X249630000Y-72651252D01*
X248210000Y-72128748D02*
X248210000Y-72651252D01*
%TO.C,R6*%
X238200000Y-94988748D02*
X238200000Y-95511252D01*
X236780000Y-94988748D02*
X236780000Y-95511252D01*
%TO.C,R7*%
X253290000Y-120388748D02*
X253290000Y-120911252D01*
X254710000Y-120388748D02*
X254710000Y-120911252D01*
%TO.C,R8*%
X273760000Y-106418748D02*
X273760000Y-106941252D01*
X272340000Y-106418748D02*
X272340000Y-106941252D01*
%TO.C,R9*%
X272340000Y-72128748D02*
X272340000Y-72651252D01*
X273760000Y-72128748D02*
X273760000Y-72651252D01*
%TO.C,R10*%
X273760000Y-83558748D02*
X273760000Y-84081252D01*
X272340000Y-83558748D02*
X272340000Y-84081252D01*
%TO.C,R11*%
X272340000Y-94988748D02*
X272340000Y-95511252D01*
X273760000Y-94988748D02*
X273760000Y-95511252D01*
%TO.C,R12*%
X247090000Y-133088748D02*
X247090000Y-133611252D01*
X245670000Y-133088748D02*
X245670000Y-133611252D01*
%TO.C,R15*%
X245820000Y-83558748D02*
X245820000Y-84081252D01*
X244400000Y-83558748D02*
X244400000Y-84081252D01*
%TO.C,R16*%
X80570000Y-72128748D02*
X80570000Y-72651252D01*
X81990000Y-72128748D02*
X81990000Y-72651252D01*
%TO.C,R17*%
X72950000Y-83558748D02*
X72950000Y-84081252D01*
X74370000Y-83558748D02*
X74370000Y-84081252D01*
%TO.C,R18*%
X64210000Y-94988748D02*
X64210000Y-95511252D01*
X62790000Y-94988748D02*
X62790000Y-95511252D01*
%TO.C,R19*%
X94540000Y-72128748D02*
X94540000Y-72651252D01*
X95960000Y-72128748D02*
X95960000Y-72651252D01*
%TO.C,R20*%
X70560000Y-106418748D02*
X70560000Y-106941252D01*
X69140000Y-106418748D02*
X69140000Y-106941252D01*
%TO.C,R21*%
X76760000Y-94988748D02*
X76760000Y-95511252D01*
X78180000Y-94988748D02*
X78180000Y-95511252D01*
%TO.C,R22*%
X88340000Y-83558748D02*
X88340000Y-84081252D01*
X86920000Y-83558748D02*
X86920000Y-84081252D01*
%TO.C,R23*%
X52122000Y-106028748D02*
X52122000Y-106551252D01*
X53542000Y-106028748D02*
X53542000Y-106551252D01*
%TO.C,R25*%
X109930000Y-72128748D02*
X109930000Y-72651252D01*
X108510000Y-72128748D02*
X108510000Y-72651252D01*
%TO.C,R26*%
X100890000Y-83558748D02*
X100890000Y-84081252D01*
X102310000Y-83558748D02*
X102310000Y-84081252D01*
%TO.C,R27*%
X92150000Y-94988748D02*
X92150000Y-95511252D01*
X90730000Y-94988748D02*
X90730000Y-95511252D01*
%TO.C,R28*%
X122480000Y-72128748D02*
X122480000Y-72651252D01*
X123900000Y-72128748D02*
X123900000Y-72651252D01*
%TO.C,R29*%
X98500000Y-106418748D02*
X98500000Y-106941252D01*
X97080000Y-106418748D02*
X97080000Y-106941252D01*
%TO.C,R30*%
X104700000Y-94988748D02*
X104700000Y-95511252D01*
X106120000Y-94988748D02*
X106120000Y-95511252D01*
%TO.C,R31*%
X116280000Y-83558748D02*
X116280000Y-84081252D01*
X114860000Y-83558748D02*
X114860000Y-84081252D01*
%TO.C,R32*%
X83110000Y-106418748D02*
X83110000Y-106941252D01*
X84530000Y-106418748D02*
X84530000Y-106941252D01*
%TO.C,R35*%
X136450000Y-72128748D02*
X136450000Y-72651252D01*
X137870000Y-72128748D02*
X137870000Y-72651252D01*
%TO.C,R36*%
X130250000Y-83558748D02*
X130250000Y-84081252D01*
X128830000Y-83558748D02*
X128830000Y-84081252D01*
%TO.C,R37*%
X118670000Y-94988748D02*
X118670000Y-95511252D01*
X120090000Y-94988748D02*
X120090000Y-95511252D01*
%TO.C,R38*%
X151840000Y-72128748D02*
X151840000Y-72651252D01*
X150420000Y-72128748D02*
X150420000Y-72651252D01*
%TO.C,R39*%
X125020000Y-106418748D02*
X125020000Y-106941252D01*
X126440000Y-106418748D02*
X126440000Y-106941252D01*
%TO.C,R40*%
X134060000Y-94988748D02*
X134060000Y-95511252D01*
X132640000Y-94988748D02*
X132640000Y-95511252D01*
%TO.C,R41*%
X142800000Y-83558748D02*
X142800000Y-84081252D01*
X144220000Y-83558748D02*
X144220000Y-84081252D01*
%TO.C,R42*%
X112470000Y-106418748D02*
X112470000Y-106941252D01*
X111050000Y-106418748D02*
X111050000Y-106941252D01*
%TO.C,R45*%
X165810000Y-72128748D02*
X165810000Y-72651252D01*
X164390000Y-72128748D02*
X164390000Y-72651252D01*
%TO.C,R46*%
X156770000Y-83558748D02*
X156770000Y-84081252D01*
X158190000Y-83558748D02*
X158190000Y-84081252D01*
%TO.C,R47*%
X148030000Y-94988748D02*
X148030000Y-95511252D01*
X146610000Y-94988748D02*
X146610000Y-95511252D01*
%TO.C,R48*%
X178360000Y-72128748D02*
X178360000Y-72651252D01*
X179780000Y-72128748D02*
X179780000Y-72651252D01*
%TO.C,R49*%
X154380000Y-106418748D02*
X154380000Y-106941252D01*
X152960000Y-106418748D02*
X152960000Y-106941252D01*
%TO.C,R50*%
X160580000Y-94988748D02*
X160580000Y-95511252D01*
X162000000Y-94988748D02*
X162000000Y-95511252D01*
%TO.C,R51*%
X172160000Y-83558748D02*
X172160000Y-84081252D01*
X170740000Y-83558748D02*
X170740000Y-84081252D01*
%TO.C,R52*%
X140410000Y-106418748D02*
X140410000Y-106941252D01*
X138990000Y-106418748D02*
X138990000Y-106941252D01*
%TO.C,R53*%
X192330000Y-72128748D02*
X192330000Y-72651252D01*
X193750000Y-72128748D02*
X193750000Y-72651252D01*
%TO.C,R54*%
X186130000Y-83558748D02*
X186130000Y-84081252D01*
X184710000Y-83558748D02*
X184710000Y-84081252D01*
%TO.C,R55*%
X174550000Y-94988748D02*
X174550000Y-95511252D01*
X175970000Y-94988748D02*
X175970000Y-95511252D01*
%TO.C,R56*%
X207720000Y-72128748D02*
X207720000Y-72651252D01*
X206300000Y-72128748D02*
X206300000Y-72651252D01*
%TO.C,R57*%
X180900000Y-106418748D02*
X180900000Y-106941252D01*
X182320000Y-106418748D02*
X182320000Y-106941252D01*
%TO.C,R58*%
X189940000Y-94988748D02*
X189940000Y-95511252D01*
X188520000Y-94988748D02*
X188520000Y-95511252D01*
%TO.C,R59*%
X198680000Y-83558748D02*
X198680000Y-84081252D01*
X200100000Y-83558748D02*
X200100000Y-84081252D01*
%TO.C,R60*%
X168350000Y-106418748D02*
X168350000Y-106941252D01*
X166930000Y-106418748D02*
X166930000Y-106941252D01*
%TO.C,R61*%
X220270000Y-72128748D02*
X220270000Y-72651252D01*
X221690000Y-72128748D02*
X221690000Y-72651252D01*
%TO.C,R62*%
X214070000Y-83558748D02*
X214070000Y-84081252D01*
X212650000Y-83558748D02*
X212650000Y-84081252D01*
%TO.C,R63*%
X202490000Y-94988748D02*
X202490000Y-95511252D01*
X203910000Y-94988748D02*
X203910000Y-95511252D01*
%TO.C,R64*%
X235660000Y-72128748D02*
X235660000Y-72651252D01*
X234240000Y-72128748D02*
X234240000Y-72651252D01*
%TO.C,R65*%
X212650000Y-106418748D02*
X212650000Y-106941252D01*
X214070000Y-106418748D02*
X214070000Y-106941252D01*
%TO.C,R66*%
X217880000Y-94988748D02*
X217880000Y-95511252D01*
X216460000Y-94988748D02*
X216460000Y-95511252D01*
%TO.C,R67*%
X226620000Y-83558748D02*
X226620000Y-84081252D01*
X228040000Y-83558748D02*
X228040000Y-84081252D01*
%TO.C,R68*%
X194870000Y-106418748D02*
X194870000Y-106941252D01*
X196290000Y-106418748D02*
X196290000Y-106941252D01*
%TO.C,R69*%
X52630000Y-72128748D02*
X52630000Y-72651252D01*
X54050000Y-72128748D02*
X54050000Y-72651252D01*
%TO.C,R70*%
X40080000Y-72128748D02*
X40080000Y-72651252D01*
X38660000Y-72128748D02*
X38660000Y-72651252D01*
%TO.C,R71*%
X42470000Y-83558748D02*
X42470000Y-84081252D01*
X43890000Y-83558748D02*
X43890000Y-84081252D01*
%TO.C,R72*%
X68020000Y-72128748D02*
X68020000Y-72651252D01*
X66600000Y-72128748D02*
X66600000Y-72651252D01*
%TO.C,R76*%
X156770000Y-117848748D02*
X156770000Y-118371252D01*
X158190000Y-117848748D02*
X158190000Y-118371252D01*
%TO.C,R73*%
X36270000Y-106418748D02*
X36270000Y-106941252D01*
X34850000Y-106418748D02*
X34850000Y-106941252D01*
%TO.C,R74*%
X58980000Y-83558748D02*
X58980000Y-84081252D01*
X60400000Y-83558748D02*
X60400000Y-84081252D01*
%TO.C,R75*%
X36270000Y-94988748D02*
X36270000Y-95511252D01*
X34850000Y-94988748D02*
X34850000Y-95511252D01*
%TO.C,C1*%
X187406000Y-139141000D02*
X187406000Y-135056000D01*
X187406000Y-135056000D02*
X189276000Y-135056000D01*
X189276000Y-135056000D02*
X189276000Y-139141000D01*
%TO.C,C2*%
X186863000Y-135056000D02*
X186863000Y-139141000D01*
X184993000Y-135056000D02*
X186863000Y-135056000D01*
X184993000Y-139141000D02*
X184993000Y-135056000D01*
%TO.C,C3*%
X41982000Y-134031000D02*
X37897000Y-134031000D01*
X41982000Y-132161000D02*
X41982000Y-134031000D01*
X37897000Y-132161000D02*
X41982000Y-132161000D01*
%TO.C,CU1*%
X177045252Y-134187000D02*
X176522748Y-134187000D01*
X177045252Y-132767000D02*
X176522748Y-132767000D01*
%TO.C,CU2*%
X192397748Y-134314000D02*
X192920252Y-134314000D01*
X192397748Y-132894000D02*
X192920252Y-132894000D01*
%TO.C,CU3*%
X172287000Y-136644748D02*
X172287000Y-137167252D01*
X170867000Y-136644748D02*
X170867000Y-137167252D01*
%TO.C,CU4*%
X166250252Y-132767000D02*
X165727748Y-132767000D01*
X166250252Y-134187000D02*
X165727748Y-134187000D01*
%TO.C,J1*%
X31690000Y-123130000D02*
X31690000Y-124460000D01*
X33020000Y-123130000D02*
X31690000Y-123130000D01*
X34290000Y-123130000D02*
X34290000Y-125790000D01*
X34290000Y-125790000D02*
X82610000Y-125790000D01*
X34290000Y-123130000D02*
X82610000Y-123130000D01*
X82610000Y-123130000D02*
X82610000Y-125790000D01*
%TO.C,R1*%
X260910000Y-58793748D02*
X260910000Y-59316252D01*
X262330000Y-58793748D02*
X262330000Y-59316252D01*
%TO.C,R2*%
X193496000Y-136644748D02*
X193496000Y-137167252D01*
X192076000Y-136644748D02*
X192076000Y-137167252D01*
%TO.C,R3*%
X189917000Y-136644748D02*
X189917000Y-137167252D01*
X191337000Y-136644748D02*
X191337000Y-137167252D01*
%TO.C,R4*%
X180773000Y-137176252D02*
X180773000Y-136653748D01*
X182193000Y-137176252D02*
X182193000Y-136653748D01*
%TO.C,R13*%
X184352000Y-136644748D02*
X184352000Y-137167252D01*
X182932000Y-136644748D02*
X182932000Y-137167252D01*
%TO.C,R14*%
X186951252Y-132894000D02*
X186428748Y-132894000D01*
X186951252Y-134314000D02*
X186428748Y-134314000D01*
%TO.C,R24*%
X251385000Y-59316252D02*
X251385000Y-58793748D01*
X252805000Y-59316252D02*
X252805000Y-58793748D01*
%TO.C,R33*%
X240082000Y-126357748D02*
X240082000Y-126880252D01*
X241502000Y-126357748D02*
X241502000Y-126880252D01*
%TO.C,R34*%
X247344000Y-111244748D02*
X247344000Y-111767252D01*
X245924000Y-111244748D02*
X245924000Y-111767252D01*
%TO.C,R43*%
X241180252Y-131901000D02*
X240657748Y-131901000D01*
X241180252Y-130481000D02*
X240657748Y-130481000D01*
%TO.C,R44*%
X248800252Y-114352000D02*
X248277748Y-114352000D01*
X248800252Y-115772000D02*
X248277748Y-115772000D01*
%TO.C,U1*%
X176784000Y-132023000D02*
X173184000Y-132023000D01*
X176784000Y-132023000D02*
X178984000Y-132023000D01*
X176784000Y-126803000D02*
X174584000Y-126803000D01*
X176784000Y-126803000D02*
X178984000Y-126803000D01*
%TO.C,U2*%
X188595000Y-132150000D02*
X184995000Y-132150000D01*
X188595000Y-132150000D02*
X190795000Y-132150000D01*
X188595000Y-126930000D02*
X186395000Y-126930000D01*
X188595000Y-126930000D02*
X190795000Y-126930000D01*
D11*
%TO.C,U3*%
X178282000Y-135787000D02*
X179357000Y-135787000D01*
X178282000Y-138912000D02*
X175032000Y-138912000D01*
X178282000Y-135662000D02*
X175032000Y-135662000D01*
X178282000Y-138912000D02*
X178282000Y-138687000D01*
X175032000Y-138912000D02*
X175032000Y-138687000D01*
X175032000Y-135662000D02*
X175032000Y-135887000D01*
X178282000Y-135662000D02*
X178282000Y-135787000D01*
D10*
%TO.C,U4*%
X165989000Y-126803000D02*
X168189000Y-126803000D01*
X165989000Y-126803000D02*
X163789000Y-126803000D01*
X165989000Y-132023000D02*
X168189000Y-132023000D01*
X165989000Y-132023000D02*
X162389000Y-132023000D01*
%TO.C,D2*%
X162857000Y-137500000D02*
X166687000Y-137500000D01*
X166687000Y-137500000D02*
X166687000Y-139360000D01*
X166687000Y-139360000D02*
X162857000Y-139360000D01*
%TO.C,D53*%
X154242000Y-132674000D02*
X158072000Y-132674000D01*
X154242000Y-134534000D02*
X154242000Y-132674000D01*
X158072000Y-134534000D02*
X154242000Y-134534000D01*
%TO.C,D54*%
X164148000Y-118704000D02*
X167978000Y-118704000D01*
X164148000Y-120564000D02*
X164148000Y-118704000D01*
X167978000Y-120564000D02*
X164148000Y-120564000D01*
%TO.C,D70*%
X158072000Y-132121000D02*
X154242000Y-132121000D01*
X154242000Y-132121000D02*
X154242000Y-130261000D01*
X154242000Y-130261000D02*
X158072000Y-130261000D01*
%TO.C,D71*%
X164148000Y-120990000D02*
X167978000Y-120990000D01*
X164148000Y-122850000D02*
X164148000Y-120990000D01*
X167978000Y-122850000D02*
X164148000Y-122850000D01*
%TO.C,D72*%
X158410000Y-120460000D02*
X158410000Y-124290000D01*
X156550000Y-120460000D02*
X158410000Y-120460000D01*
X156550000Y-124290000D02*
X156550000Y-120460000D01*
%TO.C,J2*%
X175200000Y-55820000D02*
X175200000Y-57150000D01*
X176530000Y-55820000D02*
X175200000Y-55820000D01*
X177800000Y-55820000D02*
X177800000Y-58480000D01*
X177800000Y-58480000D02*
X190560000Y-58480000D01*
X177800000Y-55820000D02*
X190560000Y-55820000D01*
X190560000Y-55820000D02*
X190560000Y-58480000D01*
%TO.C,CU5*%
X262628748Y-62028000D02*
X263151252Y-62028000D01*
X262628748Y-63448000D02*
X263151252Y-63448000D01*
D12*
%TO.C,ZT1*%
X103785000Y-63500000D02*
G75*
G02*
X121285000Y-63500000I8750000J0D01*
G01*
X138785000Y-63500000D02*
G75*
G02*
X121285000Y-63500000I-8750000J0D01*
G01*
D10*
%TO.C,D3*%
X26502000Y-78443000D02*
X26502000Y-74613000D01*
X26502000Y-74613000D02*
X28362000Y-74613000D01*
X28362000Y-74613000D02*
X28362000Y-78443000D01*
%TO.C,D4*%
X45298000Y-92032000D02*
X45298000Y-88202000D01*
X45298000Y-88202000D02*
X47158000Y-88202000D01*
X47158000Y-88202000D02*
X47158000Y-92032000D01*
%TO.C,D5*%
X26965000Y-117031000D02*
X26965000Y-120861000D01*
X25105000Y-117031000D02*
X26965000Y-117031000D01*
X25105000Y-120861000D02*
X25105000Y-117031000D01*
%TO.C,D6*%
X54315000Y-112225000D02*
X54315000Y-108395000D01*
X54315000Y-108395000D02*
X56175000Y-108395000D01*
X56175000Y-108395000D02*
X56175000Y-112225000D01*
%TO.C,D7*%
X54270000Y-116142000D02*
X54270000Y-119972000D01*
X52410000Y-116142000D02*
X54270000Y-116142000D01*
X52410000Y-119972000D02*
X52410000Y-116142000D01*
%TO.C,D8*%
X47031000Y-108649000D02*
X47031000Y-112479000D01*
X45171000Y-108649000D02*
X47031000Y-108649000D01*
X45171000Y-112479000D02*
X45171000Y-108649000D01*
%TO.C,D9*%
X60030000Y-119972000D02*
X60030000Y-116142000D01*
X60030000Y-116142000D02*
X61890000Y-116142000D01*
X61890000Y-116142000D02*
X61890000Y-119972000D01*
%TO.C,D10*%
X31791000Y-85408000D02*
X31791000Y-89238000D01*
X29931000Y-85408000D02*
X31791000Y-85408000D01*
X29931000Y-89238000D02*
X29931000Y-85408000D01*
%TO.C,R5*%
D11*
X247722380Y-72223333D02*
X247246190Y-71890000D01*
X247722380Y-71651904D02*
X246722380Y-71651904D01*
X246722380Y-72032857D01*
X246770000Y-72128095D01*
X246817619Y-72175714D01*
X246912857Y-72223333D01*
X247055714Y-72223333D01*
X247150952Y-72175714D01*
X247198571Y-72128095D01*
X247246190Y-72032857D01*
X247246190Y-71651904D01*
X246722380Y-73128095D02*
X246722380Y-72651904D01*
X247198571Y-72604285D01*
X247150952Y-72651904D01*
X247103333Y-72747142D01*
X247103333Y-72985238D01*
X247150952Y-73080476D01*
X247198571Y-73128095D01*
X247293809Y-73175714D01*
X247531904Y-73175714D01*
X247627142Y-73128095D01*
X247674761Y-73080476D01*
X247722380Y-72985238D01*
X247722380Y-72747142D01*
X247674761Y-72651904D01*
X247627142Y-72604285D01*
%TO.C,R6*%
X236292380Y-95083333D02*
X235816190Y-94750000D01*
X236292380Y-94511904D02*
X235292380Y-94511904D01*
X235292380Y-94892857D01*
X235340000Y-94988095D01*
X235387619Y-95035714D01*
X235482857Y-95083333D01*
X235625714Y-95083333D01*
X235720952Y-95035714D01*
X235768571Y-94988095D01*
X235816190Y-94892857D01*
X235816190Y-94511904D01*
X235292380Y-95940476D02*
X235292380Y-95750000D01*
X235340000Y-95654761D01*
X235387619Y-95607142D01*
X235530476Y-95511904D01*
X235720952Y-95464285D01*
X236101904Y-95464285D01*
X236197142Y-95511904D01*
X236244761Y-95559523D01*
X236292380Y-95654761D01*
X236292380Y-95845238D01*
X236244761Y-95940476D01*
X236197142Y-95988095D01*
X236101904Y-96035714D01*
X235863809Y-96035714D01*
X235768571Y-95988095D01*
X235720952Y-95940476D01*
X235673333Y-95845238D01*
X235673333Y-95654761D01*
X235720952Y-95559523D01*
X235768571Y-95511904D01*
X235863809Y-95464285D01*
%TO.C,R7*%
X252802380Y-120483333D02*
X252326190Y-120150000D01*
X252802380Y-119911904D02*
X251802380Y-119911904D01*
X251802380Y-120292857D01*
X251850000Y-120388095D01*
X251897619Y-120435714D01*
X251992857Y-120483333D01*
X252135714Y-120483333D01*
X252230952Y-120435714D01*
X252278571Y-120388095D01*
X252326190Y-120292857D01*
X252326190Y-119911904D01*
X251802380Y-120816666D02*
X251802380Y-121483333D01*
X252802380Y-121054761D01*
%TO.C,R8*%
X271852380Y-106513333D02*
X271376190Y-106180000D01*
X271852380Y-105941904D02*
X270852380Y-105941904D01*
X270852380Y-106322857D01*
X270900000Y-106418095D01*
X270947619Y-106465714D01*
X271042857Y-106513333D01*
X271185714Y-106513333D01*
X271280952Y-106465714D01*
X271328571Y-106418095D01*
X271376190Y-106322857D01*
X271376190Y-105941904D01*
X271280952Y-107084761D02*
X271233333Y-106989523D01*
X271185714Y-106941904D01*
X271090476Y-106894285D01*
X271042857Y-106894285D01*
X270947619Y-106941904D01*
X270900000Y-106989523D01*
X270852380Y-107084761D01*
X270852380Y-107275238D01*
X270900000Y-107370476D01*
X270947619Y-107418095D01*
X271042857Y-107465714D01*
X271090476Y-107465714D01*
X271185714Y-107418095D01*
X271233333Y-107370476D01*
X271280952Y-107275238D01*
X271280952Y-107084761D01*
X271328571Y-106989523D01*
X271376190Y-106941904D01*
X271471428Y-106894285D01*
X271661904Y-106894285D01*
X271757142Y-106941904D01*
X271804761Y-106989523D01*
X271852380Y-107084761D01*
X271852380Y-107275238D01*
X271804761Y-107370476D01*
X271757142Y-107418095D01*
X271661904Y-107465714D01*
X271471428Y-107465714D01*
X271376190Y-107418095D01*
X271328571Y-107370476D01*
X271280952Y-107275238D01*
%TO.C,R9*%
X271852380Y-72223333D02*
X271376190Y-71890000D01*
X271852380Y-71651904D02*
X270852380Y-71651904D01*
X270852380Y-72032857D01*
X270900000Y-72128095D01*
X270947619Y-72175714D01*
X271042857Y-72223333D01*
X271185714Y-72223333D01*
X271280952Y-72175714D01*
X271328571Y-72128095D01*
X271376190Y-72032857D01*
X271376190Y-71651904D01*
X271852380Y-72699523D02*
X271852380Y-72890000D01*
X271804761Y-72985238D01*
X271757142Y-73032857D01*
X271614285Y-73128095D01*
X271423809Y-73175714D01*
X271042857Y-73175714D01*
X270947619Y-73128095D01*
X270900000Y-73080476D01*
X270852380Y-72985238D01*
X270852380Y-72794761D01*
X270900000Y-72699523D01*
X270947619Y-72651904D01*
X271042857Y-72604285D01*
X271280952Y-72604285D01*
X271376190Y-72651904D01*
X271423809Y-72699523D01*
X271471428Y-72794761D01*
X271471428Y-72985238D01*
X271423809Y-73080476D01*
X271376190Y-73128095D01*
X271280952Y-73175714D01*
%TO.C,R10*%
X271852380Y-83177142D02*
X271376190Y-82843809D01*
X271852380Y-82605714D02*
X270852380Y-82605714D01*
X270852380Y-82986666D01*
X270900000Y-83081904D01*
X270947619Y-83129523D01*
X271042857Y-83177142D01*
X271185714Y-83177142D01*
X271280952Y-83129523D01*
X271328571Y-83081904D01*
X271376190Y-82986666D01*
X271376190Y-82605714D01*
X271852380Y-84129523D02*
X271852380Y-83558095D01*
X271852380Y-83843809D02*
X270852380Y-83843809D01*
X270995238Y-83748571D01*
X271090476Y-83653333D01*
X271138095Y-83558095D01*
X270852380Y-84748571D02*
X270852380Y-84843809D01*
X270900000Y-84939047D01*
X270947619Y-84986666D01*
X271042857Y-85034285D01*
X271233333Y-85081904D01*
X271471428Y-85081904D01*
X271661904Y-85034285D01*
X271757142Y-84986666D01*
X271804761Y-84939047D01*
X271852380Y-84843809D01*
X271852380Y-84748571D01*
X271804761Y-84653333D01*
X271757142Y-84605714D01*
X271661904Y-84558095D01*
X271471428Y-84510476D01*
X271233333Y-84510476D01*
X271042857Y-84558095D01*
X270947619Y-84605714D01*
X270900000Y-84653333D01*
X270852380Y-84748571D01*
%TO.C,R11*%
X271852380Y-94607142D02*
X271376190Y-94273809D01*
X271852380Y-94035714D02*
X270852380Y-94035714D01*
X270852380Y-94416666D01*
X270900000Y-94511904D01*
X270947619Y-94559523D01*
X271042857Y-94607142D01*
X271185714Y-94607142D01*
X271280952Y-94559523D01*
X271328571Y-94511904D01*
X271376190Y-94416666D01*
X271376190Y-94035714D01*
X271852380Y-95559523D02*
X271852380Y-94988095D01*
X271852380Y-95273809D02*
X270852380Y-95273809D01*
X270995238Y-95178571D01*
X271090476Y-95083333D01*
X271138095Y-94988095D01*
X271852380Y-96511904D02*
X271852380Y-95940476D01*
X271852380Y-96226190D02*
X270852380Y-96226190D01*
X270995238Y-96130952D01*
X271090476Y-96035714D01*
X271138095Y-95940476D01*
%TO.C,R12*%
X245182380Y-132707142D02*
X244706190Y-132373809D01*
X245182380Y-132135714D02*
X244182380Y-132135714D01*
X244182380Y-132516666D01*
X244230000Y-132611904D01*
X244277619Y-132659523D01*
X244372857Y-132707142D01*
X244515714Y-132707142D01*
X244610952Y-132659523D01*
X244658571Y-132611904D01*
X244706190Y-132516666D01*
X244706190Y-132135714D01*
X245182380Y-133659523D02*
X245182380Y-133088095D01*
X245182380Y-133373809D02*
X244182380Y-133373809D01*
X244325238Y-133278571D01*
X244420476Y-133183333D01*
X244468095Y-133088095D01*
X244277619Y-134040476D02*
X244230000Y-134088095D01*
X244182380Y-134183333D01*
X244182380Y-134421428D01*
X244230000Y-134516666D01*
X244277619Y-134564285D01*
X244372857Y-134611904D01*
X244468095Y-134611904D01*
X244610952Y-134564285D01*
X245182380Y-133992857D01*
X245182380Y-134611904D01*
%TO.C,R15*%
X243912380Y-83177142D02*
X243436190Y-82843809D01*
X243912380Y-82605714D02*
X242912380Y-82605714D01*
X242912380Y-82986666D01*
X242960000Y-83081904D01*
X243007619Y-83129523D01*
X243102857Y-83177142D01*
X243245714Y-83177142D01*
X243340952Y-83129523D01*
X243388571Y-83081904D01*
X243436190Y-82986666D01*
X243436190Y-82605714D01*
X243912380Y-84129523D02*
X243912380Y-83558095D01*
X243912380Y-83843809D02*
X242912380Y-83843809D01*
X243055238Y-83748571D01*
X243150476Y-83653333D01*
X243198095Y-83558095D01*
X242912380Y-85034285D02*
X242912380Y-84558095D01*
X243388571Y-84510476D01*
X243340952Y-84558095D01*
X243293333Y-84653333D01*
X243293333Y-84891428D01*
X243340952Y-84986666D01*
X243388571Y-85034285D01*
X243483809Y-85081904D01*
X243721904Y-85081904D01*
X243817142Y-85034285D01*
X243864761Y-84986666D01*
X243912380Y-84891428D01*
X243912380Y-84653333D01*
X243864761Y-84558095D01*
X243817142Y-84510476D01*
%TO.C,R16*%
X80082380Y-71747142D02*
X79606190Y-71413809D01*
X80082380Y-71175714D02*
X79082380Y-71175714D01*
X79082380Y-71556666D01*
X79130000Y-71651904D01*
X79177619Y-71699523D01*
X79272857Y-71747142D01*
X79415714Y-71747142D01*
X79510952Y-71699523D01*
X79558571Y-71651904D01*
X79606190Y-71556666D01*
X79606190Y-71175714D01*
X80082380Y-72699523D02*
X80082380Y-72128095D01*
X80082380Y-72413809D02*
X79082380Y-72413809D01*
X79225238Y-72318571D01*
X79320476Y-72223333D01*
X79368095Y-72128095D01*
X79082380Y-73556666D02*
X79082380Y-73366190D01*
X79130000Y-73270952D01*
X79177619Y-73223333D01*
X79320476Y-73128095D01*
X79510952Y-73080476D01*
X79891904Y-73080476D01*
X79987142Y-73128095D01*
X80034761Y-73175714D01*
X80082380Y-73270952D01*
X80082380Y-73461428D01*
X80034761Y-73556666D01*
X79987142Y-73604285D01*
X79891904Y-73651904D01*
X79653809Y-73651904D01*
X79558571Y-73604285D01*
X79510952Y-73556666D01*
X79463333Y-73461428D01*
X79463333Y-73270952D01*
X79510952Y-73175714D01*
X79558571Y-73128095D01*
X79653809Y-73080476D01*
%TO.C,R17*%
X72462380Y-83177142D02*
X71986190Y-82843809D01*
X72462380Y-82605714D02*
X71462380Y-82605714D01*
X71462380Y-82986666D01*
X71510000Y-83081904D01*
X71557619Y-83129523D01*
X71652857Y-83177142D01*
X71795714Y-83177142D01*
X71890952Y-83129523D01*
X71938571Y-83081904D01*
X71986190Y-82986666D01*
X71986190Y-82605714D01*
X72462380Y-84129523D02*
X72462380Y-83558095D01*
X72462380Y-83843809D02*
X71462380Y-83843809D01*
X71605238Y-83748571D01*
X71700476Y-83653333D01*
X71748095Y-83558095D01*
X71462380Y-84462857D02*
X71462380Y-85129523D01*
X72462380Y-84700952D01*
%TO.C,R18*%
X62302380Y-94607142D02*
X61826190Y-94273809D01*
X62302380Y-94035714D02*
X61302380Y-94035714D01*
X61302380Y-94416666D01*
X61350000Y-94511904D01*
X61397619Y-94559523D01*
X61492857Y-94607142D01*
X61635714Y-94607142D01*
X61730952Y-94559523D01*
X61778571Y-94511904D01*
X61826190Y-94416666D01*
X61826190Y-94035714D01*
X62302380Y-95559523D02*
X62302380Y-94988095D01*
X62302380Y-95273809D02*
X61302380Y-95273809D01*
X61445238Y-95178571D01*
X61540476Y-95083333D01*
X61588095Y-94988095D01*
X61730952Y-96130952D02*
X61683333Y-96035714D01*
X61635714Y-95988095D01*
X61540476Y-95940476D01*
X61492857Y-95940476D01*
X61397619Y-95988095D01*
X61350000Y-96035714D01*
X61302380Y-96130952D01*
X61302380Y-96321428D01*
X61350000Y-96416666D01*
X61397619Y-96464285D01*
X61492857Y-96511904D01*
X61540476Y-96511904D01*
X61635714Y-96464285D01*
X61683333Y-96416666D01*
X61730952Y-96321428D01*
X61730952Y-96130952D01*
X61778571Y-96035714D01*
X61826190Y-95988095D01*
X61921428Y-95940476D01*
X62111904Y-95940476D01*
X62207142Y-95988095D01*
X62254761Y-96035714D01*
X62302380Y-96130952D01*
X62302380Y-96321428D01*
X62254761Y-96416666D01*
X62207142Y-96464285D01*
X62111904Y-96511904D01*
X61921428Y-96511904D01*
X61826190Y-96464285D01*
X61778571Y-96416666D01*
X61730952Y-96321428D01*
%TO.C,R19*%
X94052380Y-71747142D02*
X93576190Y-71413809D01*
X94052380Y-71175714D02*
X93052380Y-71175714D01*
X93052380Y-71556666D01*
X93100000Y-71651904D01*
X93147619Y-71699523D01*
X93242857Y-71747142D01*
X93385714Y-71747142D01*
X93480952Y-71699523D01*
X93528571Y-71651904D01*
X93576190Y-71556666D01*
X93576190Y-71175714D01*
X94052380Y-72699523D02*
X94052380Y-72128095D01*
X94052380Y-72413809D02*
X93052380Y-72413809D01*
X93195238Y-72318571D01*
X93290476Y-72223333D01*
X93338095Y-72128095D01*
X94052380Y-73175714D02*
X94052380Y-73366190D01*
X94004761Y-73461428D01*
X93957142Y-73509047D01*
X93814285Y-73604285D01*
X93623809Y-73651904D01*
X93242857Y-73651904D01*
X93147619Y-73604285D01*
X93100000Y-73556666D01*
X93052380Y-73461428D01*
X93052380Y-73270952D01*
X93100000Y-73175714D01*
X93147619Y-73128095D01*
X93242857Y-73080476D01*
X93480952Y-73080476D01*
X93576190Y-73128095D01*
X93623809Y-73175714D01*
X93671428Y-73270952D01*
X93671428Y-73461428D01*
X93623809Y-73556666D01*
X93576190Y-73604285D01*
X93480952Y-73651904D01*
%TO.C,R20*%
X68652380Y-106037142D02*
X68176190Y-105703809D01*
X68652380Y-105465714D02*
X67652380Y-105465714D01*
X67652380Y-105846666D01*
X67700000Y-105941904D01*
X67747619Y-105989523D01*
X67842857Y-106037142D01*
X67985714Y-106037142D01*
X68080952Y-105989523D01*
X68128571Y-105941904D01*
X68176190Y-105846666D01*
X68176190Y-105465714D01*
X67747619Y-106418095D02*
X67700000Y-106465714D01*
X67652380Y-106560952D01*
X67652380Y-106799047D01*
X67700000Y-106894285D01*
X67747619Y-106941904D01*
X67842857Y-106989523D01*
X67938095Y-106989523D01*
X68080952Y-106941904D01*
X68652380Y-106370476D01*
X68652380Y-106989523D01*
X67652380Y-107608571D02*
X67652380Y-107703809D01*
X67700000Y-107799047D01*
X67747619Y-107846666D01*
X67842857Y-107894285D01*
X68033333Y-107941904D01*
X68271428Y-107941904D01*
X68461904Y-107894285D01*
X68557142Y-107846666D01*
X68604761Y-107799047D01*
X68652380Y-107703809D01*
X68652380Y-107608571D01*
X68604761Y-107513333D01*
X68557142Y-107465714D01*
X68461904Y-107418095D01*
X68271428Y-107370476D01*
X68033333Y-107370476D01*
X67842857Y-107418095D01*
X67747619Y-107465714D01*
X67700000Y-107513333D01*
X67652380Y-107608571D01*
%TO.C,R21*%
X76272380Y-94607142D02*
X75796190Y-94273809D01*
X76272380Y-94035714D02*
X75272380Y-94035714D01*
X75272380Y-94416666D01*
X75320000Y-94511904D01*
X75367619Y-94559523D01*
X75462857Y-94607142D01*
X75605714Y-94607142D01*
X75700952Y-94559523D01*
X75748571Y-94511904D01*
X75796190Y-94416666D01*
X75796190Y-94035714D01*
X75367619Y-94988095D02*
X75320000Y-95035714D01*
X75272380Y-95130952D01*
X75272380Y-95369047D01*
X75320000Y-95464285D01*
X75367619Y-95511904D01*
X75462857Y-95559523D01*
X75558095Y-95559523D01*
X75700952Y-95511904D01*
X76272380Y-94940476D01*
X76272380Y-95559523D01*
X76272380Y-96511904D02*
X76272380Y-95940476D01*
X76272380Y-96226190D02*
X75272380Y-96226190D01*
X75415238Y-96130952D01*
X75510476Y-96035714D01*
X75558095Y-95940476D01*
%TO.C,R22*%
X86432380Y-83177142D02*
X85956190Y-82843809D01*
X86432380Y-82605714D02*
X85432380Y-82605714D01*
X85432380Y-82986666D01*
X85480000Y-83081904D01*
X85527619Y-83129523D01*
X85622857Y-83177142D01*
X85765714Y-83177142D01*
X85860952Y-83129523D01*
X85908571Y-83081904D01*
X85956190Y-82986666D01*
X85956190Y-82605714D01*
X85527619Y-83558095D02*
X85480000Y-83605714D01*
X85432380Y-83700952D01*
X85432380Y-83939047D01*
X85480000Y-84034285D01*
X85527619Y-84081904D01*
X85622857Y-84129523D01*
X85718095Y-84129523D01*
X85860952Y-84081904D01*
X86432380Y-83510476D01*
X86432380Y-84129523D01*
X85527619Y-84510476D02*
X85480000Y-84558095D01*
X85432380Y-84653333D01*
X85432380Y-84891428D01*
X85480000Y-84986666D01*
X85527619Y-85034285D01*
X85622857Y-85081904D01*
X85718095Y-85081904D01*
X85860952Y-85034285D01*
X86432380Y-84462857D01*
X86432380Y-85081904D01*
%TO.C,R23*%
X51634380Y-105647142D02*
X51158190Y-105313809D01*
X51634380Y-105075714D02*
X50634380Y-105075714D01*
X50634380Y-105456666D01*
X50682000Y-105551904D01*
X50729619Y-105599523D01*
X50824857Y-105647142D01*
X50967714Y-105647142D01*
X51062952Y-105599523D01*
X51110571Y-105551904D01*
X51158190Y-105456666D01*
X51158190Y-105075714D01*
X50729619Y-106028095D02*
X50682000Y-106075714D01*
X50634380Y-106170952D01*
X50634380Y-106409047D01*
X50682000Y-106504285D01*
X50729619Y-106551904D01*
X50824857Y-106599523D01*
X50920095Y-106599523D01*
X51062952Y-106551904D01*
X51634380Y-105980476D01*
X51634380Y-106599523D01*
X50634380Y-106932857D02*
X50634380Y-107551904D01*
X51015333Y-107218571D01*
X51015333Y-107361428D01*
X51062952Y-107456666D01*
X51110571Y-107504285D01*
X51205809Y-107551904D01*
X51443904Y-107551904D01*
X51539142Y-107504285D01*
X51586761Y-107456666D01*
X51634380Y-107361428D01*
X51634380Y-107075714D01*
X51586761Y-106980476D01*
X51539142Y-106932857D01*
%TO.C,R25*%
X108022380Y-71747142D02*
X107546190Y-71413809D01*
X108022380Y-71175714D02*
X107022380Y-71175714D01*
X107022380Y-71556666D01*
X107070000Y-71651904D01*
X107117619Y-71699523D01*
X107212857Y-71747142D01*
X107355714Y-71747142D01*
X107450952Y-71699523D01*
X107498571Y-71651904D01*
X107546190Y-71556666D01*
X107546190Y-71175714D01*
X107117619Y-72128095D02*
X107070000Y-72175714D01*
X107022380Y-72270952D01*
X107022380Y-72509047D01*
X107070000Y-72604285D01*
X107117619Y-72651904D01*
X107212857Y-72699523D01*
X107308095Y-72699523D01*
X107450952Y-72651904D01*
X108022380Y-72080476D01*
X108022380Y-72699523D01*
X107022380Y-73604285D02*
X107022380Y-73128095D01*
X107498571Y-73080476D01*
X107450952Y-73128095D01*
X107403333Y-73223333D01*
X107403333Y-73461428D01*
X107450952Y-73556666D01*
X107498571Y-73604285D01*
X107593809Y-73651904D01*
X107831904Y-73651904D01*
X107927142Y-73604285D01*
X107974761Y-73556666D01*
X108022380Y-73461428D01*
X108022380Y-73223333D01*
X107974761Y-73128095D01*
X107927142Y-73080476D01*
%TO.C,R26*%
X100402380Y-83177142D02*
X99926190Y-82843809D01*
X100402380Y-82605714D02*
X99402380Y-82605714D01*
X99402380Y-82986666D01*
X99450000Y-83081904D01*
X99497619Y-83129523D01*
X99592857Y-83177142D01*
X99735714Y-83177142D01*
X99830952Y-83129523D01*
X99878571Y-83081904D01*
X99926190Y-82986666D01*
X99926190Y-82605714D01*
X99497619Y-83558095D02*
X99450000Y-83605714D01*
X99402380Y-83700952D01*
X99402380Y-83939047D01*
X99450000Y-84034285D01*
X99497619Y-84081904D01*
X99592857Y-84129523D01*
X99688095Y-84129523D01*
X99830952Y-84081904D01*
X100402380Y-83510476D01*
X100402380Y-84129523D01*
X99402380Y-84986666D02*
X99402380Y-84796190D01*
X99450000Y-84700952D01*
X99497619Y-84653333D01*
X99640476Y-84558095D01*
X99830952Y-84510476D01*
X100211904Y-84510476D01*
X100307142Y-84558095D01*
X100354761Y-84605714D01*
X100402380Y-84700952D01*
X100402380Y-84891428D01*
X100354761Y-84986666D01*
X100307142Y-85034285D01*
X100211904Y-85081904D01*
X99973809Y-85081904D01*
X99878571Y-85034285D01*
X99830952Y-84986666D01*
X99783333Y-84891428D01*
X99783333Y-84700952D01*
X99830952Y-84605714D01*
X99878571Y-84558095D01*
X99973809Y-84510476D01*
%TO.C,R27*%
X90242380Y-94607142D02*
X89766190Y-94273809D01*
X90242380Y-94035714D02*
X89242380Y-94035714D01*
X89242380Y-94416666D01*
X89290000Y-94511904D01*
X89337619Y-94559523D01*
X89432857Y-94607142D01*
X89575714Y-94607142D01*
X89670952Y-94559523D01*
X89718571Y-94511904D01*
X89766190Y-94416666D01*
X89766190Y-94035714D01*
X89337619Y-94988095D02*
X89290000Y-95035714D01*
X89242380Y-95130952D01*
X89242380Y-95369047D01*
X89290000Y-95464285D01*
X89337619Y-95511904D01*
X89432857Y-95559523D01*
X89528095Y-95559523D01*
X89670952Y-95511904D01*
X90242380Y-94940476D01*
X90242380Y-95559523D01*
X89242380Y-95892857D02*
X89242380Y-96559523D01*
X90242380Y-96130952D01*
%TO.C,R28*%
X121992380Y-71747142D02*
X121516190Y-71413809D01*
X121992380Y-71175714D02*
X120992380Y-71175714D01*
X120992380Y-71556666D01*
X121040000Y-71651904D01*
X121087619Y-71699523D01*
X121182857Y-71747142D01*
X121325714Y-71747142D01*
X121420952Y-71699523D01*
X121468571Y-71651904D01*
X121516190Y-71556666D01*
X121516190Y-71175714D01*
X121087619Y-72128095D02*
X121040000Y-72175714D01*
X120992380Y-72270952D01*
X120992380Y-72509047D01*
X121040000Y-72604285D01*
X121087619Y-72651904D01*
X121182857Y-72699523D01*
X121278095Y-72699523D01*
X121420952Y-72651904D01*
X121992380Y-72080476D01*
X121992380Y-72699523D01*
X121420952Y-73270952D02*
X121373333Y-73175714D01*
X121325714Y-73128095D01*
X121230476Y-73080476D01*
X121182857Y-73080476D01*
X121087619Y-73128095D01*
X121040000Y-73175714D01*
X120992380Y-73270952D01*
X120992380Y-73461428D01*
X121040000Y-73556666D01*
X121087619Y-73604285D01*
X121182857Y-73651904D01*
X121230476Y-73651904D01*
X121325714Y-73604285D01*
X121373333Y-73556666D01*
X121420952Y-73461428D01*
X121420952Y-73270952D01*
X121468571Y-73175714D01*
X121516190Y-73128095D01*
X121611428Y-73080476D01*
X121801904Y-73080476D01*
X121897142Y-73128095D01*
X121944761Y-73175714D01*
X121992380Y-73270952D01*
X121992380Y-73461428D01*
X121944761Y-73556666D01*
X121897142Y-73604285D01*
X121801904Y-73651904D01*
X121611428Y-73651904D01*
X121516190Y-73604285D01*
X121468571Y-73556666D01*
X121420952Y-73461428D01*
%TO.C,R29*%
X96592380Y-106037142D02*
X96116190Y-105703809D01*
X96592380Y-105465714D02*
X95592380Y-105465714D01*
X95592380Y-105846666D01*
X95640000Y-105941904D01*
X95687619Y-105989523D01*
X95782857Y-106037142D01*
X95925714Y-106037142D01*
X96020952Y-105989523D01*
X96068571Y-105941904D01*
X96116190Y-105846666D01*
X96116190Y-105465714D01*
X95687619Y-106418095D02*
X95640000Y-106465714D01*
X95592380Y-106560952D01*
X95592380Y-106799047D01*
X95640000Y-106894285D01*
X95687619Y-106941904D01*
X95782857Y-106989523D01*
X95878095Y-106989523D01*
X96020952Y-106941904D01*
X96592380Y-106370476D01*
X96592380Y-106989523D01*
X96592380Y-107465714D02*
X96592380Y-107656190D01*
X96544761Y-107751428D01*
X96497142Y-107799047D01*
X96354285Y-107894285D01*
X96163809Y-107941904D01*
X95782857Y-107941904D01*
X95687619Y-107894285D01*
X95640000Y-107846666D01*
X95592380Y-107751428D01*
X95592380Y-107560952D01*
X95640000Y-107465714D01*
X95687619Y-107418095D01*
X95782857Y-107370476D01*
X96020952Y-107370476D01*
X96116190Y-107418095D01*
X96163809Y-107465714D01*
X96211428Y-107560952D01*
X96211428Y-107751428D01*
X96163809Y-107846666D01*
X96116190Y-107894285D01*
X96020952Y-107941904D01*
%TO.C,R30*%
X104212380Y-94607142D02*
X103736190Y-94273809D01*
X104212380Y-94035714D02*
X103212380Y-94035714D01*
X103212380Y-94416666D01*
X103260000Y-94511904D01*
X103307619Y-94559523D01*
X103402857Y-94607142D01*
X103545714Y-94607142D01*
X103640952Y-94559523D01*
X103688571Y-94511904D01*
X103736190Y-94416666D01*
X103736190Y-94035714D01*
X103212380Y-94940476D02*
X103212380Y-95559523D01*
X103593333Y-95226190D01*
X103593333Y-95369047D01*
X103640952Y-95464285D01*
X103688571Y-95511904D01*
X103783809Y-95559523D01*
X104021904Y-95559523D01*
X104117142Y-95511904D01*
X104164761Y-95464285D01*
X104212380Y-95369047D01*
X104212380Y-95083333D01*
X104164761Y-94988095D01*
X104117142Y-94940476D01*
X103212380Y-96178571D02*
X103212380Y-96273809D01*
X103260000Y-96369047D01*
X103307619Y-96416666D01*
X103402857Y-96464285D01*
X103593333Y-96511904D01*
X103831428Y-96511904D01*
X104021904Y-96464285D01*
X104117142Y-96416666D01*
X104164761Y-96369047D01*
X104212380Y-96273809D01*
X104212380Y-96178571D01*
X104164761Y-96083333D01*
X104117142Y-96035714D01*
X104021904Y-95988095D01*
X103831428Y-95940476D01*
X103593333Y-95940476D01*
X103402857Y-95988095D01*
X103307619Y-96035714D01*
X103260000Y-96083333D01*
X103212380Y-96178571D01*
%TO.C,R31*%
X114372380Y-83177142D02*
X113896190Y-82843809D01*
X114372380Y-82605714D02*
X113372380Y-82605714D01*
X113372380Y-82986666D01*
X113420000Y-83081904D01*
X113467619Y-83129523D01*
X113562857Y-83177142D01*
X113705714Y-83177142D01*
X113800952Y-83129523D01*
X113848571Y-83081904D01*
X113896190Y-82986666D01*
X113896190Y-82605714D01*
X113372380Y-83510476D02*
X113372380Y-84129523D01*
X113753333Y-83796190D01*
X113753333Y-83939047D01*
X113800952Y-84034285D01*
X113848571Y-84081904D01*
X113943809Y-84129523D01*
X114181904Y-84129523D01*
X114277142Y-84081904D01*
X114324761Y-84034285D01*
X114372380Y-83939047D01*
X114372380Y-83653333D01*
X114324761Y-83558095D01*
X114277142Y-83510476D01*
X114372380Y-85081904D02*
X114372380Y-84510476D01*
X114372380Y-84796190D02*
X113372380Y-84796190D01*
X113515238Y-84700952D01*
X113610476Y-84605714D01*
X113658095Y-84510476D01*
%TO.C,R32*%
X82622380Y-106037142D02*
X82146190Y-105703809D01*
X82622380Y-105465714D02*
X81622380Y-105465714D01*
X81622380Y-105846666D01*
X81670000Y-105941904D01*
X81717619Y-105989523D01*
X81812857Y-106037142D01*
X81955714Y-106037142D01*
X82050952Y-105989523D01*
X82098571Y-105941904D01*
X82146190Y-105846666D01*
X82146190Y-105465714D01*
X81622380Y-106370476D02*
X81622380Y-106989523D01*
X82003333Y-106656190D01*
X82003333Y-106799047D01*
X82050952Y-106894285D01*
X82098571Y-106941904D01*
X82193809Y-106989523D01*
X82431904Y-106989523D01*
X82527142Y-106941904D01*
X82574761Y-106894285D01*
X82622380Y-106799047D01*
X82622380Y-106513333D01*
X82574761Y-106418095D01*
X82527142Y-106370476D01*
X81717619Y-107370476D02*
X81670000Y-107418095D01*
X81622380Y-107513333D01*
X81622380Y-107751428D01*
X81670000Y-107846666D01*
X81717619Y-107894285D01*
X81812857Y-107941904D01*
X81908095Y-107941904D01*
X82050952Y-107894285D01*
X82622380Y-107322857D01*
X82622380Y-107941904D01*
%TO.C,R35*%
X135962380Y-71747142D02*
X135486190Y-71413809D01*
X135962380Y-71175714D02*
X134962380Y-71175714D01*
X134962380Y-71556666D01*
X135010000Y-71651904D01*
X135057619Y-71699523D01*
X135152857Y-71747142D01*
X135295714Y-71747142D01*
X135390952Y-71699523D01*
X135438571Y-71651904D01*
X135486190Y-71556666D01*
X135486190Y-71175714D01*
X134962380Y-72080476D02*
X134962380Y-72699523D01*
X135343333Y-72366190D01*
X135343333Y-72509047D01*
X135390952Y-72604285D01*
X135438571Y-72651904D01*
X135533809Y-72699523D01*
X135771904Y-72699523D01*
X135867142Y-72651904D01*
X135914761Y-72604285D01*
X135962380Y-72509047D01*
X135962380Y-72223333D01*
X135914761Y-72128095D01*
X135867142Y-72080476D01*
X134962380Y-73604285D02*
X134962380Y-73128095D01*
X135438571Y-73080476D01*
X135390952Y-73128095D01*
X135343333Y-73223333D01*
X135343333Y-73461428D01*
X135390952Y-73556666D01*
X135438571Y-73604285D01*
X135533809Y-73651904D01*
X135771904Y-73651904D01*
X135867142Y-73604285D01*
X135914761Y-73556666D01*
X135962380Y-73461428D01*
X135962380Y-73223333D01*
X135914761Y-73128095D01*
X135867142Y-73080476D01*
%TO.C,R36*%
X128342380Y-83177142D02*
X127866190Y-82843809D01*
X128342380Y-82605714D02*
X127342380Y-82605714D01*
X127342380Y-82986666D01*
X127390000Y-83081904D01*
X127437619Y-83129523D01*
X127532857Y-83177142D01*
X127675714Y-83177142D01*
X127770952Y-83129523D01*
X127818571Y-83081904D01*
X127866190Y-82986666D01*
X127866190Y-82605714D01*
X127342380Y-83510476D02*
X127342380Y-84129523D01*
X127723333Y-83796190D01*
X127723333Y-83939047D01*
X127770952Y-84034285D01*
X127818571Y-84081904D01*
X127913809Y-84129523D01*
X128151904Y-84129523D01*
X128247142Y-84081904D01*
X128294761Y-84034285D01*
X128342380Y-83939047D01*
X128342380Y-83653333D01*
X128294761Y-83558095D01*
X128247142Y-83510476D01*
X127342380Y-84986666D02*
X127342380Y-84796190D01*
X127390000Y-84700952D01*
X127437619Y-84653333D01*
X127580476Y-84558095D01*
X127770952Y-84510476D01*
X128151904Y-84510476D01*
X128247142Y-84558095D01*
X128294761Y-84605714D01*
X128342380Y-84700952D01*
X128342380Y-84891428D01*
X128294761Y-84986666D01*
X128247142Y-85034285D01*
X128151904Y-85081904D01*
X127913809Y-85081904D01*
X127818571Y-85034285D01*
X127770952Y-84986666D01*
X127723333Y-84891428D01*
X127723333Y-84700952D01*
X127770952Y-84605714D01*
X127818571Y-84558095D01*
X127913809Y-84510476D01*
%TO.C,R37*%
X118182380Y-94607142D02*
X117706190Y-94273809D01*
X118182380Y-94035714D02*
X117182380Y-94035714D01*
X117182380Y-94416666D01*
X117230000Y-94511904D01*
X117277619Y-94559523D01*
X117372857Y-94607142D01*
X117515714Y-94607142D01*
X117610952Y-94559523D01*
X117658571Y-94511904D01*
X117706190Y-94416666D01*
X117706190Y-94035714D01*
X117182380Y-94940476D02*
X117182380Y-95559523D01*
X117563333Y-95226190D01*
X117563333Y-95369047D01*
X117610952Y-95464285D01*
X117658571Y-95511904D01*
X117753809Y-95559523D01*
X117991904Y-95559523D01*
X118087142Y-95511904D01*
X118134761Y-95464285D01*
X118182380Y-95369047D01*
X118182380Y-95083333D01*
X118134761Y-94988095D01*
X118087142Y-94940476D01*
X117182380Y-95892857D02*
X117182380Y-96559523D01*
X118182380Y-96130952D01*
%TO.C,R38*%
X149932380Y-71747142D02*
X149456190Y-71413809D01*
X149932380Y-71175714D02*
X148932380Y-71175714D01*
X148932380Y-71556666D01*
X148980000Y-71651904D01*
X149027619Y-71699523D01*
X149122857Y-71747142D01*
X149265714Y-71747142D01*
X149360952Y-71699523D01*
X149408571Y-71651904D01*
X149456190Y-71556666D01*
X149456190Y-71175714D01*
X148932380Y-72080476D02*
X148932380Y-72699523D01*
X149313333Y-72366190D01*
X149313333Y-72509047D01*
X149360952Y-72604285D01*
X149408571Y-72651904D01*
X149503809Y-72699523D01*
X149741904Y-72699523D01*
X149837142Y-72651904D01*
X149884761Y-72604285D01*
X149932380Y-72509047D01*
X149932380Y-72223333D01*
X149884761Y-72128095D01*
X149837142Y-72080476D01*
X149360952Y-73270952D02*
X149313333Y-73175714D01*
X149265714Y-73128095D01*
X149170476Y-73080476D01*
X149122857Y-73080476D01*
X149027619Y-73128095D01*
X148980000Y-73175714D01*
X148932380Y-73270952D01*
X148932380Y-73461428D01*
X148980000Y-73556666D01*
X149027619Y-73604285D01*
X149122857Y-73651904D01*
X149170476Y-73651904D01*
X149265714Y-73604285D01*
X149313333Y-73556666D01*
X149360952Y-73461428D01*
X149360952Y-73270952D01*
X149408571Y-73175714D01*
X149456190Y-73128095D01*
X149551428Y-73080476D01*
X149741904Y-73080476D01*
X149837142Y-73128095D01*
X149884761Y-73175714D01*
X149932380Y-73270952D01*
X149932380Y-73461428D01*
X149884761Y-73556666D01*
X149837142Y-73604285D01*
X149741904Y-73651904D01*
X149551428Y-73651904D01*
X149456190Y-73604285D01*
X149408571Y-73556666D01*
X149360952Y-73461428D01*
%TO.C,R39*%
X124532380Y-106037142D02*
X124056190Y-105703809D01*
X124532380Y-105465714D02*
X123532380Y-105465714D01*
X123532380Y-105846666D01*
X123580000Y-105941904D01*
X123627619Y-105989523D01*
X123722857Y-106037142D01*
X123865714Y-106037142D01*
X123960952Y-105989523D01*
X124008571Y-105941904D01*
X124056190Y-105846666D01*
X124056190Y-105465714D01*
X123532380Y-106370476D02*
X123532380Y-106989523D01*
X123913333Y-106656190D01*
X123913333Y-106799047D01*
X123960952Y-106894285D01*
X124008571Y-106941904D01*
X124103809Y-106989523D01*
X124341904Y-106989523D01*
X124437142Y-106941904D01*
X124484761Y-106894285D01*
X124532380Y-106799047D01*
X124532380Y-106513333D01*
X124484761Y-106418095D01*
X124437142Y-106370476D01*
X124532380Y-107465714D02*
X124532380Y-107656190D01*
X124484761Y-107751428D01*
X124437142Y-107799047D01*
X124294285Y-107894285D01*
X124103809Y-107941904D01*
X123722857Y-107941904D01*
X123627619Y-107894285D01*
X123580000Y-107846666D01*
X123532380Y-107751428D01*
X123532380Y-107560952D01*
X123580000Y-107465714D01*
X123627619Y-107418095D01*
X123722857Y-107370476D01*
X123960952Y-107370476D01*
X124056190Y-107418095D01*
X124103809Y-107465714D01*
X124151428Y-107560952D01*
X124151428Y-107751428D01*
X124103809Y-107846666D01*
X124056190Y-107894285D01*
X123960952Y-107941904D01*
%TO.C,R40*%
X132152380Y-94607142D02*
X131676190Y-94273809D01*
X132152380Y-94035714D02*
X131152380Y-94035714D01*
X131152380Y-94416666D01*
X131200000Y-94511904D01*
X131247619Y-94559523D01*
X131342857Y-94607142D01*
X131485714Y-94607142D01*
X131580952Y-94559523D01*
X131628571Y-94511904D01*
X131676190Y-94416666D01*
X131676190Y-94035714D01*
X131485714Y-95464285D02*
X132152380Y-95464285D01*
X131104761Y-95226190D02*
X131819047Y-94988095D01*
X131819047Y-95607142D01*
X131152380Y-96178571D02*
X131152380Y-96273809D01*
X131200000Y-96369047D01*
X131247619Y-96416666D01*
X131342857Y-96464285D01*
X131533333Y-96511904D01*
X131771428Y-96511904D01*
X131961904Y-96464285D01*
X132057142Y-96416666D01*
X132104761Y-96369047D01*
X132152380Y-96273809D01*
X132152380Y-96178571D01*
X132104761Y-96083333D01*
X132057142Y-96035714D01*
X131961904Y-95988095D01*
X131771428Y-95940476D01*
X131533333Y-95940476D01*
X131342857Y-95988095D01*
X131247619Y-96035714D01*
X131200000Y-96083333D01*
X131152380Y-96178571D01*
%TO.C,R41*%
X142312380Y-83177142D02*
X141836190Y-82843809D01*
X142312380Y-82605714D02*
X141312380Y-82605714D01*
X141312380Y-82986666D01*
X141360000Y-83081904D01*
X141407619Y-83129523D01*
X141502857Y-83177142D01*
X141645714Y-83177142D01*
X141740952Y-83129523D01*
X141788571Y-83081904D01*
X141836190Y-82986666D01*
X141836190Y-82605714D01*
X141645714Y-84034285D02*
X142312380Y-84034285D01*
X141264761Y-83796190D02*
X141979047Y-83558095D01*
X141979047Y-84177142D01*
X142312380Y-85081904D02*
X142312380Y-84510476D01*
X142312380Y-84796190D02*
X141312380Y-84796190D01*
X141455238Y-84700952D01*
X141550476Y-84605714D01*
X141598095Y-84510476D01*
%TO.C,R42*%
X110562380Y-106037142D02*
X110086190Y-105703809D01*
X110562380Y-105465714D02*
X109562380Y-105465714D01*
X109562380Y-105846666D01*
X109610000Y-105941904D01*
X109657619Y-105989523D01*
X109752857Y-106037142D01*
X109895714Y-106037142D01*
X109990952Y-105989523D01*
X110038571Y-105941904D01*
X110086190Y-105846666D01*
X110086190Y-105465714D01*
X109895714Y-106894285D02*
X110562380Y-106894285D01*
X109514761Y-106656190D02*
X110229047Y-106418095D01*
X110229047Y-107037142D01*
X109657619Y-107370476D02*
X109610000Y-107418095D01*
X109562380Y-107513333D01*
X109562380Y-107751428D01*
X109610000Y-107846666D01*
X109657619Y-107894285D01*
X109752857Y-107941904D01*
X109848095Y-107941904D01*
X109990952Y-107894285D01*
X110562380Y-107322857D01*
X110562380Y-107941904D01*
%TO.C,R45*%
X163902380Y-71747142D02*
X163426190Y-71413809D01*
X163902380Y-71175714D02*
X162902380Y-71175714D01*
X162902380Y-71556666D01*
X162950000Y-71651904D01*
X162997619Y-71699523D01*
X163092857Y-71747142D01*
X163235714Y-71747142D01*
X163330952Y-71699523D01*
X163378571Y-71651904D01*
X163426190Y-71556666D01*
X163426190Y-71175714D01*
X163235714Y-72604285D02*
X163902380Y-72604285D01*
X162854761Y-72366190D02*
X163569047Y-72128095D01*
X163569047Y-72747142D01*
X162902380Y-73604285D02*
X162902380Y-73128095D01*
X163378571Y-73080476D01*
X163330952Y-73128095D01*
X163283333Y-73223333D01*
X163283333Y-73461428D01*
X163330952Y-73556666D01*
X163378571Y-73604285D01*
X163473809Y-73651904D01*
X163711904Y-73651904D01*
X163807142Y-73604285D01*
X163854761Y-73556666D01*
X163902380Y-73461428D01*
X163902380Y-73223333D01*
X163854761Y-73128095D01*
X163807142Y-73080476D01*
%TO.C,R46*%
X156282380Y-83177142D02*
X155806190Y-82843809D01*
X156282380Y-82605714D02*
X155282380Y-82605714D01*
X155282380Y-82986666D01*
X155330000Y-83081904D01*
X155377619Y-83129523D01*
X155472857Y-83177142D01*
X155615714Y-83177142D01*
X155710952Y-83129523D01*
X155758571Y-83081904D01*
X155806190Y-82986666D01*
X155806190Y-82605714D01*
X155615714Y-84034285D02*
X156282380Y-84034285D01*
X155234761Y-83796190D02*
X155949047Y-83558095D01*
X155949047Y-84177142D01*
X155282380Y-84986666D02*
X155282380Y-84796190D01*
X155330000Y-84700952D01*
X155377619Y-84653333D01*
X155520476Y-84558095D01*
X155710952Y-84510476D01*
X156091904Y-84510476D01*
X156187142Y-84558095D01*
X156234761Y-84605714D01*
X156282380Y-84700952D01*
X156282380Y-84891428D01*
X156234761Y-84986666D01*
X156187142Y-85034285D01*
X156091904Y-85081904D01*
X155853809Y-85081904D01*
X155758571Y-85034285D01*
X155710952Y-84986666D01*
X155663333Y-84891428D01*
X155663333Y-84700952D01*
X155710952Y-84605714D01*
X155758571Y-84558095D01*
X155853809Y-84510476D01*
%TO.C,R47*%
X146122380Y-94607142D02*
X145646190Y-94273809D01*
X146122380Y-94035714D02*
X145122380Y-94035714D01*
X145122380Y-94416666D01*
X145170000Y-94511904D01*
X145217619Y-94559523D01*
X145312857Y-94607142D01*
X145455714Y-94607142D01*
X145550952Y-94559523D01*
X145598571Y-94511904D01*
X145646190Y-94416666D01*
X145646190Y-94035714D01*
X145455714Y-95464285D02*
X146122380Y-95464285D01*
X145074761Y-95226190D02*
X145789047Y-94988095D01*
X145789047Y-95607142D01*
X145122380Y-95892857D02*
X145122380Y-96559523D01*
X146122380Y-96130952D01*
%TO.C,R48*%
X177872380Y-71747142D02*
X177396190Y-71413809D01*
X177872380Y-71175714D02*
X176872380Y-71175714D01*
X176872380Y-71556666D01*
X176920000Y-71651904D01*
X176967619Y-71699523D01*
X177062857Y-71747142D01*
X177205714Y-71747142D01*
X177300952Y-71699523D01*
X177348571Y-71651904D01*
X177396190Y-71556666D01*
X177396190Y-71175714D01*
X177205714Y-72604285D02*
X177872380Y-72604285D01*
X176824761Y-72366190D02*
X177539047Y-72128095D01*
X177539047Y-72747142D01*
X177300952Y-73270952D02*
X177253333Y-73175714D01*
X177205714Y-73128095D01*
X177110476Y-73080476D01*
X177062857Y-73080476D01*
X176967619Y-73128095D01*
X176920000Y-73175714D01*
X176872380Y-73270952D01*
X176872380Y-73461428D01*
X176920000Y-73556666D01*
X176967619Y-73604285D01*
X177062857Y-73651904D01*
X177110476Y-73651904D01*
X177205714Y-73604285D01*
X177253333Y-73556666D01*
X177300952Y-73461428D01*
X177300952Y-73270952D01*
X177348571Y-73175714D01*
X177396190Y-73128095D01*
X177491428Y-73080476D01*
X177681904Y-73080476D01*
X177777142Y-73128095D01*
X177824761Y-73175714D01*
X177872380Y-73270952D01*
X177872380Y-73461428D01*
X177824761Y-73556666D01*
X177777142Y-73604285D01*
X177681904Y-73651904D01*
X177491428Y-73651904D01*
X177396190Y-73604285D01*
X177348571Y-73556666D01*
X177300952Y-73461428D01*
%TO.C,R49*%
X152472380Y-106037142D02*
X151996190Y-105703809D01*
X152472380Y-105465714D02*
X151472380Y-105465714D01*
X151472380Y-105846666D01*
X151520000Y-105941904D01*
X151567619Y-105989523D01*
X151662857Y-106037142D01*
X151805714Y-106037142D01*
X151900952Y-105989523D01*
X151948571Y-105941904D01*
X151996190Y-105846666D01*
X151996190Y-105465714D01*
X151805714Y-106894285D02*
X152472380Y-106894285D01*
X151424761Y-106656190D02*
X152139047Y-106418095D01*
X152139047Y-107037142D01*
X152472380Y-107465714D02*
X152472380Y-107656190D01*
X152424761Y-107751428D01*
X152377142Y-107799047D01*
X152234285Y-107894285D01*
X152043809Y-107941904D01*
X151662857Y-107941904D01*
X151567619Y-107894285D01*
X151520000Y-107846666D01*
X151472380Y-107751428D01*
X151472380Y-107560952D01*
X151520000Y-107465714D01*
X151567619Y-107418095D01*
X151662857Y-107370476D01*
X151900952Y-107370476D01*
X151996190Y-107418095D01*
X152043809Y-107465714D01*
X152091428Y-107560952D01*
X152091428Y-107751428D01*
X152043809Y-107846666D01*
X151996190Y-107894285D01*
X151900952Y-107941904D01*
%TO.C,R50*%
X160092380Y-94607142D02*
X159616190Y-94273809D01*
X160092380Y-94035714D02*
X159092380Y-94035714D01*
X159092380Y-94416666D01*
X159140000Y-94511904D01*
X159187619Y-94559523D01*
X159282857Y-94607142D01*
X159425714Y-94607142D01*
X159520952Y-94559523D01*
X159568571Y-94511904D01*
X159616190Y-94416666D01*
X159616190Y-94035714D01*
X159092380Y-95511904D02*
X159092380Y-95035714D01*
X159568571Y-94988095D01*
X159520952Y-95035714D01*
X159473333Y-95130952D01*
X159473333Y-95369047D01*
X159520952Y-95464285D01*
X159568571Y-95511904D01*
X159663809Y-95559523D01*
X159901904Y-95559523D01*
X159997142Y-95511904D01*
X160044761Y-95464285D01*
X160092380Y-95369047D01*
X160092380Y-95130952D01*
X160044761Y-95035714D01*
X159997142Y-94988095D01*
X159092380Y-96178571D02*
X159092380Y-96273809D01*
X159140000Y-96369047D01*
X159187619Y-96416666D01*
X159282857Y-96464285D01*
X159473333Y-96511904D01*
X159711428Y-96511904D01*
X159901904Y-96464285D01*
X159997142Y-96416666D01*
X160044761Y-96369047D01*
X160092380Y-96273809D01*
X160092380Y-96178571D01*
X160044761Y-96083333D01*
X159997142Y-96035714D01*
X159901904Y-95988095D01*
X159711428Y-95940476D01*
X159473333Y-95940476D01*
X159282857Y-95988095D01*
X159187619Y-96035714D01*
X159140000Y-96083333D01*
X159092380Y-96178571D01*
%TO.C,R51*%
X170252380Y-83177142D02*
X169776190Y-82843809D01*
X170252380Y-82605714D02*
X169252380Y-82605714D01*
X169252380Y-82986666D01*
X169300000Y-83081904D01*
X169347619Y-83129523D01*
X169442857Y-83177142D01*
X169585714Y-83177142D01*
X169680952Y-83129523D01*
X169728571Y-83081904D01*
X169776190Y-82986666D01*
X169776190Y-82605714D01*
X169252380Y-84081904D02*
X169252380Y-83605714D01*
X169728571Y-83558095D01*
X169680952Y-83605714D01*
X169633333Y-83700952D01*
X169633333Y-83939047D01*
X169680952Y-84034285D01*
X169728571Y-84081904D01*
X169823809Y-84129523D01*
X170061904Y-84129523D01*
X170157142Y-84081904D01*
X170204761Y-84034285D01*
X170252380Y-83939047D01*
X170252380Y-83700952D01*
X170204761Y-83605714D01*
X170157142Y-83558095D01*
X170252380Y-85081904D02*
X170252380Y-84510476D01*
X170252380Y-84796190D02*
X169252380Y-84796190D01*
X169395238Y-84700952D01*
X169490476Y-84605714D01*
X169538095Y-84510476D01*
%TO.C,R52*%
X138502380Y-106037142D02*
X138026190Y-105703809D01*
X138502380Y-105465714D02*
X137502380Y-105465714D01*
X137502380Y-105846666D01*
X137550000Y-105941904D01*
X137597619Y-105989523D01*
X137692857Y-106037142D01*
X137835714Y-106037142D01*
X137930952Y-105989523D01*
X137978571Y-105941904D01*
X138026190Y-105846666D01*
X138026190Y-105465714D01*
X137502380Y-106941904D02*
X137502380Y-106465714D01*
X137978571Y-106418095D01*
X137930952Y-106465714D01*
X137883333Y-106560952D01*
X137883333Y-106799047D01*
X137930952Y-106894285D01*
X137978571Y-106941904D01*
X138073809Y-106989523D01*
X138311904Y-106989523D01*
X138407142Y-106941904D01*
X138454761Y-106894285D01*
X138502380Y-106799047D01*
X138502380Y-106560952D01*
X138454761Y-106465714D01*
X138407142Y-106418095D01*
X137597619Y-107370476D02*
X137550000Y-107418095D01*
X137502380Y-107513333D01*
X137502380Y-107751428D01*
X137550000Y-107846666D01*
X137597619Y-107894285D01*
X137692857Y-107941904D01*
X137788095Y-107941904D01*
X137930952Y-107894285D01*
X138502380Y-107322857D01*
X138502380Y-107941904D01*
%TO.C,R53*%
X191842380Y-71747142D02*
X191366190Y-71413809D01*
X191842380Y-71175714D02*
X190842380Y-71175714D01*
X190842380Y-71556666D01*
X190890000Y-71651904D01*
X190937619Y-71699523D01*
X191032857Y-71747142D01*
X191175714Y-71747142D01*
X191270952Y-71699523D01*
X191318571Y-71651904D01*
X191366190Y-71556666D01*
X191366190Y-71175714D01*
X190842380Y-72651904D02*
X190842380Y-72175714D01*
X191318571Y-72128095D01*
X191270952Y-72175714D01*
X191223333Y-72270952D01*
X191223333Y-72509047D01*
X191270952Y-72604285D01*
X191318571Y-72651904D01*
X191413809Y-72699523D01*
X191651904Y-72699523D01*
X191747142Y-72651904D01*
X191794761Y-72604285D01*
X191842380Y-72509047D01*
X191842380Y-72270952D01*
X191794761Y-72175714D01*
X191747142Y-72128095D01*
X190842380Y-73032857D02*
X190842380Y-73651904D01*
X191223333Y-73318571D01*
X191223333Y-73461428D01*
X191270952Y-73556666D01*
X191318571Y-73604285D01*
X191413809Y-73651904D01*
X191651904Y-73651904D01*
X191747142Y-73604285D01*
X191794761Y-73556666D01*
X191842380Y-73461428D01*
X191842380Y-73175714D01*
X191794761Y-73080476D01*
X191747142Y-73032857D01*
%TO.C,R54*%
X184222380Y-83177142D02*
X183746190Y-82843809D01*
X184222380Y-82605714D02*
X183222380Y-82605714D01*
X183222380Y-82986666D01*
X183270000Y-83081904D01*
X183317619Y-83129523D01*
X183412857Y-83177142D01*
X183555714Y-83177142D01*
X183650952Y-83129523D01*
X183698571Y-83081904D01*
X183746190Y-82986666D01*
X183746190Y-82605714D01*
X183222380Y-84081904D02*
X183222380Y-83605714D01*
X183698571Y-83558095D01*
X183650952Y-83605714D01*
X183603333Y-83700952D01*
X183603333Y-83939047D01*
X183650952Y-84034285D01*
X183698571Y-84081904D01*
X183793809Y-84129523D01*
X184031904Y-84129523D01*
X184127142Y-84081904D01*
X184174761Y-84034285D01*
X184222380Y-83939047D01*
X184222380Y-83700952D01*
X184174761Y-83605714D01*
X184127142Y-83558095D01*
X183555714Y-84986666D02*
X184222380Y-84986666D01*
X183174761Y-84748571D02*
X183889047Y-84510476D01*
X183889047Y-85129523D01*
%TO.C,R55*%
X174062380Y-94607142D02*
X173586190Y-94273809D01*
X174062380Y-94035714D02*
X173062380Y-94035714D01*
X173062380Y-94416666D01*
X173110000Y-94511904D01*
X173157619Y-94559523D01*
X173252857Y-94607142D01*
X173395714Y-94607142D01*
X173490952Y-94559523D01*
X173538571Y-94511904D01*
X173586190Y-94416666D01*
X173586190Y-94035714D01*
X173062380Y-95511904D02*
X173062380Y-95035714D01*
X173538571Y-94988095D01*
X173490952Y-95035714D01*
X173443333Y-95130952D01*
X173443333Y-95369047D01*
X173490952Y-95464285D01*
X173538571Y-95511904D01*
X173633809Y-95559523D01*
X173871904Y-95559523D01*
X173967142Y-95511904D01*
X174014761Y-95464285D01*
X174062380Y-95369047D01*
X174062380Y-95130952D01*
X174014761Y-95035714D01*
X173967142Y-94988095D01*
X173062380Y-96464285D02*
X173062380Y-95988095D01*
X173538571Y-95940476D01*
X173490952Y-95988095D01*
X173443333Y-96083333D01*
X173443333Y-96321428D01*
X173490952Y-96416666D01*
X173538571Y-96464285D01*
X173633809Y-96511904D01*
X173871904Y-96511904D01*
X173967142Y-96464285D01*
X174014761Y-96416666D01*
X174062380Y-96321428D01*
X174062380Y-96083333D01*
X174014761Y-95988095D01*
X173967142Y-95940476D01*
%TO.C,R56*%
X205812380Y-71747142D02*
X205336190Y-71413809D01*
X205812380Y-71175714D02*
X204812380Y-71175714D01*
X204812380Y-71556666D01*
X204860000Y-71651904D01*
X204907619Y-71699523D01*
X205002857Y-71747142D01*
X205145714Y-71747142D01*
X205240952Y-71699523D01*
X205288571Y-71651904D01*
X205336190Y-71556666D01*
X205336190Y-71175714D01*
X204812380Y-72651904D02*
X204812380Y-72175714D01*
X205288571Y-72128095D01*
X205240952Y-72175714D01*
X205193333Y-72270952D01*
X205193333Y-72509047D01*
X205240952Y-72604285D01*
X205288571Y-72651904D01*
X205383809Y-72699523D01*
X205621904Y-72699523D01*
X205717142Y-72651904D01*
X205764761Y-72604285D01*
X205812380Y-72509047D01*
X205812380Y-72270952D01*
X205764761Y-72175714D01*
X205717142Y-72128095D01*
X204812380Y-73556666D02*
X204812380Y-73366190D01*
X204860000Y-73270952D01*
X204907619Y-73223333D01*
X205050476Y-73128095D01*
X205240952Y-73080476D01*
X205621904Y-73080476D01*
X205717142Y-73128095D01*
X205764761Y-73175714D01*
X205812380Y-73270952D01*
X205812380Y-73461428D01*
X205764761Y-73556666D01*
X205717142Y-73604285D01*
X205621904Y-73651904D01*
X205383809Y-73651904D01*
X205288571Y-73604285D01*
X205240952Y-73556666D01*
X205193333Y-73461428D01*
X205193333Y-73270952D01*
X205240952Y-73175714D01*
X205288571Y-73128095D01*
X205383809Y-73080476D01*
%TO.C,R57*%
X180412380Y-106037142D02*
X179936190Y-105703809D01*
X180412380Y-105465714D02*
X179412380Y-105465714D01*
X179412380Y-105846666D01*
X179460000Y-105941904D01*
X179507619Y-105989523D01*
X179602857Y-106037142D01*
X179745714Y-106037142D01*
X179840952Y-105989523D01*
X179888571Y-105941904D01*
X179936190Y-105846666D01*
X179936190Y-105465714D01*
X179412380Y-106941904D02*
X179412380Y-106465714D01*
X179888571Y-106418095D01*
X179840952Y-106465714D01*
X179793333Y-106560952D01*
X179793333Y-106799047D01*
X179840952Y-106894285D01*
X179888571Y-106941904D01*
X179983809Y-106989523D01*
X180221904Y-106989523D01*
X180317142Y-106941904D01*
X180364761Y-106894285D01*
X180412380Y-106799047D01*
X180412380Y-106560952D01*
X180364761Y-106465714D01*
X180317142Y-106418095D01*
X179412380Y-107322857D02*
X179412380Y-107989523D01*
X180412380Y-107560952D01*
%TO.C,R58*%
X188032380Y-94607142D02*
X187556190Y-94273809D01*
X188032380Y-94035714D02*
X187032380Y-94035714D01*
X187032380Y-94416666D01*
X187080000Y-94511904D01*
X187127619Y-94559523D01*
X187222857Y-94607142D01*
X187365714Y-94607142D01*
X187460952Y-94559523D01*
X187508571Y-94511904D01*
X187556190Y-94416666D01*
X187556190Y-94035714D01*
X187032380Y-95511904D02*
X187032380Y-95035714D01*
X187508571Y-94988095D01*
X187460952Y-95035714D01*
X187413333Y-95130952D01*
X187413333Y-95369047D01*
X187460952Y-95464285D01*
X187508571Y-95511904D01*
X187603809Y-95559523D01*
X187841904Y-95559523D01*
X187937142Y-95511904D01*
X187984761Y-95464285D01*
X188032380Y-95369047D01*
X188032380Y-95130952D01*
X187984761Y-95035714D01*
X187937142Y-94988095D01*
X187460952Y-96130952D02*
X187413333Y-96035714D01*
X187365714Y-95988095D01*
X187270476Y-95940476D01*
X187222857Y-95940476D01*
X187127619Y-95988095D01*
X187080000Y-96035714D01*
X187032380Y-96130952D01*
X187032380Y-96321428D01*
X187080000Y-96416666D01*
X187127619Y-96464285D01*
X187222857Y-96511904D01*
X187270476Y-96511904D01*
X187365714Y-96464285D01*
X187413333Y-96416666D01*
X187460952Y-96321428D01*
X187460952Y-96130952D01*
X187508571Y-96035714D01*
X187556190Y-95988095D01*
X187651428Y-95940476D01*
X187841904Y-95940476D01*
X187937142Y-95988095D01*
X187984761Y-96035714D01*
X188032380Y-96130952D01*
X188032380Y-96321428D01*
X187984761Y-96416666D01*
X187937142Y-96464285D01*
X187841904Y-96511904D01*
X187651428Y-96511904D01*
X187556190Y-96464285D01*
X187508571Y-96416666D01*
X187460952Y-96321428D01*
%TO.C,R59*%
X198192380Y-83177142D02*
X197716190Y-82843809D01*
X198192380Y-82605714D02*
X197192380Y-82605714D01*
X197192380Y-82986666D01*
X197240000Y-83081904D01*
X197287619Y-83129523D01*
X197382857Y-83177142D01*
X197525714Y-83177142D01*
X197620952Y-83129523D01*
X197668571Y-83081904D01*
X197716190Y-82986666D01*
X197716190Y-82605714D01*
X197192380Y-84081904D02*
X197192380Y-83605714D01*
X197668571Y-83558095D01*
X197620952Y-83605714D01*
X197573333Y-83700952D01*
X197573333Y-83939047D01*
X197620952Y-84034285D01*
X197668571Y-84081904D01*
X197763809Y-84129523D01*
X198001904Y-84129523D01*
X198097142Y-84081904D01*
X198144761Y-84034285D01*
X198192380Y-83939047D01*
X198192380Y-83700952D01*
X198144761Y-83605714D01*
X198097142Y-83558095D01*
X198192380Y-84605714D02*
X198192380Y-84796190D01*
X198144761Y-84891428D01*
X198097142Y-84939047D01*
X197954285Y-85034285D01*
X197763809Y-85081904D01*
X197382857Y-85081904D01*
X197287619Y-85034285D01*
X197240000Y-84986666D01*
X197192380Y-84891428D01*
X197192380Y-84700952D01*
X197240000Y-84605714D01*
X197287619Y-84558095D01*
X197382857Y-84510476D01*
X197620952Y-84510476D01*
X197716190Y-84558095D01*
X197763809Y-84605714D01*
X197811428Y-84700952D01*
X197811428Y-84891428D01*
X197763809Y-84986666D01*
X197716190Y-85034285D01*
X197620952Y-85081904D01*
%TO.C,R60*%
X166442380Y-106037142D02*
X165966190Y-105703809D01*
X166442380Y-105465714D02*
X165442380Y-105465714D01*
X165442380Y-105846666D01*
X165490000Y-105941904D01*
X165537619Y-105989523D01*
X165632857Y-106037142D01*
X165775714Y-106037142D01*
X165870952Y-105989523D01*
X165918571Y-105941904D01*
X165966190Y-105846666D01*
X165966190Y-105465714D01*
X165442380Y-106894285D02*
X165442380Y-106703809D01*
X165490000Y-106608571D01*
X165537619Y-106560952D01*
X165680476Y-106465714D01*
X165870952Y-106418095D01*
X166251904Y-106418095D01*
X166347142Y-106465714D01*
X166394761Y-106513333D01*
X166442380Y-106608571D01*
X166442380Y-106799047D01*
X166394761Y-106894285D01*
X166347142Y-106941904D01*
X166251904Y-106989523D01*
X166013809Y-106989523D01*
X165918571Y-106941904D01*
X165870952Y-106894285D01*
X165823333Y-106799047D01*
X165823333Y-106608571D01*
X165870952Y-106513333D01*
X165918571Y-106465714D01*
X166013809Y-106418095D01*
X165442380Y-107608571D02*
X165442380Y-107703809D01*
X165490000Y-107799047D01*
X165537619Y-107846666D01*
X165632857Y-107894285D01*
X165823333Y-107941904D01*
X166061428Y-107941904D01*
X166251904Y-107894285D01*
X166347142Y-107846666D01*
X166394761Y-107799047D01*
X166442380Y-107703809D01*
X166442380Y-107608571D01*
X166394761Y-107513333D01*
X166347142Y-107465714D01*
X166251904Y-107418095D01*
X166061428Y-107370476D01*
X165823333Y-107370476D01*
X165632857Y-107418095D01*
X165537619Y-107465714D01*
X165490000Y-107513333D01*
X165442380Y-107608571D01*
%TO.C,R61*%
X219782380Y-71747142D02*
X219306190Y-71413809D01*
X219782380Y-71175714D02*
X218782380Y-71175714D01*
X218782380Y-71556666D01*
X218830000Y-71651904D01*
X218877619Y-71699523D01*
X218972857Y-71747142D01*
X219115714Y-71747142D01*
X219210952Y-71699523D01*
X219258571Y-71651904D01*
X219306190Y-71556666D01*
X219306190Y-71175714D01*
X218782380Y-72604285D02*
X218782380Y-72413809D01*
X218830000Y-72318571D01*
X218877619Y-72270952D01*
X219020476Y-72175714D01*
X219210952Y-72128095D01*
X219591904Y-72128095D01*
X219687142Y-72175714D01*
X219734761Y-72223333D01*
X219782380Y-72318571D01*
X219782380Y-72509047D01*
X219734761Y-72604285D01*
X219687142Y-72651904D01*
X219591904Y-72699523D01*
X219353809Y-72699523D01*
X219258571Y-72651904D01*
X219210952Y-72604285D01*
X219163333Y-72509047D01*
X219163333Y-72318571D01*
X219210952Y-72223333D01*
X219258571Y-72175714D01*
X219353809Y-72128095D01*
X219782380Y-73651904D02*
X219782380Y-73080476D01*
X219782380Y-73366190D02*
X218782380Y-73366190D01*
X218925238Y-73270952D01*
X219020476Y-73175714D01*
X219068095Y-73080476D01*
%TO.C,R62*%
X212162380Y-83177142D02*
X211686190Y-82843809D01*
X212162380Y-82605714D02*
X211162380Y-82605714D01*
X211162380Y-82986666D01*
X211210000Y-83081904D01*
X211257619Y-83129523D01*
X211352857Y-83177142D01*
X211495714Y-83177142D01*
X211590952Y-83129523D01*
X211638571Y-83081904D01*
X211686190Y-82986666D01*
X211686190Y-82605714D01*
X211162380Y-84034285D02*
X211162380Y-83843809D01*
X211210000Y-83748571D01*
X211257619Y-83700952D01*
X211400476Y-83605714D01*
X211590952Y-83558095D01*
X211971904Y-83558095D01*
X212067142Y-83605714D01*
X212114761Y-83653333D01*
X212162380Y-83748571D01*
X212162380Y-83939047D01*
X212114761Y-84034285D01*
X212067142Y-84081904D01*
X211971904Y-84129523D01*
X211733809Y-84129523D01*
X211638571Y-84081904D01*
X211590952Y-84034285D01*
X211543333Y-83939047D01*
X211543333Y-83748571D01*
X211590952Y-83653333D01*
X211638571Y-83605714D01*
X211733809Y-83558095D01*
X211257619Y-84510476D02*
X211210000Y-84558095D01*
X211162380Y-84653333D01*
X211162380Y-84891428D01*
X211210000Y-84986666D01*
X211257619Y-85034285D01*
X211352857Y-85081904D01*
X211448095Y-85081904D01*
X211590952Y-85034285D01*
X212162380Y-84462857D01*
X212162380Y-85081904D01*
%TO.C,R63*%
X202002380Y-94607142D02*
X201526190Y-94273809D01*
X202002380Y-94035714D02*
X201002380Y-94035714D01*
X201002380Y-94416666D01*
X201050000Y-94511904D01*
X201097619Y-94559523D01*
X201192857Y-94607142D01*
X201335714Y-94607142D01*
X201430952Y-94559523D01*
X201478571Y-94511904D01*
X201526190Y-94416666D01*
X201526190Y-94035714D01*
X201002380Y-95464285D02*
X201002380Y-95273809D01*
X201050000Y-95178571D01*
X201097619Y-95130952D01*
X201240476Y-95035714D01*
X201430952Y-94988095D01*
X201811904Y-94988095D01*
X201907142Y-95035714D01*
X201954761Y-95083333D01*
X202002380Y-95178571D01*
X202002380Y-95369047D01*
X201954761Y-95464285D01*
X201907142Y-95511904D01*
X201811904Y-95559523D01*
X201573809Y-95559523D01*
X201478571Y-95511904D01*
X201430952Y-95464285D01*
X201383333Y-95369047D01*
X201383333Y-95178571D01*
X201430952Y-95083333D01*
X201478571Y-95035714D01*
X201573809Y-94988095D01*
X201002380Y-95892857D02*
X201002380Y-96511904D01*
X201383333Y-96178571D01*
X201383333Y-96321428D01*
X201430952Y-96416666D01*
X201478571Y-96464285D01*
X201573809Y-96511904D01*
X201811904Y-96511904D01*
X201907142Y-96464285D01*
X201954761Y-96416666D01*
X202002380Y-96321428D01*
X202002380Y-96035714D01*
X201954761Y-95940476D01*
X201907142Y-95892857D01*
%TO.C,R64*%
X233752380Y-71747142D02*
X233276190Y-71413809D01*
X233752380Y-71175714D02*
X232752380Y-71175714D01*
X232752380Y-71556666D01*
X232800000Y-71651904D01*
X232847619Y-71699523D01*
X232942857Y-71747142D01*
X233085714Y-71747142D01*
X233180952Y-71699523D01*
X233228571Y-71651904D01*
X233276190Y-71556666D01*
X233276190Y-71175714D01*
X232752380Y-72604285D02*
X232752380Y-72413809D01*
X232800000Y-72318571D01*
X232847619Y-72270952D01*
X232990476Y-72175714D01*
X233180952Y-72128095D01*
X233561904Y-72128095D01*
X233657142Y-72175714D01*
X233704761Y-72223333D01*
X233752380Y-72318571D01*
X233752380Y-72509047D01*
X233704761Y-72604285D01*
X233657142Y-72651904D01*
X233561904Y-72699523D01*
X233323809Y-72699523D01*
X233228571Y-72651904D01*
X233180952Y-72604285D01*
X233133333Y-72509047D01*
X233133333Y-72318571D01*
X233180952Y-72223333D01*
X233228571Y-72175714D01*
X233323809Y-72128095D01*
X233085714Y-73556666D02*
X233752380Y-73556666D01*
X232704761Y-73318571D02*
X233419047Y-73080476D01*
X233419047Y-73699523D01*
%TO.C,R65*%
X212162380Y-106037142D02*
X211686190Y-105703809D01*
X212162380Y-105465714D02*
X211162380Y-105465714D01*
X211162380Y-105846666D01*
X211210000Y-105941904D01*
X211257619Y-105989523D01*
X211352857Y-106037142D01*
X211495714Y-106037142D01*
X211590952Y-105989523D01*
X211638571Y-105941904D01*
X211686190Y-105846666D01*
X211686190Y-105465714D01*
X211162380Y-106894285D02*
X211162380Y-106703809D01*
X211210000Y-106608571D01*
X211257619Y-106560952D01*
X211400476Y-106465714D01*
X211590952Y-106418095D01*
X211971904Y-106418095D01*
X212067142Y-106465714D01*
X212114761Y-106513333D01*
X212162380Y-106608571D01*
X212162380Y-106799047D01*
X212114761Y-106894285D01*
X212067142Y-106941904D01*
X211971904Y-106989523D01*
X211733809Y-106989523D01*
X211638571Y-106941904D01*
X211590952Y-106894285D01*
X211543333Y-106799047D01*
X211543333Y-106608571D01*
X211590952Y-106513333D01*
X211638571Y-106465714D01*
X211733809Y-106418095D01*
X211162380Y-107894285D02*
X211162380Y-107418095D01*
X211638571Y-107370476D01*
X211590952Y-107418095D01*
X211543333Y-107513333D01*
X211543333Y-107751428D01*
X211590952Y-107846666D01*
X211638571Y-107894285D01*
X211733809Y-107941904D01*
X211971904Y-107941904D01*
X212067142Y-107894285D01*
X212114761Y-107846666D01*
X212162380Y-107751428D01*
X212162380Y-107513333D01*
X212114761Y-107418095D01*
X212067142Y-107370476D01*
%TO.C,R66*%
X215972380Y-94607142D02*
X215496190Y-94273809D01*
X215972380Y-94035714D02*
X214972380Y-94035714D01*
X214972380Y-94416666D01*
X215020000Y-94511904D01*
X215067619Y-94559523D01*
X215162857Y-94607142D01*
X215305714Y-94607142D01*
X215400952Y-94559523D01*
X215448571Y-94511904D01*
X215496190Y-94416666D01*
X215496190Y-94035714D01*
X214972380Y-95464285D02*
X214972380Y-95273809D01*
X215020000Y-95178571D01*
X215067619Y-95130952D01*
X215210476Y-95035714D01*
X215400952Y-94988095D01*
X215781904Y-94988095D01*
X215877142Y-95035714D01*
X215924761Y-95083333D01*
X215972380Y-95178571D01*
X215972380Y-95369047D01*
X215924761Y-95464285D01*
X215877142Y-95511904D01*
X215781904Y-95559523D01*
X215543809Y-95559523D01*
X215448571Y-95511904D01*
X215400952Y-95464285D01*
X215353333Y-95369047D01*
X215353333Y-95178571D01*
X215400952Y-95083333D01*
X215448571Y-95035714D01*
X215543809Y-94988095D01*
X214972380Y-96416666D02*
X214972380Y-96226190D01*
X215020000Y-96130952D01*
X215067619Y-96083333D01*
X215210476Y-95988095D01*
X215400952Y-95940476D01*
X215781904Y-95940476D01*
X215877142Y-95988095D01*
X215924761Y-96035714D01*
X215972380Y-96130952D01*
X215972380Y-96321428D01*
X215924761Y-96416666D01*
X215877142Y-96464285D01*
X215781904Y-96511904D01*
X215543809Y-96511904D01*
X215448571Y-96464285D01*
X215400952Y-96416666D01*
X215353333Y-96321428D01*
X215353333Y-96130952D01*
X215400952Y-96035714D01*
X215448571Y-95988095D01*
X215543809Y-95940476D01*
%TO.C,R67*%
X226132380Y-83177142D02*
X225656190Y-82843809D01*
X226132380Y-82605714D02*
X225132380Y-82605714D01*
X225132380Y-82986666D01*
X225180000Y-83081904D01*
X225227619Y-83129523D01*
X225322857Y-83177142D01*
X225465714Y-83177142D01*
X225560952Y-83129523D01*
X225608571Y-83081904D01*
X225656190Y-82986666D01*
X225656190Y-82605714D01*
X225132380Y-84034285D02*
X225132380Y-83843809D01*
X225180000Y-83748571D01*
X225227619Y-83700952D01*
X225370476Y-83605714D01*
X225560952Y-83558095D01*
X225941904Y-83558095D01*
X226037142Y-83605714D01*
X226084761Y-83653333D01*
X226132380Y-83748571D01*
X226132380Y-83939047D01*
X226084761Y-84034285D01*
X226037142Y-84081904D01*
X225941904Y-84129523D01*
X225703809Y-84129523D01*
X225608571Y-84081904D01*
X225560952Y-84034285D01*
X225513333Y-83939047D01*
X225513333Y-83748571D01*
X225560952Y-83653333D01*
X225608571Y-83605714D01*
X225703809Y-83558095D01*
X225132380Y-84462857D02*
X225132380Y-85129523D01*
X226132380Y-84700952D01*
%TO.C,R68*%
X194382380Y-106037142D02*
X193906190Y-105703809D01*
X194382380Y-105465714D02*
X193382380Y-105465714D01*
X193382380Y-105846666D01*
X193430000Y-105941904D01*
X193477619Y-105989523D01*
X193572857Y-106037142D01*
X193715714Y-106037142D01*
X193810952Y-105989523D01*
X193858571Y-105941904D01*
X193906190Y-105846666D01*
X193906190Y-105465714D01*
X193382380Y-106894285D02*
X193382380Y-106703809D01*
X193430000Y-106608571D01*
X193477619Y-106560952D01*
X193620476Y-106465714D01*
X193810952Y-106418095D01*
X194191904Y-106418095D01*
X194287142Y-106465714D01*
X194334761Y-106513333D01*
X194382380Y-106608571D01*
X194382380Y-106799047D01*
X194334761Y-106894285D01*
X194287142Y-106941904D01*
X194191904Y-106989523D01*
X193953809Y-106989523D01*
X193858571Y-106941904D01*
X193810952Y-106894285D01*
X193763333Y-106799047D01*
X193763333Y-106608571D01*
X193810952Y-106513333D01*
X193858571Y-106465714D01*
X193953809Y-106418095D01*
X193810952Y-107560952D02*
X193763333Y-107465714D01*
X193715714Y-107418095D01*
X193620476Y-107370476D01*
X193572857Y-107370476D01*
X193477619Y-107418095D01*
X193430000Y-107465714D01*
X193382380Y-107560952D01*
X193382380Y-107751428D01*
X193430000Y-107846666D01*
X193477619Y-107894285D01*
X193572857Y-107941904D01*
X193620476Y-107941904D01*
X193715714Y-107894285D01*
X193763333Y-107846666D01*
X193810952Y-107751428D01*
X193810952Y-107560952D01*
X193858571Y-107465714D01*
X193906190Y-107418095D01*
X194001428Y-107370476D01*
X194191904Y-107370476D01*
X194287142Y-107418095D01*
X194334761Y-107465714D01*
X194382380Y-107560952D01*
X194382380Y-107751428D01*
X194334761Y-107846666D01*
X194287142Y-107894285D01*
X194191904Y-107941904D01*
X194001428Y-107941904D01*
X193906190Y-107894285D01*
X193858571Y-107846666D01*
X193810952Y-107751428D01*
%TO.C,R69*%
X52142380Y-71747142D02*
X51666190Y-71413809D01*
X52142380Y-71175714D02*
X51142380Y-71175714D01*
X51142380Y-71556666D01*
X51190000Y-71651904D01*
X51237619Y-71699523D01*
X51332857Y-71747142D01*
X51475714Y-71747142D01*
X51570952Y-71699523D01*
X51618571Y-71651904D01*
X51666190Y-71556666D01*
X51666190Y-71175714D01*
X51142380Y-72604285D02*
X51142380Y-72413809D01*
X51190000Y-72318571D01*
X51237619Y-72270952D01*
X51380476Y-72175714D01*
X51570952Y-72128095D01*
X51951904Y-72128095D01*
X52047142Y-72175714D01*
X52094761Y-72223333D01*
X52142380Y-72318571D01*
X52142380Y-72509047D01*
X52094761Y-72604285D01*
X52047142Y-72651904D01*
X51951904Y-72699523D01*
X51713809Y-72699523D01*
X51618571Y-72651904D01*
X51570952Y-72604285D01*
X51523333Y-72509047D01*
X51523333Y-72318571D01*
X51570952Y-72223333D01*
X51618571Y-72175714D01*
X51713809Y-72128095D01*
X52142380Y-73175714D02*
X52142380Y-73366190D01*
X52094761Y-73461428D01*
X52047142Y-73509047D01*
X51904285Y-73604285D01*
X51713809Y-73651904D01*
X51332857Y-73651904D01*
X51237619Y-73604285D01*
X51190000Y-73556666D01*
X51142380Y-73461428D01*
X51142380Y-73270952D01*
X51190000Y-73175714D01*
X51237619Y-73128095D01*
X51332857Y-73080476D01*
X51570952Y-73080476D01*
X51666190Y-73128095D01*
X51713809Y-73175714D01*
X51761428Y-73270952D01*
X51761428Y-73461428D01*
X51713809Y-73556666D01*
X51666190Y-73604285D01*
X51570952Y-73651904D01*
%TO.C,R70*%
X38172380Y-71747142D02*
X37696190Y-71413809D01*
X38172380Y-71175714D02*
X37172380Y-71175714D01*
X37172380Y-71556666D01*
X37220000Y-71651904D01*
X37267619Y-71699523D01*
X37362857Y-71747142D01*
X37505714Y-71747142D01*
X37600952Y-71699523D01*
X37648571Y-71651904D01*
X37696190Y-71556666D01*
X37696190Y-71175714D01*
X37172380Y-72080476D02*
X37172380Y-72747142D01*
X38172380Y-72318571D01*
X37172380Y-73318571D02*
X37172380Y-73413809D01*
X37220000Y-73509047D01*
X37267619Y-73556666D01*
X37362857Y-73604285D01*
X37553333Y-73651904D01*
X37791428Y-73651904D01*
X37981904Y-73604285D01*
X38077142Y-73556666D01*
X38124761Y-73509047D01*
X38172380Y-73413809D01*
X38172380Y-73318571D01*
X38124761Y-73223333D01*
X38077142Y-73175714D01*
X37981904Y-73128095D01*
X37791428Y-73080476D01*
X37553333Y-73080476D01*
X37362857Y-73128095D01*
X37267619Y-73175714D01*
X37220000Y-73223333D01*
X37172380Y-73318571D01*
%TO.C,R71*%
X41982380Y-83177142D02*
X41506190Y-82843809D01*
X41982380Y-82605714D02*
X40982380Y-82605714D01*
X40982380Y-82986666D01*
X41030000Y-83081904D01*
X41077619Y-83129523D01*
X41172857Y-83177142D01*
X41315714Y-83177142D01*
X41410952Y-83129523D01*
X41458571Y-83081904D01*
X41506190Y-82986666D01*
X41506190Y-82605714D01*
X40982380Y-83510476D02*
X40982380Y-84177142D01*
X41982380Y-83748571D01*
X41982380Y-85081904D02*
X41982380Y-84510476D01*
X41982380Y-84796190D02*
X40982380Y-84796190D01*
X41125238Y-84700952D01*
X41220476Y-84605714D01*
X41268095Y-84510476D01*
%TO.C,R72*%
X66112380Y-71747142D02*
X65636190Y-71413809D01*
X66112380Y-71175714D02*
X65112380Y-71175714D01*
X65112380Y-71556666D01*
X65160000Y-71651904D01*
X65207619Y-71699523D01*
X65302857Y-71747142D01*
X65445714Y-71747142D01*
X65540952Y-71699523D01*
X65588571Y-71651904D01*
X65636190Y-71556666D01*
X65636190Y-71175714D01*
X65112380Y-72080476D02*
X65112380Y-72747142D01*
X66112380Y-72318571D01*
X65207619Y-73080476D02*
X65160000Y-73128095D01*
X65112380Y-73223333D01*
X65112380Y-73461428D01*
X65160000Y-73556666D01*
X65207619Y-73604285D01*
X65302857Y-73651904D01*
X65398095Y-73651904D01*
X65540952Y-73604285D01*
X66112380Y-73032857D01*
X66112380Y-73651904D01*
%TO.C,R76*%
X156282380Y-117467142D02*
X155806190Y-117133809D01*
X156282380Y-116895714D02*
X155282380Y-116895714D01*
X155282380Y-117276666D01*
X155330000Y-117371904D01*
X155377619Y-117419523D01*
X155472857Y-117467142D01*
X155615714Y-117467142D01*
X155710952Y-117419523D01*
X155758571Y-117371904D01*
X155806190Y-117276666D01*
X155806190Y-116895714D01*
X155282380Y-117800476D02*
X155282380Y-118467142D01*
X156282380Y-118038571D01*
X155282380Y-119276666D02*
X155282380Y-119086190D01*
X155330000Y-118990952D01*
X155377619Y-118943333D01*
X155520476Y-118848095D01*
X155710952Y-118800476D01*
X156091904Y-118800476D01*
X156187142Y-118848095D01*
X156234761Y-118895714D01*
X156282380Y-118990952D01*
X156282380Y-119181428D01*
X156234761Y-119276666D01*
X156187142Y-119324285D01*
X156091904Y-119371904D01*
X155853809Y-119371904D01*
X155758571Y-119324285D01*
X155710952Y-119276666D01*
X155663333Y-119181428D01*
X155663333Y-118990952D01*
X155710952Y-118895714D01*
X155758571Y-118848095D01*
X155853809Y-118800476D01*
%TO.C,R73*%
X34362380Y-106037142D02*
X33886190Y-105703809D01*
X34362380Y-105465714D02*
X33362380Y-105465714D01*
X33362380Y-105846666D01*
X33410000Y-105941904D01*
X33457619Y-105989523D01*
X33552857Y-106037142D01*
X33695714Y-106037142D01*
X33790952Y-105989523D01*
X33838571Y-105941904D01*
X33886190Y-105846666D01*
X33886190Y-105465714D01*
X33362380Y-106370476D02*
X33362380Y-107037142D01*
X34362380Y-106608571D01*
X33362380Y-107322857D02*
X33362380Y-107941904D01*
X33743333Y-107608571D01*
X33743333Y-107751428D01*
X33790952Y-107846666D01*
X33838571Y-107894285D01*
X33933809Y-107941904D01*
X34171904Y-107941904D01*
X34267142Y-107894285D01*
X34314761Y-107846666D01*
X34362380Y-107751428D01*
X34362380Y-107465714D01*
X34314761Y-107370476D01*
X34267142Y-107322857D01*
%TO.C,R74*%
X58492380Y-83177142D02*
X58016190Y-82843809D01*
X58492380Y-82605714D02*
X57492380Y-82605714D01*
X57492380Y-82986666D01*
X57540000Y-83081904D01*
X57587619Y-83129523D01*
X57682857Y-83177142D01*
X57825714Y-83177142D01*
X57920952Y-83129523D01*
X57968571Y-83081904D01*
X58016190Y-82986666D01*
X58016190Y-82605714D01*
X57492380Y-83510476D02*
X57492380Y-84177142D01*
X58492380Y-83748571D01*
X57825714Y-84986666D02*
X58492380Y-84986666D01*
X57444761Y-84748571D02*
X58159047Y-84510476D01*
X58159047Y-85129523D01*
%TO.C,R75*%
X34362380Y-94607142D02*
X33886190Y-94273809D01*
X34362380Y-94035714D02*
X33362380Y-94035714D01*
X33362380Y-94416666D01*
X33410000Y-94511904D01*
X33457619Y-94559523D01*
X33552857Y-94607142D01*
X33695714Y-94607142D01*
X33790952Y-94559523D01*
X33838571Y-94511904D01*
X33886190Y-94416666D01*
X33886190Y-94035714D01*
X33362380Y-94940476D02*
X33362380Y-95607142D01*
X34362380Y-95178571D01*
X33362380Y-96464285D02*
X33362380Y-95988095D01*
X33838571Y-95940476D01*
X33790952Y-95988095D01*
X33743333Y-96083333D01*
X33743333Y-96321428D01*
X33790952Y-96416666D01*
X33838571Y-96464285D01*
X33933809Y-96511904D01*
X34171904Y-96511904D01*
X34267142Y-96464285D01*
X34314761Y-96416666D01*
X34362380Y-96321428D01*
X34362380Y-96083333D01*
X34314761Y-95988095D01*
X34267142Y-95940476D01*
%TO.C,C1*%
X188698142Y-141057333D02*
X188745761Y-141009714D01*
X188793380Y-140866857D01*
X188793380Y-140771619D01*
X188745761Y-140628761D01*
X188650523Y-140533523D01*
X188555285Y-140485904D01*
X188364809Y-140438285D01*
X188221952Y-140438285D01*
X188031476Y-140485904D01*
X187936238Y-140533523D01*
X187841000Y-140628761D01*
X187793380Y-140771619D01*
X187793380Y-140866857D01*
X187841000Y-141009714D01*
X187888619Y-141057333D01*
X188793380Y-142009714D02*
X188793380Y-141438285D01*
X188793380Y-141724000D02*
X187793380Y-141724000D01*
X187936238Y-141628761D01*
X188031476Y-141533523D01*
X188079095Y-141438285D01*
%TO.C,C2*%
X186285142Y-141057333D02*
X186332761Y-141009714D01*
X186380380Y-140866857D01*
X186380380Y-140771619D01*
X186332761Y-140628761D01*
X186237523Y-140533523D01*
X186142285Y-140485904D01*
X185951809Y-140438285D01*
X185808952Y-140438285D01*
X185618476Y-140485904D01*
X185523238Y-140533523D01*
X185428000Y-140628761D01*
X185380380Y-140771619D01*
X185380380Y-140866857D01*
X185428000Y-141009714D01*
X185475619Y-141057333D01*
X185475619Y-141438285D02*
X185428000Y-141485904D01*
X185380380Y-141581142D01*
X185380380Y-141819238D01*
X185428000Y-141914476D01*
X185475619Y-141962095D01*
X185570857Y-142009714D01*
X185666095Y-142009714D01*
X185808952Y-141962095D01*
X186380380Y-141390666D01*
X186380380Y-142009714D01*
%TO.C,C3*%
X39663666Y-131703142D02*
X39711285Y-131750761D01*
X39854142Y-131798380D01*
X39949380Y-131798380D01*
X40092238Y-131750761D01*
X40187476Y-131655523D01*
X40235095Y-131560285D01*
X40282714Y-131369809D01*
X40282714Y-131226952D01*
X40235095Y-131036476D01*
X40187476Y-130941238D01*
X40092238Y-130846000D01*
X39949380Y-130798380D01*
X39854142Y-130798380D01*
X39711285Y-130846000D01*
X39663666Y-130893619D01*
X39330333Y-130798380D02*
X38711285Y-130798380D01*
X39044619Y-131179333D01*
X38901761Y-131179333D01*
X38806523Y-131226952D01*
X38758904Y-131274571D01*
X38711285Y-131369809D01*
X38711285Y-131607904D01*
X38758904Y-131703142D01*
X38806523Y-131750761D01*
X38901761Y-131798380D01*
X39187476Y-131798380D01*
X39282714Y-131750761D01*
X39330333Y-131703142D01*
%TO.C,CU1*%
X174172476Y-133834142D02*
X174220095Y-133881761D01*
X174362952Y-133929380D01*
X174458190Y-133929380D01*
X174601047Y-133881761D01*
X174696285Y-133786523D01*
X174743904Y-133691285D01*
X174791523Y-133500809D01*
X174791523Y-133357952D01*
X174743904Y-133167476D01*
X174696285Y-133072238D01*
X174601047Y-132977000D01*
X174458190Y-132929380D01*
X174362952Y-132929380D01*
X174220095Y-132977000D01*
X174172476Y-133024619D01*
X173743904Y-132929380D02*
X173743904Y-133738904D01*
X173696285Y-133834142D01*
X173648666Y-133881761D01*
X173553428Y-133929380D01*
X173362952Y-133929380D01*
X173267714Y-133881761D01*
X173220095Y-133834142D01*
X173172476Y-133738904D01*
X173172476Y-132929380D01*
X172172476Y-133929380D02*
X172743904Y-133929380D01*
X172458190Y-133929380D02*
X172458190Y-132929380D01*
X172553428Y-133072238D01*
X172648666Y-133167476D01*
X172743904Y-133215095D01*
%TO.C,CU2*%
X196905476Y-133961142D02*
X196953095Y-134008761D01*
X197095952Y-134056380D01*
X197191190Y-134056380D01*
X197334047Y-134008761D01*
X197429285Y-133913523D01*
X197476904Y-133818285D01*
X197524523Y-133627809D01*
X197524523Y-133484952D01*
X197476904Y-133294476D01*
X197429285Y-133199238D01*
X197334047Y-133104000D01*
X197191190Y-133056380D01*
X197095952Y-133056380D01*
X196953095Y-133104000D01*
X196905476Y-133151619D01*
X196476904Y-133056380D02*
X196476904Y-133865904D01*
X196429285Y-133961142D01*
X196381666Y-134008761D01*
X196286428Y-134056380D01*
X196095952Y-134056380D01*
X196000714Y-134008761D01*
X195953095Y-133961142D01*
X195905476Y-133865904D01*
X195905476Y-133056380D01*
X195476904Y-133151619D02*
X195429285Y-133104000D01*
X195334047Y-133056380D01*
X195095952Y-133056380D01*
X195000714Y-133104000D01*
X194953095Y-133151619D01*
X194905476Y-133246857D01*
X194905476Y-133342095D01*
X194953095Y-133484952D01*
X195524523Y-134056380D01*
X194905476Y-134056380D01*
%TO.C,CU3*%
X170284142Y-136215523D02*
X170331761Y-136167904D01*
X170379380Y-136025047D01*
X170379380Y-135929809D01*
X170331761Y-135786952D01*
X170236523Y-135691714D01*
X170141285Y-135644095D01*
X169950809Y-135596476D01*
X169807952Y-135596476D01*
X169617476Y-135644095D01*
X169522238Y-135691714D01*
X169427000Y-135786952D01*
X169379380Y-135929809D01*
X169379380Y-136025047D01*
X169427000Y-136167904D01*
X169474619Y-136215523D01*
X169379380Y-136644095D02*
X170188904Y-136644095D01*
X170284142Y-136691714D01*
X170331761Y-136739333D01*
X170379380Y-136834571D01*
X170379380Y-137025047D01*
X170331761Y-137120285D01*
X170284142Y-137167904D01*
X170188904Y-137215523D01*
X169379380Y-137215523D01*
X169379380Y-137596476D02*
X169379380Y-138215523D01*
X169760333Y-137882190D01*
X169760333Y-138025047D01*
X169807952Y-138120285D01*
X169855571Y-138167904D01*
X169950809Y-138215523D01*
X170188904Y-138215523D01*
X170284142Y-138167904D01*
X170331761Y-138120285D01*
X170379380Y-138025047D01*
X170379380Y-137739333D01*
X170331761Y-137644095D01*
X170284142Y-137596476D01*
%TO.C,CU4*%
X163377476Y-133834142D02*
X163425095Y-133881761D01*
X163567952Y-133929380D01*
X163663190Y-133929380D01*
X163806047Y-133881761D01*
X163901285Y-133786523D01*
X163948904Y-133691285D01*
X163996523Y-133500809D01*
X163996523Y-133357952D01*
X163948904Y-133167476D01*
X163901285Y-133072238D01*
X163806047Y-132977000D01*
X163663190Y-132929380D01*
X163567952Y-132929380D01*
X163425095Y-132977000D01*
X163377476Y-133024619D01*
X162948904Y-132929380D02*
X162948904Y-133738904D01*
X162901285Y-133834142D01*
X162853666Y-133881761D01*
X162758428Y-133929380D01*
X162567952Y-133929380D01*
X162472714Y-133881761D01*
X162425095Y-133834142D01*
X162377476Y-133738904D01*
X162377476Y-132929380D01*
X161472714Y-133262714D02*
X161472714Y-133929380D01*
X161710809Y-132881761D02*
X161948904Y-133596047D01*
X161329857Y-133596047D01*
%TO.C,J1*%
X30142380Y-124126666D02*
X30856666Y-124126666D01*
X30999523Y-124079047D01*
X31094761Y-123983809D01*
X31142380Y-123840952D01*
X31142380Y-123745714D01*
X31142380Y-125126666D02*
X31142380Y-124555238D01*
X31142380Y-124840952D02*
X30142380Y-124840952D01*
X30285238Y-124745714D01*
X30380476Y-124650476D01*
X30428095Y-124555238D01*
%TO.C,R1*%
X263723380Y-58888333D02*
X263247190Y-58555000D01*
X263723380Y-58316904D02*
X262723380Y-58316904D01*
X262723380Y-58697857D01*
X262771000Y-58793095D01*
X262818619Y-58840714D01*
X262913857Y-58888333D01*
X263056714Y-58888333D01*
X263151952Y-58840714D01*
X263199571Y-58793095D01*
X263247190Y-58697857D01*
X263247190Y-58316904D01*
X263723380Y-59840714D02*
X263723380Y-59269285D01*
X263723380Y-59555000D02*
X262723380Y-59555000D01*
X262866238Y-59459761D01*
X262961476Y-59364523D01*
X263009095Y-59269285D01*
%TO.C,R2*%
X195016380Y-136739333D02*
X194540190Y-136406000D01*
X195016380Y-136167904D02*
X194016380Y-136167904D01*
X194016380Y-136548857D01*
X194064000Y-136644095D01*
X194111619Y-136691714D01*
X194206857Y-136739333D01*
X194349714Y-136739333D01*
X194444952Y-136691714D01*
X194492571Y-136644095D01*
X194540190Y-136548857D01*
X194540190Y-136167904D01*
X194111619Y-137120285D02*
X194064000Y-137167904D01*
X194016380Y-137263142D01*
X194016380Y-137501238D01*
X194064000Y-137596476D01*
X194111619Y-137644095D01*
X194206857Y-137691714D01*
X194302095Y-137691714D01*
X194444952Y-137644095D01*
X195016380Y-137072666D01*
X195016380Y-137691714D01*
%TO.C,R3*%
X191079380Y-139787333D02*
X190603190Y-139454000D01*
X191079380Y-139215904D02*
X190079380Y-139215904D01*
X190079380Y-139596857D01*
X190127000Y-139692095D01*
X190174619Y-139739714D01*
X190269857Y-139787333D01*
X190412714Y-139787333D01*
X190507952Y-139739714D01*
X190555571Y-139692095D01*
X190603190Y-139596857D01*
X190603190Y-139215904D01*
X190079380Y-140120666D02*
X190079380Y-140739714D01*
X190460333Y-140406380D01*
X190460333Y-140549238D01*
X190507952Y-140644476D01*
X190555571Y-140692095D01*
X190650809Y-140739714D01*
X190888904Y-140739714D01*
X190984142Y-140692095D01*
X191031761Y-140644476D01*
X191079380Y-140549238D01*
X191079380Y-140263523D01*
X191031761Y-140168285D01*
X190984142Y-140120666D01*
%TO.C,R4*%
X181935380Y-139533333D02*
X181459190Y-139200000D01*
X181935380Y-138961904D02*
X180935380Y-138961904D01*
X180935380Y-139342857D01*
X180983000Y-139438095D01*
X181030619Y-139485714D01*
X181125857Y-139533333D01*
X181268714Y-139533333D01*
X181363952Y-139485714D01*
X181411571Y-139438095D01*
X181459190Y-139342857D01*
X181459190Y-138961904D01*
X181268714Y-140390476D02*
X181935380Y-140390476D01*
X180887761Y-140152380D02*
X181602047Y-139914285D01*
X181602047Y-140533333D01*
%TO.C,R13*%
X184094380Y-139565142D02*
X183618190Y-139231809D01*
X184094380Y-138993714D02*
X183094380Y-138993714D01*
X183094380Y-139374666D01*
X183142000Y-139469904D01*
X183189619Y-139517523D01*
X183284857Y-139565142D01*
X183427714Y-139565142D01*
X183522952Y-139517523D01*
X183570571Y-139469904D01*
X183618190Y-139374666D01*
X183618190Y-138993714D01*
X184094380Y-140517523D02*
X184094380Y-139946095D01*
X184094380Y-140231809D02*
X183094380Y-140231809D01*
X183237238Y-140136571D01*
X183332476Y-140041333D01*
X183380095Y-139946095D01*
X183094380Y-140850857D02*
X183094380Y-141469904D01*
X183475333Y-141136571D01*
X183475333Y-141279428D01*
X183522952Y-141374666D01*
X183570571Y-141422285D01*
X183665809Y-141469904D01*
X183903904Y-141469904D01*
X183999142Y-141422285D01*
X184046761Y-141374666D01*
X184094380Y-141279428D01*
X184094380Y-140993714D01*
X184046761Y-140898476D01*
X183999142Y-140850857D01*
%TO.C,R14*%
X184030857Y-134056380D02*
X184364190Y-133580190D01*
X184602285Y-134056380D02*
X184602285Y-133056380D01*
X184221333Y-133056380D01*
X184126095Y-133104000D01*
X184078476Y-133151619D01*
X184030857Y-133246857D01*
X184030857Y-133389714D01*
X184078476Y-133484952D01*
X184126095Y-133532571D01*
X184221333Y-133580190D01*
X184602285Y-133580190D01*
X183078476Y-134056380D02*
X183649904Y-134056380D01*
X183364190Y-134056380D02*
X183364190Y-133056380D01*
X183459428Y-133199238D01*
X183554666Y-133294476D01*
X183649904Y-133342095D01*
X182221333Y-133389714D02*
X182221333Y-134056380D01*
X182459428Y-133008761D02*
X182697523Y-133723047D01*
X182078476Y-133723047D01*
%TO.C,R24*%
X254197380Y-58412142D02*
X253721190Y-58078809D01*
X254197380Y-57840714D02*
X253197380Y-57840714D01*
X253197380Y-58221666D01*
X253245000Y-58316904D01*
X253292619Y-58364523D01*
X253387857Y-58412142D01*
X253530714Y-58412142D01*
X253625952Y-58364523D01*
X253673571Y-58316904D01*
X253721190Y-58221666D01*
X253721190Y-57840714D01*
X253292619Y-58793095D02*
X253245000Y-58840714D01*
X253197380Y-58935952D01*
X253197380Y-59174047D01*
X253245000Y-59269285D01*
X253292619Y-59316904D01*
X253387857Y-59364523D01*
X253483095Y-59364523D01*
X253625952Y-59316904D01*
X254197380Y-58745476D01*
X254197380Y-59364523D01*
X253530714Y-60221666D02*
X254197380Y-60221666D01*
X253149761Y-59983571D02*
X253864047Y-59745476D01*
X253864047Y-60364523D01*
%TO.C,R33*%
X239594380Y-125976142D02*
X239118190Y-125642809D01*
X239594380Y-125404714D02*
X238594380Y-125404714D01*
X238594380Y-125785666D01*
X238642000Y-125880904D01*
X238689619Y-125928523D01*
X238784857Y-125976142D01*
X238927714Y-125976142D01*
X239022952Y-125928523D01*
X239070571Y-125880904D01*
X239118190Y-125785666D01*
X239118190Y-125404714D01*
X238594380Y-126309476D02*
X238594380Y-126928523D01*
X238975333Y-126595190D01*
X238975333Y-126738047D01*
X239022952Y-126833285D01*
X239070571Y-126880904D01*
X239165809Y-126928523D01*
X239403904Y-126928523D01*
X239499142Y-126880904D01*
X239546761Y-126833285D01*
X239594380Y-126738047D01*
X239594380Y-126452333D01*
X239546761Y-126357095D01*
X239499142Y-126309476D01*
X238594380Y-127261857D02*
X238594380Y-127880904D01*
X238975333Y-127547571D01*
X238975333Y-127690428D01*
X239022952Y-127785666D01*
X239070571Y-127833285D01*
X239165809Y-127880904D01*
X239403904Y-127880904D01*
X239499142Y-127833285D01*
X239546761Y-127785666D01*
X239594380Y-127690428D01*
X239594380Y-127404714D01*
X239546761Y-127309476D01*
X239499142Y-127261857D01*
%TO.C,R34*%
X248864380Y-109339142D02*
X248388190Y-109005809D01*
X248864380Y-108767714D02*
X247864380Y-108767714D01*
X247864380Y-109148666D01*
X247912000Y-109243904D01*
X247959619Y-109291523D01*
X248054857Y-109339142D01*
X248197714Y-109339142D01*
X248292952Y-109291523D01*
X248340571Y-109243904D01*
X248388190Y-109148666D01*
X248388190Y-108767714D01*
X247864380Y-109672476D02*
X247864380Y-110291523D01*
X248245333Y-109958190D01*
X248245333Y-110101047D01*
X248292952Y-110196285D01*
X248340571Y-110243904D01*
X248435809Y-110291523D01*
X248673904Y-110291523D01*
X248769142Y-110243904D01*
X248816761Y-110196285D01*
X248864380Y-110101047D01*
X248864380Y-109815333D01*
X248816761Y-109720095D01*
X248769142Y-109672476D01*
X248197714Y-111148666D02*
X248864380Y-111148666D01*
X247816761Y-110910571D02*
X248531047Y-110672476D01*
X248531047Y-111291523D01*
%TO.C,R43*%
X241561857Y-129993380D02*
X241895190Y-129517190D01*
X242133285Y-129993380D02*
X242133285Y-128993380D01*
X241752333Y-128993380D01*
X241657095Y-129041000D01*
X241609476Y-129088619D01*
X241561857Y-129183857D01*
X241561857Y-129326714D01*
X241609476Y-129421952D01*
X241657095Y-129469571D01*
X241752333Y-129517190D01*
X242133285Y-129517190D01*
X240704714Y-129326714D02*
X240704714Y-129993380D01*
X240942809Y-128945761D02*
X241180904Y-129660047D01*
X240561857Y-129660047D01*
X240276142Y-128993380D02*
X239657095Y-128993380D01*
X239990428Y-129374333D01*
X239847571Y-129374333D01*
X239752333Y-129421952D01*
X239704714Y-129469571D01*
X239657095Y-129564809D01*
X239657095Y-129802904D01*
X239704714Y-129898142D01*
X239752333Y-129945761D01*
X239847571Y-129993380D01*
X240133285Y-129993380D01*
X240228523Y-129945761D01*
X240276142Y-129898142D01*
%TO.C,R44*%
X249562857Y-113864380D02*
X249896190Y-113388190D01*
X250134285Y-113864380D02*
X250134285Y-112864380D01*
X249753333Y-112864380D01*
X249658095Y-112912000D01*
X249610476Y-112959619D01*
X249562857Y-113054857D01*
X249562857Y-113197714D01*
X249610476Y-113292952D01*
X249658095Y-113340571D01*
X249753333Y-113388190D01*
X250134285Y-113388190D01*
X248705714Y-113197714D02*
X248705714Y-113864380D01*
X248943809Y-112816761D02*
X249181904Y-113531047D01*
X248562857Y-113531047D01*
X247753333Y-113197714D02*
X247753333Y-113864380D01*
X247991428Y-112816761D02*
X248229523Y-113531047D01*
X247610476Y-113531047D01*
%TO.C,U1*%
X177545904Y-130770380D02*
X177545904Y-131579904D01*
X177498285Y-131675142D01*
X177450666Y-131722761D01*
X177355428Y-131770380D01*
X177164952Y-131770380D01*
X177069714Y-131722761D01*
X177022095Y-131675142D01*
X176974476Y-131579904D01*
X176974476Y-130770380D01*
X175974476Y-131770380D02*
X176545904Y-131770380D01*
X176260190Y-131770380D02*
X176260190Y-130770380D01*
X176355428Y-130913238D01*
X176450666Y-131008476D01*
X176545904Y-131056095D01*
%TO.C,U2*%
X189356904Y-130770380D02*
X189356904Y-131579904D01*
X189309285Y-131675142D01*
X189261666Y-131722761D01*
X189166428Y-131770380D01*
X188975952Y-131770380D01*
X188880714Y-131722761D01*
X188833095Y-131675142D01*
X188785476Y-131579904D01*
X188785476Y-130770380D01*
X188356904Y-130865619D02*
X188309285Y-130818000D01*
X188214047Y-130770380D01*
X187975952Y-130770380D01*
X187880714Y-130818000D01*
X187833095Y-130865619D01*
X187785476Y-130960857D01*
X187785476Y-131056095D01*
X187833095Y-131198952D01*
X188404523Y-131770380D01*
X187785476Y-131770380D01*
%TO.C,U3*%
X177418904Y-137501380D02*
X177418904Y-138310904D01*
X177371285Y-138406142D01*
X177323666Y-138453761D01*
X177228428Y-138501380D01*
X177037952Y-138501380D01*
X176942714Y-138453761D01*
X176895095Y-138406142D01*
X176847476Y-138310904D01*
X176847476Y-137501380D01*
X176466523Y-137501380D02*
X175847476Y-137501380D01*
X176180809Y-137882333D01*
X176037952Y-137882333D01*
X175942714Y-137929952D01*
X175895095Y-137977571D01*
X175847476Y-138072809D01*
X175847476Y-138310904D01*
X175895095Y-138406142D01*
X175942714Y-138453761D01*
X176037952Y-138501380D01*
X176323666Y-138501380D01*
X176418904Y-138453761D01*
X176466523Y-138406142D01*
%TO.C,U4*%
X166750904Y-130770380D02*
X166750904Y-131579904D01*
X166703285Y-131675142D01*
X166655666Y-131722761D01*
X166560428Y-131770380D01*
X166369952Y-131770380D01*
X166274714Y-131722761D01*
X166227095Y-131675142D01*
X166179476Y-131579904D01*
X166179476Y-130770380D01*
X165274714Y-131103714D02*
X165274714Y-131770380D01*
X165512809Y-130722761D02*
X165750904Y-131437047D01*
X165131857Y-131437047D01*
%TO.C,D2*%
X165076095Y-137231380D02*
X165076095Y-136231380D01*
X164838000Y-136231380D01*
X164695142Y-136279000D01*
X164599904Y-136374238D01*
X164552285Y-136469476D01*
X164504666Y-136659952D01*
X164504666Y-136802809D01*
X164552285Y-136993285D01*
X164599904Y-137088523D01*
X164695142Y-137183761D01*
X164838000Y-137231380D01*
X165076095Y-137231380D01*
X164123714Y-136326619D02*
X164076095Y-136279000D01*
X163980857Y-136231380D01*
X163742761Y-136231380D01*
X163647523Y-136279000D01*
X163599904Y-136326619D01*
X163552285Y-136421857D01*
X163552285Y-136517095D01*
X163599904Y-136659952D01*
X164171333Y-137231380D01*
X163552285Y-137231380D01*
%TO.C,D53*%
X153741285Y-134056380D02*
X153741285Y-133056380D01*
X153503190Y-133056380D01*
X153360333Y-133104000D01*
X153265095Y-133199238D01*
X153217476Y-133294476D01*
X153169857Y-133484952D01*
X153169857Y-133627809D01*
X153217476Y-133818285D01*
X153265095Y-133913523D01*
X153360333Y-134008761D01*
X153503190Y-134056380D01*
X153741285Y-134056380D01*
X152265095Y-133056380D02*
X152741285Y-133056380D01*
X152788904Y-133532571D01*
X152741285Y-133484952D01*
X152646047Y-133437333D01*
X152407952Y-133437333D01*
X152312714Y-133484952D01*
X152265095Y-133532571D01*
X152217476Y-133627809D01*
X152217476Y-133865904D01*
X152265095Y-133961142D01*
X152312714Y-134008761D01*
X152407952Y-134056380D01*
X152646047Y-134056380D01*
X152741285Y-134008761D01*
X152788904Y-133961142D01*
X151884142Y-133056380D02*
X151265095Y-133056380D01*
X151598428Y-133437333D01*
X151455571Y-133437333D01*
X151360333Y-133484952D01*
X151312714Y-133532571D01*
X151265095Y-133627809D01*
X151265095Y-133865904D01*
X151312714Y-133961142D01*
X151360333Y-134008761D01*
X151455571Y-134056380D01*
X151741285Y-134056380D01*
X151836523Y-134008761D01*
X151884142Y-133961142D01*
%TO.C,D54*%
X168092285Y-118308380D02*
X168092285Y-117308380D01*
X167854190Y-117308380D01*
X167711333Y-117356000D01*
X167616095Y-117451238D01*
X167568476Y-117546476D01*
X167520857Y-117736952D01*
X167520857Y-117879809D01*
X167568476Y-118070285D01*
X167616095Y-118165523D01*
X167711333Y-118260761D01*
X167854190Y-118308380D01*
X168092285Y-118308380D01*
X166616095Y-117308380D02*
X167092285Y-117308380D01*
X167139904Y-117784571D01*
X167092285Y-117736952D01*
X166997047Y-117689333D01*
X166758952Y-117689333D01*
X166663714Y-117736952D01*
X166616095Y-117784571D01*
X166568476Y-117879809D01*
X166568476Y-118117904D01*
X166616095Y-118213142D01*
X166663714Y-118260761D01*
X166758952Y-118308380D01*
X166997047Y-118308380D01*
X167092285Y-118260761D01*
X167139904Y-118213142D01*
X165711333Y-117641714D02*
X165711333Y-118308380D01*
X165949428Y-117260761D02*
X166187523Y-117975047D01*
X165568476Y-117975047D01*
%TO.C,D70*%
X153741285Y-131643380D02*
X153741285Y-130643380D01*
X153503190Y-130643380D01*
X153360333Y-130691000D01*
X153265095Y-130786238D01*
X153217476Y-130881476D01*
X153169857Y-131071952D01*
X153169857Y-131214809D01*
X153217476Y-131405285D01*
X153265095Y-131500523D01*
X153360333Y-131595761D01*
X153503190Y-131643380D01*
X153741285Y-131643380D01*
X152836523Y-130643380D02*
X152169857Y-130643380D01*
X152598428Y-131643380D01*
X151598428Y-130643380D02*
X151503190Y-130643380D01*
X151407952Y-130691000D01*
X151360333Y-130738619D01*
X151312714Y-130833857D01*
X151265095Y-131024333D01*
X151265095Y-131262428D01*
X151312714Y-131452904D01*
X151360333Y-131548142D01*
X151407952Y-131595761D01*
X151503190Y-131643380D01*
X151598428Y-131643380D01*
X151693666Y-131595761D01*
X151741285Y-131548142D01*
X151788904Y-131452904D01*
X151836523Y-131262428D01*
X151836523Y-131024333D01*
X151788904Y-130833857D01*
X151741285Y-130738619D01*
X151693666Y-130691000D01*
X151598428Y-130643380D01*
%TO.C,D71*%
X168092285Y-124150380D02*
X168092285Y-123150380D01*
X167854190Y-123150380D01*
X167711333Y-123198000D01*
X167616095Y-123293238D01*
X167568476Y-123388476D01*
X167520857Y-123578952D01*
X167520857Y-123721809D01*
X167568476Y-123912285D01*
X167616095Y-124007523D01*
X167711333Y-124102761D01*
X167854190Y-124150380D01*
X168092285Y-124150380D01*
X167187523Y-123150380D02*
X166520857Y-123150380D01*
X166949428Y-124150380D01*
X165616095Y-124150380D02*
X166187523Y-124150380D01*
X165901809Y-124150380D02*
X165901809Y-123150380D01*
X165997047Y-123293238D01*
X166092285Y-123388476D01*
X166187523Y-123436095D01*
%TO.C,D72*%
X159837380Y-121975714D02*
X158837380Y-121975714D01*
X158837380Y-122213809D01*
X158885000Y-122356666D01*
X158980238Y-122451904D01*
X159075476Y-122499523D01*
X159265952Y-122547142D01*
X159408809Y-122547142D01*
X159599285Y-122499523D01*
X159694523Y-122451904D01*
X159789761Y-122356666D01*
X159837380Y-122213809D01*
X159837380Y-121975714D01*
X158837380Y-122880476D02*
X158837380Y-123547142D01*
X159837380Y-123118571D01*
X158932619Y-123880476D02*
X158885000Y-123928095D01*
X158837380Y-124023333D01*
X158837380Y-124261428D01*
X158885000Y-124356666D01*
X158932619Y-124404285D01*
X159027857Y-124451904D01*
X159123095Y-124451904D01*
X159265952Y-124404285D01*
X159837380Y-123832857D01*
X159837380Y-124451904D01*
%TO.C,J2*%
X173652380Y-56816666D02*
X174366666Y-56816666D01*
X174509523Y-56769047D01*
X174604761Y-56673809D01*
X174652380Y-56530952D01*
X174652380Y-56435714D01*
X173747619Y-57245238D02*
X173700000Y-57292857D01*
X173652380Y-57388095D01*
X173652380Y-57626190D01*
X173700000Y-57721428D01*
X173747619Y-57769047D01*
X173842857Y-57816666D01*
X173938095Y-57816666D01*
X174080952Y-57769047D01*
X174652380Y-57197619D01*
X174652380Y-57816666D01*
%TO.C,CU5*%
X263580476Y-64745142D02*
X263628095Y-64792761D01*
X263770952Y-64840380D01*
X263866190Y-64840380D01*
X264009047Y-64792761D01*
X264104285Y-64697523D01*
X264151904Y-64602285D01*
X264199523Y-64411809D01*
X264199523Y-64268952D01*
X264151904Y-64078476D01*
X264104285Y-63983238D01*
X264009047Y-63888000D01*
X263866190Y-63840380D01*
X263770952Y-63840380D01*
X263628095Y-63888000D01*
X263580476Y-63935619D01*
X263151904Y-63840380D02*
X263151904Y-64649904D01*
X263104285Y-64745142D01*
X263056666Y-64792761D01*
X262961428Y-64840380D01*
X262770952Y-64840380D01*
X262675714Y-64792761D01*
X262628095Y-64745142D01*
X262580476Y-64649904D01*
X262580476Y-63840380D01*
X261628095Y-63840380D02*
X262104285Y-63840380D01*
X262151904Y-64316571D01*
X262104285Y-64268952D01*
X262009047Y-64221333D01*
X261770952Y-64221333D01*
X261675714Y-64268952D01*
X261628095Y-64316571D01*
X261580476Y-64411809D01*
X261580476Y-64649904D01*
X261628095Y-64745142D01*
X261675714Y-64792761D01*
X261770952Y-64840380D01*
X262009047Y-64840380D01*
X262104285Y-64792761D01*
X262151904Y-64745142D01*
%TO.C,ZT1*%
D13*
X140785000Y-58654761D02*
X140404047Y-58654761D01*
X140213571Y-58750000D01*
X140023095Y-58940476D01*
X139927857Y-59321428D01*
X139927857Y-59988095D01*
X140023095Y-60369047D01*
X140213571Y-60559523D01*
X140404047Y-60654761D01*
X140785000Y-60654761D01*
X140975476Y-60559523D01*
X141165952Y-60369047D01*
X141261190Y-59988095D01*
X141261190Y-59321428D01*
X141165952Y-58940476D01*
X140975476Y-58750000D01*
X140785000Y-58654761D01*
X139070714Y-58654761D02*
X139070714Y-60273809D01*
X138975476Y-60464285D01*
X138880238Y-60559523D01*
X138689761Y-60654761D01*
X138308809Y-60654761D01*
X138118333Y-60559523D01*
X138023095Y-60464285D01*
X137927857Y-60273809D01*
X137927857Y-58654761D01*
X137261190Y-58654761D02*
X136118333Y-58654761D01*
X136689761Y-60654761D02*
X136689761Y-58654761D01*
%TO.C,D3*%
D11*
X26384380Y-76604904D02*
X25384380Y-76604904D01*
X25384380Y-76843000D01*
X25432000Y-76985857D01*
X25527238Y-77081095D01*
X25622476Y-77128714D01*
X25812952Y-77176333D01*
X25955809Y-77176333D01*
X26146285Y-77128714D01*
X26241523Y-77081095D01*
X26336761Y-76985857D01*
X26384380Y-76843000D01*
X26384380Y-76604904D01*
X25384380Y-77509666D02*
X25384380Y-78128714D01*
X25765333Y-77795380D01*
X25765333Y-77938238D01*
X25812952Y-78033476D01*
X25860571Y-78081095D01*
X25955809Y-78128714D01*
X26193904Y-78128714D01*
X26289142Y-78081095D01*
X26336761Y-78033476D01*
X26384380Y-77938238D01*
X26384380Y-77652523D01*
X26336761Y-77557285D01*
X26289142Y-77509666D01*
%TO.C,D4*%
X45180380Y-90193904D02*
X44180380Y-90193904D01*
X44180380Y-90432000D01*
X44228000Y-90574857D01*
X44323238Y-90670095D01*
X44418476Y-90717714D01*
X44608952Y-90765333D01*
X44751809Y-90765333D01*
X44942285Y-90717714D01*
X45037523Y-90670095D01*
X45132761Y-90574857D01*
X45180380Y-90432000D01*
X45180380Y-90193904D01*
X44513714Y-91622476D02*
X45180380Y-91622476D01*
X44132761Y-91384380D02*
X44847047Y-91146285D01*
X44847047Y-91765333D01*
%TO.C,D5*%
X24987380Y-119022904D02*
X23987380Y-119022904D01*
X23987380Y-119261000D01*
X24035000Y-119403857D01*
X24130238Y-119499095D01*
X24225476Y-119546714D01*
X24415952Y-119594333D01*
X24558809Y-119594333D01*
X24749285Y-119546714D01*
X24844523Y-119499095D01*
X24939761Y-119403857D01*
X24987380Y-119261000D01*
X24987380Y-119022904D01*
X23987380Y-120499095D02*
X23987380Y-120022904D01*
X24463571Y-119975285D01*
X24415952Y-120022904D01*
X24368333Y-120118142D01*
X24368333Y-120356238D01*
X24415952Y-120451476D01*
X24463571Y-120499095D01*
X24558809Y-120546714D01*
X24796904Y-120546714D01*
X24892142Y-120499095D01*
X24939761Y-120451476D01*
X24987380Y-120356238D01*
X24987380Y-120118142D01*
X24939761Y-120022904D01*
X24892142Y-119975285D01*
%TO.C,D6*%
X54197380Y-110386904D02*
X53197380Y-110386904D01*
X53197380Y-110625000D01*
X53245000Y-110767857D01*
X53340238Y-110863095D01*
X53435476Y-110910714D01*
X53625952Y-110958333D01*
X53768809Y-110958333D01*
X53959285Y-110910714D01*
X54054523Y-110863095D01*
X54149761Y-110767857D01*
X54197380Y-110625000D01*
X54197380Y-110386904D01*
X53197380Y-111815476D02*
X53197380Y-111625000D01*
X53245000Y-111529761D01*
X53292619Y-111482142D01*
X53435476Y-111386904D01*
X53625952Y-111339285D01*
X54006904Y-111339285D01*
X54102142Y-111386904D01*
X54149761Y-111434523D01*
X54197380Y-111529761D01*
X54197380Y-111720238D01*
X54149761Y-111815476D01*
X54102142Y-111863095D01*
X54006904Y-111910714D01*
X53768809Y-111910714D01*
X53673571Y-111863095D01*
X53625952Y-111815476D01*
X53578333Y-111720238D01*
X53578333Y-111529761D01*
X53625952Y-111434523D01*
X53673571Y-111386904D01*
X53768809Y-111339285D01*
%TO.C,D7*%
X52292380Y-118133904D02*
X51292380Y-118133904D01*
X51292380Y-118372000D01*
X51340000Y-118514857D01*
X51435238Y-118610095D01*
X51530476Y-118657714D01*
X51720952Y-118705333D01*
X51863809Y-118705333D01*
X52054285Y-118657714D01*
X52149523Y-118610095D01*
X52244761Y-118514857D01*
X52292380Y-118372000D01*
X52292380Y-118133904D01*
X51292380Y-119038666D02*
X51292380Y-119705333D01*
X52292380Y-119276761D01*
%TO.C,D8*%
X45053380Y-110640904D02*
X44053380Y-110640904D01*
X44053380Y-110879000D01*
X44101000Y-111021857D01*
X44196238Y-111117095D01*
X44291476Y-111164714D01*
X44481952Y-111212333D01*
X44624809Y-111212333D01*
X44815285Y-111164714D01*
X44910523Y-111117095D01*
X45005761Y-111021857D01*
X45053380Y-110879000D01*
X45053380Y-110640904D01*
X44481952Y-111783761D02*
X44434333Y-111688523D01*
X44386714Y-111640904D01*
X44291476Y-111593285D01*
X44243857Y-111593285D01*
X44148619Y-111640904D01*
X44101000Y-111688523D01*
X44053380Y-111783761D01*
X44053380Y-111974238D01*
X44101000Y-112069476D01*
X44148619Y-112117095D01*
X44243857Y-112164714D01*
X44291476Y-112164714D01*
X44386714Y-112117095D01*
X44434333Y-112069476D01*
X44481952Y-111974238D01*
X44481952Y-111783761D01*
X44529571Y-111688523D01*
X44577190Y-111640904D01*
X44672428Y-111593285D01*
X44862904Y-111593285D01*
X44958142Y-111640904D01*
X45005761Y-111688523D01*
X45053380Y-111783761D01*
X45053380Y-111974238D01*
X45005761Y-112069476D01*
X44958142Y-112117095D01*
X44862904Y-112164714D01*
X44672428Y-112164714D01*
X44577190Y-112117095D01*
X44529571Y-112069476D01*
X44481952Y-111974238D01*
%TO.C,D9*%
X59912380Y-118133904D02*
X58912380Y-118133904D01*
X58912380Y-118372000D01*
X58960000Y-118514857D01*
X59055238Y-118610095D01*
X59150476Y-118657714D01*
X59340952Y-118705333D01*
X59483809Y-118705333D01*
X59674285Y-118657714D01*
X59769523Y-118610095D01*
X59864761Y-118514857D01*
X59912380Y-118372000D01*
X59912380Y-118133904D01*
X59912380Y-119181523D02*
X59912380Y-119372000D01*
X59864761Y-119467238D01*
X59817142Y-119514857D01*
X59674285Y-119610095D01*
X59483809Y-119657714D01*
X59102857Y-119657714D01*
X59007619Y-119610095D01*
X58960000Y-119562476D01*
X58912380Y-119467238D01*
X58912380Y-119276761D01*
X58960000Y-119181523D01*
X59007619Y-119133904D01*
X59102857Y-119086285D01*
X59340952Y-119086285D01*
X59436190Y-119133904D01*
X59483809Y-119181523D01*
X59531428Y-119276761D01*
X59531428Y-119467238D01*
X59483809Y-119562476D01*
X59436190Y-119610095D01*
X59340952Y-119657714D01*
%TO.C,D10*%
X29813380Y-86923714D02*
X28813380Y-86923714D01*
X28813380Y-87161809D01*
X28861000Y-87304666D01*
X28956238Y-87399904D01*
X29051476Y-87447523D01*
X29241952Y-87495142D01*
X29384809Y-87495142D01*
X29575285Y-87447523D01*
X29670523Y-87399904D01*
X29765761Y-87304666D01*
X29813380Y-87161809D01*
X29813380Y-86923714D01*
X29813380Y-88447523D02*
X29813380Y-87876095D01*
X29813380Y-88161809D02*
X28813380Y-88161809D01*
X28956238Y-88066571D01*
X29051476Y-87971333D01*
X29099095Y-87876095D01*
X28813380Y-89066571D02*
X28813380Y-89161809D01*
X28861000Y-89257047D01*
X28908619Y-89304666D01*
X29003857Y-89352285D01*
X29194333Y-89399904D01*
X29432428Y-89399904D01*
X29622904Y-89352285D01*
X29718142Y-89304666D01*
X29765761Y-89257047D01*
X29813380Y-89161809D01*
X29813380Y-89066571D01*
X29765761Y-88971333D01*
X29718142Y-88923714D01*
X29622904Y-88876095D01*
X29432428Y-88828476D01*
X29194333Y-88828476D01*
X29003857Y-88876095D01*
X28908619Y-88923714D01*
X28861000Y-88971333D01*
X28813380Y-89066571D01*
%TD*%
M02*
