G04 #@! TF.GenerationSoftware,KiCad,Pcbnew,(5.1.9)-1*
G04 #@! TF.CreationDate,2021-06-15T15:58:53-04:00*
G04 #@! TF.ProjectId,SuperVIC-STM32,53757065-7256-4494-932d-53544d33322e,rev?*
G04 #@! TF.SameCoordinates,Original*
G04 #@! TF.FileFunction,Soldermask,Bot*
G04 #@! TF.FilePolarity,Negative*
%FSLAX46Y46*%
G04 Gerber Fmt 4.6, Leading zero omitted, Abs format (unit mm)*
G04 Created by KiCad (PCBNEW (5.1.9)-1) date 2021-06-15 15:58:53*
%MOMM*%
%LPD*%
G01*
G04 APERTURE LIST*
%ADD10R,0.600000X1.200000*%
%ADD11R,1.700000X1.700000*%
%ADD12O,1.700000X1.700000*%
%ADD13R,0.650000X1.060000*%
%ADD14R,1.600000X1.100000*%
%ADD15R,2.600000X3.500000*%
%ADD16C,1.524000*%
G04 APERTURE END LIST*
D10*
X221297500Y-117475000D03*
X222567500Y-117475000D03*
X223837500Y-117475000D03*
X225107500Y-117475000D03*
X225107500Y-110363000D03*
X223837500Y-110363000D03*
X222567500Y-110363000D03*
X221297500Y-110363000D03*
X221297500Y-108204000D03*
X222567500Y-108204000D03*
X223837500Y-108204000D03*
X225107500Y-108204000D03*
X225107500Y-101092000D03*
X223837500Y-101092000D03*
X222567500Y-101092000D03*
X221297500Y-101092000D03*
D11*
X129540000Y-127000000D03*
D12*
X129540000Y-124460000D03*
X129540000Y-121920000D03*
X129540000Y-119380000D03*
X129540000Y-116840000D03*
X129540000Y-114300000D03*
D13*
X218755000Y-125560000D03*
X217805000Y-125560000D03*
X216855000Y-125560000D03*
X216855000Y-123360000D03*
X218755000Y-123360000D03*
G36*
G01*
X157824234Y-120081522D02*
X157930300Y-119975456D01*
G75*
G02*
X158036366Y-119975456I53033J-53033D01*
G01*
X158990960Y-120930050D01*
G75*
G02*
X158990960Y-121036116I-53033J-53033D01*
G01*
X158884894Y-121142182D01*
G75*
G02*
X158778828Y-121142182I-53033J53033D01*
G01*
X157824234Y-120187588D01*
G75*
G02*
X157824234Y-120081522I53033J53033D01*
G01*
G37*
G36*
G01*
X158177787Y-119727969D02*
X158283853Y-119621903D01*
G75*
G02*
X158389919Y-119621903I53033J-53033D01*
G01*
X159344513Y-120576497D01*
G75*
G02*
X159344513Y-120682563I-53033J-53033D01*
G01*
X159238447Y-120788629D01*
G75*
G02*
X159132381Y-120788629I-53033J53033D01*
G01*
X158177787Y-119834035D01*
G75*
G02*
X158177787Y-119727969I53033J53033D01*
G01*
G37*
G36*
G01*
X158531340Y-119374416D02*
X158637406Y-119268350D01*
G75*
G02*
X158743472Y-119268350I53033J-53033D01*
G01*
X159698066Y-120222944D01*
G75*
G02*
X159698066Y-120329010I-53033J-53033D01*
G01*
X159592000Y-120435076D01*
G75*
G02*
X159485934Y-120435076I-53033J53033D01*
G01*
X158531340Y-119480482D01*
G75*
G02*
X158531340Y-119374416I53033J53033D01*
G01*
G37*
G36*
G01*
X158884894Y-119020862D02*
X158990960Y-118914796D01*
G75*
G02*
X159097026Y-118914796I53033J-53033D01*
G01*
X160051620Y-119869390D01*
G75*
G02*
X160051620Y-119975456I-53033J-53033D01*
G01*
X159945554Y-120081522D01*
G75*
G02*
X159839488Y-120081522I-53033J53033D01*
G01*
X158884894Y-119126928D01*
G75*
G02*
X158884894Y-119020862I53033J53033D01*
G01*
G37*
G36*
G01*
X159238447Y-118667309D02*
X159344513Y-118561243D01*
G75*
G02*
X159450579Y-118561243I53033J-53033D01*
G01*
X160405173Y-119515837D01*
G75*
G02*
X160405173Y-119621903I-53033J-53033D01*
G01*
X160299107Y-119727969D01*
G75*
G02*
X160193041Y-119727969I-53033J53033D01*
G01*
X159238447Y-118773375D01*
G75*
G02*
X159238447Y-118667309I53033J53033D01*
G01*
G37*
G36*
G01*
X159592000Y-118313755D02*
X159698066Y-118207689D01*
G75*
G02*
X159804132Y-118207689I53033J-53033D01*
G01*
X160758726Y-119162283D01*
G75*
G02*
X160758726Y-119268349I-53033J-53033D01*
G01*
X160652660Y-119374415D01*
G75*
G02*
X160546594Y-119374415I-53033J53033D01*
G01*
X159592000Y-118419821D01*
G75*
G02*
X159592000Y-118313755I53033J53033D01*
G01*
G37*
G36*
G01*
X159945554Y-117960202D02*
X160051620Y-117854136D01*
G75*
G02*
X160157686Y-117854136I53033J-53033D01*
G01*
X161112280Y-118808730D01*
G75*
G02*
X161112280Y-118914796I-53033J-53033D01*
G01*
X161006214Y-119020862D01*
G75*
G02*
X160900148Y-119020862I-53033J53033D01*
G01*
X159945554Y-118066268D01*
G75*
G02*
X159945554Y-117960202I53033J53033D01*
G01*
G37*
G36*
G01*
X160299107Y-117606649D02*
X160405173Y-117500583D01*
G75*
G02*
X160511239Y-117500583I53033J-53033D01*
G01*
X161465833Y-118455177D01*
G75*
G02*
X161465833Y-118561243I-53033J-53033D01*
G01*
X161359767Y-118667309D01*
G75*
G02*
X161253701Y-118667309I-53033J53033D01*
G01*
X160299107Y-117712715D01*
G75*
G02*
X160299107Y-117606649I53033J53033D01*
G01*
G37*
G36*
G01*
X160652661Y-117253095D02*
X160758727Y-117147029D01*
G75*
G02*
X160864793Y-117147029I53033J-53033D01*
G01*
X161819387Y-118101623D01*
G75*
G02*
X161819387Y-118207689I-53033J-53033D01*
G01*
X161713321Y-118313755D01*
G75*
G02*
X161607255Y-118313755I-53033J53033D01*
G01*
X160652661Y-117359161D01*
G75*
G02*
X160652661Y-117253095I53033J53033D01*
G01*
G37*
G36*
G01*
X161006214Y-116899542D02*
X161112280Y-116793476D01*
G75*
G02*
X161218346Y-116793476I53033J-53033D01*
G01*
X162172940Y-117748070D01*
G75*
G02*
X162172940Y-117854136I-53033J-53033D01*
G01*
X162066874Y-117960202D01*
G75*
G02*
X161960808Y-117960202I-53033J53033D01*
G01*
X161006214Y-117005608D01*
G75*
G02*
X161006214Y-116899542I53033J53033D01*
G01*
G37*
G36*
G01*
X161359767Y-116545989D02*
X161465833Y-116439923D01*
G75*
G02*
X161571899Y-116439923I53033J-53033D01*
G01*
X162526493Y-117394517D01*
G75*
G02*
X162526493Y-117500583I-53033J-53033D01*
G01*
X162420427Y-117606649D01*
G75*
G02*
X162314361Y-117606649I-53033J53033D01*
G01*
X161359767Y-116652055D01*
G75*
G02*
X161359767Y-116545989I53033J53033D01*
G01*
G37*
G36*
G01*
X161713321Y-116192435D02*
X161819387Y-116086369D01*
G75*
G02*
X161925453Y-116086369I53033J-53033D01*
G01*
X162880047Y-117040963D01*
G75*
G02*
X162880047Y-117147029I-53033J-53033D01*
G01*
X162773981Y-117253095D01*
G75*
G02*
X162667915Y-117253095I-53033J53033D01*
G01*
X161713321Y-116298501D01*
G75*
G02*
X161713321Y-116192435I53033J53033D01*
G01*
G37*
G36*
G01*
X162066874Y-115838882D02*
X162172940Y-115732816D01*
G75*
G02*
X162279006Y-115732816I53033J-53033D01*
G01*
X163233600Y-116687410D01*
G75*
G02*
X163233600Y-116793476I-53033J-53033D01*
G01*
X163127534Y-116899542D01*
G75*
G02*
X163021468Y-116899542I-53033J53033D01*
G01*
X162066874Y-115944948D01*
G75*
G02*
X162066874Y-115838882I53033J53033D01*
G01*
G37*
G36*
G01*
X162420428Y-115485328D02*
X162526494Y-115379262D01*
G75*
G02*
X162632560Y-115379262I53033J-53033D01*
G01*
X163587154Y-116333856D01*
G75*
G02*
X163587154Y-116439922I-53033J-53033D01*
G01*
X163481088Y-116545988D01*
G75*
G02*
X163375022Y-116545988I-53033J53033D01*
G01*
X162420428Y-115591394D01*
G75*
G02*
X162420428Y-115485328I53033J53033D01*
G01*
G37*
G36*
G01*
X162773981Y-115131775D02*
X162880047Y-115025709D01*
G75*
G02*
X162986113Y-115025709I53033J-53033D01*
G01*
X163940707Y-115980303D01*
G75*
G02*
X163940707Y-116086369I-53033J-53033D01*
G01*
X163834641Y-116192435D01*
G75*
G02*
X163728575Y-116192435I-53033J53033D01*
G01*
X162773981Y-115237841D01*
G75*
G02*
X162773981Y-115131775I53033J53033D01*
G01*
G37*
G36*
G01*
X163127534Y-114778222D02*
X163233600Y-114672156D01*
G75*
G02*
X163339666Y-114672156I53033J-53033D01*
G01*
X164294260Y-115626750D01*
G75*
G02*
X164294260Y-115732816I-53033J-53033D01*
G01*
X164188194Y-115838882D01*
G75*
G02*
X164082128Y-115838882I-53033J53033D01*
G01*
X163127534Y-114884288D01*
G75*
G02*
X163127534Y-114778222I53033J53033D01*
G01*
G37*
G36*
G01*
X163481088Y-114424668D02*
X163587154Y-114318602D01*
G75*
G02*
X163693220Y-114318602I53033J-53033D01*
G01*
X164647814Y-115273196D01*
G75*
G02*
X164647814Y-115379262I-53033J-53033D01*
G01*
X164541748Y-115485328D01*
G75*
G02*
X164435682Y-115485328I-53033J53033D01*
G01*
X163481088Y-114530734D01*
G75*
G02*
X163481088Y-114424668I53033J53033D01*
G01*
G37*
G36*
G01*
X163834641Y-114071115D02*
X163940707Y-113965049D01*
G75*
G02*
X164046773Y-113965049I53033J-53033D01*
G01*
X165001367Y-114919643D01*
G75*
G02*
X165001367Y-115025709I-53033J-53033D01*
G01*
X164895301Y-115131775D01*
G75*
G02*
X164789235Y-115131775I-53033J53033D01*
G01*
X163834641Y-114177181D01*
G75*
G02*
X163834641Y-114071115I53033J53033D01*
G01*
G37*
G36*
G01*
X164188195Y-113717561D02*
X164294261Y-113611495D01*
G75*
G02*
X164400327Y-113611495I53033J-53033D01*
G01*
X165354921Y-114566089D01*
G75*
G02*
X165354921Y-114672155I-53033J-53033D01*
G01*
X165248855Y-114778221D01*
G75*
G02*
X165142789Y-114778221I-53033J53033D01*
G01*
X164188195Y-113823627D01*
G75*
G02*
X164188195Y-113717561I53033J53033D01*
G01*
G37*
G36*
G01*
X164541748Y-113364008D02*
X164647814Y-113257942D01*
G75*
G02*
X164753880Y-113257942I53033J-53033D01*
G01*
X165708474Y-114212536D01*
G75*
G02*
X165708474Y-114318602I-53033J-53033D01*
G01*
X165602408Y-114424668D01*
G75*
G02*
X165496342Y-114424668I-53033J53033D01*
G01*
X164541748Y-113470074D01*
G75*
G02*
X164541748Y-113364008I53033J53033D01*
G01*
G37*
G36*
G01*
X164895301Y-113010455D02*
X165001367Y-112904389D01*
G75*
G02*
X165107433Y-112904389I53033J-53033D01*
G01*
X166062027Y-113858983D01*
G75*
G02*
X166062027Y-113965049I-53033J-53033D01*
G01*
X165955961Y-114071115D01*
G75*
G02*
X165849895Y-114071115I-53033J53033D01*
G01*
X164895301Y-113116521D01*
G75*
G02*
X164895301Y-113010455I53033J53033D01*
G01*
G37*
G36*
G01*
X165248855Y-112656901D02*
X165354921Y-112550835D01*
G75*
G02*
X165460987Y-112550835I53033J-53033D01*
G01*
X166415581Y-113505429D01*
G75*
G02*
X166415581Y-113611495I-53033J-53033D01*
G01*
X166309515Y-113717561D01*
G75*
G02*
X166203449Y-113717561I-53033J53033D01*
G01*
X165248855Y-112762967D01*
G75*
G02*
X165248855Y-112656901I53033J53033D01*
G01*
G37*
G36*
G01*
X165602408Y-112303348D02*
X165708474Y-112197282D01*
G75*
G02*
X165814540Y-112197282I53033J-53033D01*
G01*
X166769134Y-113151876D01*
G75*
G02*
X166769134Y-113257942I-53033J-53033D01*
G01*
X166663068Y-113364008D01*
G75*
G02*
X166557002Y-113364008I-53033J53033D01*
G01*
X165602408Y-112409414D01*
G75*
G02*
X165602408Y-112303348I53033J53033D01*
G01*
G37*
G36*
G01*
X165955962Y-111949794D02*
X166062028Y-111843728D01*
G75*
G02*
X166168094Y-111843728I53033J-53033D01*
G01*
X167122688Y-112798322D01*
G75*
G02*
X167122688Y-112904388I-53033J-53033D01*
G01*
X167016622Y-113010454D01*
G75*
G02*
X166910556Y-113010454I-53033J53033D01*
G01*
X165955962Y-112055860D01*
G75*
G02*
X165955962Y-111949794I53033J53033D01*
G01*
G37*
G36*
G01*
X166309515Y-111596241D02*
X166415581Y-111490175D01*
G75*
G02*
X166521647Y-111490175I53033J-53033D01*
G01*
X167476241Y-112444769D01*
G75*
G02*
X167476241Y-112550835I-53033J-53033D01*
G01*
X167370175Y-112656901D01*
G75*
G02*
X167264109Y-112656901I-53033J53033D01*
G01*
X166309515Y-111702307D01*
G75*
G02*
X166309515Y-111596241I53033J53033D01*
G01*
G37*
G36*
G01*
X166663068Y-111242688D02*
X166769134Y-111136622D01*
G75*
G02*
X166875200Y-111136622I53033J-53033D01*
G01*
X167829794Y-112091216D01*
G75*
G02*
X167829794Y-112197282I-53033J-53033D01*
G01*
X167723728Y-112303348D01*
G75*
G02*
X167617662Y-112303348I-53033J53033D01*
G01*
X166663068Y-111348754D01*
G75*
G02*
X166663068Y-111242688I53033J53033D01*
G01*
G37*
G36*
G01*
X167016622Y-110889134D02*
X167122688Y-110783068D01*
G75*
G02*
X167228754Y-110783068I53033J-53033D01*
G01*
X168183348Y-111737662D01*
G75*
G02*
X168183348Y-111843728I-53033J-53033D01*
G01*
X168077282Y-111949794D01*
G75*
G02*
X167971216Y-111949794I-53033J53033D01*
G01*
X167016622Y-110995200D01*
G75*
G02*
X167016622Y-110889134I53033J53033D01*
G01*
G37*
G36*
G01*
X167370175Y-110535581D02*
X167476241Y-110429515D01*
G75*
G02*
X167582307Y-110429515I53033J-53033D01*
G01*
X168536901Y-111384109D01*
G75*
G02*
X168536901Y-111490175I-53033J-53033D01*
G01*
X168430835Y-111596241D01*
G75*
G02*
X168324769Y-111596241I-53033J53033D01*
G01*
X167370175Y-110641647D01*
G75*
G02*
X167370175Y-110535581I53033J53033D01*
G01*
G37*
G36*
G01*
X167723728Y-110182028D02*
X167829794Y-110075962D01*
G75*
G02*
X167935860Y-110075962I53033J-53033D01*
G01*
X168890454Y-111030556D01*
G75*
G02*
X168890454Y-111136622I-53033J-53033D01*
G01*
X168784388Y-111242688D01*
G75*
G02*
X168678322Y-111242688I-53033J53033D01*
G01*
X167723728Y-110288094D01*
G75*
G02*
X167723728Y-110182028I53033J53033D01*
G01*
G37*
G36*
G01*
X168077282Y-109828474D02*
X168183348Y-109722408D01*
G75*
G02*
X168289414Y-109722408I53033J-53033D01*
G01*
X169244008Y-110677002D01*
G75*
G02*
X169244008Y-110783068I-53033J-53033D01*
G01*
X169137942Y-110889134D01*
G75*
G02*
X169031876Y-110889134I-53033J53033D01*
G01*
X168077282Y-109934540D01*
G75*
G02*
X168077282Y-109828474I53033J53033D01*
G01*
G37*
G36*
G01*
X168430835Y-109474921D02*
X168536901Y-109368855D01*
G75*
G02*
X168642967Y-109368855I53033J-53033D01*
G01*
X169597561Y-110323449D01*
G75*
G02*
X169597561Y-110429515I-53033J-53033D01*
G01*
X169491495Y-110535581D01*
G75*
G02*
X169385429Y-110535581I-53033J53033D01*
G01*
X168430835Y-109580987D01*
G75*
G02*
X168430835Y-109474921I53033J53033D01*
G01*
G37*
G36*
G01*
X168784389Y-109121367D02*
X168890455Y-109015301D01*
G75*
G02*
X168996521Y-109015301I53033J-53033D01*
G01*
X169951115Y-109969895D01*
G75*
G02*
X169951115Y-110075961I-53033J-53033D01*
G01*
X169845049Y-110182027D01*
G75*
G02*
X169738983Y-110182027I-53033J53033D01*
G01*
X168784389Y-109227433D01*
G75*
G02*
X168784389Y-109121367I53033J53033D01*
G01*
G37*
G36*
G01*
X169137942Y-108767814D02*
X169244008Y-108661748D01*
G75*
G02*
X169350074Y-108661748I53033J-53033D01*
G01*
X170304668Y-109616342D01*
G75*
G02*
X170304668Y-109722408I-53033J-53033D01*
G01*
X170198602Y-109828474D01*
G75*
G02*
X170092536Y-109828474I-53033J53033D01*
G01*
X169137942Y-108873880D01*
G75*
G02*
X169137942Y-108767814I53033J53033D01*
G01*
G37*
G36*
G01*
X169491495Y-108414261D02*
X169597561Y-108308195D01*
G75*
G02*
X169703627Y-108308195I53033J-53033D01*
G01*
X170658221Y-109262789D01*
G75*
G02*
X170658221Y-109368855I-53033J-53033D01*
G01*
X170552155Y-109474921D01*
G75*
G02*
X170446089Y-109474921I-53033J53033D01*
G01*
X169491495Y-108520327D01*
G75*
G02*
X169491495Y-108414261I53033J53033D01*
G01*
G37*
G36*
G01*
X169845049Y-108060707D02*
X169951115Y-107954641D01*
G75*
G02*
X170057181Y-107954641I53033J-53033D01*
G01*
X171011775Y-108909235D01*
G75*
G02*
X171011775Y-109015301I-53033J-53033D01*
G01*
X170905709Y-109121367D01*
G75*
G02*
X170799643Y-109121367I-53033J53033D01*
G01*
X169845049Y-108166773D01*
G75*
G02*
X169845049Y-108060707I53033J53033D01*
G01*
G37*
G36*
G01*
X170198602Y-107707154D02*
X170304668Y-107601088D01*
G75*
G02*
X170410734Y-107601088I53033J-53033D01*
G01*
X171365328Y-108555682D01*
G75*
G02*
X171365328Y-108661748I-53033J-53033D01*
G01*
X171259262Y-108767814D01*
G75*
G02*
X171153196Y-108767814I-53033J53033D01*
G01*
X170198602Y-107813220D01*
G75*
G02*
X170198602Y-107707154I53033J53033D01*
G01*
G37*
G36*
G01*
X170552156Y-107353600D02*
X170658222Y-107247534D01*
G75*
G02*
X170764288Y-107247534I53033J-53033D01*
G01*
X171718882Y-108202128D01*
G75*
G02*
X171718882Y-108308194I-53033J-53033D01*
G01*
X171612816Y-108414260D01*
G75*
G02*
X171506750Y-108414260I-53033J53033D01*
G01*
X170552156Y-107459666D01*
G75*
G02*
X170552156Y-107353600I53033J53033D01*
G01*
G37*
G36*
G01*
X170905709Y-107000047D02*
X171011775Y-106893981D01*
G75*
G02*
X171117841Y-106893981I53033J-53033D01*
G01*
X172072435Y-107848575D01*
G75*
G02*
X172072435Y-107954641I-53033J-53033D01*
G01*
X171966369Y-108060707D01*
G75*
G02*
X171860303Y-108060707I-53033J53033D01*
G01*
X170905709Y-107106113D01*
G75*
G02*
X170905709Y-107000047I53033J53033D01*
G01*
G37*
G36*
G01*
X171259262Y-106646494D02*
X171365328Y-106540428D01*
G75*
G02*
X171471394Y-106540428I53033J-53033D01*
G01*
X172425988Y-107495022D01*
G75*
G02*
X172425988Y-107601088I-53033J-53033D01*
G01*
X172319922Y-107707154D01*
G75*
G02*
X172213856Y-107707154I-53033J53033D01*
G01*
X171259262Y-106752560D01*
G75*
G02*
X171259262Y-106646494I53033J53033D01*
G01*
G37*
G36*
G01*
X171612816Y-106292940D02*
X171718882Y-106186874D01*
G75*
G02*
X171824948Y-106186874I53033J-53033D01*
G01*
X172779542Y-107141468D01*
G75*
G02*
X172779542Y-107247534I-53033J-53033D01*
G01*
X172673476Y-107353600D01*
G75*
G02*
X172567410Y-107353600I-53033J53033D01*
G01*
X171612816Y-106399006D01*
G75*
G02*
X171612816Y-106292940I53033J53033D01*
G01*
G37*
G36*
G01*
X171966369Y-105939387D02*
X172072435Y-105833321D01*
G75*
G02*
X172178501Y-105833321I53033J-53033D01*
G01*
X173133095Y-106787915D01*
G75*
G02*
X173133095Y-106893981I-53033J-53033D01*
G01*
X173027029Y-107000047D01*
G75*
G02*
X172920963Y-107000047I-53033J53033D01*
G01*
X171966369Y-106045453D01*
G75*
G02*
X171966369Y-105939387I53033J53033D01*
G01*
G37*
G36*
G01*
X172319923Y-105585833D02*
X172425989Y-105479767D01*
G75*
G02*
X172532055Y-105479767I53033J-53033D01*
G01*
X173486649Y-106434361D01*
G75*
G02*
X173486649Y-106540427I-53033J-53033D01*
G01*
X173380583Y-106646493D01*
G75*
G02*
X173274517Y-106646493I-53033J53033D01*
G01*
X172319923Y-105691899D01*
G75*
G02*
X172319923Y-105585833I53033J53033D01*
G01*
G37*
G36*
G01*
X172673476Y-105232280D02*
X172779542Y-105126214D01*
G75*
G02*
X172885608Y-105126214I53033J-53033D01*
G01*
X173840202Y-106080808D01*
G75*
G02*
X173840202Y-106186874I-53033J-53033D01*
G01*
X173734136Y-106292940D01*
G75*
G02*
X173628070Y-106292940I-53033J53033D01*
G01*
X172673476Y-105338346D01*
G75*
G02*
X172673476Y-105232280I53033J53033D01*
G01*
G37*
G36*
G01*
X173027029Y-104878727D02*
X173133095Y-104772661D01*
G75*
G02*
X173239161Y-104772661I53033J-53033D01*
G01*
X174193755Y-105727255D01*
G75*
G02*
X174193755Y-105833321I-53033J-53033D01*
G01*
X174087689Y-105939387D01*
G75*
G02*
X173981623Y-105939387I-53033J53033D01*
G01*
X173027029Y-104984793D01*
G75*
G02*
X173027029Y-104878727I53033J53033D01*
G01*
G37*
G36*
G01*
X173380583Y-104525173D02*
X173486649Y-104419107D01*
G75*
G02*
X173592715Y-104419107I53033J-53033D01*
G01*
X174547309Y-105373701D01*
G75*
G02*
X174547309Y-105479767I-53033J-53033D01*
G01*
X174441243Y-105585833D01*
G75*
G02*
X174335177Y-105585833I-53033J53033D01*
G01*
X173380583Y-104631239D01*
G75*
G02*
X173380583Y-104525173I53033J53033D01*
G01*
G37*
G36*
G01*
X173734136Y-104171620D02*
X173840202Y-104065554D01*
G75*
G02*
X173946268Y-104065554I53033J-53033D01*
G01*
X174900862Y-105020148D01*
G75*
G02*
X174900862Y-105126214I-53033J-53033D01*
G01*
X174794796Y-105232280D01*
G75*
G02*
X174688730Y-105232280I-53033J53033D01*
G01*
X173734136Y-104277686D01*
G75*
G02*
X173734136Y-104171620I53033J53033D01*
G01*
G37*
G36*
G01*
X174087689Y-103818066D02*
X174193755Y-103712000D01*
G75*
G02*
X174299821Y-103712000I53033J-53033D01*
G01*
X175254415Y-104666594D01*
G75*
G02*
X175254415Y-104772660I-53033J-53033D01*
G01*
X175148349Y-104878726D01*
G75*
G02*
X175042283Y-104878726I-53033J53033D01*
G01*
X174087689Y-103924132D01*
G75*
G02*
X174087689Y-103818066I53033J53033D01*
G01*
G37*
G36*
G01*
X174441243Y-103464513D02*
X174547309Y-103358447D01*
G75*
G02*
X174653375Y-103358447I53033J-53033D01*
G01*
X175607969Y-104313041D01*
G75*
G02*
X175607969Y-104419107I-53033J-53033D01*
G01*
X175501903Y-104525173D01*
G75*
G02*
X175395837Y-104525173I-53033J53033D01*
G01*
X174441243Y-103570579D01*
G75*
G02*
X174441243Y-103464513I53033J53033D01*
G01*
G37*
G36*
G01*
X174794796Y-103110960D02*
X174900862Y-103004894D01*
G75*
G02*
X175006928Y-103004894I53033J-53033D01*
G01*
X175961522Y-103959488D01*
G75*
G02*
X175961522Y-104065554I-53033J-53033D01*
G01*
X175855456Y-104171620D01*
G75*
G02*
X175749390Y-104171620I-53033J53033D01*
G01*
X174794796Y-103217026D01*
G75*
G02*
X174794796Y-103110960I53033J53033D01*
G01*
G37*
G36*
G01*
X175148350Y-102757406D02*
X175254416Y-102651340D01*
G75*
G02*
X175360482Y-102651340I53033J-53033D01*
G01*
X176315076Y-103605934D01*
G75*
G02*
X176315076Y-103712000I-53033J-53033D01*
G01*
X176209010Y-103818066D01*
G75*
G02*
X176102944Y-103818066I-53033J53033D01*
G01*
X175148350Y-102863472D01*
G75*
G02*
X175148350Y-102757406I53033J53033D01*
G01*
G37*
G36*
G01*
X175501903Y-102403853D02*
X175607969Y-102297787D01*
G75*
G02*
X175714035Y-102297787I53033J-53033D01*
G01*
X176668629Y-103252381D01*
G75*
G02*
X176668629Y-103358447I-53033J-53033D01*
G01*
X176562563Y-103464513D01*
G75*
G02*
X176456497Y-103464513I-53033J53033D01*
G01*
X175501903Y-102509919D01*
G75*
G02*
X175501903Y-102403853I53033J53033D01*
G01*
G37*
G36*
G01*
X175855456Y-102050300D02*
X175961522Y-101944234D01*
G75*
G02*
X176067588Y-101944234I53033J-53033D01*
G01*
X177022182Y-102898828D01*
G75*
G02*
X177022182Y-103004894I-53033J-53033D01*
G01*
X176916116Y-103110960D01*
G75*
G02*
X176810050Y-103110960I-53033J53033D01*
G01*
X175855456Y-102156366D01*
G75*
G02*
X175855456Y-102050300I53033J53033D01*
G01*
G37*
G36*
G01*
X178577818Y-102898828D02*
X179532412Y-101944234D01*
G75*
G02*
X179638478Y-101944234I53033J-53033D01*
G01*
X179744544Y-102050300D01*
G75*
G02*
X179744544Y-102156366I-53033J-53033D01*
G01*
X178789950Y-103110960D01*
G75*
G02*
X178683884Y-103110960I-53033J53033D01*
G01*
X178577818Y-103004894D01*
G75*
G02*
X178577818Y-102898828I53033J53033D01*
G01*
G37*
G36*
G01*
X178931371Y-103252381D02*
X179885965Y-102297787D01*
G75*
G02*
X179992031Y-102297787I53033J-53033D01*
G01*
X180098097Y-102403853D01*
G75*
G02*
X180098097Y-102509919I-53033J-53033D01*
G01*
X179143503Y-103464513D01*
G75*
G02*
X179037437Y-103464513I-53033J53033D01*
G01*
X178931371Y-103358447D01*
G75*
G02*
X178931371Y-103252381I53033J53033D01*
G01*
G37*
G36*
G01*
X179284924Y-103605934D02*
X180239518Y-102651340D01*
G75*
G02*
X180345584Y-102651340I53033J-53033D01*
G01*
X180451650Y-102757406D01*
G75*
G02*
X180451650Y-102863472I-53033J-53033D01*
G01*
X179497056Y-103818066D01*
G75*
G02*
X179390990Y-103818066I-53033J53033D01*
G01*
X179284924Y-103712000D01*
G75*
G02*
X179284924Y-103605934I53033J53033D01*
G01*
G37*
G36*
G01*
X179638478Y-103959488D02*
X180593072Y-103004894D01*
G75*
G02*
X180699138Y-103004894I53033J-53033D01*
G01*
X180805204Y-103110960D01*
G75*
G02*
X180805204Y-103217026I-53033J-53033D01*
G01*
X179850610Y-104171620D01*
G75*
G02*
X179744544Y-104171620I-53033J53033D01*
G01*
X179638478Y-104065554D01*
G75*
G02*
X179638478Y-103959488I53033J53033D01*
G01*
G37*
G36*
G01*
X179992031Y-104313041D02*
X180946625Y-103358447D01*
G75*
G02*
X181052691Y-103358447I53033J-53033D01*
G01*
X181158757Y-103464513D01*
G75*
G02*
X181158757Y-103570579I-53033J-53033D01*
G01*
X180204163Y-104525173D01*
G75*
G02*
X180098097Y-104525173I-53033J53033D01*
G01*
X179992031Y-104419107D01*
G75*
G02*
X179992031Y-104313041I53033J53033D01*
G01*
G37*
G36*
G01*
X180345585Y-104666594D02*
X181300179Y-103712000D01*
G75*
G02*
X181406245Y-103712000I53033J-53033D01*
G01*
X181512311Y-103818066D01*
G75*
G02*
X181512311Y-103924132I-53033J-53033D01*
G01*
X180557717Y-104878726D01*
G75*
G02*
X180451651Y-104878726I-53033J53033D01*
G01*
X180345585Y-104772660D01*
G75*
G02*
X180345585Y-104666594I53033J53033D01*
G01*
G37*
G36*
G01*
X180699138Y-105020148D02*
X181653732Y-104065554D01*
G75*
G02*
X181759798Y-104065554I53033J-53033D01*
G01*
X181865864Y-104171620D01*
G75*
G02*
X181865864Y-104277686I-53033J-53033D01*
G01*
X180911270Y-105232280D01*
G75*
G02*
X180805204Y-105232280I-53033J53033D01*
G01*
X180699138Y-105126214D01*
G75*
G02*
X180699138Y-105020148I53033J53033D01*
G01*
G37*
G36*
G01*
X181052691Y-105373701D02*
X182007285Y-104419107D01*
G75*
G02*
X182113351Y-104419107I53033J-53033D01*
G01*
X182219417Y-104525173D01*
G75*
G02*
X182219417Y-104631239I-53033J-53033D01*
G01*
X181264823Y-105585833D01*
G75*
G02*
X181158757Y-105585833I-53033J53033D01*
G01*
X181052691Y-105479767D01*
G75*
G02*
X181052691Y-105373701I53033J53033D01*
G01*
G37*
G36*
G01*
X181406245Y-105727255D02*
X182360839Y-104772661D01*
G75*
G02*
X182466905Y-104772661I53033J-53033D01*
G01*
X182572971Y-104878727D01*
G75*
G02*
X182572971Y-104984793I-53033J-53033D01*
G01*
X181618377Y-105939387D01*
G75*
G02*
X181512311Y-105939387I-53033J53033D01*
G01*
X181406245Y-105833321D01*
G75*
G02*
X181406245Y-105727255I53033J53033D01*
G01*
G37*
G36*
G01*
X181759798Y-106080808D02*
X182714392Y-105126214D01*
G75*
G02*
X182820458Y-105126214I53033J-53033D01*
G01*
X182926524Y-105232280D01*
G75*
G02*
X182926524Y-105338346I-53033J-53033D01*
G01*
X181971930Y-106292940D01*
G75*
G02*
X181865864Y-106292940I-53033J53033D01*
G01*
X181759798Y-106186874D01*
G75*
G02*
X181759798Y-106080808I53033J53033D01*
G01*
G37*
G36*
G01*
X182113351Y-106434361D02*
X183067945Y-105479767D01*
G75*
G02*
X183174011Y-105479767I53033J-53033D01*
G01*
X183280077Y-105585833D01*
G75*
G02*
X183280077Y-105691899I-53033J-53033D01*
G01*
X182325483Y-106646493D01*
G75*
G02*
X182219417Y-106646493I-53033J53033D01*
G01*
X182113351Y-106540427D01*
G75*
G02*
X182113351Y-106434361I53033J53033D01*
G01*
G37*
G36*
G01*
X182466905Y-106787915D02*
X183421499Y-105833321D01*
G75*
G02*
X183527565Y-105833321I53033J-53033D01*
G01*
X183633631Y-105939387D01*
G75*
G02*
X183633631Y-106045453I-53033J-53033D01*
G01*
X182679037Y-107000047D01*
G75*
G02*
X182572971Y-107000047I-53033J53033D01*
G01*
X182466905Y-106893981D01*
G75*
G02*
X182466905Y-106787915I53033J53033D01*
G01*
G37*
G36*
G01*
X182820458Y-107141468D02*
X183775052Y-106186874D01*
G75*
G02*
X183881118Y-106186874I53033J-53033D01*
G01*
X183987184Y-106292940D01*
G75*
G02*
X183987184Y-106399006I-53033J-53033D01*
G01*
X183032590Y-107353600D01*
G75*
G02*
X182926524Y-107353600I-53033J53033D01*
G01*
X182820458Y-107247534D01*
G75*
G02*
X182820458Y-107141468I53033J53033D01*
G01*
G37*
G36*
G01*
X183174012Y-107495022D02*
X184128606Y-106540428D01*
G75*
G02*
X184234672Y-106540428I53033J-53033D01*
G01*
X184340738Y-106646494D01*
G75*
G02*
X184340738Y-106752560I-53033J-53033D01*
G01*
X183386144Y-107707154D01*
G75*
G02*
X183280078Y-107707154I-53033J53033D01*
G01*
X183174012Y-107601088D01*
G75*
G02*
X183174012Y-107495022I53033J53033D01*
G01*
G37*
G36*
G01*
X183527565Y-107848575D02*
X184482159Y-106893981D01*
G75*
G02*
X184588225Y-106893981I53033J-53033D01*
G01*
X184694291Y-107000047D01*
G75*
G02*
X184694291Y-107106113I-53033J-53033D01*
G01*
X183739697Y-108060707D01*
G75*
G02*
X183633631Y-108060707I-53033J53033D01*
G01*
X183527565Y-107954641D01*
G75*
G02*
X183527565Y-107848575I53033J53033D01*
G01*
G37*
G36*
G01*
X183881118Y-108202128D02*
X184835712Y-107247534D01*
G75*
G02*
X184941778Y-107247534I53033J-53033D01*
G01*
X185047844Y-107353600D01*
G75*
G02*
X185047844Y-107459666I-53033J-53033D01*
G01*
X184093250Y-108414260D01*
G75*
G02*
X183987184Y-108414260I-53033J53033D01*
G01*
X183881118Y-108308194D01*
G75*
G02*
X183881118Y-108202128I53033J53033D01*
G01*
G37*
G36*
G01*
X184234672Y-108555682D02*
X185189266Y-107601088D01*
G75*
G02*
X185295332Y-107601088I53033J-53033D01*
G01*
X185401398Y-107707154D01*
G75*
G02*
X185401398Y-107813220I-53033J-53033D01*
G01*
X184446804Y-108767814D01*
G75*
G02*
X184340738Y-108767814I-53033J53033D01*
G01*
X184234672Y-108661748D01*
G75*
G02*
X184234672Y-108555682I53033J53033D01*
G01*
G37*
G36*
G01*
X184588225Y-108909235D02*
X185542819Y-107954641D01*
G75*
G02*
X185648885Y-107954641I53033J-53033D01*
G01*
X185754951Y-108060707D01*
G75*
G02*
X185754951Y-108166773I-53033J-53033D01*
G01*
X184800357Y-109121367D01*
G75*
G02*
X184694291Y-109121367I-53033J53033D01*
G01*
X184588225Y-109015301D01*
G75*
G02*
X184588225Y-108909235I53033J53033D01*
G01*
G37*
G36*
G01*
X184941779Y-109262789D02*
X185896373Y-108308195D01*
G75*
G02*
X186002439Y-108308195I53033J-53033D01*
G01*
X186108505Y-108414261D01*
G75*
G02*
X186108505Y-108520327I-53033J-53033D01*
G01*
X185153911Y-109474921D01*
G75*
G02*
X185047845Y-109474921I-53033J53033D01*
G01*
X184941779Y-109368855D01*
G75*
G02*
X184941779Y-109262789I53033J53033D01*
G01*
G37*
G36*
G01*
X185295332Y-109616342D02*
X186249926Y-108661748D01*
G75*
G02*
X186355992Y-108661748I53033J-53033D01*
G01*
X186462058Y-108767814D01*
G75*
G02*
X186462058Y-108873880I-53033J-53033D01*
G01*
X185507464Y-109828474D01*
G75*
G02*
X185401398Y-109828474I-53033J53033D01*
G01*
X185295332Y-109722408D01*
G75*
G02*
X185295332Y-109616342I53033J53033D01*
G01*
G37*
G36*
G01*
X185648885Y-109969895D02*
X186603479Y-109015301D01*
G75*
G02*
X186709545Y-109015301I53033J-53033D01*
G01*
X186815611Y-109121367D01*
G75*
G02*
X186815611Y-109227433I-53033J-53033D01*
G01*
X185861017Y-110182027D01*
G75*
G02*
X185754951Y-110182027I-53033J53033D01*
G01*
X185648885Y-110075961D01*
G75*
G02*
X185648885Y-109969895I53033J53033D01*
G01*
G37*
G36*
G01*
X186002439Y-110323449D02*
X186957033Y-109368855D01*
G75*
G02*
X187063099Y-109368855I53033J-53033D01*
G01*
X187169165Y-109474921D01*
G75*
G02*
X187169165Y-109580987I-53033J-53033D01*
G01*
X186214571Y-110535581D01*
G75*
G02*
X186108505Y-110535581I-53033J53033D01*
G01*
X186002439Y-110429515D01*
G75*
G02*
X186002439Y-110323449I53033J53033D01*
G01*
G37*
G36*
G01*
X186355992Y-110677002D02*
X187310586Y-109722408D01*
G75*
G02*
X187416652Y-109722408I53033J-53033D01*
G01*
X187522718Y-109828474D01*
G75*
G02*
X187522718Y-109934540I-53033J-53033D01*
G01*
X186568124Y-110889134D01*
G75*
G02*
X186462058Y-110889134I-53033J53033D01*
G01*
X186355992Y-110783068D01*
G75*
G02*
X186355992Y-110677002I53033J53033D01*
G01*
G37*
G36*
G01*
X186709546Y-111030556D02*
X187664140Y-110075962D01*
G75*
G02*
X187770206Y-110075962I53033J-53033D01*
G01*
X187876272Y-110182028D01*
G75*
G02*
X187876272Y-110288094I-53033J-53033D01*
G01*
X186921678Y-111242688D01*
G75*
G02*
X186815612Y-111242688I-53033J53033D01*
G01*
X186709546Y-111136622D01*
G75*
G02*
X186709546Y-111030556I53033J53033D01*
G01*
G37*
G36*
G01*
X187063099Y-111384109D02*
X188017693Y-110429515D01*
G75*
G02*
X188123759Y-110429515I53033J-53033D01*
G01*
X188229825Y-110535581D01*
G75*
G02*
X188229825Y-110641647I-53033J-53033D01*
G01*
X187275231Y-111596241D01*
G75*
G02*
X187169165Y-111596241I-53033J53033D01*
G01*
X187063099Y-111490175D01*
G75*
G02*
X187063099Y-111384109I53033J53033D01*
G01*
G37*
G36*
G01*
X187416652Y-111737662D02*
X188371246Y-110783068D01*
G75*
G02*
X188477312Y-110783068I53033J-53033D01*
G01*
X188583378Y-110889134D01*
G75*
G02*
X188583378Y-110995200I-53033J-53033D01*
G01*
X187628784Y-111949794D01*
G75*
G02*
X187522718Y-111949794I-53033J53033D01*
G01*
X187416652Y-111843728D01*
G75*
G02*
X187416652Y-111737662I53033J53033D01*
G01*
G37*
G36*
G01*
X187770206Y-112091216D02*
X188724800Y-111136622D01*
G75*
G02*
X188830866Y-111136622I53033J-53033D01*
G01*
X188936932Y-111242688D01*
G75*
G02*
X188936932Y-111348754I-53033J-53033D01*
G01*
X187982338Y-112303348D01*
G75*
G02*
X187876272Y-112303348I-53033J53033D01*
G01*
X187770206Y-112197282D01*
G75*
G02*
X187770206Y-112091216I53033J53033D01*
G01*
G37*
G36*
G01*
X188123759Y-112444769D02*
X189078353Y-111490175D01*
G75*
G02*
X189184419Y-111490175I53033J-53033D01*
G01*
X189290485Y-111596241D01*
G75*
G02*
X189290485Y-111702307I-53033J-53033D01*
G01*
X188335891Y-112656901D01*
G75*
G02*
X188229825Y-112656901I-53033J53033D01*
G01*
X188123759Y-112550835D01*
G75*
G02*
X188123759Y-112444769I53033J53033D01*
G01*
G37*
G36*
G01*
X188477312Y-112798322D02*
X189431906Y-111843728D01*
G75*
G02*
X189537972Y-111843728I53033J-53033D01*
G01*
X189644038Y-111949794D01*
G75*
G02*
X189644038Y-112055860I-53033J-53033D01*
G01*
X188689444Y-113010454D01*
G75*
G02*
X188583378Y-113010454I-53033J53033D01*
G01*
X188477312Y-112904388D01*
G75*
G02*
X188477312Y-112798322I53033J53033D01*
G01*
G37*
G36*
G01*
X188830866Y-113151876D02*
X189785460Y-112197282D01*
G75*
G02*
X189891526Y-112197282I53033J-53033D01*
G01*
X189997592Y-112303348D01*
G75*
G02*
X189997592Y-112409414I-53033J-53033D01*
G01*
X189042998Y-113364008D01*
G75*
G02*
X188936932Y-113364008I-53033J53033D01*
G01*
X188830866Y-113257942D01*
G75*
G02*
X188830866Y-113151876I53033J53033D01*
G01*
G37*
G36*
G01*
X189184419Y-113505429D02*
X190139013Y-112550835D01*
G75*
G02*
X190245079Y-112550835I53033J-53033D01*
G01*
X190351145Y-112656901D01*
G75*
G02*
X190351145Y-112762967I-53033J-53033D01*
G01*
X189396551Y-113717561D01*
G75*
G02*
X189290485Y-113717561I-53033J53033D01*
G01*
X189184419Y-113611495D01*
G75*
G02*
X189184419Y-113505429I53033J53033D01*
G01*
G37*
G36*
G01*
X189537973Y-113858983D02*
X190492567Y-112904389D01*
G75*
G02*
X190598633Y-112904389I53033J-53033D01*
G01*
X190704699Y-113010455D01*
G75*
G02*
X190704699Y-113116521I-53033J-53033D01*
G01*
X189750105Y-114071115D01*
G75*
G02*
X189644039Y-114071115I-53033J53033D01*
G01*
X189537973Y-113965049D01*
G75*
G02*
X189537973Y-113858983I53033J53033D01*
G01*
G37*
G36*
G01*
X189891526Y-114212536D02*
X190846120Y-113257942D01*
G75*
G02*
X190952186Y-113257942I53033J-53033D01*
G01*
X191058252Y-113364008D01*
G75*
G02*
X191058252Y-113470074I-53033J-53033D01*
G01*
X190103658Y-114424668D01*
G75*
G02*
X189997592Y-114424668I-53033J53033D01*
G01*
X189891526Y-114318602D01*
G75*
G02*
X189891526Y-114212536I53033J53033D01*
G01*
G37*
G36*
G01*
X190245079Y-114566089D02*
X191199673Y-113611495D01*
G75*
G02*
X191305739Y-113611495I53033J-53033D01*
G01*
X191411805Y-113717561D01*
G75*
G02*
X191411805Y-113823627I-53033J-53033D01*
G01*
X190457211Y-114778221D01*
G75*
G02*
X190351145Y-114778221I-53033J53033D01*
G01*
X190245079Y-114672155D01*
G75*
G02*
X190245079Y-114566089I53033J53033D01*
G01*
G37*
G36*
G01*
X190598633Y-114919643D02*
X191553227Y-113965049D01*
G75*
G02*
X191659293Y-113965049I53033J-53033D01*
G01*
X191765359Y-114071115D01*
G75*
G02*
X191765359Y-114177181I-53033J-53033D01*
G01*
X190810765Y-115131775D01*
G75*
G02*
X190704699Y-115131775I-53033J53033D01*
G01*
X190598633Y-115025709D01*
G75*
G02*
X190598633Y-114919643I53033J53033D01*
G01*
G37*
G36*
G01*
X190952186Y-115273196D02*
X191906780Y-114318602D01*
G75*
G02*
X192012846Y-114318602I53033J-53033D01*
G01*
X192118912Y-114424668D01*
G75*
G02*
X192118912Y-114530734I-53033J-53033D01*
G01*
X191164318Y-115485328D01*
G75*
G02*
X191058252Y-115485328I-53033J53033D01*
G01*
X190952186Y-115379262D01*
G75*
G02*
X190952186Y-115273196I53033J53033D01*
G01*
G37*
G36*
G01*
X191305740Y-115626750D02*
X192260334Y-114672156D01*
G75*
G02*
X192366400Y-114672156I53033J-53033D01*
G01*
X192472466Y-114778222D01*
G75*
G02*
X192472466Y-114884288I-53033J-53033D01*
G01*
X191517872Y-115838882D01*
G75*
G02*
X191411806Y-115838882I-53033J53033D01*
G01*
X191305740Y-115732816D01*
G75*
G02*
X191305740Y-115626750I53033J53033D01*
G01*
G37*
G36*
G01*
X191659293Y-115980303D02*
X192613887Y-115025709D01*
G75*
G02*
X192719953Y-115025709I53033J-53033D01*
G01*
X192826019Y-115131775D01*
G75*
G02*
X192826019Y-115237841I-53033J-53033D01*
G01*
X191871425Y-116192435D01*
G75*
G02*
X191765359Y-116192435I-53033J53033D01*
G01*
X191659293Y-116086369D01*
G75*
G02*
X191659293Y-115980303I53033J53033D01*
G01*
G37*
G36*
G01*
X192012846Y-116333856D02*
X192967440Y-115379262D01*
G75*
G02*
X193073506Y-115379262I53033J-53033D01*
G01*
X193179572Y-115485328D01*
G75*
G02*
X193179572Y-115591394I-53033J-53033D01*
G01*
X192224978Y-116545988D01*
G75*
G02*
X192118912Y-116545988I-53033J53033D01*
G01*
X192012846Y-116439922D01*
G75*
G02*
X192012846Y-116333856I53033J53033D01*
G01*
G37*
G36*
G01*
X192366400Y-116687410D02*
X193320994Y-115732816D01*
G75*
G02*
X193427060Y-115732816I53033J-53033D01*
G01*
X193533126Y-115838882D01*
G75*
G02*
X193533126Y-115944948I-53033J-53033D01*
G01*
X192578532Y-116899542D01*
G75*
G02*
X192472466Y-116899542I-53033J53033D01*
G01*
X192366400Y-116793476D01*
G75*
G02*
X192366400Y-116687410I53033J53033D01*
G01*
G37*
G36*
G01*
X192719953Y-117040963D02*
X193674547Y-116086369D01*
G75*
G02*
X193780613Y-116086369I53033J-53033D01*
G01*
X193886679Y-116192435D01*
G75*
G02*
X193886679Y-116298501I-53033J-53033D01*
G01*
X192932085Y-117253095D01*
G75*
G02*
X192826019Y-117253095I-53033J53033D01*
G01*
X192719953Y-117147029D01*
G75*
G02*
X192719953Y-117040963I53033J53033D01*
G01*
G37*
G36*
G01*
X193073507Y-117394517D02*
X194028101Y-116439923D01*
G75*
G02*
X194134167Y-116439923I53033J-53033D01*
G01*
X194240233Y-116545989D01*
G75*
G02*
X194240233Y-116652055I-53033J-53033D01*
G01*
X193285639Y-117606649D01*
G75*
G02*
X193179573Y-117606649I-53033J53033D01*
G01*
X193073507Y-117500583D01*
G75*
G02*
X193073507Y-117394517I53033J53033D01*
G01*
G37*
G36*
G01*
X193427060Y-117748070D02*
X194381654Y-116793476D01*
G75*
G02*
X194487720Y-116793476I53033J-53033D01*
G01*
X194593786Y-116899542D01*
G75*
G02*
X194593786Y-117005608I-53033J-53033D01*
G01*
X193639192Y-117960202D01*
G75*
G02*
X193533126Y-117960202I-53033J53033D01*
G01*
X193427060Y-117854136D01*
G75*
G02*
X193427060Y-117748070I53033J53033D01*
G01*
G37*
G36*
G01*
X193780613Y-118101623D02*
X194735207Y-117147029D01*
G75*
G02*
X194841273Y-117147029I53033J-53033D01*
G01*
X194947339Y-117253095D01*
G75*
G02*
X194947339Y-117359161I-53033J-53033D01*
G01*
X193992745Y-118313755D01*
G75*
G02*
X193886679Y-118313755I-53033J53033D01*
G01*
X193780613Y-118207689D01*
G75*
G02*
X193780613Y-118101623I53033J53033D01*
G01*
G37*
G36*
G01*
X194134167Y-118455177D02*
X195088761Y-117500583D01*
G75*
G02*
X195194827Y-117500583I53033J-53033D01*
G01*
X195300893Y-117606649D01*
G75*
G02*
X195300893Y-117712715I-53033J-53033D01*
G01*
X194346299Y-118667309D01*
G75*
G02*
X194240233Y-118667309I-53033J53033D01*
G01*
X194134167Y-118561243D01*
G75*
G02*
X194134167Y-118455177I53033J53033D01*
G01*
G37*
G36*
G01*
X194487720Y-118808730D02*
X195442314Y-117854136D01*
G75*
G02*
X195548380Y-117854136I53033J-53033D01*
G01*
X195654446Y-117960202D01*
G75*
G02*
X195654446Y-118066268I-53033J-53033D01*
G01*
X194699852Y-119020862D01*
G75*
G02*
X194593786Y-119020862I-53033J53033D01*
G01*
X194487720Y-118914796D01*
G75*
G02*
X194487720Y-118808730I53033J53033D01*
G01*
G37*
G36*
G01*
X194841274Y-119162283D02*
X195795868Y-118207689D01*
G75*
G02*
X195901934Y-118207689I53033J-53033D01*
G01*
X196008000Y-118313755D01*
G75*
G02*
X196008000Y-118419821I-53033J-53033D01*
G01*
X195053406Y-119374415D01*
G75*
G02*
X194947340Y-119374415I-53033J53033D01*
G01*
X194841274Y-119268349D01*
G75*
G02*
X194841274Y-119162283I53033J53033D01*
G01*
G37*
G36*
G01*
X195194827Y-119515837D02*
X196149421Y-118561243D01*
G75*
G02*
X196255487Y-118561243I53033J-53033D01*
G01*
X196361553Y-118667309D01*
G75*
G02*
X196361553Y-118773375I-53033J-53033D01*
G01*
X195406959Y-119727969D01*
G75*
G02*
X195300893Y-119727969I-53033J53033D01*
G01*
X195194827Y-119621903D01*
G75*
G02*
X195194827Y-119515837I53033J53033D01*
G01*
G37*
G36*
G01*
X195548380Y-119869390D02*
X196502974Y-118914796D01*
G75*
G02*
X196609040Y-118914796I53033J-53033D01*
G01*
X196715106Y-119020862D01*
G75*
G02*
X196715106Y-119126928I-53033J-53033D01*
G01*
X195760512Y-120081522D01*
G75*
G02*
X195654446Y-120081522I-53033J53033D01*
G01*
X195548380Y-119975456D01*
G75*
G02*
X195548380Y-119869390I53033J53033D01*
G01*
G37*
G36*
G01*
X195901934Y-120222944D02*
X196856528Y-119268350D01*
G75*
G02*
X196962594Y-119268350I53033J-53033D01*
G01*
X197068660Y-119374416D01*
G75*
G02*
X197068660Y-119480482I-53033J-53033D01*
G01*
X196114066Y-120435076D01*
G75*
G02*
X196008000Y-120435076I-53033J53033D01*
G01*
X195901934Y-120329010D01*
G75*
G02*
X195901934Y-120222944I53033J53033D01*
G01*
G37*
G36*
G01*
X196255487Y-120576497D02*
X197210081Y-119621903D01*
G75*
G02*
X197316147Y-119621903I53033J-53033D01*
G01*
X197422213Y-119727969D01*
G75*
G02*
X197422213Y-119834035I-53033J-53033D01*
G01*
X196467619Y-120788629D01*
G75*
G02*
X196361553Y-120788629I-53033J53033D01*
G01*
X196255487Y-120682563D01*
G75*
G02*
X196255487Y-120576497I53033J53033D01*
G01*
G37*
G36*
G01*
X196609040Y-120930050D02*
X197563634Y-119975456D01*
G75*
G02*
X197669700Y-119975456I53033J-53033D01*
G01*
X197775766Y-120081522D01*
G75*
G02*
X197775766Y-120187588I-53033J-53033D01*
G01*
X196821172Y-121142182D01*
G75*
G02*
X196715106Y-121142182I-53033J53033D01*
G01*
X196609040Y-121036116D01*
G75*
G02*
X196609040Y-120930050I53033J53033D01*
G01*
G37*
G36*
G01*
X196609040Y-122803884D02*
X196715106Y-122697818D01*
G75*
G02*
X196821172Y-122697818I53033J-53033D01*
G01*
X197775766Y-123652412D01*
G75*
G02*
X197775766Y-123758478I-53033J-53033D01*
G01*
X197669700Y-123864544D01*
G75*
G02*
X197563634Y-123864544I-53033J53033D01*
G01*
X196609040Y-122909950D01*
G75*
G02*
X196609040Y-122803884I53033J53033D01*
G01*
G37*
G36*
G01*
X196255487Y-123157437D02*
X196361553Y-123051371D01*
G75*
G02*
X196467619Y-123051371I53033J-53033D01*
G01*
X197422213Y-124005965D01*
G75*
G02*
X197422213Y-124112031I-53033J-53033D01*
G01*
X197316147Y-124218097D01*
G75*
G02*
X197210081Y-124218097I-53033J53033D01*
G01*
X196255487Y-123263503D01*
G75*
G02*
X196255487Y-123157437I53033J53033D01*
G01*
G37*
G36*
G01*
X195901934Y-123510990D02*
X196008000Y-123404924D01*
G75*
G02*
X196114066Y-123404924I53033J-53033D01*
G01*
X197068660Y-124359518D01*
G75*
G02*
X197068660Y-124465584I-53033J-53033D01*
G01*
X196962594Y-124571650D01*
G75*
G02*
X196856528Y-124571650I-53033J53033D01*
G01*
X195901934Y-123617056D01*
G75*
G02*
X195901934Y-123510990I53033J53033D01*
G01*
G37*
G36*
G01*
X195548380Y-123864544D02*
X195654446Y-123758478D01*
G75*
G02*
X195760512Y-123758478I53033J-53033D01*
G01*
X196715106Y-124713072D01*
G75*
G02*
X196715106Y-124819138I-53033J-53033D01*
G01*
X196609040Y-124925204D01*
G75*
G02*
X196502974Y-124925204I-53033J53033D01*
G01*
X195548380Y-123970610D01*
G75*
G02*
X195548380Y-123864544I53033J53033D01*
G01*
G37*
G36*
G01*
X195194827Y-124218097D02*
X195300893Y-124112031D01*
G75*
G02*
X195406959Y-124112031I53033J-53033D01*
G01*
X196361553Y-125066625D01*
G75*
G02*
X196361553Y-125172691I-53033J-53033D01*
G01*
X196255487Y-125278757D01*
G75*
G02*
X196149421Y-125278757I-53033J53033D01*
G01*
X195194827Y-124324163D01*
G75*
G02*
X195194827Y-124218097I53033J53033D01*
G01*
G37*
G36*
G01*
X194841274Y-124571651D02*
X194947340Y-124465585D01*
G75*
G02*
X195053406Y-124465585I53033J-53033D01*
G01*
X196008000Y-125420179D01*
G75*
G02*
X196008000Y-125526245I-53033J-53033D01*
G01*
X195901934Y-125632311D01*
G75*
G02*
X195795868Y-125632311I-53033J53033D01*
G01*
X194841274Y-124677717D01*
G75*
G02*
X194841274Y-124571651I53033J53033D01*
G01*
G37*
G36*
G01*
X194487720Y-124925204D02*
X194593786Y-124819138D01*
G75*
G02*
X194699852Y-124819138I53033J-53033D01*
G01*
X195654446Y-125773732D01*
G75*
G02*
X195654446Y-125879798I-53033J-53033D01*
G01*
X195548380Y-125985864D01*
G75*
G02*
X195442314Y-125985864I-53033J53033D01*
G01*
X194487720Y-125031270D01*
G75*
G02*
X194487720Y-124925204I53033J53033D01*
G01*
G37*
G36*
G01*
X194134167Y-125278757D02*
X194240233Y-125172691D01*
G75*
G02*
X194346299Y-125172691I53033J-53033D01*
G01*
X195300893Y-126127285D01*
G75*
G02*
X195300893Y-126233351I-53033J-53033D01*
G01*
X195194827Y-126339417D01*
G75*
G02*
X195088761Y-126339417I-53033J53033D01*
G01*
X194134167Y-125384823D01*
G75*
G02*
X194134167Y-125278757I53033J53033D01*
G01*
G37*
G36*
G01*
X193780613Y-125632311D02*
X193886679Y-125526245D01*
G75*
G02*
X193992745Y-125526245I53033J-53033D01*
G01*
X194947339Y-126480839D01*
G75*
G02*
X194947339Y-126586905I-53033J-53033D01*
G01*
X194841273Y-126692971D01*
G75*
G02*
X194735207Y-126692971I-53033J53033D01*
G01*
X193780613Y-125738377D01*
G75*
G02*
X193780613Y-125632311I53033J53033D01*
G01*
G37*
G36*
G01*
X193427060Y-125985864D02*
X193533126Y-125879798D01*
G75*
G02*
X193639192Y-125879798I53033J-53033D01*
G01*
X194593786Y-126834392D01*
G75*
G02*
X194593786Y-126940458I-53033J-53033D01*
G01*
X194487720Y-127046524D01*
G75*
G02*
X194381654Y-127046524I-53033J53033D01*
G01*
X193427060Y-126091930D01*
G75*
G02*
X193427060Y-125985864I53033J53033D01*
G01*
G37*
G36*
G01*
X193073507Y-126339417D02*
X193179573Y-126233351D01*
G75*
G02*
X193285639Y-126233351I53033J-53033D01*
G01*
X194240233Y-127187945D01*
G75*
G02*
X194240233Y-127294011I-53033J-53033D01*
G01*
X194134167Y-127400077D01*
G75*
G02*
X194028101Y-127400077I-53033J53033D01*
G01*
X193073507Y-126445483D01*
G75*
G02*
X193073507Y-126339417I53033J53033D01*
G01*
G37*
G36*
G01*
X192719953Y-126692971D02*
X192826019Y-126586905D01*
G75*
G02*
X192932085Y-126586905I53033J-53033D01*
G01*
X193886679Y-127541499D01*
G75*
G02*
X193886679Y-127647565I-53033J-53033D01*
G01*
X193780613Y-127753631D01*
G75*
G02*
X193674547Y-127753631I-53033J53033D01*
G01*
X192719953Y-126799037D01*
G75*
G02*
X192719953Y-126692971I53033J53033D01*
G01*
G37*
G36*
G01*
X192366400Y-127046524D02*
X192472466Y-126940458D01*
G75*
G02*
X192578532Y-126940458I53033J-53033D01*
G01*
X193533126Y-127895052D01*
G75*
G02*
X193533126Y-128001118I-53033J-53033D01*
G01*
X193427060Y-128107184D01*
G75*
G02*
X193320994Y-128107184I-53033J53033D01*
G01*
X192366400Y-127152590D01*
G75*
G02*
X192366400Y-127046524I53033J53033D01*
G01*
G37*
G36*
G01*
X192012846Y-127400078D02*
X192118912Y-127294012D01*
G75*
G02*
X192224978Y-127294012I53033J-53033D01*
G01*
X193179572Y-128248606D01*
G75*
G02*
X193179572Y-128354672I-53033J-53033D01*
G01*
X193073506Y-128460738D01*
G75*
G02*
X192967440Y-128460738I-53033J53033D01*
G01*
X192012846Y-127506144D01*
G75*
G02*
X192012846Y-127400078I53033J53033D01*
G01*
G37*
G36*
G01*
X191659293Y-127753631D02*
X191765359Y-127647565D01*
G75*
G02*
X191871425Y-127647565I53033J-53033D01*
G01*
X192826019Y-128602159D01*
G75*
G02*
X192826019Y-128708225I-53033J-53033D01*
G01*
X192719953Y-128814291D01*
G75*
G02*
X192613887Y-128814291I-53033J53033D01*
G01*
X191659293Y-127859697D01*
G75*
G02*
X191659293Y-127753631I53033J53033D01*
G01*
G37*
G36*
G01*
X191305740Y-128107184D02*
X191411806Y-128001118D01*
G75*
G02*
X191517872Y-128001118I53033J-53033D01*
G01*
X192472466Y-128955712D01*
G75*
G02*
X192472466Y-129061778I-53033J-53033D01*
G01*
X192366400Y-129167844D01*
G75*
G02*
X192260334Y-129167844I-53033J53033D01*
G01*
X191305740Y-128213250D01*
G75*
G02*
X191305740Y-128107184I53033J53033D01*
G01*
G37*
G36*
G01*
X190952186Y-128460738D02*
X191058252Y-128354672D01*
G75*
G02*
X191164318Y-128354672I53033J-53033D01*
G01*
X192118912Y-129309266D01*
G75*
G02*
X192118912Y-129415332I-53033J-53033D01*
G01*
X192012846Y-129521398D01*
G75*
G02*
X191906780Y-129521398I-53033J53033D01*
G01*
X190952186Y-128566804D01*
G75*
G02*
X190952186Y-128460738I53033J53033D01*
G01*
G37*
G36*
G01*
X190598633Y-128814291D02*
X190704699Y-128708225D01*
G75*
G02*
X190810765Y-128708225I53033J-53033D01*
G01*
X191765359Y-129662819D01*
G75*
G02*
X191765359Y-129768885I-53033J-53033D01*
G01*
X191659293Y-129874951D01*
G75*
G02*
X191553227Y-129874951I-53033J53033D01*
G01*
X190598633Y-128920357D01*
G75*
G02*
X190598633Y-128814291I53033J53033D01*
G01*
G37*
G36*
G01*
X190245079Y-129167845D02*
X190351145Y-129061779D01*
G75*
G02*
X190457211Y-129061779I53033J-53033D01*
G01*
X191411805Y-130016373D01*
G75*
G02*
X191411805Y-130122439I-53033J-53033D01*
G01*
X191305739Y-130228505D01*
G75*
G02*
X191199673Y-130228505I-53033J53033D01*
G01*
X190245079Y-129273911D01*
G75*
G02*
X190245079Y-129167845I53033J53033D01*
G01*
G37*
G36*
G01*
X189891526Y-129521398D02*
X189997592Y-129415332D01*
G75*
G02*
X190103658Y-129415332I53033J-53033D01*
G01*
X191058252Y-130369926D01*
G75*
G02*
X191058252Y-130475992I-53033J-53033D01*
G01*
X190952186Y-130582058D01*
G75*
G02*
X190846120Y-130582058I-53033J53033D01*
G01*
X189891526Y-129627464D01*
G75*
G02*
X189891526Y-129521398I53033J53033D01*
G01*
G37*
G36*
G01*
X189537973Y-129874951D02*
X189644039Y-129768885D01*
G75*
G02*
X189750105Y-129768885I53033J-53033D01*
G01*
X190704699Y-130723479D01*
G75*
G02*
X190704699Y-130829545I-53033J-53033D01*
G01*
X190598633Y-130935611D01*
G75*
G02*
X190492567Y-130935611I-53033J53033D01*
G01*
X189537973Y-129981017D01*
G75*
G02*
X189537973Y-129874951I53033J53033D01*
G01*
G37*
G36*
G01*
X189184419Y-130228505D02*
X189290485Y-130122439D01*
G75*
G02*
X189396551Y-130122439I53033J-53033D01*
G01*
X190351145Y-131077033D01*
G75*
G02*
X190351145Y-131183099I-53033J-53033D01*
G01*
X190245079Y-131289165D01*
G75*
G02*
X190139013Y-131289165I-53033J53033D01*
G01*
X189184419Y-130334571D01*
G75*
G02*
X189184419Y-130228505I53033J53033D01*
G01*
G37*
G36*
G01*
X188830866Y-130582058D02*
X188936932Y-130475992D01*
G75*
G02*
X189042998Y-130475992I53033J-53033D01*
G01*
X189997592Y-131430586D01*
G75*
G02*
X189997592Y-131536652I-53033J-53033D01*
G01*
X189891526Y-131642718D01*
G75*
G02*
X189785460Y-131642718I-53033J53033D01*
G01*
X188830866Y-130688124D01*
G75*
G02*
X188830866Y-130582058I53033J53033D01*
G01*
G37*
G36*
G01*
X188477312Y-130935612D02*
X188583378Y-130829546D01*
G75*
G02*
X188689444Y-130829546I53033J-53033D01*
G01*
X189644038Y-131784140D01*
G75*
G02*
X189644038Y-131890206I-53033J-53033D01*
G01*
X189537972Y-131996272D01*
G75*
G02*
X189431906Y-131996272I-53033J53033D01*
G01*
X188477312Y-131041678D01*
G75*
G02*
X188477312Y-130935612I53033J53033D01*
G01*
G37*
G36*
G01*
X188123759Y-131289165D02*
X188229825Y-131183099D01*
G75*
G02*
X188335891Y-131183099I53033J-53033D01*
G01*
X189290485Y-132137693D01*
G75*
G02*
X189290485Y-132243759I-53033J-53033D01*
G01*
X189184419Y-132349825D01*
G75*
G02*
X189078353Y-132349825I-53033J53033D01*
G01*
X188123759Y-131395231D01*
G75*
G02*
X188123759Y-131289165I53033J53033D01*
G01*
G37*
G36*
G01*
X187770206Y-131642718D02*
X187876272Y-131536652D01*
G75*
G02*
X187982338Y-131536652I53033J-53033D01*
G01*
X188936932Y-132491246D01*
G75*
G02*
X188936932Y-132597312I-53033J-53033D01*
G01*
X188830866Y-132703378D01*
G75*
G02*
X188724800Y-132703378I-53033J53033D01*
G01*
X187770206Y-131748784D01*
G75*
G02*
X187770206Y-131642718I53033J53033D01*
G01*
G37*
G36*
G01*
X187416652Y-131996272D02*
X187522718Y-131890206D01*
G75*
G02*
X187628784Y-131890206I53033J-53033D01*
G01*
X188583378Y-132844800D01*
G75*
G02*
X188583378Y-132950866I-53033J-53033D01*
G01*
X188477312Y-133056932D01*
G75*
G02*
X188371246Y-133056932I-53033J53033D01*
G01*
X187416652Y-132102338D01*
G75*
G02*
X187416652Y-131996272I53033J53033D01*
G01*
G37*
G36*
G01*
X187063099Y-132349825D02*
X187169165Y-132243759D01*
G75*
G02*
X187275231Y-132243759I53033J-53033D01*
G01*
X188229825Y-133198353D01*
G75*
G02*
X188229825Y-133304419I-53033J-53033D01*
G01*
X188123759Y-133410485D01*
G75*
G02*
X188017693Y-133410485I-53033J53033D01*
G01*
X187063099Y-132455891D01*
G75*
G02*
X187063099Y-132349825I53033J53033D01*
G01*
G37*
G36*
G01*
X186709546Y-132703378D02*
X186815612Y-132597312D01*
G75*
G02*
X186921678Y-132597312I53033J-53033D01*
G01*
X187876272Y-133551906D01*
G75*
G02*
X187876272Y-133657972I-53033J-53033D01*
G01*
X187770206Y-133764038D01*
G75*
G02*
X187664140Y-133764038I-53033J53033D01*
G01*
X186709546Y-132809444D01*
G75*
G02*
X186709546Y-132703378I53033J53033D01*
G01*
G37*
G36*
G01*
X186355992Y-133056932D02*
X186462058Y-132950866D01*
G75*
G02*
X186568124Y-132950866I53033J-53033D01*
G01*
X187522718Y-133905460D01*
G75*
G02*
X187522718Y-134011526I-53033J-53033D01*
G01*
X187416652Y-134117592D01*
G75*
G02*
X187310586Y-134117592I-53033J53033D01*
G01*
X186355992Y-133162998D01*
G75*
G02*
X186355992Y-133056932I53033J53033D01*
G01*
G37*
G36*
G01*
X186002439Y-133410485D02*
X186108505Y-133304419D01*
G75*
G02*
X186214571Y-133304419I53033J-53033D01*
G01*
X187169165Y-134259013D01*
G75*
G02*
X187169165Y-134365079I-53033J-53033D01*
G01*
X187063099Y-134471145D01*
G75*
G02*
X186957033Y-134471145I-53033J53033D01*
G01*
X186002439Y-133516551D01*
G75*
G02*
X186002439Y-133410485I53033J53033D01*
G01*
G37*
G36*
G01*
X185648885Y-133764039D02*
X185754951Y-133657973D01*
G75*
G02*
X185861017Y-133657973I53033J-53033D01*
G01*
X186815611Y-134612567D01*
G75*
G02*
X186815611Y-134718633I-53033J-53033D01*
G01*
X186709545Y-134824699D01*
G75*
G02*
X186603479Y-134824699I-53033J53033D01*
G01*
X185648885Y-133870105D01*
G75*
G02*
X185648885Y-133764039I53033J53033D01*
G01*
G37*
G36*
G01*
X185295332Y-134117592D02*
X185401398Y-134011526D01*
G75*
G02*
X185507464Y-134011526I53033J-53033D01*
G01*
X186462058Y-134966120D01*
G75*
G02*
X186462058Y-135072186I-53033J-53033D01*
G01*
X186355992Y-135178252D01*
G75*
G02*
X186249926Y-135178252I-53033J53033D01*
G01*
X185295332Y-134223658D01*
G75*
G02*
X185295332Y-134117592I53033J53033D01*
G01*
G37*
G36*
G01*
X184941779Y-134471145D02*
X185047845Y-134365079D01*
G75*
G02*
X185153911Y-134365079I53033J-53033D01*
G01*
X186108505Y-135319673D01*
G75*
G02*
X186108505Y-135425739I-53033J-53033D01*
G01*
X186002439Y-135531805D01*
G75*
G02*
X185896373Y-135531805I-53033J53033D01*
G01*
X184941779Y-134577211D01*
G75*
G02*
X184941779Y-134471145I53033J53033D01*
G01*
G37*
G36*
G01*
X184588225Y-134824699D02*
X184694291Y-134718633D01*
G75*
G02*
X184800357Y-134718633I53033J-53033D01*
G01*
X185754951Y-135673227D01*
G75*
G02*
X185754951Y-135779293I-53033J-53033D01*
G01*
X185648885Y-135885359D01*
G75*
G02*
X185542819Y-135885359I-53033J53033D01*
G01*
X184588225Y-134930765D01*
G75*
G02*
X184588225Y-134824699I53033J53033D01*
G01*
G37*
G36*
G01*
X184234672Y-135178252D02*
X184340738Y-135072186D01*
G75*
G02*
X184446804Y-135072186I53033J-53033D01*
G01*
X185401398Y-136026780D01*
G75*
G02*
X185401398Y-136132846I-53033J-53033D01*
G01*
X185295332Y-136238912D01*
G75*
G02*
X185189266Y-136238912I-53033J53033D01*
G01*
X184234672Y-135284318D01*
G75*
G02*
X184234672Y-135178252I53033J53033D01*
G01*
G37*
G36*
G01*
X183881118Y-135531806D02*
X183987184Y-135425740D01*
G75*
G02*
X184093250Y-135425740I53033J-53033D01*
G01*
X185047844Y-136380334D01*
G75*
G02*
X185047844Y-136486400I-53033J-53033D01*
G01*
X184941778Y-136592466D01*
G75*
G02*
X184835712Y-136592466I-53033J53033D01*
G01*
X183881118Y-135637872D01*
G75*
G02*
X183881118Y-135531806I53033J53033D01*
G01*
G37*
G36*
G01*
X183527565Y-135885359D02*
X183633631Y-135779293D01*
G75*
G02*
X183739697Y-135779293I53033J-53033D01*
G01*
X184694291Y-136733887D01*
G75*
G02*
X184694291Y-136839953I-53033J-53033D01*
G01*
X184588225Y-136946019D01*
G75*
G02*
X184482159Y-136946019I-53033J53033D01*
G01*
X183527565Y-135991425D01*
G75*
G02*
X183527565Y-135885359I53033J53033D01*
G01*
G37*
G36*
G01*
X183174012Y-136238912D02*
X183280078Y-136132846D01*
G75*
G02*
X183386144Y-136132846I53033J-53033D01*
G01*
X184340738Y-137087440D01*
G75*
G02*
X184340738Y-137193506I-53033J-53033D01*
G01*
X184234672Y-137299572D01*
G75*
G02*
X184128606Y-137299572I-53033J53033D01*
G01*
X183174012Y-136344978D01*
G75*
G02*
X183174012Y-136238912I53033J53033D01*
G01*
G37*
G36*
G01*
X182820458Y-136592466D02*
X182926524Y-136486400D01*
G75*
G02*
X183032590Y-136486400I53033J-53033D01*
G01*
X183987184Y-137440994D01*
G75*
G02*
X183987184Y-137547060I-53033J-53033D01*
G01*
X183881118Y-137653126D01*
G75*
G02*
X183775052Y-137653126I-53033J53033D01*
G01*
X182820458Y-136698532D01*
G75*
G02*
X182820458Y-136592466I53033J53033D01*
G01*
G37*
G36*
G01*
X182466905Y-136946019D02*
X182572971Y-136839953D01*
G75*
G02*
X182679037Y-136839953I53033J-53033D01*
G01*
X183633631Y-137794547D01*
G75*
G02*
X183633631Y-137900613I-53033J-53033D01*
G01*
X183527565Y-138006679D01*
G75*
G02*
X183421499Y-138006679I-53033J53033D01*
G01*
X182466905Y-137052085D01*
G75*
G02*
X182466905Y-136946019I53033J53033D01*
G01*
G37*
G36*
G01*
X182113351Y-137299573D02*
X182219417Y-137193507D01*
G75*
G02*
X182325483Y-137193507I53033J-53033D01*
G01*
X183280077Y-138148101D01*
G75*
G02*
X183280077Y-138254167I-53033J-53033D01*
G01*
X183174011Y-138360233D01*
G75*
G02*
X183067945Y-138360233I-53033J53033D01*
G01*
X182113351Y-137405639D01*
G75*
G02*
X182113351Y-137299573I53033J53033D01*
G01*
G37*
G36*
G01*
X181759798Y-137653126D02*
X181865864Y-137547060D01*
G75*
G02*
X181971930Y-137547060I53033J-53033D01*
G01*
X182926524Y-138501654D01*
G75*
G02*
X182926524Y-138607720I-53033J-53033D01*
G01*
X182820458Y-138713786D01*
G75*
G02*
X182714392Y-138713786I-53033J53033D01*
G01*
X181759798Y-137759192D01*
G75*
G02*
X181759798Y-137653126I53033J53033D01*
G01*
G37*
G36*
G01*
X181406245Y-138006679D02*
X181512311Y-137900613D01*
G75*
G02*
X181618377Y-137900613I53033J-53033D01*
G01*
X182572971Y-138855207D01*
G75*
G02*
X182572971Y-138961273I-53033J-53033D01*
G01*
X182466905Y-139067339D01*
G75*
G02*
X182360839Y-139067339I-53033J53033D01*
G01*
X181406245Y-138112745D01*
G75*
G02*
X181406245Y-138006679I53033J53033D01*
G01*
G37*
G36*
G01*
X181052691Y-138360233D02*
X181158757Y-138254167D01*
G75*
G02*
X181264823Y-138254167I53033J-53033D01*
G01*
X182219417Y-139208761D01*
G75*
G02*
X182219417Y-139314827I-53033J-53033D01*
G01*
X182113351Y-139420893D01*
G75*
G02*
X182007285Y-139420893I-53033J53033D01*
G01*
X181052691Y-138466299D01*
G75*
G02*
X181052691Y-138360233I53033J53033D01*
G01*
G37*
G36*
G01*
X180699138Y-138713786D02*
X180805204Y-138607720D01*
G75*
G02*
X180911270Y-138607720I53033J-53033D01*
G01*
X181865864Y-139562314D01*
G75*
G02*
X181865864Y-139668380I-53033J-53033D01*
G01*
X181759798Y-139774446D01*
G75*
G02*
X181653732Y-139774446I-53033J53033D01*
G01*
X180699138Y-138819852D01*
G75*
G02*
X180699138Y-138713786I53033J53033D01*
G01*
G37*
G36*
G01*
X180345585Y-139067340D02*
X180451651Y-138961274D01*
G75*
G02*
X180557717Y-138961274I53033J-53033D01*
G01*
X181512311Y-139915868D01*
G75*
G02*
X181512311Y-140021934I-53033J-53033D01*
G01*
X181406245Y-140128000D01*
G75*
G02*
X181300179Y-140128000I-53033J53033D01*
G01*
X180345585Y-139173406D01*
G75*
G02*
X180345585Y-139067340I53033J53033D01*
G01*
G37*
G36*
G01*
X179992031Y-139420893D02*
X180098097Y-139314827D01*
G75*
G02*
X180204163Y-139314827I53033J-53033D01*
G01*
X181158757Y-140269421D01*
G75*
G02*
X181158757Y-140375487I-53033J-53033D01*
G01*
X181052691Y-140481553D01*
G75*
G02*
X180946625Y-140481553I-53033J53033D01*
G01*
X179992031Y-139526959D01*
G75*
G02*
X179992031Y-139420893I53033J53033D01*
G01*
G37*
G36*
G01*
X179638478Y-139774446D02*
X179744544Y-139668380D01*
G75*
G02*
X179850610Y-139668380I53033J-53033D01*
G01*
X180805204Y-140622974D01*
G75*
G02*
X180805204Y-140729040I-53033J-53033D01*
G01*
X180699138Y-140835106D01*
G75*
G02*
X180593072Y-140835106I-53033J53033D01*
G01*
X179638478Y-139880512D01*
G75*
G02*
X179638478Y-139774446I53033J53033D01*
G01*
G37*
G36*
G01*
X179284924Y-140128000D02*
X179390990Y-140021934D01*
G75*
G02*
X179497056Y-140021934I53033J-53033D01*
G01*
X180451650Y-140976528D01*
G75*
G02*
X180451650Y-141082594I-53033J-53033D01*
G01*
X180345584Y-141188660D01*
G75*
G02*
X180239518Y-141188660I-53033J53033D01*
G01*
X179284924Y-140234066D01*
G75*
G02*
X179284924Y-140128000I53033J53033D01*
G01*
G37*
G36*
G01*
X178931371Y-140481553D02*
X179037437Y-140375487D01*
G75*
G02*
X179143503Y-140375487I53033J-53033D01*
G01*
X180098097Y-141330081D01*
G75*
G02*
X180098097Y-141436147I-53033J-53033D01*
G01*
X179992031Y-141542213D01*
G75*
G02*
X179885965Y-141542213I-53033J53033D01*
G01*
X178931371Y-140587619D01*
G75*
G02*
X178931371Y-140481553I53033J53033D01*
G01*
G37*
G36*
G01*
X178577818Y-140835106D02*
X178683884Y-140729040D01*
G75*
G02*
X178789950Y-140729040I53033J-53033D01*
G01*
X179744544Y-141683634D01*
G75*
G02*
X179744544Y-141789700I-53033J-53033D01*
G01*
X179638478Y-141895766D01*
G75*
G02*
X179532412Y-141895766I-53033J53033D01*
G01*
X178577818Y-140941172D01*
G75*
G02*
X178577818Y-140835106I53033J53033D01*
G01*
G37*
G36*
G01*
X175855456Y-141683634D02*
X176810050Y-140729040D01*
G75*
G02*
X176916116Y-140729040I53033J-53033D01*
G01*
X177022182Y-140835106D01*
G75*
G02*
X177022182Y-140941172I-53033J-53033D01*
G01*
X176067588Y-141895766D01*
G75*
G02*
X175961522Y-141895766I-53033J53033D01*
G01*
X175855456Y-141789700D01*
G75*
G02*
X175855456Y-141683634I53033J53033D01*
G01*
G37*
G36*
G01*
X175501903Y-141330081D02*
X176456497Y-140375487D01*
G75*
G02*
X176562563Y-140375487I53033J-53033D01*
G01*
X176668629Y-140481553D01*
G75*
G02*
X176668629Y-140587619I-53033J-53033D01*
G01*
X175714035Y-141542213D01*
G75*
G02*
X175607969Y-141542213I-53033J53033D01*
G01*
X175501903Y-141436147D01*
G75*
G02*
X175501903Y-141330081I53033J53033D01*
G01*
G37*
G36*
G01*
X175148350Y-140976528D02*
X176102944Y-140021934D01*
G75*
G02*
X176209010Y-140021934I53033J-53033D01*
G01*
X176315076Y-140128000D01*
G75*
G02*
X176315076Y-140234066I-53033J-53033D01*
G01*
X175360482Y-141188660D01*
G75*
G02*
X175254416Y-141188660I-53033J53033D01*
G01*
X175148350Y-141082594D01*
G75*
G02*
X175148350Y-140976528I53033J53033D01*
G01*
G37*
G36*
G01*
X174794796Y-140622974D02*
X175749390Y-139668380D01*
G75*
G02*
X175855456Y-139668380I53033J-53033D01*
G01*
X175961522Y-139774446D01*
G75*
G02*
X175961522Y-139880512I-53033J-53033D01*
G01*
X175006928Y-140835106D01*
G75*
G02*
X174900862Y-140835106I-53033J53033D01*
G01*
X174794796Y-140729040D01*
G75*
G02*
X174794796Y-140622974I53033J53033D01*
G01*
G37*
G36*
G01*
X174441243Y-140269421D02*
X175395837Y-139314827D01*
G75*
G02*
X175501903Y-139314827I53033J-53033D01*
G01*
X175607969Y-139420893D01*
G75*
G02*
X175607969Y-139526959I-53033J-53033D01*
G01*
X174653375Y-140481553D01*
G75*
G02*
X174547309Y-140481553I-53033J53033D01*
G01*
X174441243Y-140375487D01*
G75*
G02*
X174441243Y-140269421I53033J53033D01*
G01*
G37*
G36*
G01*
X174087689Y-139915868D02*
X175042283Y-138961274D01*
G75*
G02*
X175148349Y-138961274I53033J-53033D01*
G01*
X175254415Y-139067340D01*
G75*
G02*
X175254415Y-139173406I-53033J-53033D01*
G01*
X174299821Y-140128000D01*
G75*
G02*
X174193755Y-140128000I-53033J53033D01*
G01*
X174087689Y-140021934D01*
G75*
G02*
X174087689Y-139915868I53033J53033D01*
G01*
G37*
G36*
G01*
X173734136Y-139562314D02*
X174688730Y-138607720D01*
G75*
G02*
X174794796Y-138607720I53033J-53033D01*
G01*
X174900862Y-138713786D01*
G75*
G02*
X174900862Y-138819852I-53033J-53033D01*
G01*
X173946268Y-139774446D01*
G75*
G02*
X173840202Y-139774446I-53033J53033D01*
G01*
X173734136Y-139668380D01*
G75*
G02*
X173734136Y-139562314I53033J53033D01*
G01*
G37*
G36*
G01*
X173380583Y-139208761D02*
X174335177Y-138254167D01*
G75*
G02*
X174441243Y-138254167I53033J-53033D01*
G01*
X174547309Y-138360233D01*
G75*
G02*
X174547309Y-138466299I-53033J-53033D01*
G01*
X173592715Y-139420893D01*
G75*
G02*
X173486649Y-139420893I-53033J53033D01*
G01*
X173380583Y-139314827D01*
G75*
G02*
X173380583Y-139208761I53033J53033D01*
G01*
G37*
G36*
G01*
X173027029Y-138855207D02*
X173981623Y-137900613D01*
G75*
G02*
X174087689Y-137900613I53033J-53033D01*
G01*
X174193755Y-138006679D01*
G75*
G02*
X174193755Y-138112745I-53033J-53033D01*
G01*
X173239161Y-139067339D01*
G75*
G02*
X173133095Y-139067339I-53033J53033D01*
G01*
X173027029Y-138961273D01*
G75*
G02*
X173027029Y-138855207I53033J53033D01*
G01*
G37*
G36*
G01*
X172673476Y-138501654D02*
X173628070Y-137547060D01*
G75*
G02*
X173734136Y-137547060I53033J-53033D01*
G01*
X173840202Y-137653126D01*
G75*
G02*
X173840202Y-137759192I-53033J-53033D01*
G01*
X172885608Y-138713786D01*
G75*
G02*
X172779542Y-138713786I-53033J53033D01*
G01*
X172673476Y-138607720D01*
G75*
G02*
X172673476Y-138501654I53033J53033D01*
G01*
G37*
G36*
G01*
X172319923Y-138148101D02*
X173274517Y-137193507D01*
G75*
G02*
X173380583Y-137193507I53033J-53033D01*
G01*
X173486649Y-137299573D01*
G75*
G02*
X173486649Y-137405639I-53033J-53033D01*
G01*
X172532055Y-138360233D01*
G75*
G02*
X172425989Y-138360233I-53033J53033D01*
G01*
X172319923Y-138254167D01*
G75*
G02*
X172319923Y-138148101I53033J53033D01*
G01*
G37*
G36*
G01*
X171966369Y-137794547D02*
X172920963Y-136839953D01*
G75*
G02*
X173027029Y-136839953I53033J-53033D01*
G01*
X173133095Y-136946019D01*
G75*
G02*
X173133095Y-137052085I-53033J-53033D01*
G01*
X172178501Y-138006679D01*
G75*
G02*
X172072435Y-138006679I-53033J53033D01*
G01*
X171966369Y-137900613D01*
G75*
G02*
X171966369Y-137794547I53033J53033D01*
G01*
G37*
G36*
G01*
X171612816Y-137440994D02*
X172567410Y-136486400D01*
G75*
G02*
X172673476Y-136486400I53033J-53033D01*
G01*
X172779542Y-136592466D01*
G75*
G02*
X172779542Y-136698532I-53033J-53033D01*
G01*
X171824948Y-137653126D01*
G75*
G02*
X171718882Y-137653126I-53033J53033D01*
G01*
X171612816Y-137547060D01*
G75*
G02*
X171612816Y-137440994I53033J53033D01*
G01*
G37*
G36*
G01*
X171259262Y-137087440D02*
X172213856Y-136132846D01*
G75*
G02*
X172319922Y-136132846I53033J-53033D01*
G01*
X172425988Y-136238912D01*
G75*
G02*
X172425988Y-136344978I-53033J-53033D01*
G01*
X171471394Y-137299572D01*
G75*
G02*
X171365328Y-137299572I-53033J53033D01*
G01*
X171259262Y-137193506D01*
G75*
G02*
X171259262Y-137087440I53033J53033D01*
G01*
G37*
G36*
G01*
X170905709Y-136733887D02*
X171860303Y-135779293D01*
G75*
G02*
X171966369Y-135779293I53033J-53033D01*
G01*
X172072435Y-135885359D01*
G75*
G02*
X172072435Y-135991425I-53033J-53033D01*
G01*
X171117841Y-136946019D01*
G75*
G02*
X171011775Y-136946019I-53033J53033D01*
G01*
X170905709Y-136839953D01*
G75*
G02*
X170905709Y-136733887I53033J53033D01*
G01*
G37*
G36*
G01*
X170552156Y-136380334D02*
X171506750Y-135425740D01*
G75*
G02*
X171612816Y-135425740I53033J-53033D01*
G01*
X171718882Y-135531806D01*
G75*
G02*
X171718882Y-135637872I-53033J-53033D01*
G01*
X170764288Y-136592466D01*
G75*
G02*
X170658222Y-136592466I-53033J53033D01*
G01*
X170552156Y-136486400D01*
G75*
G02*
X170552156Y-136380334I53033J53033D01*
G01*
G37*
G36*
G01*
X170198602Y-136026780D02*
X171153196Y-135072186D01*
G75*
G02*
X171259262Y-135072186I53033J-53033D01*
G01*
X171365328Y-135178252D01*
G75*
G02*
X171365328Y-135284318I-53033J-53033D01*
G01*
X170410734Y-136238912D01*
G75*
G02*
X170304668Y-136238912I-53033J53033D01*
G01*
X170198602Y-136132846D01*
G75*
G02*
X170198602Y-136026780I53033J53033D01*
G01*
G37*
G36*
G01*
X169845049Y-135673227D02*
X170799643Y-134718633D01*
G75*
G02*
X170905709Y-134718633I53033J-53033D01*
G01*
X171011775Y-134824699D01*
G75*
G02*
X171011775Y-134930765I-53033J-53033D01*
G01*
X170057181Y-135885359D01*
G75*
G02*
X169951115Y-135885359I-53033J53033D01*
G01*
X169845049Y-135779293D01*
G75*
G02*
X169845049Y-135673227I53033J53033D01*
G01*
G37*
G36*
G01*
X169491495Y-135319673D02*
X170446089Y-134365079D01*
G75*
G02*
X170552155Y-134365079I53033J-53033D01*
G01*
X170658221Y-134471145D01*
G75*
G02*
X170658221Y-134577211I-53033J-53033D01*
G01*
X169703627Y-135531805D01*
G75*
G02*
X169597561Y-135531805I-53033J53033D01*
G01*
X169491495Y-135425739D01*
G75*
G02*
X169491495Y-135319673I53033J53033D01*
G01*
G37*
G36*
G01*
X169137942Y-134966120D02*
X170092536Y-134011526D01*
G75*
G02*
X170198602Y-134011526I53033J-53033D01*
G01*
X170304668Y-134117592D01*
G75*
G02*
X170304668Y-134223658I-53033J-53033D01*
G01*
X169350074Y-135178252D01*
G75*
G02*
X169244008Y-135178252I-53033J53033D01*
G01*
X169137942Y-135072186D01*
G75*
G02*
X169137942Y-134966120I53033J53033D01*
G01*
G37*
G36*
G01*
X168784389Y-134612567D02*
X169738983Y-133657973D01*
G75*
G02*
X169845049Y-133657973I53033J-53033D01*
G01*
X169951115Y-133764039D01*
G75*
G02*
X169951115Y-133870105I-53033J-53033D01*
G01*
X168996521Y-134824699D01*
G75*
G02*
X168890455Y-134824699I-53033J53033D01*
G01*
X168784389Y-134718633D01*
G75*
G02*
X168784389Y-134612567I53033J53033D01*
G01*
G37*
G36*
G01*
X168430835Y-134259013D02*
X169385429Y-133304419D01*
G75*
G02*
X169491495Y-133304419I53033J-53033D01*
G01*
X169597561Y-133410485D01*
G75*
G02*
X169597561Y-133516551I-53033J-53033D01*
G01*
X168642967Y-134471145D01*
G75*
G02*
X168536901Y-134471145I-53033J53033D01*
G01*
X168430835Y-134365079D01*
G75*
G02*
X168430835Y-134259013I53033J53033D01*
G01*
G37*
G36*
G01*
X168077282Y-133905460D02*
X169031876Y-132950866D01*
G75*
G02*
X169137942Y-132950866I53033J-53033D01*
G01*
X169244008Y-133056932D01*
G75*
G02*
X169244008Y-133162998I-53033J-53033D01*
G01*
X168289414Y-134117592D01*
G75*
G02*
X168183348Y-134117592I-53033J53033D01*
G01*
X168077282Y-134011526D01*
G75*
G02*
X168077282Y-133905460I53033J53033D01*
G01*
G37*
G36*
G01*
X167723728Y-133551906D02*
X168678322Y-132597312D01*
G75*
G02*
X168784388Y-132597312I53033J-53033D01*
G01*
X168890454Y-132703378D01*
G75*
G02*
X168890454Y-132809444I-53033J-53033D01*
G01*
X167935860Y-133764038D01*
G75*
G02*
X167829794Y-133764038I-53033J53033D01*
G01*
X167723728Y-133657972D01*
G75*
G02*
X167723728Y-133551906I53033J53033D01*
G01*
G37*
G36*
G01*
X167370175Y-133198353D02*
X168324769Y-132243759D01*
G75*
G02*
X168430835Y-132243759I53033J-53033D01*
G01*
X168536901Y-132349825D01*
G75*
G02*
X168536901Y-132455891I-53033J-53033D01*
G01*
X167582307Y-133410485D01*
G75*
G02*
X167476241Y-133410485I-53033J53033D01*
G01*
X167370175Y-133304419D01*
G75*
G02*
X167370175Y-133198353I53033J53033D01*
G01*
G37*
G36*
G01*
X167016622Y-132844800D02*
X167971216Y-131890206D01*
G75*
G02*
X168077282Y-131890206I53033J-53033D01*
G01*
X168183348Y-131996272D01*
G75*
G02*
X168183348Y-132102338I-53033J-53033D01*
G01*
X167228754Y-133056932D01*
G75*
G02*
X167122688Y-133056932I-53033J53033D01*
G01*
X167016622Y-132950866D01*
G75*
G02*
X167016622Y-132844800I53033J53033D01*
G01*
G37*
G36*
G01*
X166663068Y-132491246D02*
X167617662Y-131536652D01*
G75*
G02*
X167723728Y-131536652I53033J-53033D01*
G01*
X167829794Y-131642718D01*
G75*
G02*
X167829794Y-131748784I-53033J-53033D01*
G01*
X166875200Y-132703378D01*
G75*
G02*
X166769134Y-132703378I-53033J53033D01*
G01*
X166663068Y-132597312D01*
G75*
G02*
X166663068Y-132491246I53033J53033D01*
G01*
G37*
G36*
G01*
X166309515Y-132137693D02*
X167264109Y-131183099D01*
G75*
G02*
X167370175Y-131183099I53033J-53033D01*
G01*
X167476241Y-131289165D01*
G75*
G02*
X167476241Y-131395231I-53033J-53033D01*
G01*
X166521647Y-132349825D01*
G75*
G02*
X166415581Y-132349825I-53033J53033D01*
G01*
X166309515Y-132243759D01*
G75*
G02*
X166309515Y-132137693I53033J53033D01*
G01*
G37*
G36*
G01*
X165955962Y-131784140D02*
X166910556Y-130829546D01*
G75*
G02*
X167016622Y-130829546I53033J-53033D01*
G01*
X167122688Y-130935612D01*
G75*
G02*
X167122688Y-131041678I-53033J-53033D01*
G01*
X166168094Y-131996272D01*
G75*
G02*
X166062028Y-131996272I-53033J53033D01*
G01*
X165955962Y-131890206D01*
G75*
G02*
X165955962Y-131784140I53033J53033D01*
G01*
G37*
G36*
G01*
X165602408Y-131430586D02*
X166557002Y-130475992D01*
G75*
G02*
X166663068Y-130475992I53033J-53033D01*
G01*
X166769134Y-130582058D01*
G75*
G02*
X166769134Y-130688124I-53033J-53033D01*
G01*
X165814540Y-131642718D01*
G75*
G02*
X165708474Y-131642718I-53033J53033D01*
G01*
X165602408Y-131536652D01*
G75*
G02*
X165602408Y-131430586I53033J53033D01*
G01*
G37*
G36*
G01*
X165248855Y-131077033D02*
X166203449Y-130122439D01*
G75*
G02*
X166309515Y-130122439I53033J-53033D01*
G01*
X166415581Y-130228505D01*
G75*
G02*
X166415581Y-130334571I-53033J-53033D01*
G01*
X165460987Y-131289165D01*
G75*
G02*
X165354921Y-131289165I-53033J53033D01*
G01*
X165248855Y-131183099D01*
G75*
G02*
X165248855Y-131077033I53033J53033D01*
G01*
G37*
G36*
G01*
X164895301Y-130723479D02*
X165849895Y-129768885D01*
G75*
G02*
X165955961Y-129768885I53033J-53033D01*
G01*
X166062027Y-129874951D01*
G75*
G02*
X166062027Y-129981017I-53033J-53033D01*
G01*
X165107433Y-130935611D01*
G75*
G02*
X165001367Y-130935611I-53033J53033D01*
G01*
X164895301Y-130829545D01*
G75*
G02*
X164895301Y-130723479I53033J53033D01*
G01*
G37*
G36*
G01*
X164541748Y-130369926D02*
X165496342Y-129415332D01*
G75*
G02*
X165602408Y-129415332I53033J-53033D01*
G01*
X165708474Y-129521398D01*
G75*
G02*
X165708474Y-129627464I-53033J-53033D01*
G01*
X164753880Y-130582058D01*
G75*
G02*
X164647814Y-130582058I-53033J53033D01*
G01*
X164541748Y-130475992D01*
G75*
G02*
X164541748Y-130369926I53033J53033D01*
G01*
G37*
G36*
G01*
X164188195Y-130016373D02*
X165142789Y-129061779D01*
G75*
G02*
X165248855Y-129061779I53033J-53033D01*
G01*
X165354921Y-129167845D01*
G75*
G02*
X165354921Y-129273911I-53033J-53033D01*
G01*
X164400327Y-130228505D01*
G75*
G02*
X164294261Y-130228505I-53033J53033D01*
G01*
X164188195Y-130122439D01*
G75*
G02*
X164188195Y-130016373I53033J53033D01*
G01*
G37*
G36*
G01*
X163834641Y-129662819D02*
X164789235Y-128708225D01*
G75*
G02*
X164895301Y-128708225I53033J-53033D01*
G01*
X165001367Y-128814291D01*
G75*
G02*
X165001367Y-128920357I-53033J-53033D01*
G01*
X164046773Y-129874951D01*
G75*
G02*
X163940707Y-129874951I-53033J53033D01*
G01*
X163834641Y-129768885D01*
G75*
G02*
X163834641Y-129662819I53033J53033D01*
G01*
G37*
G36*
G01*
X163481088Y-129309266D02*
X164435682Y-128354672D01*
G75*
G02*
X164541748Y-128354672I53033J-53033D01*
G01*
X164647814Y-128460738D01*
G75*
G02*
X164647814Y-128566804I-53033J-53033D01*
G01*
X163693220Y-129521398D01*
G75*
G02*
X163587154Y-129521398I-53033J53033D01*
G01*
X163481088Y-129415332D01*
G75*
G02*
X163481088Y-129309266I53033J53033D01*
G01*
G37*
G36*
G01*
X163127534Y-128955712D02*
X164082128Y-128001118D01*
G75*
G02*
X164188194Y-128001118I53033J-53033D01*
G01*
X164294260Y-128107184D01*
G75*
G02*
X164294260Y-128213250I-53033J-53033D01*
G01*
X163339666Y-129167844D01*
G75*
G02*
X163233600Y-129167844I-53033J53033D01*
G01*
X163127534Y-129061778D01*
G75*
G02*
X163127534Y-128955712I53033J53033D01*
G01*
G37*
G36*
G01*
X162773981Y-128602159D02*
X163728575Y-127647565D01*
G75*
G02*
X163834641Y-127647565I53033J-53033D01*
G01*
X163940707Y-127753631D01*
G75*
G02*
X163940707Y-127859697I-53033J-53033D01*
G01*
X162986113Y-128814291D01*
G75*
G02*
X162880047Y-128814291I-53033J53033D01*
G01*
X162773981Y-128708225D01*
G75*
G02*
X162773981Y-128602159I53033J53033D01*
G01*
G37*
G36*
G01*
X162420428Y-128248606D02*
X163375022Y-127294012D01*
G75*
G02*
X163481088Y-127294012I53033J-53033D01*
G01*
X163587154Y-127400078D01*
G75*
G02*
X163587154Y-127506144I-53033J-53033D01*
G01*
X162632560Y-128460738D01*
G75*
G02*
X162526494Y-128460738I-53033J53033D01*
G01*
X162420428Y-128354672D01*
G75*
G02*
X162420428Y-128248606I53033J53033D01*
G01*
G37*
G36*
G01*
X162066874Y-127895052D02*
X163021468Y-126940458D01*
G75*
G02*
X163127534Y-126940458I53033J-53033D01*
G01*
X163233600Y-127046524D01*
G75*
G02*
X163233600Y-127152590I-53033J-53033D01*
G01*
X162279006Y-128107184D01*
G75*
G02*
X162172940Y-128107184I-53033J53033D01*
G01*
X162066874Y-128001118D01*
G75*
G02*
X162066874Y-127895052I53033J53033D01*
G01*
G37*
G36*
G01*
X161713321Y-127541499D02*
X162667915Y-126586905D01*
G75*
G02*
X162773981Y-126586905I53033J-53033D01*
G01*
X162880047Y-126692971D01*
G75*
G02*
X162880047Y-126799037I-53033J-53033D01*
G01*
X161925453Y-127753631D01*
G75*
G02*
X161819387Y-127753631I-53033J53033D01*
G01*
X161713321Y-127647565D01*
G75*
G02*
X161713321Y-127541499I53033J53033D01*
G01*
G37*
G36*
G01*
X161359767Y-127187945D02*
X162314361Y-126233351D01*
G75*
G02*
X162420427Y-126233351I53033J-53033D01*
G01*
X162526493Y-126339417D01*
G75*
G02*
X162526493Y-126445483I-53033J-53033D01*
G01*
X161571899Y-127400077D01*
G75*
G02*
X161465833Y-127400077I-53033J53033D01*
G01*
X161359767Y-127294011D01*
G75*
G02*
X161359767Y-127187945I53033J53033D01*
G01*
G37*
G36*
G01*
X161006214Y-126834392D02*
X161960808Y-125879798D01*
G75*
G02*
X162066874Y-125879798I53033J-53033D01*
G01*
X162172940Y-125985864D01*
G75*
G02*
X162172940Y-126091930I-53033J-53033D01*
G01*
X161218346Y-127046524D01*
G75*
G02*
X161112280Y-127046524I-53033J53033D01*
G01*
X161006214Y-126940458D01*
G75*
G02*
X161006214Y-126834392I53033J53033D01*
G01*
G37*
G36*
G01*
X160652661Y-126480839D02*
X161607255Y-125526245D01*
G75*
G02*
X161713321Y-125526245I53033J-53033D01*
G01*
X161819387Y-125632311D01*
G75*
G02*
X161819387Y-125738377I-53033J-53033D01*
G01*
X160864793Y-126692971D01*
G75*
G02*
X160758727Y-126692971I-53033J53033D01*
G01*
X160652661Y-126586905D01*
G75*
G02*
X160652661Y-126480839I53033J53033D01*
G01*
G37*
G36*
G01*
X160299107Y-126127285D02*
X161253701Y-125172691D01*
G75*
G02*
X161359767Y-125172691I53033J-53033D01*
G01*
X161465833Y-125278757D01*
G75*
G02*
X161465833Y-125384823I-53033J-53033D01*
G01*
X160511239Y-126339417D01*
G75*
G02*
X160405173Y-126339417I-53033J53033D01*
G01*
X160299107Y-126233351D01*
G75*
G02*
X160299107Y-126127285I53033J53033D01*
G01*
G37*
G36*
G01*
X159945554Y-125773732D02*
X160900148Y-124819138D01*
G75*
G02*
X161006214Y-124819138I53033J-53033D01*
G01*
X161112280Y-124925204D01*
G75*
G02*
X161112280Y-125031270I-53033J-53033D01*
G01*
X160157686Y-125985864D01*
G75*
G02*
X160051620Y-125985864I-53033J53033D01*
G01*
X159945554Y-125879798D01*
G75*
G02*
X159945554Y-125773732I53033J53033D01*
G01*
G37*
G36*
G01*
X159592000Y-125420179D02*
X160546594Y-124465585D01*
G75*
G02*
X160652660Y-124465585I53033J-53033D01*
G01*
X160758726Y-124571651D01*
G75*
G02*
X160758726Y-124677717I-53033J-53033D01*
G01*
X159804132Y-125632311D01*
G75*
G02*
X159698066Y-125632311I-53033J53033D01*
G01*
X159592000Y-125526245D01*
G75*
G02*
X159592000Y-125420179I53033J53033D01*
G01*
G37*
G36*
G01*
X159238447Y-125066625D02*
X160193041Y-124112031D01*
G75*
G02*
X160299107Y-124112031I53033J-53033D01*
G01*
X160405173Y-124218097D01*
G75*
G02*
X160405173Y-124324163I-53033J-53033D01*
G01*
X159450579Y-125278757D01*
G75*
G02*
X159344513Y-125278757I-53033J53033D01*
G01*
X159238447Y-125172691D01*
G75*
G02*
X159238447Y-125066625I53033J53033D01*
G01*
G37*
G36*
G01*
X158884894Y-124713072D02*
X159839488Y-123758478D01*
G75*
G02*
X159945554Y-123758478I53033J-53033D01*
G01*
X160051620Y-123864544D01*
G75*
G02*
X160051620Y-123970610I-53033J-53033D01*
G01*
X159097026Y-124925204D01*
G75*
G02*
X158990960Y-124925204I-53033J53033D01*
G01*
X158884894Y-124819138D01*
G75*
G02*
X158884894Y-124713072I53033J53033D01*
G01*
G37*
G36*
G01*
X158531340Y-124359518D02*
X159485934Y-123404924D01*
G75*
G02*
X159592000Y-123404924I53033J-53033D01*
G01*
X159698066Y-123510990D01*
G75*
G02*
X159698066Y-123617056I-53033J-53033D01*
G01*
X158743472Y-124571650D01*
G75*
G02*
X158637406Y-124571650I-53033J53033D01*
G01*
X158531340Y-124465584D01*
G75*
G02*
X158531340Y-124359518I53033J53033D01*
G01*
G37*
G36*
G01*
X158177787Y-124005965D02*
X159132381Y-123051371D01*
G75*
G02*
X159238447Y-123051371I53033J-53033D01*
G01*
X159344513Y-123157437D01*
G75*
G02*
X159344513Y-123263503I-53033J-53033D01*
G01*
X158389919Y-124218097D01*
G75*
G02*
X158283853Y-124218097I-53033J53033D01*
G01*
X158177787Y-124112031D01*
G75*
G02*
X158177787Y-124005965I53033J53033D01*
G01*
G37*
G36*
G01*
X157824234Y-123652412D02*
X158778828Y-122697818D01*
G75*
G02*
X158884894Y-122697818I53033J-53033D01*
G01*
X158990960Y-122803884D01*
G75*
G02*
X158990960Y-122909950I-53033J-53033D01*
G01*
X158036366Y-123864544D01*
G75*
G02*
X157930300Y-123864544I-53033J53033D01*
G01*
X157824234Y-123758478D01*
G75*
G02*
X157824234Y-123652412I53033J53033D01*
G01*
G37*
G36*
G01*
X216452000Y-110957500D02*
X216452000Y-111157500D01*
G75*
G02*
X216352000Y-111257500I-100000J0D01*
G01*
X215077000Y-111257500D01*
G75*
G02*
X214977000Y-111157500I0J100000D01*
G01*
X214977000Y-110957500D01*
G75*
G02*
X215077000Y-110857500I100000J0D01*
G01*
X216352000Y-110857500D01*
G75*
G02*
X216452000Y-110957500I0J-100000D01*
G01*
G37*
G36*
G01*
X216452000Y-111607500D02*
X216452000Y-111807500D01*
G75*
G02*
X216352000Y-111907500I-100000J0D01*
G01*
X215077000Y-111907500D01*
G75*
G02*
X214977000Y-111807500I0J100000D01*
G01*
X214977000Y-111607500D01*
G75*
G02*
X215077000Y-111507500I100000J0D01*
G01*
X216352000Y-111507500D01*
G75*
G02*
X216452000Y-111607500I0J-100000D01*
G01*
G37*
G36*
G01*
X216452000Y-112257500D02*
X216452000Y-112457500D01*
G75*
G02*
X216352000Y-112557500I-100000J0D01*
G01*
X215077000Y-112557500D01*
G75*
G02*
X214977000Y-112457500I0J100000D01*
G01*
X214977000Y-112257500D01*
G75*
G02*
X215077000Y-112157500I100000J0D01*
G01*
X216352000Y-112157500D01*
G75*
G02*
X216452000Y-112257500I0J-100000D01*
G01*
G37*
G36*
G01*
X216452000Y-112907500D02*
X216452000Y-113107500D01*
G75*
G02*
X216352000Y-113207500I-100000J0D01*
G01*
X215077000Y-113207500D01*
G75*
G02*
X214977000Y-113107500I0J100000D01*
G01*
X214977000Y-112907500D01*
G75*
G02*
X215077000Y-112807500I100000J0D01*
G01*
X216352000Y-112807500D01*
G75*
G02*
X216452000Y-112907500I0J-100000D01*
G01*
G37*
G36*
G01*
X216452000Y-113557500D02*
X216452000Y-113757500D01*
G75*
G02*
X216352000Y-113857500I-100000J0D01*
G01*
X215077000Y-113857500D01*
G75*
G02*
X214977000Y-113757500I0J100000D01*
G01*
X214977000Y-113557500D01*
G75*
G02*
X215077000Y-113457500I100000J0D01*
G01*
X216352000Y-113457500D01*
G75*
G02*
X216452000Y-113557500I0J-100000D01*
G01*
G37*
G36*
G01*
X216452000Y-114207500D02*
X216452000Y-114407500D01*
G75*
G02*
X216352000Y-114507500I-100000J0D01*
G01*
X215077000Y-114507500D01*
G75*
G02*
X214977000Y-114407500I0J100000D01*
G01*
X214977000Y-114207500D01*
G75*
G02*
X215077000Y-114107500I100000J0D01*
G01*
X216352000Y-114107500D01*
G75*
G02*
X216452000Y-114207500I0J-100000D01*
G01*
G37*
G36*
G01*
X216452000Y-114857500D02*
X216452000Y-115057500D01*
G75*
G02*
X216352000Y-115157500I-100000J0D01*
G01*
X215077000Y-115157500D01*
G75*
G02*
X214977000Y-115057500I0J100000D01*
G01*
X214977000Y-114857500D01*
G75*
G02*
X215077000Y-114757500I100000J0D01*
G01*
X216352000Y-114757500D01*
G75*
G02*
X216452000Y-114857500I0J-100000D01*
G01*
G37*
G36*
G01*
X216452000Y-115507500D02*
X216452000Y-115707500D01*
G75*
G02*
X216352000Y-115807500I-100000J0D01*
G01*
X215077000Y-115807500D01*
G75*
G02*
X214977000Y-115707500I0J100000D01*
G01*
X214977000Y-115507500D01*
G75*
G02*
X215077000Y-115407500I100000J0D01*
G01*
X216352000Y-115407500D01*
G75*
G02*
X216452000Y-115507500I0J-100000D01*
G01*
G37*
G36*
G01*
X216452000Y-116157500D02*
X216452000Y-116357500D01*
G75*
G02*
X216352000Y-116457500I-100000J0D01*
G01*
X215077000Y-116457500D01*
G75*
G02*
X214977000Y-116357500I0J100000D01*
G01*
X214977000Y-116157500D01*
G75*
G02*
X215077000Y-116057500I100000J0D01*
G01*
X216352000Y-116057500D01*
G75*
G02*
X216452000Y-116157500I0J-100000D01*
G01*
G37*
G36*
G01*
X216452000Y-116807500D02*
X216452000Y-117007500D01*
G75*
G02*
X216352000Y-117107500I-100000J0D01*
G01*
X215077000Y-117107500D01*
G75*
G02*
X214977000Y-117007500I0J100000D01*
G01*
X214977000Y-116807500D01*
G75*
G02*
X215077000Y-116707500I100000J0D01*
G01*
X216352000Y-116707500D01*
G75*
G02*
X216452000Y-116807500I0J-100000D01*
G01*
G37*
G36*
G01*
X210727000Y-116807500D02*
X210727000Y-117007500D01*
G75*
G02*
X210627000Y-117107500I-100000J0D01*
G01*
X209352000Y-117107500D01*
G75*
G02*
X209252000Y-117007500I0J100000D01*
G01*
X209252000Y-116807500D01*
G75*
G02*
X209352000Y-116707500I100000J0D01*
G01*
X210627000Y-116707500D01*
G75*
G02*
X210727000Y-116807500I0J-100000D01*
G01*
G37*
G36*
G01*
X210727000Y-116157500D02*
X210727000Y-116357500D01*
G75*
G02*
X210627000Y-116457500I-100000J0D01*
G01*
X209352000Y-116457500D01*
G75*
G02*
X209252000Y-116357500I0J100000D01*
G01*
X209252000Y-116157500D01*
G75*
G02*
X209352000Y-116057500I100000J0D01*
G01*
X210627000Y-116057500D01*
G75*
G02*
X210727000Y-116157500I0J-100000D01*
G01*
G37*
G36*
G01*
X210727000Y-115507500D02*
X210727000Y-115707500D01*
G75*
G02*
X210627000Y-115807500I-100000J0D01*
G01*
X209352000Y-115807500D01*
G75*
G02*
X209252000Y-115707500I0J100000D01*
G01*
X209252000Y-115507500D01*
G75*
G02*
X209352000Y-115407500I100000J0D01*
G01*
X210627000Y-115407500D01*
G75*
G02*
X210727000Y-115507500I0J-100000D01*
G01*
G37*
G36*
G01*
X210727000Y-114857500D02*
X210727000Y-115057500D01*
G75*
G02*
X210627000Y-115157500I-100000J0D01*
G01*
X209352000Y-115157500D01*
G75*
G02*
X209252000Y-115057500I0J100000D01*
G01*
X209252000Y-114857500D01*
G75*
G02*
X209352000Y-114757500I100000J0D01*
G01*
X210627000Y-114757500D01*
G75*
G02*
X210727000Y-114857500I0J-100000D01*
G01*
G37*
G36*
G01*
X210727000Y-114207500D02*
X210727000Y-114407500D01*
G75*
G02*
X210627000Y-114507500I-100000J0D01*
G01*
X209352000Y-114507500D01*
G75*
G02*
X209252000Y-114407500I0J100000D01*
G01*
X209252000Y-114207500D01*
G75*
G02*
X209352000Y-114107500I100000J0D01*
G01*
X210627000Y-114107500D01*
G75*
G02*
X210727000Y-114207500I0J-100000D01*
G01*
G37*
G36*
G01*
X210727000Y-113557500D02*
X210727000Y-113757500D01*
G75*
G02*
X210627000Y-113857500I-100000J0D01*
G01*
X209352000Y-113857500D01*
G75*
G02*
X209252000Y-113757500I0J100000D01*
G01*
X209252000Y-113557500D01*
G75*
G02*
X209352000Y-113457500I100000J0D01*
G01*
X210627000Y-113457500D01*
G75*
G02*
X210727000Y-113557500I0J-100000D01*
G01*
G37*
G36*
G01*
X210727000Y-112907500D02*
X210727000Y-113107500D01*
G75*
G02*
X210627000Y-113207500I-100000J0D01*
G01*
X209352000Y-113207500D01*
G75*
G02*
X209252000Y-113107500I0J100000D01*
G01*
X209252000Y-112907500D01*
G75*
G02*
X209352000Y-112807500I100000J0D01*
G01*
X210627000Y-112807500D01*
G75*
G02*
X210727000Y-112907500I0J-100000D01*
G01*
G37*
G36*
G01*
X210727000Y-112257500D02*
X210727000Y-112457500D01*
G75*
G02*
X210627000Y-112557500I-100000J0D01*
G01*
X209352000Y-112557500D01*
G75*
G02*
X209252000Y-112457500I0J100000D01*
G01*
X209252000Y-112257500D01*
G75*
G02*
X209352000Y-112157500I100000J0D01*
G01*
X210627000Y-112157500D01*
G75*
G02*
X210727000Y-112257500I0J-100000D01*
G01*
G37*
G36*
G01*
X210727000Y-111607500D02*
X210727000Y-111807500D01*
G75*
G02*
X210627000Y-111907500I-100000J0D01*
G01*
X209352000Y-111907500D01*
G75*
G02*
X209252000Y-111807500I0J100000D01*
G01*
X209252000Y-111607500D01*
G75*
G02*
X209352000Y-111507500I100000J0D01*
G01*
X210627000Y-111507500D01*
G75*
G02*
X210727000Y-111607500I0J-100000D01*
G01*
G37*
G36*
G01*
X210727000Y-110957500D02*
X210727000Y-111157500D01*
G75*
G02*
X210627000Y-111257500I-100000J0D01*
G01*
X209352000Y-111257500D01*
G75*
G02*
X209252000Y-111157500I0J100000D01*
G01*
X209252000Y-110957500D01*
G75*
G02*
X209352000Y-110857500I100000J0D01*
G01*
X210627000Y-110857500D01*
G75*
G02*
X210727000Y-110957500I0J-100000D01*
G01*
G37*
G36*
G01*
X210727000Y-101432500D02*
X210727000Y-101632500D01*
G75*
G02*
X210627000Y-101732500I-100000J0D01*
G01*
X209352000Y-101732500D01*
G75*
G02*
X209252000Y-101632500I0J100000D01*
G01*
X209252000Y-101432500D01*
G75*
G02*
X209352000Y-101332500I100000J0D01*
G01*
X210627000Y-101332500D01*
G75*
G02*
X210727000Y-101432500I0J-100000D01*
G01*
G37*
G36*
G01*
X210727000Y-102082500D02*
X210727000Y-102282500D01*
G75*
G02*
X210627000Y-102382500I-100000J0D01*
G01*
X209352000Y-102382500D01*
G75*
G02*
X209252000Y-102282500I0J100000D01*
G01*
X209252000Y-102082500D01*
G75*
G02*
X209352000Y-101982500I100000J0D01*
G01*
X210627000Y-101982500D01*
G75*
G02*
X210727000Y-102082500I0J-100000D01*
G01*
G37*
G36*
G01*
X210727000Y-102732500D02*
X210727000Y-102932500D01*
G75*
G02*
X210627000Y-103032500I-100000J0D01*
G01*
X209352000Y-103032500D01*
G75*
G02*
X209252000Y-102932500I0J100000D01*
G01*
X209252000Y-102732500D01*
G75*
G02*
X209352000Y-102632500I100000J0D01*
G01*
X210627000Y-102632500D01*
G75*
G02*
X210727000Y-102732500I0J-100000D01*
G01*
G37*
G36*
G01*
X210727000Y-103382500D02*
X210727000Y-103582500D01*
G75*
G02*
X210627000Y-103682500I-100000J0D01*
G01*
X209352000Y-103682500D01*
G75*
G02*
X209252000Y-103582500I0J100000D01*
G01*
X209252000Y-103382500D01*
G75*
G02*
X209352000Y-103282500I100000J0D01*
G01*
X210627000Y-103282500D01*
G75*
G02*
X210727000Y-103382500I0J-100000D01*
G01*
G37*
G36*
G01*
X210727000Y-104032500D02*
X210727000Y-104232500D01*
G75*
G02*
X210627000Y-104332500I-100000J0D01*
G01*
X209352000Y-104332500D01*
G75*
G02*
X209252000Y-104232500I0J100000D01*
G01*
X209252000Y-104032500D01*
G75*
G02*
X209352000Y-103932500I100000J0D01*
G01*
X210627000Y-103932500D01*
G75*
G02*
X210727000Y-104032500I0J-100000D01*
G01*
G37*
G36*
G01*
X210727000Y-104682500D02*
X210727000Y-104882500D01*
G75*
G02*
X210627000Y-104982500I-100000J0D01*
G01*
X209352000Y-104982500D01*
G75*
G02*
X209252000Y-104882500I0J100000D01*
G01*
X209252000Y-104682500D01*
G75*
G02*
X209352000Y-104582500I100000J0D01*
G01*
X210627000Y-104582500D01*
G75*
G02*
X210727000Y-104682500I0J-100000D01*
G01*
G37*
G36*
G01*
X210727000Y-105332500D02*
X210727000Y-105532500D01*
G75*
G02*
X210627000Y-105632500I-100000J0D01*
G01*
X209352000Y-105632500D01*
G75*
G02*
X209252000Y-105532500I0J100000D01*
G01*
X209252000Y-105332500D01*
G75*
G02*
X209352000Y-105232500I100000J0D01*
G01*
X210627000Y-105232500D01*
G75*
G02*
X210727000Y-105332500I0J-100000D01*
G01*
G37*
G36*
G01*
X210727000Y-105982500D02*
X210727000Y-106182500D01*
G75*
G02*
X210627000Y-106282500I-100000J0D01*
G01*
X209352000Y-106282500D01*
G75*
G02*
X209252000Y-106182500I0J100000D01*
G01*
X209252000Y-105982500D01*
G75*
G02*
X209352000Y-105882500I100000J0D01*
G01*
X210627000Y-105882500D01*
G75*
G02*
X210727000Y-105982500I0J-100000D01*
G01*
G37*
G36*
G01*
X210727000Y-106632500D02*
X210727000Y-106832500D01*
G75*
G02*
X210627000Y-106932500I-100000J0D01*
G01*
X209352000Y-106932500D01*
G75*
G02*
X209252000Y-106832500I0J100000D01*
G01*
X209252000Y-106632500D01*
G75*
G02*
X209352000Y-106532500I100000J0D01*
G01*
X210627000Y-106532500D01*
G75*
G02*
X210727000Y-106632500I0J-100000D01*
G01*
G37*
G36*
G01*
X210727000Y-107282500D02*
X210727000Y-107482500D01*
G75*
G02*
X210627000Y-107582500I-100000J0D01*
G01*
X209352000Y-107582500D01*
G75*
G02*
X209252000Y-107482500I0J100000D01*
G01*
X209252000Y-107282500D01*
G75*
G02*
X209352000Y-107182500I100000J0D01*
G01*
X210627000Y-107182500D01*
G75*
G02*
X210727000Y-107282500I0J-100000D01*
G01*
G37*
G36*
G01*
X216452000Y-107282500D02*
X216452000Y-107482500D01*
G75*
G02*
X216352000Y-107582500I-100000J0D01*
G01*
X215077000Y-107582500D01*
G75*
G02*
X214977000Y-107482500I0J100000D01*
G01*
X214977000Y-107282500D01*
G75*
G02*
X215077000Y-107182500I100000J0D01*
G01*
X216352000Y-107182500D01*
G75*
G02*
X216452000Y-107282500I0J-100000D01*
G01*
G37*
G36*
G01*
X216452000Y-106632500D02*
X216452000Y-106832500D01*
G75*
G02*
X216352000Y-106932500I-100000J0D01*
G01*
X215077000Y-106932500D01*
G75*
G02*
X214977000Y-106832500I0J100000D01*
G01*
X214977000Y-106632500D01*
G75*
G02*
X215077000Y-106532500I100000J0D01*
G01*
X216352000Y-106532500D01*
G75*
G02*
X216452000Y-106632500I0J-100000D01*
G01*
G37*
G36*
G01*
X216452000Y-105982500D02*
X216452000Y-106182500D01*
G75*
G02*
X216352000Y-106282500I-100000J0D01*
G01*
X215077000Y-106282500D01*
G75*
G02*
X214977000Y-106182500I0J100000D01*
G01*
X214977000Y-105982500D01*
G75*
G02*
X215077000Y-105882500I100000J0D01*
G01*
X216352000Y-105882500D01*
G75*
G02*
X216452000Y-105982500I0J-100000D01*
G01*
G37*
G36*
G01*
X216452000Y-105332500D02*
X216452000Y-105532500D01*
G75*
G02*
X216352000Y-105632500I-100000J0D01*
G01*
X215077000Y-105632500D01*
G75*
G02*
X214977000Y-105532500I0J100000D01*
G01*
X214977000Y-105332500D01*
G75*
G02*
X215077000Y-105232500I100000J0D01*
G01*
X216352000Y-105232500D01*
G75*
G02*
X216452000Y-105332500I0J-100000D01*
G01*
G37*
G36*
G01*
X216452000Y-104682500D02*
X216452000Y-104882500D01*
G75*
G02*
X216352000Y-104982500I-100000J0D01*
G01*
X215077000Y-104982500D01*
G75*
G02*
X214977000Y-104882500I0J100000D01*
G01*
X214977000Y-104682500D01*
G75*
G02*
X215077000Y-104582500I100000J0D01*
G01*
X216352000Y-104582500D01*
G75*
G02*
X216452000Y-104682500I0J-100000D01*
G01*
G37*
G36*
G01*
X216452000Y-104032500D02*
X216452000Y-104232500D01*
G75*
G02*
X216352000Y-104332500I-100000J0D01*
G01*
X215077000Y-104332500D01*
G75*
G02*
X214977000Y-104232500I0J100000D01*
G01*
X214977000Y-104032500D01*
G75*
G02*
X215077000Y-103932500I100000J0D01*
G01*
X216352000Y-103932500D01*
G75*
G02*
X216452000Y-104032500I0J-100000D01*
G01*
G37*
G36*
G01*
X216452000Y-103382500D02*
X216452000Y-103582500D01*
G75*
G02*
X216352000Y-103682500I-100000J0D01*
G01*
X215077000Y-103682500D01*
G75*
G02*
X214977000Y-103582500I0J100000D01*
G01*
X214977000Y-103382500D01*
G75*
G02*
X215077000Y-103282500I100000J0D01*
G01*
X216352000Y-103282500D01*
G75*
G02*
X216452000Y-103382500I0J-100000D01*
G01*
G37*
G36*
G01*
X216452000Y-102732500D02*
X216452000Y-102932500D01*
G75*
G02*
X216352000Y-103032500I-100000J0D01*
G01*
X215077000Y-103032500D01*
G75*
G02*
X214977000Y-102932500I0J100000D01*
G01*
X214977000Y-102732500D01*
G75*
G02*
X215077000Y-102632500I100000J0D01*
G01*
X216352000Y-102632500D01*
G75*
G02*
X216452000Y-102732500I0J-100000D01*
G01*
G37*
G36*
G01*
X216452000Y-102082500D02*
X216452000Y-102282500D01*
G75*
G02*
X216352000Y-102382500I-100000J0D01*
G01*
X215077000Y-102382500D01*
G75*
G02*
X214977000Y-102282500I0J100000D01*
G01*
X214977000Y-102082500D01*
G75*
G02*
X215077000Y-101982500I100000J0D01*
G01*
X216352000Y-101982500D01*
G75*
G02*
X216452000Y-102082500I0J-100000D01*
G01*
G37*
G36*
G01*
X216452000Y-101432500D02*
X216452000Y-101632500D01*
G75*
G02*
X216352000Y-101732500I-100000J0D01*
G01*
X215077000Y-101732500D01*
G75*
G02*
X214977000Y-101632500I0J100000D01*
G01*
X214977000Y-101432500D01*
G75*
G02*
X215077000Y-101332500I100000J0D01*
G01*
X216352000Y-101332500D01*
G75*
G02*
X216452000Y-101432500I0J-100000D01*
G01*
G37*
D14*
X152725000Y-115570000D03*
X152725000Y-113030000D03*
D15*
X146175000Y-114300000D03*
D11*
X155448000Y-106794300D03*
D12*
X155448000Y-104254300D03*
X155448000Y-101714300D03*
D16*
X228600000Y-152400000D03*
X226060000Y-152400000D03*
X223520000Y-152400000D03*
X220980000Y-152400000D03*
X218440000Y-152400000D03*
X215900000Y-152400000D03*
X213360000Y-152400000D03*
X210820000Y-152400000D03*
X208280000Y-152400000D03*
X205740000Y-152400000D03*
X203200000Y-152400000D03*
X200660000Y-152400000D03*
X198120000Y-152400000D03*
X195580000Y-152400000D03*
X193040000Y-152400000D03*
X190500000Y-152400000D03*
X187960000Y-152400000D03*
X185420000Y-152400000D03*
X182880000Y-152400000D03*
X180340000Y-152400000D03*
X177800000Y-152400000D03*
X175260000Y-152400000D03*
X172720000Y-152400000D03*
X170180000Y-152400000D03*
X167640000Y-152400000D03*
X165100000Y-152400000D03*
X162560000Y-152400000D03*
X160020000Y-152400000D03*
X157480000Y-152400000D03*
X154940000Y-152400000D03*
X152400000Y-152400000D03*
X149860000Y-152400000D03*
X147320000Y-152400000D03*
X144780000Y-152400000D03*
X142240000Y-152400000D03*
X139700000Y-152400000D03*
X137160000Y-152400000D03*
X134620000Y-152400000D03*
X132080000Y-152400000D03*
X129540000Y-152400000D03*
X228600000Y-149860000D03*
X226060000Y-149860000D03*
X223520000Y-149860000D03*
X220980000Y-149860000D03*
X218440000Y-149860000D03*
X215900000Y-149860000D03*
X213360000Y-149860000D03*
X210820000Y-149860000D03*
X208280000Y-149860000D03*
X205740000Y-149860000D03*
X203200000Y-149860000D03*
X200660000Y-149860000D03*
X198120000Y-149860000D03*
X195580000Y-149860000D03*
X193040000Y-149860000D03*
X190500000Y-149860000D03*
X187960000Y-149860000D03*
X185420000Y-149860000D03*
X182880000Y-149860000D03*
X180340000Y-149860000D03*
X177800000Y-149860000D03*
X175260000Y-149860000D03*
X172720000Y-149860000D03*
X170180000Y-149860000D03*
X167640000Y-149860000D03*
X165100000Y-149860000D03*
X162560000Y-149860000D03*
X160020000Y-149860000D03*
X157480000Y-149860000D03*
X154940000Y-149860000D03*
X152400000Y-149860000D03*
X149860000Y-149860000D03*
X147320000Y-149860000D03*
X144780000Y-149860000D03*
X142240000Y-149860000D03*
X139700000Y-149860000D03*
X137160000Y-149860000D03*
X134620000Y-149860000D03*
X132080000Y-149860000D03*
X129540000Y-149860000D03*
X228600000Y-91440000D03*
X226060000Y-91440000D03*
X223520000Y-91440000D03*
X220980000Y-91440000D03*
X218440000Y-91440000D03*
X215900000Y-91440000D03*
X213360000Y-91440000D03*
X210820000Y-91440000D03*
X208280000Y-91440000D03*
X205740000Y-91440000D03*
X203200000Y-91440000D03*
X200660000Y-91440000D03*
X198120000Y-91440000D03*
X195580000Y-91440000D03*
X193040000Y-91440000D03*
X190500000Y-91440000D03*
X187960000Y-91440000D03*
X185420000Y-91440000D03*
X182880000Y-91440000D03*
X180340000Y-91440000D03*
X177800000Y-91440000D03*
X175260000Y-91440000D03*
X172720000Y-91440000D03*
X170180000Y-91440000D03*
X167640000Y-91440000D03*
X165100000Y-91440000D03*
X162560000Y-91440000D03*
X160020000Y-91440000D03*
X157480000Y-91440000D03*
X154940000Y-91440000D03*
X152400000Y-91440000D03*
X149860000Y-91440000D03*
X147320000Y-91440000D03*
X144780000Y-91440000D03*
X142240000Y-91440000D03*
X139700000Y-91440000D03*
X137160000Y-91440000D03*
X134620000Y-91440000D03*
X132080000Y-91440000D03*
X129540000Y-91440000D03*
X228600000Y-93980000D03*
X226060000Y-93980000D03*
X223520000Y-93980000D03*
X220980000Y-93980000D03*
X218440000Y-93980000D03*
X215900000Y-93980000D03*
X213360000Y-93980000D03*
X210820000Y-93980000D03*
X208280000Y-93980000D03*
X205740000Y-93980000D03*
X203200000Y-93980000D03*
X200660000Y-93980000D03*
X198120000Y-93980000D03*
X195580000Y-93980000D03*
X193040000Y-93980000D03*
X190500000Y-93980000D03*
X187960000Y-93980000D03*
X185420000Y-93980000D03*
X182880000Y-93980000D03*
X180340000Y-93980000D03*
X177800000Y-93980000D03*
X175260000Y-93980000D03*
X172720000Y-93980000D03*
X170180000Y-93980000D03*
X167640000Y-93980000D03*
X165100000Y-93980000D03*
X162560000Y-93980000D03*
X160020000Y-93980000D03*
X157480000Y-93980000D03*
X154940000Y-93980000D03*
X152400000Y-93980000D03*
X149860000Y-93980000D03*
X147320000Y-93980000D03*
X144780000Y-93980000D03*
X142240000Y-93980000D03*
X139700000Y-93980000D03*
X137160000Y-93980000D03*
X134620000Y-93980000D03*
X132080000Y-93980000D03*
X129540000Y-93980000D03*
X228600000Y-125730000D03*
X228600000Y-123190000D03*
X228600000Y-120650000D03*
X228600000Y-118110000D03*
M02*
