G04 #@! TF.GenerationSoftware,KiCad,Pcbnew,(5.1.9)-1*
G04 #@! TF.CreationDate,2021-06-15T15:58:53-04:00*
G04 #@! TF.ProjectId,SuperVIC-STM32,53757065-7256-4494-932d-53544d33322e,rev?*
G04 #@! TF.SameCoordinates,Original*
G04 #@! TF.FileFunction,Soldermask,Top*
G04 #@! TF.FilePolarity,Negative*
%FSLAX46Y46*%
G04 Gerber Fmt 4.6, Leading zero omitted, Abs format (unit mm)*
G04 Created by KiCad (PCBNEW (5.1.9)-1) date 2021-06-15 15:58:53*
%MOMM*%
%LPD*%
G01*
G04 APERTURE LIST*
%ADD10R,1.700000X1.700000*%
%ADD11O,1.700000X1.700000*%
%ADD12R,1.200000X1.400000*%
%ADD13C,1.524000*%
G04 APERTURE END LIST*
G36*
G01*
X218745000Y-128085001D02*
X218745000Y-127184999D01*
G75*
G02*
X218994999Y-126935000I249999J0D01*
G01*
X219645001Y-126935000D01*
G75*
G02*
X219895000Y-127184999I0J-249999D01*
G01*
X219895000Y-128085001D01*
G75*
G02*
X219645001Y-128335000I-249999J0D01*
G01*
X218994999Y-128335000D01*
G75*
G02*
X218745000Y-128085001I0J249999D01*
G01*
G37*
G36*
G01*
X220795000Y-128085001D02*
X220795000Y-127184999D01*
G75*
G02*
X221044999Y-126935000I249999J0D01*
G01*
X221695001Y-126935000D01*
G75*
G02*
X221945000Y-127184999I0J-249999D01*
G01*
X221945000Y-128085001D01*
G75*
G02*
X221695001Y-128335000I-249999J0D01*
G01*
X221044999Y-128335000D01*
G75*
G02*
X220795000Y-128085001I0J249999D01*
G01*
G37*
G36*
G01*
X220795000Y-123640001D02*
X220795000Y-122739999D01*
G75*
G02*
X221044999Y-122490000I249999J0D01*
G01*
X221695001Y-122490000D01*
G75*
G02*
X221945000Y-122739999I0J-249999D01*
G01*
X221945000Y-123640001D01*
G75*
G02*
X221695001Y-123890000I-249999J0D01*
G01*
X221044999Y-123890000D01*
G75*
G02*
X220795000Y-123640001I0J249999D01*
G01*
G37*
G36*
G01*
X218745000Y-123640001D02*
X218745000Y-122739999D01*
G75*
G02*
X218994999Y-122490000I249999J0D01*
G01*
X219645001Y-122490000D01*
G75*
G02*
X219895000Y-122739999I0J-249999D01*
G01*
X219895000Y-123640001D01*
G75*
G02*
X219645001Y-123890000I-249999J0D01*
G01*
X218994999Y-123890000D01*
G75*
G02*
X218745000Y-123640001I0J249999D01*
G01*
G37*
G36*
G01*
X217874001Y-110103500D02*
X216973999Y-110103500D01*
G75*
G02*
X216724000Y-109853501I0J249999D01*
G01*
X216724000Y-109203499D01*
G75*
G02*
X216973999Y-108953500I249999J0D01*
G01*
X217874001Y-108953500D01*
G75*
G02*
X218124000Y-109203499I0J-249999D01*
G01*
X218124000Y-109853501D01*
G75*
G02*
X217874001Y-110103500I-249999J0D01*
G01*
G37*
G36*
G01*
X217874001Y-112153500D02*
X216973999Y-112153500D01*
G75*
G02*
X216724000Y-111903501I0J249999D01*
G01*
X216724000Y-111253499D01*
G75*
G02*
X216973999Y-111003500I249999J0D01*
G01*
X217874001Y-111003500D01*
G75*
G02*
X218124000Y-111253499I0J-249999D01*
G01*
X218124000Y-111903501D01*
G75*
G02*
X217874001Y-112153500I-249999J0D01*
G01*
G37*
G36*
G01*
X217874001Y-102565000D02*
X216973999Y-102565000D01*
G75*
G02*
X216724000Y-102315001I0J249999D01*
G01*
X216724000Y-101664999D01*
G75*
G02*
X216973999Y-101415000I249999J0D01*
G01*
X217874001Y-101415000D01*
G75*
G02*
X218124000Y-101664999I0J-249999D01*
G01*
X218124000Y-102315001D01*
G75*
G02*
X217874001Y-102565000I-249999J0D01*
G01*
G37*
G36*
G01*
X217874001Y-100515000D02*
X216973999Y-100515000D01*
G75*
G02*
X216724000Y-100265001I0J249999D01*
G01*
X216724000Y-99614999D01*
G75*
G02*
X216973999Y-99365000I249999J0D01*
G01*
X217874001Y-99365000D01*
G75*
G02*
X218124000Y-99614999I0J-249999D01*
G01*
X218124000Y-100265001D01*
G75*
G02*
X217874001Y-100515000I-249999J0D01*
G01*
G37*
G36*
G01*
X220650000Y-108717501D02*
X220650000Y-107817499D01*
G75*
G02*
X220899999Y-107567500I249999J0D01*
G01*
X221550001Y-107567500D01*
G75*
G02*
X221800000Y-107817499I0J-249999D01*
G01*
X221800000Y-108717501D01*
G75*
G02*
X221550001Y-108967500I-249999J0D01*
G01*
X220899999Y-108967500D01*
G75*
G02*
X220650000Y-108717501I0J249999D01*
G01*
G37*
G36*
G01*
X222700000Y-108717501D02*
X222700000Y-107817499D01*
G75*
G02*
X222949999Y-107567500I249999J0D01*
G01*
X223600001Y-107567500D01*
G75*
G02*
X223850000Y-107817499I0J-249999D01*
G01*
X223850000Y-108717501D01*
G75*
G02*
X223600001Y-108967500I-249999J0D01*
G01*
X222949999Y-108967500D01*
G75*
G02*
X222700000Y-108717501I0J249999D01*
G01*
G37*
G36*
G01*
X222827000Y-117671001D02*
X222827000Y-116770999D01*
G75*
G02*
X223076999Y-116521000I249999J0D01*
G01*
X223727001Y-116521000D01*
G75*
G02*
X223977000Y-116770999I0J-249999D01*
G01*
X223977000Y-117671001D01*
G75*
G02*
X223727001Y-117921000I-249999J0D01*
G01*
X223076999Y-117921000D01*
G75*
G02*
X222827000Y-117671001I0J249999D01*
G01*
G37*
G36*
G01*
X220777000Y-117671001D02*
X220777000Y-116770999D01*
G75*
G02*
X221026999Y-116521000I249999J0D01*
G01*
X221677001Y-116521000D01*
G75*
G02*
X221927000Y-116770999I0J-249999D01*
G01*
X221927000Y-117671001D01*
G75*
G02*
X221677001Y-117921000I-249999J0D01*
G01*
X221026999Y-117921000D01*
G75*
G02*
X220777000Y-117671001I0J249999D01*
G01*
G37*
G36*
G01*
X153365000Y-112579999D02*
X153365000Y-113480001D01*
G75*
G02*
X153115001Y-113730000I-249999J0D01*
G01*
X152464999Y-113730000D01*
G75*
G02*
X152215000Y-113480001I0J249999D01*
G01*
X152215000Y-112579999D01*
G75*
G02*
X152464999Y-112330000I249999J0D01*
G01*
X153115001Y-112330000D01*
G75*
G02*
X153365000Y-112579999I0J-249999D01*
G01*
G37*
G36*
G01*
X151315000Y-112579999D02*
X151315000Y-113480001D01*
G75*
G02*
X151065001Y-113730000I-249999J0D01*
G01*
X150414999Y-113730000D01*
G75*
G02*
X150165000Y-113480001I0J249999D01*
G01*
X150165000Y-112579999D01*
G75*
G02*
X150414999Y-112330000I249999J0D01*
G01*
X151065001Y-112330000D01*
G75*
G02*
X151315000Y-112579999I0J-249999D01*
G01*
G37*
G36*
G01*
X152215000Y-116020001D02*
X152215000Y-115119999D01*
G75*
G02*
X152464999Y-114870000I249999J0D01*
G01*
X153115001Y-114870000D01*
G75*
G02*
X153365000Y-115119999I0J-249999D01*
G01*
X153365000Y-116020001D01*
G75*
G02*
X153115001Y-116270000I-249999J0D01*
G01*
X152464999Y-116270000D01*
G75*
G02*
X152215000Y-116020001I0J249999D01*
G01*
G37*
G36*
G01*
X150165000Y-116020001D02*
X150165000Y-115119999D01*
G75*
G02*
X150414999Y-114870000I249999J0D01*
G01*
X151065001Y-114870000D01*
G75*
G02*
X151315000Y-115119999I0J-249999D01*
G01*
X151315000Y-116020001D01*
G75*
G02*
X151065001Y-116270000I-249999J0D01*
G01*
X150414999Y-116270000D01*
G75*
G02*
X150165000Y-116020001I0J249999D01*
G01*
G37*
G36*
G01*
X197935000Y-129355001D02*
X197935000Y-128454999D01*
G75*
G02*
X198184999Y-128205000I249999J0D01*
G01*
X198835001Y-128205000D01*
G75*
G02*
X199085000Y-128454999I0J-249999D01*
G01*
X199085000Y-129355001D01*
G75*
G02*
X198835001Y-129605000I-249999J0D01*
G01*
X198184999Y-129605000D01*
G75*
G02*
X197935000Y-129355001I0J249999D01*
G01*
G37*
G36*
G01*
X195885000Y-129355001D02*
X195885000Y-128454999D01*
G75*
G02*
X196134999Y-128205000I249999J0D01*
G01*
X196785001Y-128205000D01*
G75*
G02*
X197035000Y-128454999I0J-249999D01*
G01*
X197035000Y-129355001D01*
G75*
G02*
X196785001Y-129605000I-249999J0D01*
G01*
X196134999Y-129605000D01*
G75*
G02*
X195885000Y-129355001I0J249999D01*
G01*
G37*
G36*
G01*
X195638000Y-113659499D02*
X195638000Y-114559501D01*
G75*
G02*
X195388001Y-114809500I-249999J0D01*
G01*
X194737999Y-114809500D01*
G75*
G02*
X194488000Y-114559501I0J249999D01*
G01*
X194488000Y-113659499D01*
G75*
G02*
X194737999Y-113409500I249999J0D01*
G01*
X195388001Y-113409500D01*
G75*
G02*
X195638000Y-113659499I0J-249999D01*
G01*
G37*
G36*
G01*
X197688000Y-113659499D02*
X197688000Y-114559501D01*
G75*
G02*
X197438001Y-114809500I-249999J0D01*
G01*
X196787999Y-114809500D01*
G75*
G02*
X196538000Y-114559501I0J249999D01*
G01*
X196538000Y-113659499D01*
G75*
G02*
X196787999Y-113409500I249999J0D01*
G01*
X197438001Y-113409500D01*
G75*
G02*
X197688000Y-113659499I0J-249999D01*
G01*
G37*
G36*
G01*
X183185000Y-141420001D02*
X183185000Y-140519999D01*
G75*
G02*
X183434999Y-140270000I249999J0D01*
G01*
X184085001Y-140270000D01*
G75*
G02*
X184335000Y-140519999I0J-249999D01*
G01*
X184335000Y-141420001D01*
G75*
G02*
X184085001Y-141670000I-249999J0D01*
G01*
X183434999Y-141670000D01*
G75*
G02*
X183185000Y-141420001I0J249999D01*
G01*
G37*
G36*
G01*
X185235000Y-141420001D02*
X185235000Y-140519999D01*
G75*
G02*
X185484999Y-140270000I249999J0D01*
G01*
X186135001Y-140270000D01*
G75*
G02*
X186385000Y-140519999I0J-249999D01*
G01*
X186385000Y-141420001D01*
G75*
G02*
X186135001Y-141670000I-249999J0D01*
G01*
X185484999Y-141670000D01*
G75*
G02*
X185235000Y-141420001I0J249999D01*
G01*
G37*
G36*
G01*
X190830000Y-106229999D02*
X190830000Y-107130001D01*
G75*
G02*
X190580001Y-107380000I-249999J0D01*
G01*
X189929999Y-107380000D01*
G75*
G02*
X189680000Y-107130001I0J249999D01*
G01*
X189680000Y-106229999D01*
G75*
G02*
X189929999Y-105980000I249999J0D01*
G01*
X190580001Y-105980000D01*
G75*
G02*
X190830000Y-106229999I0J-249999D01*
G01*
G37*
G36*
G01*
X188780000Y-106229999D02*
X188780000Y-107130001D01*
G75*
G02*
X188530001Y-107380000I-249999J0D01*
G01*
X187879999Y-107380000D01*
G75*
G02*
X187630000Y-107130001I0J249999D01*
G01*
X187630000Y-106229999D01*
G75*
G02*
X187879999Y-105980000I249999J0D01*
G01*
X188530001Y-105980000D01*
G75*
G02*
X188780000Y-106229999I0J-249999D01*
G01*
G37*
G36*
G01*
X193225000Y-109404999D02*
X193225000Y-110305001D01*
G75*
G02*
X192975001Y-110555000I-249999J0D01*
G01*
X192324999Y-110555000D01*
G75*
G02*
X192075000Y-110305001I0J249999D01*
G01*
X192075000Y-109404999D01*
G75*
G02*
X192324999Y-109155000I249999J0D01*
G01*
X192975001Y-109155000D01*
G75*
G02*
X193225000Y-109404999I0J-249999D01*
G01*
G37*
G36*
G01*
X195275000Y-109404999D02*
X195275000Y-110305001D01*
G75*
G02*
X195025001Y-110555000I-249999J0D01*
G01*
X194374999Y-110555000D01*
G75*
G02*
X194125000Y-110305001I0J249999D01*
G01*
X194125000Y-109404999D01*
G75*
G02*
X194374999Y-109155000I249999J0D01*
G01*
X195025001Y-109155000D01*
G75*
G02*
X195275000Y-109404999I0J-249999D01*
G01*
G37*
G36*
G01*
X198425000Y-117290001D02*
X198425000Y-116389999D01*
G75*
G02*
X198674999Y-116140000I249999J0D01*
G01*
X199325001Y-116140000D01*
G75*
G02*
X199575000Y-116389999I0J-249999D01*
G01*
X199575000Y-117290001D01*
G75*
G02*
X199325001Y-117540000I-249999J0D01*
G01*
X198674999Y-117540000D01*
G75*
G02*
X198425000Y-117290001I0J249999D01*
G01*
G37*
G36*
G01*
X200475000Y-117290001D02*
X200475000Y-116389999D01*
G75*
G02*
X200724999Y-116140000I249999J0D01*
G01*
X201375001Y-116140000D01*
G75*
G02*
X201625000Y-116389999I0J-249999D01*
G01*
X201625000Y-117290001D01*
G75*
G02*
X201375001Y-117540000I-249999J0D01*
G01*
X200724999Y-117540000D01*
G75*
G02*
X200475000Y-117290001I0J249999D01*
G01*
G37*
G36*
G01*
X195910000Y-132264999D02*
X195910000Y-133165001D01*
G75*
G02*
X195660001Y-133415000I-249999J0D01*
G01*
X195009999Y-133415000D01*
G75*
G02*
X194760000Y-133165001I0J249999D01*
G01*
X194760000Y-132264999D01*
G75*
G02*
X195009999Y-132015000I249999J0D01*
G01*
X195660001Y-132015000D01*
G75*
G02*
X195910000Y-132264999I0J-249999D01*
G01*
G37*
G36*
G01*
X193860000Y-132264999D02*
X193860000Y-133165001D01*
G75*
G02*
X193610001Y-133415000I-249999J0D01*
G01*
X192959999Y-133415000D01*
G75*
G02*
X192710000Y-133165001I0J249999D01*
G01*
X192710000Y-132264999D01*
G75*
G02*
X192959999Y-132015000I249999J0D01*
G01*
X193610001Y-132015000D01*
G75*
G02*
X193860000Y-132264999I0J-249999D01*
G01*
G37*
G36*
G01*
X164280000Y-134435001D02*
X164280000Y-133534999D01*
G75*
G02*
X164529999Y-133285000I249999J0D01*
G01*
X165180001Y-133285000D01*
G75*
G02*
X165430000Y-133534999I0J-249999D01*
G01*
X165430000Y-134435001D01*
G75*
G02*
X165180001Y-134685000I-249999J0D01*
G01*
X164529999Y-134685000D01*
G75*
G02*
X164280000Y-134435001I0J249999D01*
G01*
G37*
G36*
G01*
X162230000Y-134435001D02*
X162230000Y-133534999D01*
G75*
G02*
X162479999Y-133285000I249999J0D01*
G01*
X163130001Y-133285000D01*
G75*
G02*
X163380000Y-133534999I0J-249999D01*
G01*
X163380000Y-134435001D01*
G75*
G02*
X163130001Y-134685000I-249999J0D01*
G01*
X162479999Y-134685000D01*
G75*
G02*
X162230000Y-134435001I0J249999D01*
G01*
G37*
G36*
G01*
X168725000Y-139515001D02*
X168725000Y-138614999D01*
G75*
G02*
X168974999Y-138365000I249999J0D01*
G01*
X169625001Y-138365000D01*
G75*
G02*
X169875000Y-138614999I0J-249999D01*
G01*
X169875000Y-139515001D01*
G75*
G02*
X169625001Y-139765000I-249999J0D01*
G01*
X168974999Y-139765000D01*
G75*
G02*
X168725000Y-139515001I0J249999D01*
G01*
G37*
G36*
G01*
X166675000Y-139515001D02*
X166675000Y-138614999D01*
G75*
G02*
X166924999Y-138365000I249999J0D01*
G01*
X167575001Y-138365000D01*
G75*
G02*
X167825000Y-138614999I0J-249999D01*
G01*
X167825000Y-139515001D01*
G75*
G02*
X167575001Y-139765000I-249999J0D01*
G01*
X166924999Y-139765000D01*
G75*
G02*
X166675000Y-139515001I0J249999D01*
G01*
G37*
G36*
G01*
X173685000Y-143059999D02*
X173685000Y-143960001D01*
G75*
G02*
X173435001Y-144210000I-249999J0D01*
G01*
X172784999Y-144210000D01*
G75*
G02*
X172535000Y-143960001I0J249999D01*
G01*
X172535000Y-143059999D01*
G75*
G02*
X172784999Y-142810000I249999J0D01*
G01*
X173435001Y-142810000D01*
G75*
G02*
X173685000Y-143059999I0J-249999D01*
G01*
G37*
G36*
G01*
X171635000Y-143059999D02*
X171635000Y-143960001D01*
G75*
G02*
X171385001Y-144210000I-249999J0D01*
G01*
X170734999Y-144210000D01*
G75*
G02*
X170485000Y-143960001I0J249999D01*
G01*
X170485000Y-143059999D01*
G75*
G02*
X170734999Y-142810000I249999J0D01*
G01*
X171385001Y-142810000D01*
G75*
G02*
X171635000Y-143059999I0J-249999D01*
G01*
G37*
G36*
G01*
X183185000Y-143960001D02*
X183185000Y-143059999D01*
G75*
G02*
X183434999Y-142810000I249999J0D01*
G01*
X184085001Y-142810000D01*
G75*
G02*
X184335000Y-143059999I0J-249999D01*
G01*
X184335000Y-143960001D01*
G75*
G02*
X184085001Y-144210000I-249999J0D01*
G01*
X183434999Y-144210000D01*
G75*
G02*
X183185000Y-143960001I0J249999D01*
G01*
G37*
G36*
G01*
X185235000Y-143960001D02*
X185235000Y-143059999D01*
G75*
G02*
X185484999Y-142810000I249999J0D01*
G01*
X186135001Y-142810000D01*
G75*
G02*
X186385000Y-143059999I0J-249999D01*
G01*
X186385000Y-143960001D01*
G75*
G02*
X186135001Y-144210000I-249999J0D01*
G01*
X185484999Y-144210000D01*
G75*
G02*
X185235000Y-143960001I0J249999D01*
G01*
G37*
G36*
G01*
X190315000Y-137610001D02*
X190315000Y-136709999D01*
G75*
G02*
X190564999Y-136460000I249999J0D01*
G01*
X191215001Y-136460000D01*
G75*
G02*
X191465000Y-136709999I0J-249999D01*
G01*
X191465000Y-137610001D01*
G75*
G02*
X191215001Y-137860000I-249999J0D01*
G01*
X190564999Y-137860000D01*
G75*
G02*
X190315000Y-137610001I0J249999D01*
G01*
G37*
G36*
G01*
X188265000Y-137610001D02*
X188265000Y-136709999D01*
G75*
G02*
X188514999Y-136460000I249999J0D01*
G01*
X189165001Y-136460000D01*
G75*
G02*
X189415000Y-136709999I0J-249999D01*
G01*
X189415000Y-137610001D01*
G75*
G02*
X189165001Y-137860000I-249999J0D01*
G01*
X188514999Y-137860000D01*
G75*
G02*
X188265000Y-137610001I0J249999D01*
G01*
G37*
G36*
G01*
X207460001Y-110040000D02*
X206559999Y-110040000D01*
G75*
G02*
X206310000Y-109790001I0J249999D01*
G01*
X206310000Y-109139999D01*
G75*
G02*
X206559999Y-108890000I249999J0D01*
G01*
X207460001Y-108890000D01*
G75*
G02*
X207710000Y-109139999I0J-249999D01*
G01*
X207710000Y-109790001D01*
G75*
G02*
X207460001Y-110040000I-249999J0D01*
G01*
G37*
G36*
G01*
X207460001Y-112090000D02*
X206559999Y-112090000D01*
G75*
G02*
X206310000Y-111840001I0J249999D01*
G01*
X206310000Y-111189999D01*
G75*
G02*
X206559999Y-110940000I249999J0D01*
G01*
X207460001Y-110940000D01*
G75*
G02*
X207710000Y-111189999I0J-249999D01*
G01*
X207710000Y-111840001D01*
G75*
G02*
X207460001Y-112090000I-249999J0D01*
G01*
G37*
G36*
G01*
X182550000Y-102685001D02*
X182550000Y-101784999D01*
G75*
G02*
X182799999Y-101535000I249999J0D01*
G01*
X183450001Y-101535000D01*
G75*
G02*
X183700000Y-101784999I0J-249999D01*
G01*
X183700000Y-102685001D01*
G75*
G02*
X183450001Y-102935000I-249999J0D01*
G01*
X182799999Y-102935000D01*
G75*
G02*
X182550000Y-102685001I0J249999D01*
G01*
G37*
G36*
G01*
X184600000Y-102685001D02*
X184600000Y-101784999D01*
G75*
G02*
X184849999Y-101535000I249999J0D01*
G01*
X185500001Y-101535000D01*
G75*
G02*
X185750000Y-101784999I0J-249999D01*
G01*
X185750000Y-102685001D01*
G75*
G02*
X185500001Y-102935000I-249999J0D01*
G01*
X184849999Y-102935000D01*
G75*
G02*
X184600000Y-102685001I0J249999D01*
G01*
G37*
G36*
G01*
X175590000Y-99181499D02*
X175590000Y-100081501D01*
G75*
G02*
X175340001Y-100331500I-249999J0D01*
G01*
X174689999Y-100331500D01*
G75*
G02*
X174440000Y-100081501I0J249999D01*
G01*
X174440000Y-99181499D01*
G75*
G02*
X174689999Y-98931500I249999J0D01*
G01*
X175340001Y-98931500D01*
G75*
G02*
X175590000Y-99181499I0J-249999D01*
G01*
G37*
G36*
G01*
X173540000Y-99181499D02*
X173540000Y-100081501D01*
G75*
G02*
X173290001Y-100331500I-249999J0D01*
G01*
X172639999Y-100331500D01*
G75*
G02*
X172390000Y-100081501I0J249999D01*
G01*
X172390000Y-99181499D01*
G75*
G02*
X172639999Y-98931500I249999J0D01*
G01*
X173290001Y-98931500D01*
G75*
G02*
X173540000Y-99181499I0J-249999D01*
G01*
G37*
G36*
G01*
X207460001Y-100515000D02*
X206559999Y-100515000D01*
G75*
G02*
X206310000Y-100265001I0J249999D01*
G01*
X206310000Y-99614999D01*
G75*
G02*
X206559999Y-99365000I249999J0D01*
G01*
X207460001Y-99365000D01*
G75*
G02*
X207710000Y-99614999I0J-249999D01*
G01*
X207710000Y-100265001D01*
G75*
G02*
X207460001Y-100515000I-249999J0D01*
G01*
G37*
G36*
G01*
X207460001Y-102565000D02*
X206559999Y-102565000D01*
G75*
G02*
X206310000Y-102315001I0J249999D01*
G01*
X206310000Y-101664999D01*
G75*
G02*
X206559999Y-101415000I249999J0D01*
G01*
X207460001Y-101415000D01*
G75*
G02*
X207710000Y-101664999I0J-249999D01*
G01*
X207710000Y-102315001D01*
G75*
G02*
X207460001Y-102565000I-249999J0D01*
G01*
G37*
G36*
G01*
X169360000Y-104590001D02*
X169360000Y-103689999D01*
G75*
G02*
X169609999Y-103440000I249999J0D01*
G01*
X170260001Y-103440000D01*
G75*
G02*
X170510000Y-103689999I0J-249999D01*
G01*
X170510000Y-104590001D01*
G75*
G02*
X170260001Y-104840000I-249999J0D01*
G01*
X169609999Y-104840000D01*
G75*
G02*
X169360000Y-104590001I0J249999D01*
G01*
G37*
G36*
G01*
X167310000Y-104590001D02*
X167310000Y-103689999D01*
G75*
G02*
X167559999Y-103440000I249999J0D01*
G01*
X168210001Y-103440000D01*
G75*
G02*
X168460000Y-103689999I0J-249999D01*
G01*
X168460000Y-104590001D01*
G75*
G02*
X168210001Y-104840000I-249999J0D01*
G01*
X167559999Y-104840000D01*
G75*
G02*
X167310000Y-104590001I0J249999D01*
G01*
G37*
G36*
G01*
X164795000Y-108769999D02*
X164795000Y-109670001D01*
G75*
G02*
X164545001Y-109920000I-249999J0D01*
G01*
X163894999Y-109920000D01*
G75*
G02*
X163645000Y-109670001I0J249999D01*
G01*
X163645000Y-108769999D01*
G75*
G02*
X163894999Y-108520000I249999J0D01*
G01*
X164545001Y-108520000D01*
G75*
G02*
X164795000Y-108769999I0J-249999D01*
G01*
G37*
G36*
G01*
X162745000Y-108769999D02*
X162745000Y-109670001D01*
G75*
G02*
X162495001Y-109920000I-249999J0D01*
G01*
X161844999Y-109920000D01*
G75*
G02*
X161595000Y-109670001I0J249999D01*
G01*
X161595000Y-108769999D01*
G75*
G02*
X161844999Y-108520000I249999J0D01*
G01*
X162495001Y-108520000D01*
G75*
G02*
X162745000Y-108769999I0J-249999D01*
G01*
G37*
G36*
G01*
X160985000Y-112579999D02*
X160985000Y-113480001D01*
G75*
G02*
X160735001Y-113730000I-249999J0D01*
G01*
X160084999Y-113730000D01*
G75*
G02*
X159835000Y-113480001I0J249999D01*
G01*
X159835000Y-112579999D01*
G75*
G02*
X160084999Y-112330000I249999J0D01*
G01*
X160735001Y-112330000D01*
G75*
G02*
X160985000Y-112579999I0J-249999D01*
G01*
G37*
G36*
G01*
X158935000Y-112579999D02*
X158935000Y-113480001D01*
G75*
G02*
X158685001Y-113730000I-249999J0D01*
G01*
X158034999Y-113730000D01*
G75*
G02*
X157785000Y-113480001I0J249999D01*
G01*
X157785000Y-112579999D01*
G75*
G02*
X158034999Y-112330000I249999J0D01*
G01*
X158685001Y-112330000D01*
G75*
G02*
X158935000Y-112579999I0J-249999D01*
G01*
G37*
G36*
G01*
X156395000Y-116389999D02*
X156395000Y-117290001D01*
G75*
G02*
X156145001Y-117540000I-249999J0D01*
G01*
X155494999Y-117540000D01*
G75*
G02*
X155245000Y-117290001I0J249999D01*
G01*
X155245000Y-116389999D01*
G75*
G02*
X155494999Y-116140000I249999J0D01*
G01*
X156145001Y-116140000D01*
G75*
G02*
X156395000Y-116389999I0J-249999D01*
G01*
G37*
G36*
G01*
X158445000Y-116389999D02*
X158445000Y-117290001D01*
G75*
G02*
X158195001Y-117540000I-249999J0D01*
G01*
X157544999Y-117540000D01*
G75*
G02*
X157295000Y-117290001I0J249999D01*
G01*
X157295000Y-116389999D01*
G75*
G02*
X157544999Y-116140000I249999J0D01*
G01*
X158195001Y-116140000D01*
G75*
G02*
X158445000Y-116389999I0J-249999D01*
G01*
G37*
G36*
G01*
X154610000Y-128085001D02*
X154610000Y-127184999D01*
G75*
G02*
X154859999Y-126935000I249999J0D01*
G01*
X155510001Y-126935000D01*
G75*
G02*
X155760000Y-127184999I0J-249999D01*
G01*
X155760000Y-128085001D01*
G75*
G02*
X155510001Y-128335000I-249999J0D01*
G01*
X154859999Y-128335000D01*
G75*
G02*
X154610000Y-128085001I0J249999D01*
G01*
G37*
G36*
G01*
X156660000Y-128085001D02*
X156660000Y-127184999D01*
G75*
G02*
X156909999Y-126935000I249999J0D01*
G01*
X157560001Y-126935000D01*
G75*
G02*
X157810000Y-127184999I0J-249999D01*
G01*
X157810000Y-128085001D01*
G75*
G02*
X157560001Y-128335000I-249999J0D01*
G01*
X156909999Y-128335000D01*
G75*
G02*
X156660000Y-128085001I0J249999D01*
G01*
G37*
D10*
X129540000Y-127000000D03*
D11*
X129540000Y-124460000D03*
X129540000Y-121920000D03*
X129540000Y-119380000D03*
X129540000Y-116840000D03*
X129540000Y-114300000D03*
G36*
G01*
X134931999Y-124447500D02*
X135832001Y-124447500D01*
G75*
G02*
X136082000Y-124697499I0J-249999D01*
G01*
X136082000Y-125347501D01*
G75*
G02*
X135832001Y-125597500I-249999J0D01*
G01*
X134931999Y-125597500D01*
G75*
G02*
X134682000Y-125347501I0J249999D01*
G01*
X134682000Y-124697499D01*
G75*
G02*
X134931999Y-124447500I249999J0D01*
G01*
G37*
G36*
G01*
X134931999Y-126497500D02*
X135832001Y-126497500D01*
G75*
G02*
X136082000Y-126747499I0J-249999D01*
G01*
X136082000Y-127397501D01*
G75*
G02*
X135832001Y-127647500I-249999J0D01*
G01*
X134931999Y-127647500D01*
G75*
G02*
X134682000Y-127397501I0J249999D01*
G01*
X134682000Y-126747499D01*
G75*
G02*
X134931999Y-126497500I249999J0D01*
G01*
G37*
G36*
G01*
X135832001Y-114866000D02*
X134931999Y-114866000D01*
G75*
G02*
X134682000Y-114616001I0J249999D01*
G01*
X134682000Y-113965999D01*
G75*
G02*
X134931999Y-113716000I249999J0D01*
G01*
X135832001Y-113716000D01*
G75*
G02*
X136082000Y-113965999I0J-249999D01*
G01*
X136082000Y-114616001D01*
G75*
G02*
X135832001Y-114866000I-249999J0D01*
G01*
G37*
G36*
G01*
X135832001Y-116916000D02*
X134931999Y-116916000D01*
G75*
G02*
X134682000Y-116666001I0J249999D01*
G01*
X134682000Y-116015999D01*
G75*
G02*
X134931999Y-115766000I249999J0D01*
G01*
X135832001Y-115766000D01*
G75*
G02*
X136082000Y-116015999I0J-249999D01*
G01*
X136082000Y-116666001D01*
G75*
G02*
X135832001Y-116916000I-249999J0D01*
G01*
G37*
G36*
G01*
X159436000Y-100462501D02*
X159436000Y-99562499D01*
G75*
G02*
X159685999Y-99312500I249999J0D01*
G01*
X160336001Y-99312500D01*
G75*
G02*
X160586000Y-99562499I0J-249999D01*
G01*
X160586000Y-100462501D01*
G75*
G02*
X160336001Y-100712500I-249999J0D01*
G01*
X159685999Y-100712500D01*
G75*
G02*
X159436000Y-100462501I0J249999D01*
G01*
G37*
G36*
G01*
X161486000Y-100462501D02*
X161486000Y-99562499D01*
G75*
G02*
X161735999Y-99312500I249999J0D01*
G01*
X162386001Y-99312500D01*
G75*
G02*
X162636000Y-99562499I0J-249999D01*
G01*
X162636000Y-100462501D01*
G75*
G02*
X162386001Y-100712500I-249999J0D01*
G01*
X161735999Y-100712500D01*
G75*
G02*
X161486000Y-100462501I0J249999D01*
G01*
G37*
D10*
X155448000Y-106794300D03*
D11*
X155448000Y-104254300D03*
X155448000Y-101714300D03*
D12*
X160147000Y-105863000D03*
X162687000Y-105863000D03*
X162687000Y-102163000D03*
X160147000Y-102163000D03*
D13*
X228600000Y-152400000D03*
X226060000Y-152400000D03*
X223520000Y-152400000D03*
X220980000Y-152400000D03*
X218440000Y-152400000D03*
X215900000Y-152400000D03*
X213360000Y-152400000D03*
X210820000Y-152400000D03*
X208280000Y-152400000D03*
X205740000Y-152400000D03*
X203200000Y-152400000D03*
X200660000Y-152400000D03*
X198120000Y-152400000D03*
X195580000Y-152400000D03*
X193040000Y-152400000D03*
X190500000Y-152400000D03*
X187960000Y-152400000D03*
X185420000Y-152400000D03*
X182880000Y-152400000D03*
X180340000Y-152400000D03*
X177800000Y-152400000D03*
X175260000Y-152400000D03*
X172720000Y-152400000D03*
X170180000Y-152400000D03*
X167640000Y-152400000D03*
X165100000Y-152400000D03*
X162560000Y-152400000D03*
X160020000Y-152400000D03*
X157480000Y-152400000D03*
X154940000Y-152400000D03*
X152400000Y-152400000D03*
X149860000Y-152400000D03*
X147320000Y-152400000D03*
X144780000Y-152400000D03*
X142240000Y-152400000D03*
X139700000Y-152400000D03*
X137160000Y-152400000D03*
X134620000Y-152400000D03*
X132080000Y-152400000D03*
X129540000Y-152400000D03*
X228600000Y-149860000D03*
X226060000Y-149860000D03*
X223520000Y-149860000D03*
X220980000Y-149860000D03*
X218440000Y-149860000D03*
X215900000Y-149860000D03*
X213360000Y-149860000D03*
X210820000Y-149860000D03*
X208280000Y-149860000D03*
X205740000Y-149860000D03*
X203200000Y-149860000D03*
X200660000Y-149860000D03*
X198120000Y-149860000D03*
X195580000Y-149860000D03*
X193040000Y-149860000D03*
X190500000Y-149860000D03*
X187960000Y-149860000D03*
X185420000Y-149860000D03*
X182880000Y-149860000D03*
X180340000Y-149860000D03*
X177800000Y-149860000D03*
X175260000Y-149860000D03*
X172720000Y-149860000D03*
X170180000Y-149860000D03*
X167640000Y-149860000D03*
X165100000Y-149860000D03*
X162560000Y-149860000D03*
X160020000Y-149860000D03*
X157480000Y-149860000D03*
X154940000Y-149860000D03*
X152400000Y-149860000D03*
X149860000Y-149860000D03*
X147320000Y-149860000D03*
X144780000Y-149860000D03*
X142240000Y-149860000D03*
X139700000Y-149860000D03*
X137160000Y-149860000D03*
X134620000Y-149860000D03*
X132080000Y-149860000D03*
X129540000Y-149860000D03*
X228600000Y-91440000D03*
X226060000Y-91440000D03*
X223520000Y-91440000D03*
X220980000Y-91440000D03*
X218440000Y-91440000D03*
X215900000Y-91440000D03*
X213360000Y-91440000D03*
X210820000Y-91440000D03*
X208280000Y-91440000D03*
X205740000Y-91440000D03*
X203200000Y-91440000D03*
X200660000Y-91440000D03*
X198120000Y-91440000D03*
X195580000Y-91440000D03*
X193040000Y-91440000D03*
X190500000Y-91440000D03*
X187960000Y-91440000D03*
X185420000Y-91440000D03*
X182880000Y-91440000D03*
X180340000Y-91440000D03*
X177800000Y-91440000D03*
X175260000Y-91440000D03*
X172720000Y-91440000D03*
X170180000Y-91440000D03*
X167640000Y-91440000D03*
X165100000Y-91440000D03*
X162560000Y-91440000D03*
X160020000Y-91440000D03*
X157480000Y-91440000D03*
X154940000Y-91440000D03*
X152400000Y-91440000D03*
X149860000Y-91440000D03*
X147320000Y-91440000D03*
X144780000Y-91440000D03*
X142240000Y-91440000D03*
X139700000Y-91440000D03*
X137160000Y-91440000D03*
X134620000Y-91440000D03*
X132080000Y-91440000D03*
X129540000Y-91440000D03*
X228600000Y-93980000D03*
X226060000Y-93980000D03*
X223520000Y-93980000D03*
X220980000Y-93980000D03*
X218440000Y-93980000D03*
X215900000Y-93980000D03*
X213360000Y-93980000D03*
X210820000Y-93980000D03*
X208280000Y-93980000D03*
X205740000Y-93980000D03*
X203200000Y-93980000D03*
X200660000Y-93980000D03*
X198120000Y-93980000D03*
X195580000Y-93980000D03*
X193040000Y-93980000D03*
X190500000Y-93980000D03*
X187960000Y-93980000D03*
X185420000Y-93980000D03*
X182880000Y-93980000D03*
X180340000Y-93980000D03*
X177800000Y-93980000D03*
X175260000Y-93980000D03*
X172720000Y-93980000D03*
X170180000Y-93980000D03*
X167640000Y-93980000D03*
X165100000Y-93980000D03*
X162560000Y-93980000D03*
X160020000Y-93980000D03*
X157480000Y-93980000D03*
X154940000Y-93980000D03*
X152400000Y-93980000D03*
X149860000Y-93980000D03*
X147320000Y-93980000D03*
X144780000Y-93980000D03*
X142240000Y-93980000D03*
X139700000Y-93980000D03*
X137160000Y-93980000D03*
X134620000Y-93980000D03*
X132080000Y-93980000D03*
X129540000Y-93980000D03*
X228600000Y-125730000D03*
X228600000Y-123190000D03*
X228600000Y-120650000D03*
X228600000Y-118110000D03*
M02*
