M48
; DRILL file {KiCad (5.1.9)-1} date 06/15/21 15:58:56
; FORMAT={-:-/ absolute / inch / decimal}
; #@! TF.CreationDate,2021-06-15T15:58:56-04:00
; #@! TF.GenerationSoftware,Kicad,Pcbnew,(5.1.9)-1
; #@! TF.FileFunction,Plated,1,4,PTH
FMAT,2
INCH
T1C0.0157
T2C0.0236
T3C0.0300
T4C0.0315
T5C0.0394
%
G90
G05
T1
X5.1975Y-5.6525
X5.2625Y-4.3625
X5.3425Y-4.48
X5.3425Y-5.005
X5.5175Y-3.7675
X5.5425Y-5.0375
X5.575Y-4.3025
X5.59Y-4.11
X5.6Y-4.3325
X5.6Y-5.0125
X5.6175Y-3.7675
X5.6225Y-5.8
X5.6475Y-5.7325
X5.68Y-5.3275
X5.8195Y-4.104
X5.859Y-4.227
X5.865Y-3.8525
X5.9175Y-5.47
X5.93Y-5.305
X5.9346Y-4.5004
X5.94Y-4.3925
X5.9466Y-4.0066
X5.9475Y-3.9325
X5.9475Y-3.97
X5.9575Y-4.7925
X5.9925Y-5.29
X6.0165Y-4.383
X6.0175Y-5.0675
X6.03Y-4.45
X6.03Y-4.55
X6.03Y-5.3325
X6.0375Y-5.1025
X6.0683Y-5.1367
X6.1025Y-5.1175
X6.1125Y-5.625
X6.13Y-4.6
X6.15Y-5.625
X6.1811Y-4.5036
X6.185Y-5.755
X6.1875Y-5.625
X6.2Y-4.6175
X6.2025Y-3.84
X6.2025Y-5.025
X6.215Y-4.3575
X6.2175Y-4.0275
X6.225Y-5.625
X6.2275Y-4.3225
X6.2275Y-5.1
X6.2625Y-5.625
X6.265Y-4.3225
X6.27Y-5.2825
X6.29Y-5.34
X6.2975Y-3.8325
X6.3075Y-5.305
X6.3075Y-5.3725
X6.3087Y-5.6387
X6.32Y-5.2675
X6.325Y-4.225
X6.325Y-4.85
X6.33Y-4.47
X6.3502Y-5.1073
X6.355Y-5.3675
X6.37Y-4.895
X6.3725Y-4.3
X6.39Y-5.41
X6.395Y-3.8315
X6.41Y-4.67
X6.4305Y-4.1045
X6.4392Y-4.6425
X6.44Y-5.3163
X6.4461Y-5.4814
X6.45Y-3.8325
X6.4575Y-5.64
X6.4625Y-4.61
X6.4825Y-3.9025
X6.4841Y-4.9084
X6.4892Y-4.2965
X6.4925Y-4.0275
X6.4925Y-4.2025
X6.5025Y-3.9675
X6.5025Y-5.275
X6.505Y-5.65
X6.5218Y-4.0843
X6.5225Y-3.995
X6.5225Y-4.7175
X6.5225Y-4.895
X6.5537Y-4.1688
X6.56Y-5.0075
X6.565Y-5.07
X6.5675Y-4.685
X6.5775Y-5.11
X6.5925Y-4.895
X6.595Y-5.475
X6.5975Y-5.0075
X6.6Y-4.1
X6.61Y-5.135
X6.6125Y-4.225
X6.6175Y-4.925
X6.6275Y-4.99
X6.6355Y-4.834
X6.6425Y-4.2525
X6.6425Y-4.9525
X6.65Y-4.055
X6.655Y-3.95
X6.6754Y-5.4729
X6.715Y-4.78
X6.725Y-4.891
X6.7258Y-4.135
X6.7314Y-5.2254
X6.7775Y-3.8025
X6.785Y-5.315
X6.7975Y-4.325
X6.8Y-3.925
X6.81Y-4.2725
X6.8175Y-3.9925
X6.82Y-5.3
X6.8317Y-5.65
X6.8325Y-5.5275
X6.85Y-3.65
X6.85Y-5.85
X6.8575Y-5.29
X6.8975Y-5.395
X6.9Y-3.925
X6.9275Y-5.385
X6.9375Y-4.13
X6.9375Y-4.1625
X6.9575Y-5.3625
X6.9575Y-5.7675
X6.965Y-4.1025
X6.9698Y-5.4598
X6.985Y-5.345
X6.9975Y-5.415
X7.01Y-4.3525
X7.01Y-4.41
X7.0246Y-4.4379
X7.0275Y-5.3925
X7.0325Y-4.38
X7.035Y-4.18
X7.0375Y-4.325
X7.0571Y-5.3729
X7.065Y-4.22
X7.0725Y-5.7
X7.0825Y-5.4475
X7.1Y-5.72
X7.105Y-5.315
X7.1175Y-5.195
X7.1275Y-4.8
X7.1275Y-5.745
X7.1325Y-4.0
X7.155Y-5.7675
X7.1559Y-4.6691
X7.157Y-5.197
X7.1625Y-4.8
X7.1775Y-5.715
X7.185Y-4.2875
X7.195Y-4.8
X7.1975Y-5.1925
X7.2175Y-4.025
X7.2175Y-4.2825
X7.22Y-5.5525
X7.22Y-5.65
X7.2275Y-4.8
X7.235Y-5.1525
X7.2375Y-5.1925
X7.24Y-5.12
X7.25Y-3.9
X7.26Y-4.8
X7.265Y-3.9775
X7.2675Y-5.1675
X7.29Y-3.85
X7.2925Y-4.8
X7.2971Y-3.9521
X7.3025Y-4.025
X7.315Y-3.8825
X7.325Y-4.8
X7.3275Y-5.55
X7.345Y-4.4775
X7.36Y-4.6825
X7.3725Y-3.9775
X7.39Y-4.8
X7.4125Y-4.195
X7.415Y-5.12
X7.42Y-4.71
X7.4206Y-5.4019
X7.4525Y-4.8
X7.485Y-4.8
X7.5025Y-4.2
X7.5075Y-5.535
X7.5175Y-4.8
X7.525Y-4.7125
X7.5275Y-5.4
X7.545Y-4.745
X7.545Y-5.535
X7.55Y-4.8
X7.5575Y-3.8025
X7.5575Y-4.6825
X7.5675Y-5.585
X7.575Y-4.6475
X7.5825Y-4.8
X7.5846Y-4.3154
X7.59Y-3.83
X7.59Y-5.5025
X7.5925Y-4.71
X7.5975Y-5.2
X7.6Y-4.0975
X7.605Y-5.585
X7.615Y-4.8
X7.6267Y-4.71
X7.675Y-4.5093
X7.6775Y-4.325
X7.6825Y-4.2725
X7.6937Y-4.8288
X7.695Y-5.565
X7.705Y-5.225
X7.7075Y-5.6
X7.7095Y-5.4265
X7.71Y-5.6475
X7.7225Y-5.075
X7.7275Y-4.3325
X7.745Y-4.305
X7.7475Y-5.6725
X7.755Y-4.0825
X7.76Y-5.795
X7.77Y-4.495
X7.7849Y-4.6974
X7.79Y-4.7725
X7.8025Y-5.075
X7.805Y-5.6525
X7.82Y-4.6
X7.8375Y-5.665
X7.87Y-5.685
X7.8825Y-4.75
X7.91Y-5.685
X7.9275Y-4.6
X7.9475Y-5.685
X7.95Y-3.6525
X7.97Y-4.677
X7.985Y-5.685
X8.0075Y-5.195
X8.0375Y-4.362
X8.045Y-4.615
X8.0475Y-4.055
X8.0475Y-4.1075
X8.05Y-6.025
X8.0525Y-4.8975
X8.055Y-5.005
X8.0775Y-5.195
X8.0825Y-4.6
X8.0875Y-4.385
X8.0925Y-4.89
X8.095Y-5.5275
X8.11Y-5.4175
X8.115Y-4.45
X8.115Y-4.4875
X8.13Y-5.07
X8.1325Y-4.88
X8.1353Y-4.0997
X8.1375Y-5.195
X8.15Y-3.9206
X8.15Y-5.565
X8.1504Y-4.0229
X8.1504Y-4.3979
X8.1522Y-4.5003
X8.1575Y-5.035
X8.165Y-4.18
X8.165Y-5.38
X8.17Y-4.5325
X8.195Y-4.2275
X8.2Y-5.715
X8.205Y-4.6025
X8.209Y-4.4235
X8.2975Y-5.22
X8.3Y-5.7675
X8.33Y-4.0825
X8.338Y-3.985
X8.3425Y-4.035
X8.54Y-3.9225
X8.5425Y-4.3025
X8.5475Y-4.385
X8.55Y-4.0075
X8.605Y-3.8825
X8.625Y-4.8
X8.625Y-5.025
X8.66Y-4.26
X8.66Y-4.625
X8.7925Y-3.87
X8.82Y-4.6875
X8.9325Y-4.345
X8.935Y-3.98
X8.935Y-4.045
X8.9675Y-4.565
X8.994Y-5.357
T2
X5.1975Y-4.145
X5.2975Y-3.995
X5.3025Y-4.1675
X5.4025Y-3.8575
X5.4075Y-4.1925
X5.57Y-3.95
X6.495Y-5.7575
X6.64Y-5.775
X6.955Y-5.83
X7.2525Y-5.835
X8.55Y-5.025
T3
X5.1Y-3.6
X5.1Y-3.7
X5.1Y-5.9
X5.1Y-6.0
X5.2Y-3.6
X5.2Y-3.7
X5.2Y-5.9
X5.2Y-6.0
X5.3Y-3.6
X5.3Y-3.7
X5.3Y-5.9
X5.3Y-6.0
X5.4Y-3.6
X5.4Y-3.7
X5.4Y-5.9
X5.4Y-6.0
X5.5Y-3.6
X5.5Y-3.7
X5.5Y-5.9
X5.5Y-6.0
X5.6Y-3.6
X5.6Y-3.7
X5.6Y-5.9
X5.6Y-6.0
X5.7Y-3.6
X5.7Y-3.7
X5.7Y-5.9
X5.7Y-6.0
X5.8Y-3.6
X5.8Y-3.7
X5.8Y-5.9
X5.8Y-6.0
X5.9Y-3.6
X5.9Y-3.7
X5.9Y-5.9
X5.9Y-6.0
X6.0Y-3.6
X6.0Y-3.7
X6.0Y-5.9
X6.0Y-6.0
X6.1Y-3.6
X6.1Y-3.7
X6.1Y-5.9
X6.1Y-6.0
X6.2Y-3.6
X6.2Y-3.7
X6.2Y-5.9
X6.2Y-6.0
X6.3Y-3.6
X6.3Y-3.7
X6.3Y-5.9
X6.3Y-6.0
X6.4Y-3.6
X6.4Y-3.7
X6.4Y-5.9
X6.4Y-6.0
X6.5Y-3.6
X6.5Y-3.7
X6.5Y-5.9
X6.5Y-6.0
X6.6Y-3.6
X6.6Y-3.7
X6.6Y-5.9
X6.6Y-6.0
X6.7Y-3.6
X6.7Y-3.7
X6.7Y-5.9
X6.7Y-6.0
X6.8Y-3.6
X6.8Y-3.7
X6.8Y-5.9
X6.8Y-6.0
X6.9Y-3.6
X6.9Y-3.7
X6.9Y-5.9
X6.9Y-6.0
X7.0Y-3.6
X7.0Y-3.7
X7.0Y-5.9
X7.0Y-6.0
X7.1Y-3.6
X7.1Y-3.7
X7.1Y-5.9
X7.1Y-6.0
X7.2Y-3.6
X7.2Y-3.7
X7.2Y-5.9
X7.2Y-6.0
X7.3Y-3.6
X7.3Y-3.7
X7.3Y-5.9
X7.3Y-6.0
X7.4Y-3.6
X7.4Y-3.7
X7.4Y-5.9
X7.4Y-6.0
X7.5Y-3.6
X7.5Y-3.7
X7.5Y-5.9
X7.5Y-6.0
X7.6Y-3.6
X7.6Y-3.7
X7.6Y-5.9
X7.6Y-6.0
X7.7Y-3.6
X7.7Y-3.7
X7.7Y-5.9
X7.7Y-6.0
X7.8Y-3.6
X7.8Y-3.7
X7.8Y-5.9
X7.8Y-6.0
X7.9Y-3.6
X7.9Y-3.7
X7.9Y-5.9
X7.9Y-6.0
X8.0Y-3.6
X8.0Y-3.7
X8.0Y-5.9
X8.0Y-6.0
X8.1Y-3.6
X8.1Y-3.7
X8.1Y-5.9
X8.1Y-6.0
X8.2Y-3.6
X8.2Y-3.7
X8.2Y-5.9
X8.2Y-6.0
X8.3Y-3.6
X8.3Y-3.7
X8.3Y-5.9
X8.3Y-6.0
X8.4Y-3.6
X8.4Y-3.7
X8.4Y-5.9
X8.4Y-6.0
X8.5Y-3.6
X8.5Y-3.7
X8.5Y-5.9
X8.5Y-6.0
X8.6Y-3.6
X8.6Y-3.7
X8.6Y-5.9
X8.6Y-6.0
X8.7Y-3.6
X8.7Y-3.7
X8.7Y-5.9
X8.7Y-6.0
X8.8Y-3.6
X8.8Y-3.7
X8.8Y-5.9
X8.8Y-6.0
X8.9Y-3.6
X8.9Y-3.7
X8.9Y-5.9
X8.9Y-6.0
X9.0Y-3.6
X9.0Y-3.7
X9.0Y-4.65
X9.0Y-4.75
X9.0Y-4.85
X9.0Y-4.95
X9.0Y-5.9
X9.0Y-6.0
T4
X5.175Y-4.325
X5.475Y-4.95
X5.4975Y-5.65
X5.6475Y-4.5
X5.8375Y-5.6675
X6.0125Y-4.95
X6.0128Y-4.6147
X6.125Y-4.8425
X6.1298Y-5.0727
X6.7575Y-4.6475
X6.9075Y-4.6825
X6.9475Y-5.145
X6.95Y-4.5475
X6.985Y-3.785
X7.9275Y-4.95
X8.28Y-4.75
X8.28Y-5.075
X8.765Y-4.75
T5
X5.1Y-4.5
X5.1Y-4.6
X5.1Y-4.7
X5.1Y-4.8
X5.1Y-4.9
X5.1Y-5.0
X6.12Y-4.0045
X6.12Y-4.1045
X6.12Y-4.2045
T0
M30
