G04 #@! TF.GenerationSoftware,KiCad,Pcbnew,(5.1.9)-1*
G04 #@! TF.CreationDate,2021-06-15T15:58:53-04:00*
G04 #@! TF.ProjectId,SuperVIC-STM32,53757065-7256-4494-932d-53544d33322e,rev?*
G04 #@! TF.SameCoordinates,Original*
G04 #@! TF.FileFunction,Legend,Top*
G04 #@! TF.FilePolarity,Positive*
%FSLAX46Y46*%
G04 Gerber Fmt 4.6, Leading zero omitted, Abs format (unit mm)*
G04 Created by KiCad (PCBNEW (5.1.9)-1) date 2021-06-15 15:58:53*
%MOMM*%
%LPD*%
G01*
G04 APERTURE LIST*
%ADD10C,0.300000*%
%ADD11C,0.150000*%
%ADD12C,1.000000*%
%ADD13C,0.600000*%
%ADD14C,1.500000*%
%ADD15C,0.120000*%
G04 APERTURE END LIST*
D10*
X134243571Y-106558471D02*
X134243571Y-105058471D01*
X134957857Y-106558471D02*
X134957857Y-105058471D01*
X135815000Y-106558471D01*
X135815000Y-105058471D01*
X136315000Y-105058471D02*
X137172142Y-105058471D01*
X136743571Y-106558471D02*
X136743571Y-105058471D01*
X137672142Y-105772757D02*
X138172142Y-105772757D01*
X138386428Y-106558471D02*
X137672142Y-106558471D01*
X137672142Y-105058471D01*
X138386428Y-105058471D01*
X139886428Y-106558471D02*
X139386428Y-105844185D01*
X139029285Y-106558471D02*
X139029285Y-105058471D01*
X139600714Y-105058471D01*
X139743571Y-105129900D01*
X139815000Y-105201328D01*
X139886428Y-105344185D01*
X139886428Y-105558471D01*
X139815000Y-105701328D01*
X139743571Y-105772757D01*
X139600714Y-105844185D01*
X139029285Y-105844185D01*
X140529285Y-106558471D02*
X140529285Y-105058471D01*
X141386428Y-106558471D01*
X141386428Y-105058471D01*
X142029285Y-106129900D02*
X142743571Y-106129900D01*
X141886428Y-106558471D02*
X142386428Y-105058471D01*
X142886428Y-106558471D01*
X144100714Y-106558471D02*
X143386428Y-106558471D01*
X143386428Y-105058471D01*
X134044371Y-102673957D02*
X134544371Y-102673957D01*
X134758657Y-103459671D02*
X134044371Y-103459671D01*
X134044371Y-101959671D01*
X134758657Y-101959671D01*
X135258657Y-101959671D02*
X136258657Y-103459671D01*
X136258657Y-101959671D02*
X135258657Y-103459671D01*
X136615800Y-101959671D02*
X137472942Y-101959671D01*
X137044371Y-103459671D02*
X137044371Y-101959671D01*
X137972942Y-102673957D02*
X138472942Y-102673957D01*
X138687228Y-103459671D02*
X137972942Y-103459671D01*
X137972942Y-101959671D01*
X138687228Y-101959671D01*
X140187228Y-103459671D02*
X139687228Y-102745385D01*
X139330085Y-103459671D02*
X139330085Y-101959671D01*
X139901514Y-101959671D01*
X140044371Y-102031100D01*
X140115800Y-102102528D01*
X140187228Y-102245385D01*
X140187228Y-102459671D01*
X140115800Y-102602528D01*
X140044371Y-102673957D01*
X139901514Y-102745385D01*
X139330085Y-102745385D01*
X140830085Y-103459671D02*
X140830085Y-101959671D01*
X141687228Y-103459671D01*
X141687228Y-101959671D01*
X142330085Y-103031100D02*
X143044371Y-103031100D01*
X142187228Y-103459671D02*
X142687228Y-101959671D01*
X143187228Y-103459671D01*
X144401514Y-103459671D02*
X143687228Y-103459671D01*
X143687228Y-101959671D01*
X143749000Y-99417914D02*
X143677571Y-99489342D01*
X143463285Y-99560771D01*
X143320428Y-99560771D01*
X143106142Y-99489342D01*
X142963285Y-99346485D01*
X142891857Y-99203628D01*
X142820428Y-98917914D01*
X142820428Y-98703628D01*
X142891857Y-98417914D01*
X142963285Y-98275057D01*
X143106142Y-98132200D01*
X143320428Y-98060771D01*
X143463285Y-98060771D01*
X143677571Y-98132200D01*
X143749000Y-98203628D01*
X145106142Y-99560771D02*
X144391857Y-99560771D01*
X144391857Y-98060771D01*
X145891857Y-98060771D02*
X146177571Y-98060771D01*
X146320428Y-98132200D01*
X146463285Y-98275057D01*
X146534714Y-98560771D01*
X146534714Y-99060771D01*
X146463285Y-99346485D01*
X146320428Y-99489342D01*
X146177571Y-99560771D01*
X145891857Y-99560771D01*
X145749000Y-99489342D01*
X145606142Y-99346485D01*
X145534714Y-99060771D01*
X145534714Y-98560771D01*
X145606142Y-98275057D01*
X145749000Y-98132200D01*
X145891857Y-98060771D01*
X148034714Y-99417914D02*
X147963285Y-99489342D01*
X147749000Y-99560771D01*
X147606142Y-99560771D01*
X147391857Y-99489342D01*
X147249000Y-99346485D01*
X147177571Y-99203628D01*
X147106142Y-98917914D01*
X147106142Y-98703628D01*
X147177571Y-98417914D01*
X147249000Y-98275057D01*
X147391857Y-98132200D01*
X147606142Y-98060771D01*
X147749000Y-98060771D01*
X147963285Y-98132200D01*
X148034714Y-98203628D01*
X148677571Y-99560771D02*
X148677571Y-98060771D01*
X149534714Y-99560771D02*
X148891857Y-98703628D01*
X149534714Y-98060771D02*
X148677571Y-98917914D01*
X151249000Y-99489342D02*
X151463285Y-99560771D01*
X151820428Y-99560771D01*
X151963285Y-99489342D01*
X152034714Y-99417914D01*
X152106142Y-99275057D01*
X152106142Y-99132200D01*
X152034714Y-98989342D01*
X151963285Y-98917914D01*
X151820428Y-98846485D01*
X151534714Y-98775057D01*
X151391857Y-98703628D01*
X151320428Y-98632200D01*
X151249000Y-98489342D01*
X151249000Y-98346485D01*
X151320428Y-98203628D01*
X151391857Y-98132200D01*
X151534714Y-98060771D01*
X151891857Y-98060771D01*
X152106142Y-98132200D01*
X152749000Y-98775057D02*
X153249000Y-98775057D01*
X153463285Y-99560771D02*
X152749000Y-99560771D01*
X152749000Y-98060771D01*
X153463285Y-98060771D01*
X154820428Y-99560771D02*
X154106142Y-99560771D01*
X154106142Y-98060771D01*
X155320428Y-98775057D02*
X155820428Y-98775057D01*
X156034714Y-99560771D02*
X155320428Y-99560771D01*
X155320428Y-98060771D01*
X156034714Y-98060771D01*
X157534714Y-99417914D02*
X157463285Y-99489342D01*
X157249000Y-99560771D01*
X157106142Y-99560771D01*
X156891857Y-99489342D01*
X156749000Y-99346485D01*
X156677571Y-99203628D01*
X156606142Y-98917914D01*
X156606142Y-98703628D01*
X156677571Y-98417914D01*
X156749000Y-98275057D01*
X156891857Y-98132200D01*
X157106142Y-98060771D01*
X157249000Y-98060771D01*
X157463285Y-98132200D01*
X157534714Y-98203628D01*
X157963285Y-98060771D02*
X158820428Y-98060771D01*
X158391857Y-99560771D02*
X158391857Y-98060771D01*
D11*
X131599404Y-128833571D02*
X131742261Y-128881190D01*
X131789880Y-128928809D01*
X131837499Y-129024047D01*
X131837499Y-129166904D01*
X131789880Y-129262142D01*
X131742261Y-129309761D01*
X131647023Y-129357380D01*
X131266071Y-129357380D01*
X131266071Y-128357380D01*
X131599404Y-128357380D01*
X131694642Y-128405000D01*
X131742261Y-128452619D01*
X131789880Y-128547857D01*
X131789880Y-128643095D01*
X131742261Y-128738333D01*
X131694642Y-128785952D01*
X131599404Y-128833571D01*
X131266071Y-128833571D01*
X132456547Y-128357380D02*
X132647023Y-128357380D01*
X132742261Y-128405000D01*
X132837499Y-128500238D01*
X132885118Y-128690714D01*
X132885118Y-129024047D01*
X132837499Y-129214523D01*
X132742261Y-129309761D01*
X132647023Y-129357380D01*
X132456547Y-129357380D01*
X132361309Y-129309761D01*
X132266071Y-129214523D01*
X132218452Y-129024047D01*
X132218452Y-128690714D01*
X132266071Y-128500238D01*
X132361309Y-128405000D01*
X132456547Y-128357380D01*
X133504166Y-128357380D02*
X133694642Y-128357380D01*
X133789880Y-128405000D01*
X133885118Y-128500238D01*
X133932737Y-128690714D01*
X133932737Y-129024047D01*
X133885118Y-129214523D01*
X133789880Y-129309761D01*
X133694642Y-129357380D01*
X133504166Y-129357380D01*
X133408928Y-129309761D01*
X133313690Y-129214523D01*
X133266071Y-129024047D01*
X133266071Y-128690714D01*
X133313690Y-128500238D01*
X133408928Y-128405000D01*
X133504166Y-128357380D01*
X134218452Y-128357380D02*
X134789880Y-128357380D01*
X134504166Y-129357380D02*
X134504166Y-128357380D01*
X135313690Y-128357380D02*
X135408928Y-128357380D01*
X135504166Y-128405000D01*
X135551785Y-128452619D01*
X135599404Y-128547857D01*
X135647023Y-128738333D01*
X135647023Y-128976428D01*
X135599404Y-129166904D01*
X135551785Y-129262142D01*
X135504166Y-129309761D01*
X135408928Y-129357380D01*
X135313690Y-129357380D01*
X135218452Y-129309761D01*
X135170833Y-129262142D01*
X135123214Y-129166904D01*
X135075595Y-128976428D01*
X135075595Y-128738333D01*
X135123214Y-128547857D01*
X135170833Y-128452619D01*
X135218452Y-128405000D01*
X135313690Y-128357380D01*
X131313452Y-123912380D02*
X131932499Y-123912380D01*
X131599166Y-124293333D01*
X131742023Y-124293333D01*
X131837261Y-124340952D01*
X131884880Y-124388571D01*
X131932499Y-124483809D01*
X131932499Y-124721904D01*
X131884880Y-124817142D01*
X131837261Y-124864761D01*
X131742023Y-124912380D01*
X131456309Y-124912380D01*
X131361071Y-124864761D01*
X131313452Y-124817142D01*
X132218214Y-123912380D02*
X132551547Y-124912380D01*
X132884880Y-123912380D01*
X133122975Y-123912380D02*
X133742023Y-123912380D01*
X133408690Y-124293333D01*
X133551547Y-124293333D01*
X133646785Y-124340952D01*
X133694404Y-124388571D01*
X133742023Y-124483809D01*
X133742023Y-124721904D01*
X133694404Y-124817142D01*
X133646785Y-124864761D01*
X133551547Y-124912380D01*
X133265833Y-124912380D01*
X133170595Y-124864761D01*
X133122975Y-124817142D01*
X131796404Y-121420000D02*
X131701166Y-121372380D01*
X131558309Y-121372380D01*
X131415452Y-121420000D01*
X131320214Y-121515238D01*
X131272595Y-121610476D01*
X131224976Y-121800952D01*
X131224976Y-121943809D01*
X131272595Y-122134285D01*
X131320214Y-122229523D01*
X131415452Y-122324761D01*
X131558309Y-122372380D01*
X131653547Y-122372380D01*
X131796404Y-122324761D01*
X131844023Y-122277142D01*
X131844023Y-121943809D01*
X131653547Y-121943809D01*
X132272595Y-122372380D02*
X132272595Y-121372380D01*
X132844023Y-122372380D01*
X132844023Y-121372380D01*
X133320214Y-122372380D02*
X133320214Y-121372380D01*
X133558309Y-121372380D01*
X133701166Y-121420000D01*
X133796404Y-121515238D01*
X133844023Y-121610476D01*
X133891642Y-121800952D01*
X133891642Y-121943809D01*
X133844023Y-122134285D01*
X133796404Y-122229523D01*
X133701166Y-122324761D01*
X133558309Y-122372380D01*
X133320214Y-122372380D01*
X131224976Y-119784761D02*
X131367833Y-119832380D01*
X131605928Y-119832380D01*
X131701166Y-119784761D01*
X131748785Y-119737142D01*
X131796404Y-119641904D01*
X131796404Y-119546666D01*
X131748785Y-119451428D01*
X131701166Y-119403809D01*
X131605928Y-119356190D01*
X131415452Y-119308571D01*
X131320214Y-119260952D01*
X131272595Y-119213333D01*
X131224976Y-119118095D01*
X131224976Y-119022857D01*
X131272595Y-118927619D01*
X131320214Y-118880000D01*
X131415452Y-118832380D01*
X131653547Y-118832380D01*
X131796404Y-118880000D01*
X132129738Y-118832380D02*
X132367833Y-119832380D01*
X132558309Y-119118095D01*
X132748785Y-119832380D01*
X132986880Y-118832380D01*
X133367833Y-119832380D02*
X133367833Y-118832380D01*
X133605928Y-118832380D01*
X133748785Y-118880000D01*
X133844023Y-118975238D01*
X133891642Y-119070476D01*
X133939261Y-119260952D01*
X133939261Y-119403809D01*
X133891642Y-119594285D01*
X133844023Y-119689523D01*
X133748785Y-119784761D01*
X133605928Y-119832380D01*
X133367833Y-119832380D01*
X134367833Y-119832380D02*
X134367833Y-118832380D01*
X135034500Y-118832380D02*
X135224976Y-118832380D01*
X135320214Y-118880000D01*
X135415452Y-118975238D01*
X135463071Y-119165714D01*
X135463071Y-119499047D01*
X135415452Y-119689523D01*
X135320214Y-119784761D01*
X135224976Y-119832380D01*
X135034500Y-119832380D01*
X134939261Y-119784761D01*
X134844023Y-119689523D01*
X134796404Y-119499047D01*
X134796404Y-119165714D01*
X134844023Y-118975238D01*
X134939261Y-118880000D01*
X135034500Y-118832380D01*
X131123214Y-117244761D02*
X131266071Y-117292380D01*
X131504166Y-117292380D01*
X131599404Y-117244761D01*
X131647023Y-117197142D01*
X131694642Y-117101904D01*
X131694642Y-117006666D01*
X131647023Y-116911428D01*
X131599404Y-116863809D01*
X131504166Y-116816190D01*
X131313690Y-116768571D01*
X131218452Y-116720952D01*
X131170833Y-116673333D01*
X131123214Y-116578095D01*
X131123214Y-116482857D01*
X131170833Y-116387619D01*
X131218452Y-116340000D01*
X131313690Y-116292380D01*
X131551785Y-116292380D01*
X131694642Y-116340000D01*
X132027976Y-116292380D02*
X132266071Y-117292380D01*
X132456547Y-116578095D01*
X132647023Y-117292380D01*
X132885118Y-116292380D01*
X133837499Y-117197142D02*
X133789880Y-117244761D01*
X133647023Y-117292380D01*
X133551785Y-117292380D01*
X133408928Y-117244761D01*
X133313690Y-117149523D01*
X133266071Y-117054285D01*
X133218452Y-116863809D01*
X133218452Y-116720952D01*
X133266071Y-116530476D01*
X133313690Y-116435238D01*
X133408928Y-116340000D01*
X133551785Y-116292380D01*
X133647023Y-116292380D01*
X133789880Y-116340000D01*
X133837499Y-116387619D01*
X134742261Y-117292380D02*
X134266071Y-117292380D01*
X134266071Y-116292380D01*
X135075595Y-117292380D02*
X135075595Y-116292380D01*
X135647023Y-117292380D02*
X135218452Y-116720952D01*
X135647023Y-116292380D02*
X135075595Y-116863809D01*
X131859880Y-113704761D02*
X131002738Y-114990476D01*
X132764642Y-114752380D02*
X132431309Y-114276190D01*
X132193214Y-114752380D02*
X132193214Y-113752380D01*
X132574166Y-113752380D01*
X132669404Y-113800000D01*
X132717023Y-113847619D01*
X132764642Y-113942857D01*
X132764642Y-114085714D01*
X132717023Y-114180952D01*
X132669404Y-114228571D01*
X132574166Y-114276190D01*
X132193214Y-114276190D01*
X133145595Y-114704761D02*
X133288452Y-114752380D01*
X133526547Y-114752380D01*
X133621785Y-114704761D01*
X133669404Y-114657142D01*
X133717023Y-114561904D01*
X133717023Y-114466666D01*
X133669404Y-114371428D01*
X133621785Y-114323809D01*
X133526547Y-114276190D01*
X133336071Y-114228571D01*
X133240833Y-114180952D01*
X133193214Y-114133333D01*
X133145595Y-114038095D01*
X133145595Y-113942857D01*
X133193214Y-113847619D01*
X133240833Y-113800000D01*
X133336071Y-113752380D01*
X133574166Y-113752380D01*
X133717023Y-113800000D01*
X134002738Y-113752380D02*
X134574166Y-113752380D01*
X134288452Y-114752380D02*
X134288452Y-113752380D01*
D12*
X204471190Y-137235714D02*
X204233095Y-137473809D01*
X203518809Y-137711904D01*
X203042619Y-137711904D01*
X202328333Y-137473809D01*
X201852142Y-136997619D01*
X201614047Y-136521428D01*
X201375952Y-135569047D01*
X201375952Y-134854761D01*
X201614047Y-133902380D01*
X201852142Y-133426190D01*
X202328333Y-132950000D01*
X203042619Y-132711904D01*
X203518809Y-132711904D01*
X204233095Y-132950000D01*
X204471190Y-133188095D01*
X207328333Y-137711904D02*
X206852142Y-137473809D01*
X206614047Y-137235714D01*
X206375952Y-136759523D01*
X206375952Y-135330952D01*
X206614047Y-134854761D01*
X206852142Y-134616666D01*
X207328333Y-134378571D01*
X208042619Y-134378571D01*
X208518809Y-134616666D01*
X208756904Y-134854761D01*
X208995000Y-135330952D01*
X208995000Y-136759523D01*
X208756904Y-137235714D01*
X208518809Y-137473809D01*
X208042619Y-137711904D01*
X207328333Y-137711904D01*
X211137857Y-134378571D02*
X211137857Y-137711904D01*
X211137857Y-134854761D02*
X211375952Y-134616666D01*
X211852142Y-134378571D01*
X212566428Y-134378571D01*
X213042619Y-134616666D01*
X213280714Y-135092857D01*
X213280714Y-137711904D01*
X214947380Y-134378571D02*
X216852142Y-134378571D01*
X215661666Y-132711904D02*
X215661666Y-136997619D01*
X215899761Y-137473809D01*
X216375952Y-137711904D01*
X216852142Y-137711904D01*
X218518809Y-137711904D02*
X218518809Y-134378571D01*
X218518809Y-135330952D02*
X218756904Y-134854761D01*
X218995000Y-134616666D01*
X219471190Y-134378571D01*
X219947380Y-134378571D01*
X222328333Y-137711904D02*
X221852142Y-137473809D01*
X221614047Y-137235714D01*
X221375952Y-136759523D01*
X221375952Y-135330952D01*
X221614047Y-134854761D01*
X221852142Y-134616666D01*
X222328333Y-134378571D01*
X223042619Y-134378571D01*
X223518809Y-134616666D01*
X223756904Y-134854761D01*
X223995000Y-135330952D01*
X223995000Y-136759523D01*
X223756904Y-137235714D01*
X223518809Y-137473809D01*
X223042619Y-137711904D01*
X222328333Y-137711904D01*
X226852142Y-137711904D02*
X226375952Y-137473809D01*
X226137857Y-136997619D01*
X226137857Y-132711904D01*
X202090238Y-146211904D02*
X202090238Y-141211904D01*
X203756904Y-144783333D01*
X205423571Y-141211904D01*
X205423571Y-146211904D01*
X208518809Y-146211904D02*
X208042619Y-145973809D01*
X207804523Y-145735714D01*
X207566428Y-145259523D01*
X207566428Y-143830952D01*
X207804523Y-143354761D01*
X208042619Y-143116666D01*
X208518809Y-142878571D01*
X209233095Y-142878571D01*
X209709285Y-143116666D01*
X209947380Y-143354761D01*
X210185476Y-143830952D01*
X210185476Y-145259523D01*
X209947380Y-145735714D01*
X209709285Y-145973809D01*
X209233095Y-146211904D01*
X208518809Y-146211904D01*
X214471190Y-146211904D02*
X214471190Y-141211904D01*
X214471190Y-145973809D02*
X213995000Y-146211904D01*
X213042619Y-146211904D01*
X212566428Y-145973809D01*
X212328333Y-145735714D01*
X212090238Y-145259523D01*
X212090238Y-143830952D01*
X212328333Y-143354761D01*
X212566428Y-143116666D01*
X213042619Y-142878571D01*
X213995000Y-142878571D01*
X214471190Y-143116666D01*
X218995000Y-142878571D02*
X218995000Y-146211904D01*
X216852142Y-142878571D02*
X216852142Y-145497619D01*
X217090238Y-145973809D01*
X217566428Y-146211904D01*
X218280714Y-146211904D01*
X218756904Y-145973809D01*
X218995000Y-145735714D01*
X222090238Y-146211904D02*
X221614047Y-145973809D01*
X221375952Y-145497619D01*
X221375952Y-141211904D01*
X225899761Y-145973809D02*
X225423571Y-146211904D01*
X224471190Y-146211904D01*
X223995000Y-145973809D01*
X223756904Y-145497619D01*
X223756904Y-143592857D01*
X223995000Y-143116666D01*
X224471190Y-142878571D01*
X225423571Y-142878571D01*
X225899761Y-143116666D01*
X226137857Y-143592857D01*
X226137857Y-144069047D01*
X223756904Y-144545238D01*
D13*
X129629285Y-144089285D02*
X130057857Y-144232142D01*
X130772142Y-144232142D01*
X131057857Y-144089285D01*
X131200714Y-143946428D01*
X131343571Y-143660714D01*
X131343571Y-143375000D01*
X131200714Y-143089285D01*
X131057857Y-142946428D01*
X130772142Y-142803571D01*
X130200714Y-142660714D01*
X129914999Y-142517857D01*
X129772142Y-142375000D01*
X129629285Y-142089285D01*
X129629285Y-141803571D01*
X129772142Y-141517857D01*
X129914999Y-141375000D01*
X130200714Y-141232142D01*
X130914999Y-141232142D01*
X131343571Y-141375000D01*
X132200714Y-141232142D02*
X133914999Y-141232142D01*
X133057857Y-144232142D02*
X133057857Y-141232142D01*
X134915000Y-144232142D02*
X134915000Y-141232142D01*
X135915000Y-143375000D01*
X136915000Y-141232142D01*
X136915000Y-144232142D01*
X138057857Y-141232142D02*
X139915000Y-141232142D01*
X138915000Y-142375000D01*
X139343571Y-142375000D01*
X139629285Y-142517857D01*
X139772142Y-142660714D01*
X139915000Y-142946428D01*
X139915000Y-143660714D01*
X139772142Y-143946428D01*
X139629285Y-144089285D01*
X139343571Y-144232142D01*
X138486428Y-144232142D01*
X138200714Y-144089285D01*
X138057857Y-143946428D01*
X141057857Y-141517857D02*
X141200714Y-141375000D01*
X141486428Y-141232142D01*
X142200714Y-141232142D01*
X142486428Y-141375000D01*
X142629285Y-141517857D01*
X142772142Y-141803571D01*
X142772142Y-142089285D01*
X142629285Y-142517857D01*
X140915000Y-144232142D01*
X142772142Y-144232142D01*
X144057857Y-144232142D02*
X144057857Y-141232142D01*
X144057857Y-142660714D02*
X145772142Y-142660714D01*
X145772142Y-144232142D02*
X145772142Y-141232142D01*
X146915000Y-141232142D02*
X148915000Y-141232142D01*
X147629285Y-144232142D01*
X151486428Y-141232142D02*
X150057857Y-141232142D01*
X149915000Y-142660714D01*
X150057857Y-142517857D01*
X150343571Y-142375000D01*
X151057857Y-142375000D01*
X151343571Y-142517857D01*
X151486428Y-142660714D01*
X151629285Y-142946428D01*
X151629285Y-143660714D01*
X151486428Y-143946428D01*
X151343571Y-144089285D01*
X151057857Y-144232142D01*
X150343571Y-144232142D01*
X150057857Y-144089285D01*
X149915000Y-143946428D01*
X152629285Y-141232142D02*
X154486428Y-141232142D01*
X153486428Y-142375000D01*
X153915000Y-142375000D01*
X154200714Y-142517857D01*
X154343571Y-142660714D01*
X154486428Y-142946428D01*
X154486428Y-143660714D01*
X154343571Y-143946428D01*
X154200714Y-144089285D01*
X153915000Y-144232142D01*
X153057857Y-144232142D01*
X152772142Y-144089285D01*
X152629285Y-143946428D01*
X156772142Y-142660714D02*
X157200714Y-142803571D01*
X157343571Y-142946428D01*
X157486428Y-143232142D01*
X157486428Y-143660714D01*
X157343571Y-143946428D01*
X157200714Y-144089285D01*
X156915000Y-144232142D01*
X155772142Y-144232142D01*
X155772142Y-141232142D01*
X156772142Y-141232142D01*
X157057857Y-141375000D01*
X157200714Y-141517857D01*
X157343571Y-141803571D01*
X157343571Y-142089285D01*
X157200714Y-142375000D01*
X157057857Y-142517857D01*
X156772142Y-142660714D01*
X155772142Y-142660714D01*
X158772142Y-144232142D02*
X158772142Y-141232142D01*
X159772142Y-141232142D02*
X161486428Y-141232142D01*
X160629285Y-144232142D02*
X160629285Y-141232142D01*
D14*
X159863571Y-125158095D02*
X160720714Y-125539047D01*
X162149285Y-125539047D01*
X162720714Y-125158095D01*
X163006428Y-124777142D01*
X163292142Y-124015238D01*
X163292142Y-123253333D01*
X163006428Y-122491428D01*
X162720714Y-122110476D01*
X162149285Y-121729523D01*
X161006428Y-121348571D01*
X160435000Y-120967619D01*
X160149285Y-120586666D01*
X159863571Y-119824761D01*
X159863571Y-119062857D01*
X160149285Y-118300952D01*
X160435000Y-117920000D01*
X161006428Y-117539047D01*
X162435000Y-117539047D01*
X163292142Y-117920000D01*
X168435000Y-120205714D02*
X168435000Y-125539047D01*
X165863571Y-120205714D02*
X165863571Y-124396190D01*
X166149285Y-125158095D01*
X166720714Y-125539047D01*
X167577857Y-125539047D01*
X168149285Y-125158095D01*
X168435000Y-124777142D01*
X171292142Y-120205714D02*
X171292142Y-128205714D01*
X171292142Y-120586666D02*
X171863571Y-120205714D01*
X173006428Y-120205714D01*
X173577857Y-120586666D01*
X173863571Y-120967619D01*
X174149285Y-121729523D01*
X174149285Y-124015238D01*
X173863571Y-124777142D01*
X173577857Y-125158095D01*
X173006428Y-125539047D01*
X171863571Y-125539047D01*
X171292142Y-125158095D01*
X179006428Y-125158095D02*
X178435000Y-125539047D01*
X177292142Y-125539047D01*
X176720714Y-125158095D01*
X176435000Y-124396190D01*
X176435000Y-121348571D01*
X176720714Y-120586666D01*
X177292142Y-120205714D01*
X178435000Y-120205714D01*
X179006428Y-120586666D01*
X179292142Y-121348571D01*
X179292142Y-122110476D01*
X176435000Y-122872380D01*
X181863571Y-125539047D02*
X181863571Y-120205714D01*
X181863571Y-121729523D02*
X182149285Y-120967619D01*
X182435000Y-120586666D01*
X183006428Y-120205714D01*
X183577857Y-120205714D01*
X184720714Y-117539047D02*
X186720714Y-125539047D01*
X188720714Y-117539047D01*
X190720714Y-125539047D02*
X190720714Y-117539047D01*
X197006428Y-124777142D02*
X196720714Y-125158095D01*
X195863571Y-125539047D01*
X195292142Y-125539047D01*
X194435000Y-125158095D01*
X193863571Y-124396190D01*
X193577857Y-123634285D01*
X193292142Y-122110476D01*
X193292142Y-120967619D01*
X193577857Y-119443809D01*
X193863571Y-118681904D01*
X194435000Y-117920000D01*
X195292142Y-117539047D01*
X195863571Y-117539047D01*
X196720714Y-117920000D01*
X197006428Y-118300952D01*
D15*
X220083748Y-128345000D02*
X220606252Y-128345000D01*
X220083748Y-126925000D02*
X220606252Y-126925000D01*
X220083748Y-122480000D02*
X220606252Y-122480000D01*
X220083748Y-123900000D02*
X220606252Y-123900000D01*
X216714000Y-110814752D02*
X216714000Y-110292248D01*
X218134000Y-110814752D02*
X218134000Y-110292248D01*
X218134000Y-101226252D02*
X218134000Y-100703748D01*
X216714000Y-101226252D02*
X216714000Y-100703748D01*
X221988748Y-108977500D02*
X222511252Y-108977500D01*
X221988748Y-107557500D02*
X222511252Y-107557500D01*
X222115748Y-116511000D02*
X222638252Y-116511000D01*
X222115748Y-117931000D02*
X222638252Y-117931000D01*
X152026252Y-112320000D02*
X151503748Y-112320000D01*
X152026252Y-113740000D02*
X151503748Y-113740000D01*
X151503748Y-114860000D02*
X152026252Y-114860000D01*
X151503748Y-116280000D02*
X152026252Y-116280000D01*
X197223748Y-128195000D02*
X197746252Y-128195000D01*
X197223748Y-129615000D02*
X197746252Y-129615000D01*
X196349252Y-114819500D02*
X195826748Y-114819500D01*
X196349252Y-113399500D02*
X195826748Y-113399500D01*
X184523748Y-141680000D02*
X185046252Y-141680000D01*
X184523748Y-140260000D02*
X185046252Y-140260000D01*
X189491252Y-105970000D02*
X188968748Y-105970000D01*
X189491252Y-107390000D02*
X188968748Y-107390000D01*
X193936252Y-110565000D02*
X193413748Y-110565000D01*
X193936252Y-109145000D02*
X193413748Y-109145000D01*
X199763748Y-117550000D02*
X200286252Y-117550000D01*
X199763748Y-116130000D02*
X200286252Y-116130000D01*
X194571252Y-132005000D02*
X194048748Y-132005000D01*
X194571252Y-133425000D02*
X194048748Y-133425000D01*
X163568748Y-133275000D02*
X164091252Y-133275000D01*
X163568748Y-134695000D02*
X164091252Y-134695000D01*
X168013748Y-138355000D02*
X168536252Y-138355000D01*
X168013748Y-139775000D02*
X168536252Y-139775000D01*
X172346252Y-142800000D02*
X171823748Y-142800000D01*
X172346252Y-144220000D02*
X171823748Y-144220000D01*
X184523748Y-144220000D02*
X185046252Y-144220000D01*
X184523748Y-142800000D02*
X185046252Y-142800000D01*
X189603748Y-136450000D02*
X190126252Y-136450000D01*
X189603748Y-137870000D02*
X190126252Y-137870000D01*
X206300000Y-110751252D02*
X206300000Y-110228748D01*
X207720000Y-110751252D02*
X207720000Y-110228748D01*
X183888748Y-102945000D02*
X184411252Y-102945000D01*
X183888748Y-101525000D02*
X184411252Y-101525000D01*
X174251252Y-98921500D02*
X173728748Y-98921500D01*
X174251252Y-100341500D02*
X173728748Y-100341500D01*
X206300000Y-101226252D02*
X206300000Y-100703748D01*
X207720000Y-101226252D02*
X207720000Y-100703748D01*
X168648748Y-103430000D02*
X169171252Y-103430000D01*
X168648748Y-104850000D02*
X169171252Y-104850000D01*
X163456252Y-108510000D02*
X162933748Y-108510000D01*
X163456252Y-109930000D02*
X162933748Y-109930000D01*
X159646252Y-112320000D02*
X159123748Y-112320000D01*
X159646252Y-113740000D02*
X159123748Y-113740000D01*
X157106252Y-117550000D02*
X156583748Y-117550000D01*
X157106252Y-116130000D02*
X156583748Y-116130000D01*
X155948748Y-128345000D02*
X156471252Y-128345000D01*
X155948748Y-126925000D02*
X156471252Y-126925000D01*
X134672000Y-125786248D02*
X134672000Y-126308752D01*
X136092000Y-125786248D02*
X136092000Y-126308752D01*
X134672000Y-115577252D02*
X134672000Y-115054748D01*
X136092000Y-115577252D02*
X136092000Y-115054748D01*
X160774748Y-100722500D02*
X161297252Y-100722500D01*
X160774748Y-99302500D02*
X161297252Y-99302500D01*
X156718000Y-108064300D02*
X155448000Y-108064300D01*
X156718000Y-106794300D02*
X156718000Y-108064300D01*
X154405071Y-101334300D02*
X154008000Y-101334300D01*
X154405071Y-102094300D02*
X154008000Y-102094300D01*
X145348000Y-101334300D02*
X151348000Y-101334300D01*
X145348000Y-102094300D02*
X145348000Y-101334300D01*
X151348000Y-102094300D02*
X145348000Y-102094300D01*
X154008000Y-102984300D02*
X151348000Y-102984300D01*
X154405071Y-103874300D02*
X154008000Y-103874300D01*
X154405071Y-104634300D02*
X154008000Y-104634300D01*
X145348000Y-103874300D02*
X151348000Y-103874300D01*
X145348000Y-104634300D02*
X145348000Y-103874300D01*
X151348000Y-104634300D02*
X145348000Y-104634300D01*
X154008000Y-105524300D02*
X151348000Y-105524300D01*
X154338000Y-106414300D02*
X154008000Y-106414300D01*
X154338000Y-107174300D02*
X154008000Y-107174300D01*
X151348000Y-106514300D02*
X145348000Y-106514300D01*
X151348000Y-106634300D02*
X145348000Y-106634300D01*
X151348000Y-106754300D02*
X145348000Y-106754300D01*
X151348000Y-106874300D02*
X145348000Y-106874300D01*
X151348000Y-106994300D02*
X145348000Y-106994300D01*
X151348000Y-107114300D02*
X145348000Y-107114300D01*
X145348000Y-106414300D02*
X151348000Y-106414300D01*
X145348000Y-107174300D02*
X145348000Y-106414300D01*
X151348000Y-107174300D02*
X145348000Y-107174300D01*
X151348000Y-108124300D02*
X154008000Y-108124300D01*
X151348000Y-100384300D02*
X151348000Y-108124300D01*
X154008000Y-100384300D02*
X151348000Y-100384300D01*
X154008000Y-108124300D02*
X154008000Y-100384300D01*
X163727000Y-102213000D02*
X164117000Y-102213000D01*
X164117000Y-102213000D02*
X164117000Y-105813000D01*
X164117000Y-105813000D02*
X163727000Y-105813000D01*
X161047000Y-102213000D02*
X161787000Y-102213000D01*
X159107000Y-106513000D02*
X159107000Y-105813000D01*
X159107000Y-105813000D02*
X158717000Y-105813000D01*
X158717000Y-105813000D02*
X158717000Y-102213000D01*
X158717000Y-102213000D02*
X159107000Y-102213000D01*
X161787000Y-105813000D02*
X161047000Y-105813000D01*
X161047000Y-105813000D02*
X161047000Y-106513000D01*
X229870000Y-153670000D02*
X128270000Y-153670000D01*
X128270000Y-153670000D02*
X128270000Y-90170000D01*
X128270000Y-90170000D02*
X229870000Y-90170000D01*
X229870000Y-90170000D02*
X229870000Y-153670000D01*
D11*
X220178333Y-126342142D02*
X220130714Y-126389761D01*
X219987857Y-126437380D01*
X219892619Y-126437380D01*
X219749761Y-126389761D01*
X219654523Y-126294523D01*
X219606904Y-126199285D01*
X219559285Y-126008809D01*
X219559285Y-125865952D01*
X219606904Y-125675476D01*
X219654523Y-125580238D01*
X219749761Y-125485000D01*
X219892619Y-125437380D01*
X219987857Y-125437380D01*
X220130714Y-125485000D01*
X220178333Y-125532619D01*
X221130714Y-126437380D02*
X220559285Y-126437380D01*
X220845000Y-126437380D02*
X220845000Y-125437380D01*
X220749761Y-125580238D01*
X220654523Y-125675476D01*
X220559285Y-125723095D01*
X220178333Y-121897142D02*
X220130714Y-121944761D01*
X219987857Y-121992380D01*
X219892619Y-121992380D01*
X219749761Y-121944761D01*
X219654523Y-121849523D01*
X219606904Y-121754285D01*
X219559285Y-121563809D01*
X219559285Y-121420952D01*
X219606904Y-121230476D01*
X219654523Y-121135238D01*
X219749761Y-121040000D01*
X219892619Y-120992380D01*
X219987857Y-120992380D01*
X220130714Y-121040000D01*
X220178333Y-121087619D01*
X220559285Y-121087619D02*
X220606904Y-121040000D01*
X220702142Y-120992380D01*
X220940238Y-120992380D01*
X221035476Y-121040000D01*
X221083095Y-121087619D01*
X221130714Y-121182857D01*
X221130714Y-121278095D01*
X221083095Y-121420952D01*
X220511666Y-121992380D01*
X221130714Y-121992380D01*
X216131142Y-110720166D02*
X216178761Y-110767785D01*
X216226380Y-110910642D01*
X216226380Y-111005880D01*
X216178761Y-111148738D01*
X216083523Y-111243976D01*
X215988285Y-111291595D01*
X215797809Y-111339214D01*
X215654952Y-111339214D01*
X215464476Y-111291595D01*
X215369238Y-111243976D01*
X215274000Y-111148738D01*
X215226380Y-111005880D01*
X215226380Y-110910642D01*
X215274000Y-110767785D01*
X215321619Y-110720166D01*
X215226380Y-110386833D02*
X215226380Y-109767785D01*
X215607333Y-110101119D01*
X215607333Y-109958261D01*
X215654952Y-109863023D01*
X215702571Y-109815404D01*
X215797809Y-109767785D01*
X216035904Y-109767785D01*
X216131142Y-109815404D01*
X216178761Y-109863023D01*
X216226380Y-109958261D01*
X216226380Y-110243976D01*
X216178761Y-110339214D01*
X216131142Y-110386833D01*
X216131142Y-101131666D02*
X216178761Y-101179285D01*
X216226380Y-101322142D01*
X216226380Y-101417380D01*
X216178761Y-101560238D01*
X216083523Y-101655476D01*
X215988285Y-101703095D01*
X215797809Y-101750714D01*
X215654952Y-101750714D01*
X215464476Y-101703095D01*
X215369238Y-101655476D01*
X215274000Y-101560238D01*
X215226380Y-101417380D01*
X215226380Y-101322142D01*
X215274000Y-101179285D01*
X215321619Y-101131666D01*
X215559714Y-100274523D02*
X216226380Y-100274523D01*
X215178761Y-100512619D02*
X215893047Y-100750714D01*
X215893047Y-100131666D01*
X222083333Y-106974642D02*
X222035714Y-107022261D01*
X221892857Y-107069880D01*
X221797619Y-107069880D01*
X221654761Y-107022261D01*
X221559523Y-106927023D01*
X221511904Y-106831785D01*
X221464285Y-106641309D01*
X221464285Y-106498452D01*
X221511904Y-106307976D01*
X221559523Y-106212738D01*
X221654761Y-106117500D01*
X221797619Y-106069880D01*
X221892857Y-106069880D01*
X222035714Y-106117500D01*
X222083333Y-106165119D01*
X222988095Y-106069880D02*
X222511904Y-106069880D01*
X222464285Y-106546071D01*
X222511904Y-106498452D01*
X222607142Y-106450833D01*
X222845238Y-106450833D01*
X222940476Y-106498452D01*
X222988095Y-106546071D01*
X223035714Y-106641309D01*
X223035714Y-106879404D01*
X222988095Y-106974642D01*
X222940476Y-107022261D01*
X222845238Y-107069880D01*
X222607142Y-107069880D01*
X222511904Y-107022261D01*
X222464285Y-106974642D01*
X222210333Y-115928142D02*
X222162714Y-115975761D01*
X222019857Y-116023380D01*
X221924619Y-116023380D01*
X221781761Y-115975761D01*
X221686523Y-115880523D01*
X221638904Y-115785285D01*
X221591285Y-115594809D01*
X221591285Y-115451952D01*
X221638904Y-115261476D01*
X221686523Y-115166238D01*
X221781761Y-115071000D01*
X221924619Y-115023380D01*
X222019857Y-115023380D01*
X222162714Y-115071000D01*
X222210333Y-115118619D01*
X223067476Y-115023380D02*
X222877000Y-115023380D01*
X222781761Y-115071000D01*
X222734142Y-115118619D01*
X222638904Y-115261476D01*
X222591285Y-115451952D01*
X222591285Y-115832904D01*
X222638904Y-115928142D01*
X222686523Y-115975761D01*
X222781761Y-116023380D01*
X222972238Y-116023380D01*
X223067476Y-115975761D01*
X223115095Y-115928142D01*
X223162714Y-115832904D01*
X223162714Y-115594809D01*
X223115095Y-115499571D01*
X223067476Y-115451952D01*
X222972238Y-115404333D01*
X222781761Y-115404333D01*
X222686523Y-115451952D01*
X222638904Y-115499571D01*
X222591285Y-115594809D01*
X151357033Y-117616242D02*
X151309414Y-117663861D01*
X151166557Y-117711480D01*
X151071319Y-117711480D01*
X150928461Y-117663861D01*
X150833223Y-117568623D01*
X150785604Y-117473385D01*
X150737985Y-117282909D01*
X150737985Y-117140052D01*
X150785604Y-116949576D01*
X150833223Y-116854338D01*
X150928461Y-116759100D01*
X151071319Y-116711480D01*
X151166557Y-116711480D01*
X151309414Y-116759100D01*
X151357033Y-116806719D01*
X151690366Y-116711480D02*
X152357033Y-116711480D01*
X151928461Y-117711480D01*
X152601633Y-111698042D02*
X152554014Y-111745661D01*
X152411157Y-111793280D01*
X152315919Y-111793280D01*
X152173061Y-111745661D01*
X152077823Y-111650423D01*
X152030204Y-111555185D01*
X151982585Y-111364709D01*
X151982585Y-111221852D01*
X152030204Y-111031376D01*
X152077823Y-110936138D01*
X152173061Y-110840900D01*
X152315919Y-110793280D01*
X152411157Y-110793280D01*
X152554014Y-110840900D01*
X152601633Y-110888519D01*
X153173061Y-111221852D02*
X153077823Y-111174233D01*
X153030204Y-111126614D01*
X152982585Y-111031376D01*
X152982585Y-110983757D01*
X153030204Y-110888519D01*
X153077823Y-110840900D01*
X153173061Y-110793280D01*
X153363538Y-110793280D01*
X153458776Y-110840900D01*
X153506395Y-110888519D01*
X153554014Y-110983757D01*
X153554014Y-111031376D01*
X153506395Y-111126614D01*
X153458776Y-111174233D01*
X153363538Y-111221852D01*
X153173061Y-111221852D01*
X153077823Y-111269471D01*
X153030204Y-111317090D01*
X152982585Y-111412328D01*
X152982585Y-111602804D01*
X153030204Y-111698042D01*
X153077823Y-111745661D01*
X153173061Y-111793280D01*
X153363538Y-111793280D01*
X153458776Y-111745661D01*
X153506395Y-111698042D01*
X153554014Y-111602804D01*
X153554014Y-111412328D01*
X153506395Y-111317090D01*
X153458776Y-111269471D01*
X153363538Y-111221852D01*
X197318333Y-127612142D02*
X197270714Y-127659761D01*
X197127857Y-127707380D01*
X197032619Y-127707380D01*
X196889761Y-127659761D01*
X196794523Y-127564523D01*
X196746904Y-127469285D01*
X196699285Y-127278809D01*
X196699285Y-127135952D01*
X196746904Y-126945476D01*
X196794523Y-126850238D01*
X196889761Y-126755000D01*
X197032619Y-126707380D01*
X197127857Y-126707380D01*
X197270714Y-126755000D01*
X197318333Y-126802619D01*
X197794523Y-127707380D02*
X197985000Y-127707380D01*
X198080238Y-127659761D01*
X198127857Y-127612142D01*
X198223095Y-127469285D01*
X198270714Y-127278809D01*
X198270714Y-126897857D01*
X198223095Y-126802619D01*
X198175476Y-126755000D01*
X198080238Y-126707380D01*
X197889761Y-126707380D01*
X197794523Y-126755000D01*
X197746904Y-126802619D01*
X197699285Y-126897857D01*
X197699285Y-127135952D01*
X197746904Y-127231190D01*
X197794523Y-127278809D01*
X197889761Y-127326428D01*
X198080238Y-127326428D01*
X198175476Y-127278809D01*
X198223095Y-127231190D01*
X198270714Y-127135952D01*
X195445142Y-116116642D02*
X195397523Y-116164261D01*
X195254666Y-116211880D01*
X195159428Y-116211880D01*
X195016571Y-116164261D01*
X194921333Y-116069023D01*
X194873714Y-115973785D01*
X194826095Y-115783309D01*
X194826095Y-115640452D01*
X194873714Y-115449976D01*
X194921333Y-115354738D01*
X195016571Y-115259500D01*
X195159428Y-115211880D01*
X195254666Y-115211880D01*
X195397523Y-115259500D01*
X195445142Y-115307119D01*
X196397523Y-116211880D02*
X195826095Y-116211880D01*
X196111809Y-116211880D02*
X196111809Y-115211880D01*
X196016571Y-115354738D01*
X195921333Y-115449976D01*
X195826095Y-115497595D01*
X197016571Y-115211880D02*
X197111809Y-115211880D01*
X197207047Y-115259500D01*
X197254666Y-115307119D01*
X197302285Y-115402357D01*
X197349904Y-115592833D01*
X197349904Y-115830928D01*
X197302285Y-116021404D01*
X197254666Y-116116642D01*
X197207047Y-116164261D01*
X197111809Y-116211880D01*
X197016571Y-116211880D01*
X196921333Y-116164261D01*
X196873714Y-116116642D01*
X196826095Y-116021404D01*
X196778476Y-115830928D01*
X196778476Y-115592833D01*
X196826095Y-115402357D01*
X196873714Y-115307119D01*
X196921333Y-115259500D01*
X197016571Y-115211880D01*
X184142142Y-139677142D02*
X184094523Y-139724761D01*
X183951666Y-139772380D01*
X183856428Y-139772380D01*
X183713571Y-139724761D01*
X183618333Y-139629523D01*
X183570714Y-139534285D01*
X183523095Y-139343809D01*
X183523095Y-139200952D01*
X183570714Y-139010476D01*
X183618333Y-138915238D01*
X183713571Y-138820000D01*
X183856428Y-138772380D01*
X183951666Y-138772380D01*
X184094523Y-138820000D01*
X184142142Y-138867619D01*
X185094523Y-139772380D02*
X184523095Y-139772380D01*
X184808809Y-139772380D02*
X184808809Y-138772380D01*
X184713571Y-138915238D01*
X184618333Y-139010476D01*
X184523095Y-139058095D01*
X186046904Y-139772380D02*
X185475476Y-139772380D01*
X185761190Y-139772380D02*
X185761190Y-138772380D01*
X185665952Y-138915238D01*
X185570714Y-139010476D01*
X185475476Y-139058095D01*
X188587142Y-108687142D02*
X188539523Y-108734761D01*
X188396666Y-108782380D01*
X188301428Y-108782380D01*
X188158571Y-108734761D01*
X188063333Y-108639523D01*
X188015714Y-108544285D01*
X187968095Y-108353809D01*
X187968095Y-108210952D01*
X188015714Y-108020476D01*
X188063333Y-107925238D01*
X188158571Y-107830000D01*
X188301428Y-107782380D01*
X188396666Y-107782380D01*
X188539523Y-107830000D01*
X188587142Y-107877619D01*
X189539523Y-108782380D02*
X188968095Y-108782380D01*
X189253809Y-108782380D02*
X189253809Y-107782380D01*
X189158571Y-107925238D01*
X189063333Y-108020476D01*
X188968095Y-108068095D01*
X189920476Y-107877619D02*
X189968095Y-107830000D01*
X190063333Y-107782380D01*
X190301428Y-107782380D01*
X190396666Y-107830000D01*
X190444285Y-107877619D01*
X190491904Y-107972857D01*
X190491904Y-108068095D01*
X190444285Y-108210952D01*
X189872857Y-108782380D01*
X190491904Y-108782380D01*
X193032142Y-111862142D02*
X192984523Y-111909761D01*
X192841666Y-111957380D01*
X192746428Y-111957380D01*
X192603571Y-111909761D01*
X192508333Y-111814523D01*
X192460714Y-111719285D01*
X192413095Y-111528809D01*
X192413095Y-111385952D01*
X192460714Y-111195476D01*
X192508333Y-111100238D01*
X192603571Y-111005000D01*
X192746428Y-110957380D01*
X192841666Y-110957380D01*
X192984523Y-111005000D01*
X193032142Y-111052619D01*
X193984523Y-111957380D02*
X193413095Y-111957380D01*
X193698809Y-111957380D02*
X193698809Y-110957380D01*
X193603571Y-111100238D01*
X193508333Y-111195476D01*
X193413095Y-111243095D01*
X194317857Y-110957380D02*
X194936904Y-110957380D01*
X194603571Y-111338333D01*
X194746428Y-111338333D01*
X194841666Y-111385952D01*
X194889285Y-111433571D01*
X194936904Y-111528809D01*
X194936904Y-111766904D01*
X194889285Y-111862142D01*
X194841666Y-111909761D01*
X194746428Y-111957380D01*
X194460714Y-111957380D01*
X194365476Y-111909761D01*
X194317857Y-111862142D01*
X199382142Y-115547142D02*
X199334523Y-115594761D01*
X199191666Y-115642380D01*
X199096428Y-115642380D01*
X198953571Y-115594761D01*
X198858333Y-115499523D01*
X198810714Y-115404285D01*
X198763095Y-115213809D01*
X198763095Y-115070952D01*
X198810714Y-114880476D01*
X198858333Y-114785238D01*
X198953571Y-114690000D01*
X199096428Y-114642380D01*
X199191666Y-114642380D01*
X199334523Y-114690000D01*
X199382142Y-114737619D01*
X200334523Y-115642380D02*
X199763095Y-115642380D01*
X200048809Y-115642380D02*
X200048809Y-114642380D01*
X199953571Y-114785238D01*
X199858333Y-114880476D01*
X199763095Y-114928095D01*
X201191666Y-114975714D02*
X201191666Y-115642380D01*
X200953571Y-114594761D02*
X200715476Y-115309047D01*
X201334523Y-115309047D01*
X193667142Y-134722142D02*
X193619523Y-134769761D01*
X193476666Y-134817380D01*
X193381428Y-134817380D01*
X193238571Y-134769761D01*
X193143333Y-134674523D01*
X193095714Y-134579285D01*
X193048095Y-134388809D01*
X193048095Y-134245952D01*
X193095714Y-134055476D01*
X193143333Y-133960238D01*
X193238571Y-133865000D01*
X193381428Y-133817380D01*
X193476666Y-133817380D01*
X193619523Y-133865000D01*
X193667142Y-133912619D01*
X194619523Y-134817380D02*
X194048095Y-134817380D01*
X194333809Y-134817380D02*
X194333809Y-133817380D01*
X194238571Y-133960238D01*
X194143333Y-134055476D01*
X194048095Y-134103095D01*
X195524285Y-133817380D02*
X195048095Y-133817380D01*
X195000476Y-134293571D01*
X195048095Y-134245952D01*
X195143333Y-134198333D01*
X195381428Y-134198333D01*
X195476666Y-134245952D01*
X195524285Y-134293571D01*
X195571904Y-134388809D01*
X195571904Y-134626904D01*
X195524285Y-134722142D01*
X195476666Y-134769761D01*
X195381428Y-134817380D01*
X195143333Y-134817380D01*
X195048095Y-134769761D01*
X195000476Y-134722142D01*
X163187142Y-132692142D02*
X163139523Y-132739761D01*
X162996666Y-132787380D01*
X162901428Y-132787380D01*
X162758571Y-132739761D01*
X162663333Y-132644523D01*
X162615714Y-132549285D01*
X162568095Y-132358809D01*
X162568095Y-132215952D01*
X162615714Y-132025476D01*
X162663333Y-131930238D01*
X162758571Y-131835000D01*
X162901428Y-131787380D01*
X162996666Y-131787380D01*
X163139523Y-131835000D01*
X163187142Y-131882619D01*
X164139523Y-132787380D02*
X163568095Y-132787380D01*
X163853809Y-132787380D02*
X163853809Y-131787380D01*
X163758571Y-131930238D01*
X163663333Y-132025476D01*
X163568095Y-132073095D01*
X164996666Y-131787380D02*
X164806190Y-131787380D01*
X164710952Y-131835000D01*
X164663333Y-131882619D01*
X164568095Y-132025476D01*
X164520476Y-132215952D01*
X164520476Y-132596904D01*
X164568095Y-132692142D01*
X164615714Y-132739761D01*
X164710952Y-132787380D01*
X164901428Y-132787380D01*
X164996666Y-132739761D01*
X165044285Y-132692142D01*
X165091904Y-132596904D01*
X165091904Y-132358809D01*
X165044285Y-132263571D01*
X164996666Y-132215952D01*
X164901428Y-132168333D01*
X164710952Y-132168333D01*
X164615714Y-132215952D01*
X164568095Y-132263571D01*
X164520476Y-132358809D01*
X167632142Y-137772142D02*
X167584523Y-137819761D01*
X167441666Y-137867380D01*
X167346428Y-137867380D01*
X167203571Y-137819761D01*
X167108333Y-137724523D01*
X167060714Y-137629285D01*
X167013095Y-137438809D01*
X167013095Y-137295952D01*
X167060714Y-137105476D01*
X167108333Y-137010238D01*
X167203571Y-136915000D01*
X167346428Y-136867380D01*
X167441666Y-136867380D01*
X167584523Y-136915000D01*
X167632142Y-136962619D01*
X168584523Y-137867380D02*
X168013095Y-137867380D01*
X168298809Y-137867380D02*
X168298809Y-136867380D01*
X168203571Y-137010238D01*
X168108333Y-137105476D01*
X168013095Y-137153095D01*
X168917857Y-136867380D02*
X169584523Y-136867380D01*
X169155952Y-137867380D01*
X171442142Y-145517142D02*
X171394523Y-145564761D01*
X171251666Y-145612380D01*
X171156428Y-145612380D01*
X171013571Y-145564761D01*
X170918333Y-145469523D01*
X170870714Y-145374285D01*
X170823095Y-145183809D01*
X170823095Y-145040952D01*
X170870714Y-144850476D01*
X170918333Y-144755238D01*
X171013571Y-144660000D01*
X171156428Y-144612380D01*
X171251666Y-144612380D01*
X171394523Y-144660000D01*
X171442142Y-144707619D01*
X172394523Y-145612380D02*
X171823095Y-145612380D01*
X172108809Y-145612380D02*
X172108809Y-144612380D01*
X172013571Y-144755238D01*
X171918333Y-144850476D01*
X171823095Y-144898095D01*
X172965952Y-145040952D02*
X172870714Y-144993333D01*
X172823095Y-144945714D01*
X172775476Y-144850476D01*
X172775476Y-144802857D01*
X172823095Y-144707619D01*
X172870714Y-144660000D01*
X172965952Y-144612380D01*
X173156428Y-144612380D01*
X173251666Y-144660000D01*
X173299285Y-144707619D01*
X173346904Y-144802857D01*
X173346904Y-144850476D01*
X173299285Y-144945714D01*
X173251666Y-144993333D01*
X173156428Y-145040952D01*
X172965952Y-145040952D01*
X172870714Y-145088571D01*
X172823095Y-145136190D01*
X172775476Y-145231428D01*
X172775476Y-145421904D01*
X172823095Y-145517142D01*
X172870714Y-145564761D01*
X172965952Y-145612380D01*
X173156428Y-145612380D01*
X173251666Y-145564761D01*
X173299285Y-145517142D01*
X173346904Y-145421904D01*
X173346904Y-145231428D01*
X173299285Y-145136190D01*
X173251666Y-145088571D01*
X173156428Y-145040952D01*
X184167542Y-145645142D02*
X184119923Y-145692761D01*
X183977066Y-145740380D01*
X183881828Y-145740380D01*
X183738971Y-145692761D01*
X183643733Y-145597523D01*
X183596114Y-145502285D01*
X183548495Y-145311809D01*
X183548495Y-145168952D01*
X183596114Y-144978476D01*
X183643733Y-144883238D01*
X183738971Y-144788000D01*
X183881828Y-144740380D01*
X183977066Y-144740380D01*
X184119923Y-144788000D01*
X184167542Y-144835619D01*
X185119923Y-145740380D02*
X184548495Y-145740380D01*
X184834209Y-145740380D02*
X184834209Y-144740380D01*
X184738971Y-144883238D01*
X184643733Y-144978476D01*
X184548495Y-145026095D01*
X185596114Y-145740380D02*
X185786590Y-145740380D01*
X185881828Y-145692761D01*
X185929447Y-145645142D01*
X186024685Y-145502285D01*
X186072304Y-145311809D01*
X186072304Y-144930857D01*
X186024685Y-144835619D01*
X185977066Y-144788000D01*
X185881828Y-144740380D01*
X185691352Y-144740380D01*
X185596114Y-144788000D01*
X185548495Y-144835619D01*
X185500876Y-144930857D01*
X185500876Y-145168952D01*
X185548495Y-145264190D01*
X185596114Y-145311809D01*
X185691352Y-145359428D01*
X185881828Y-145359428D01*
X185977066Y-145311809D01*
X186024685Y-145264190D01*
X186072304Y-145168952D01*
X189222142Y-135867142D02*
X189174523Y-135914761D01*
X189031666Y-135962380D01*
X188936428Y-135962380D01*
X188793571Y-135914761D01*
X188698333Y-135819523D01*
X188650714Y-135724285D01*
X188603095Y-135533809D01*
X188603095Y-135390952D01*
X188650714Y-135200476D01*
X188698333Y-135105238D01*
X188793571Y-135010000D01*
X188936428Y-134962380D01*
X189031666Y-134962380D01*
X189174523Y-135010000D01*
X189222142Y-135057619D01*
X189603095Y-135057619D02*
X189650714Y-135010000D01*
X189745952Y-134962380D01*
X189984047Y-134962380D01*
X190079285Y-135010000D01*
X190126904Y-135057619D01*
X190174523Y-135152857D01*
X190174523Y-135248095D01*
X190126904Y-135390952D01*
X189555476Y-135962380D01*
X190174523Y-135962380D01*
X190793571Y-134962380D02*
X190888809Y-134962380D01*
X190984047Y-135010000D01*
X191031666Y-135057619D01*
X191079285Y-135152857D01*
X191126904Y-135343333D01*
X191126904Y-135581428D01*
X191079285Y-135771904D01*
X191031666Y-135867142D01*
X190984047Y-135914761D01*
X190888809Y-135962380D01*
X190793571Y-135962380D01*
X190698333Y-135914761D01*
X190650714Y-135867142D01*
X190603095Y-135771904D01*
X190555476Y-135581428D01*
X190555476Y-135343333D01*
X190603095Y-135152857D01*
X190650714Y-135057619D01*
X190698333Y-135010000D01*
X190793571Y-134962380D01*
X205717142Y-111132857D02*
X205764761Y-111180476D01*
X205812380Y-111323333D01*
X205812380Y-111418571D01*
X205764761Y-111561428D01*
X205669523Y-111656666D01*
X205574285Y-111704285D01*
X205383809Y-111751904D01*
X205240952Y-111751904D01*
X205050476Y-111704285D01*
X204955238Y-111656666D01*
X204860000Y-111561428D01*
X204812380Y-111418571D01*
X204812380Y-111323333D01*
X204860000Y-111180476D01*
X204907619Y-111132857D01*
X204907619Y-110751904D02*
X204860000Y-110704285D01*
X204812380Y-110609047D01*
X204812380Y-110370952D01*
X204860000Y-110275714D01*
X204907619Y-110228095D01*
X205002857Y-110180476D01*
X205098095Y-110180476D01*
X205240952Y-110228095D01*
X205812380Y-110799523D01*
X205812380Y-110180476D01*
X205812380Y-109228095D02*
X205812380Y-109799523D01*
X205812380Y-109513809D02*
X204812380Y-109513809D01*
X204955238Y-109609047D01*
X205050476Y-109704285D01*
X205098095Y-109799523D01*
X183507142Y-100942142D02*
X183459523Y-100989761D01*
X183316666Y-101037380D01*
X183221428Y-101037380D01*
X183078571Y-100989761D01*
X182983333Y-100894523D01*
X182935714Y-100799285D01*
X182888095Y-100608809D01*
X182888095Y-100465952D01*
X182935714Y-100275476D01*
X182983333Y-100180238D01*
X183078571Y-100085000D01*
X183221428Y-100037380D01*
X183316666Y-100037380D01*
X183459523Y-100085000D01*
X183507142Y-100132619D01*
X183888095Y-100132619D02*
X183935714Y-100085000D01*
X184030952Y-100037380D01*
X184269047Y-100037380D01*
X184364285Y-100085000D01*
X184411904Y-100132619D01*
X184459523Y-100227857D01*
X184459523Y-100323095D01*
X184411904Y-100465952D01*
X183840476Y-101037380D01*
X184459523Y-101037380D01*
X184840476Y-100132619D02*
X184888095Y-100085000D01*
X184983333Y-100037380D01*
X185221428Y-100037380D01*
X185316666Y-100085000D01*
X185364285Y-100132619D01*
X185411904Y-100227857D01*
X185411904Y-100323095D01*
X185364285Y-100465952D01*
X184792857Y-101037380D01*
X185411904Y-101037380D01*
X173347142Y-101638642D02*
X173299523Y-101686261D01*
X173156666Y-101733880D01*
X173061428Y-101733880D01*
X172918571Y-101686261D01*
X172823333Y-101591023D01*
X172775714Y-101495785D01*
X172728095Y-101305309D01*
X172728095Y-101162452D01*
X172775714Y-100971976D01*
X172823333Y-100876738D01*
X172918571Y-100781500D01*
X173061428Y-100733880D01*
X173156666Y-100733880D01*
X173299523Y-100781500D01*
X173347142Y-100829119D01*
X173728095Y-100829119D02*
X173775714Y-100781500D01*
X173870952Y-100733880D01*
X174109047Y-100733880D01*
X174204285Y-100781500D01*
X174251904Y-100829119D01*
X174299523Y-100924357D01*
X174299523Y-101019595D01*
X174251904Y-101162452D01*
X173680476Y-101733880D01*
X174299523Y-101733880D01*
X174632857Y-100733880D02*
X175251904Y-100733880D01*
X174918571Y-101114833D01*
X175061428Y-101114833D01*
X175156666Y-101162452D01*
X175204285Y-101210071D01*
X175251904Y-101305309D01*
X175251904Y-101543404D01*
X175204285Y-101638642D01*
X175156666Y-101686261D01*
X175061428Y-101733880D01*
X174775714Y-101733880D01*
X174680476Y-101686261D01*
X174632857Y-101638642D01*
X205717142Y-101607857D02*
X205764761Y-101655476D01*
X205812380Y-101798333D01*
X205812380Y-101893571D01*
X205764761Y-102036428D01*
X205669523Y-102131666D01*
X205574285Y-102179285D01*
X205383809Y-102226904D01*
X205240952Y-102226904D01*
X205050476Y-102179285D01*
X204955238Y-102131666D01*
X204860000Y-102036428D01*
X204812380Y-101893571D01*
X204812380Y-101798333D01*
X204860000Y-101655476D01*
X204907619Y-101607857D01*
X204907619Y-101226904D02*
X204860000Y-101179285D01*
X204812380Y-101084047D01*
X204812380Y-100845952D01*
X204860000Y-100750714D01*
X204907619Y-100703095D01*
X205002857Y-100655476D01*
X205098095Y-100655476D01*
X205240952Y-100703095D01*
X205812380Y-101274523D01*
X205812380Y-100655476D01*
X205145714Y-99798333D02*
X205812380Y-99798333D01*
X204764761Y-100036428D02*
X205479047Y-100274523D01*
X205479047Y-99655476D01*
X168267142Y-102847142D02*
X168219523Y-102894761D01*
X168076666Y-102942380D01*
X167981428Y-102942380D01*
X167838571Y-102894761D01*
X167743333Y-102799523D01*
X167695714Y-102704285D01*
X167648095Y-102513809D01*
X167648095Y-102370952D01*
X167695714Y-102180476D01*
X167743333Y-102085238D01*
X167838571Y-101990000D01*
X167981428Y-101942380D01*
X168076666Y-101942380D01*
X168219523Y-101990000D01*
X168267142Y-102037619D01*
X168648095Y-102037619D02*
X168695714Y-101990000D01*
X168790952Y-101942380D01*
X169029047Y-101942380D01*
X169124285Y-101990000D01*
X169171904Y-102037619D01*
X169219523Y-102132857D01*
X169219523Y-102228095D01*
X169171904Y-102370952D01*
X168600476Y-102942380D01*
X169219523Y-102942380D01*
X170124285Y-101942380D02*
X169648095Y-101942380D01*
X169600476Y-102418571D01*
X169648095Y-102370952D01*
X169743333Y-102323333D01*
X169981428Y-102323333D01*
X170076666Y-102370952D01*
X170124285Y-102418571D01*
X170171904Y-102513809D01*
X170171904Y-102751904D01*
X170124285Y-102847142D01*
X170076666Y-102894761D01*
X169981428Y-102942380D01*
X169743333Y-102942380D01*
X169648095Y-102894761D01*
X169600476Y-102847142D01*
X162552142Y-111227142D02*
X162504523Y-111274761D01*
X162361666Y-111322380D01*
X162266428Y-111322380D01*
X162123571Y-111274761D01*
X162028333Y-111179523D01*
X161980714Y-111084285D01*
X161933095Y-110893809D01*
X161933095Y-110750952D01*
X161980714Y-110560476D01*
X162028333Y-110465238D01*
X162123571Y-110370000D01*
X162266428Y-110322380D01*
X162361666Y-110322380D01*
X162504523Y-110370000D01*
X162552142Y-110417619D01*
X162933095Y-110417619D02*
X162980714Y-110370000D01*
X163075952Y-110322380D01*
X163314047Y-110322380D01*
X163409285Y-110370000D01*
X163456904Y-110417619D01*
X163504523Y-110512857D01*
X163504523Y-110608095D01*
X163456904Y-110750952D01*
X162885476Y-111322380D01*
X163504523Y-111322380D01*
X164361666Y-110322380D02*
X164171190Y-110322380D01*
X164075952Y-110370000D01*
X164028333Y-110417619D01*
X163933095Y-110560476D01*
X163885476Y-110750952D01*
X163885476Y-111131904D01*
X163933095Y-111227142D01*
X163980714Y-111274761D01*
X164075952Y-111322380D01*
X164266428Y-111322380D01*
X164361666Y-111274761D01*
X164409285Y-111227142D01*
X164456904Y-111131904D01*
X164456904Y-110893809D01*
X164409285Y-110798571D01*
X164361666Y-110750952D01*
X164266428Y-110703333D01*
X164075952Y-110703333D01*
X163980714Y-110750952D01*
X163933095Y-110798571D01*
X163885476Y-110893809D01*
X158742142Y-115037142D02*
X158694523Y-115084761D01*
X158551666Y-115132380D01*
X158456428Y-115132380D01*
X158313571Y-115084761D01*
X158218333Y-114989523D01*
X158170714Y-114894285D01*
X158123095Y-114703809D01*
X158123095Y-114560952D01*
X158170714Y-114370476D01*
X158218333Y-114275238D01*
X158313571Y-114180000D01*
X158456428Y-114132380D01*
X158551666Y-114132380D01*
X158694523Y-114180000D01*
X158742142Y-114227619D01*
X159123095Y-114227619D02*
X159170714Y-114180000D01*
X159265952Y-114132380D01*
X159504047Y-114132380D01*
X159599285Y-114180000D01*
X159646904Y-114227619D01*
X159694523Y-114322857D01*
X159694523Y-114418095D01*
X159646904Y-114560952D01*
X159075476Y-115132380D01*
X159694523Y-115132380D01*
X160027857Y-114132380D02*
X160694523Y-114132380D01*
X160265952Y-115132380D01*
X156202142Y-118847142D02*
X156154523Y-118894761D01*
X156011666Y-118942380D01*
X155916428Y-118942380D01*
X155773571Y-118894761D01*
X155678333Y-118799523D01*
X155630714Y-118704285D01*
X155583095Y-118513809D01*
X155583095Y-118370952D01*
X155630714Y-118180476D01*
X155678333Y-118085238D01*
X155773571Y-117990000D01*
X155916428Y-117942380D01*
X156011666Y-117942380D01*
X156154523Y-117990000D01*
X156202142Y-118037619D01*
X156583095Y-118037619D02*
X156630714Y-117990000D01*
X156725952Y-117942380D01*
X156964047Y-117942380D01*
X157059285Y-117990000D01*
X157106904Y-118037619D01*
X157154523Y-118132857D01*
X157154523Y-118228095D01*
X157106904Y-118370952D01*
X156535476Y-118942380D01*
X157154523Y-118942380D01*
X157725952Y-118370952D02*
X157630714Y-118323333D01*
X157583095Y-118275714D01*
X157535476Y-118180476D01*
X157535476Y-118132857D01*
X157583095Y-118037619D01*
X157630714Y-117990000D01*
X157725952Y-117942380D01*
X157916428Y-117942380D01*
X158011666Y-117990000D01*
X158059285Y-118037619D01*
X158106904Y-118132857D01*
X158106904Y-118180476D01*
X158059285Y-118275714D01*
X158011666Y-118323333D01*
X157916428Y-118370952D01*
X157725952Y-118370952D01*
X157630714Y-118418571D01*
X157583095Y-118466190D01*
X157535476Y-118561428D01*
X157535476Y-118751904D01*
X157583095Y-118847142D01*
X157630714Y-118894761D01*
X157725952Y-118942380D01*
X157916428Y-118942380D01*
X158011666Y-118894761D01*
X158059285Y-118847142D01*
X158106904Y-118751904D01*
X158106904Y-118561428D01*
X158059285Y-118466190D01*
X158011666Y-118418571D01*
X157916428Y-118370952D01*
X155567142Y-126342142D02*
X155519523Y-126389761D01*
X155376666Y-126437380D01*
X155281428Y-126437380D01*
X155138571Y-126389761D01*
X155043333Y-126294523D01*
X154995714Y-126199285D01*
X154948095Y-126008809D01*
X154948095Y-125865952D01*
X154995714Y-125675476D01*
X155043333Y-125580238D01*
X155138571Y-125485000D01*
X155281428Y-125437380D01*
X155376666Y-125437380D01*
X155519523Y-125485000D01*
X155567142Y-125532619D01*
X155948095Y-125532619D02*
X155995714Y-125485000D01*
X156090952Y-125437380D01*
X156329047Y-125437380D01*
X156424285Y-125485000D01*
X156471904Y-125532619D01*
X156519523Y-125627857D01*
X156519523Y-125723095D01*
X156471904Y-125865952D01*
X155900476Y-126437380D01*
X156519523Y-126437380D01*
X156995714Y-126437380D02*
X157186190Y-126437380D01*
X157281428Y-126389761D01*
X157329047Y-126342142D01*
X157424285Y-126199285D01*
X157471904Y-126008809D01*
X157471904Y-125627857D01*
X157424285Y-125532619D01*
X157376666Y-125485000D01*
X157281428Y-125437380D01*
X157090952Y-125437380D01*
X156995714Y-125485000D01*
X156948095Y-125532619D01*
X156900476Y-125627857D01*
X156900476Y-125865952D01*
X156948095Y-125961190D01*
X156995714Y-126008809D01*
X157090952Y-126056428D01*
X157281428Y-126056428D01*
X157376666Y-126008809D01*
X157424285Y-125961190D01*
X157471904Y-125865952D01*
X137484380Y-126214166D02*
X137008190Y-126547500D01*
X137484380Y-126785595D02*
X136484380Y-126785595D01*
X136484380Y-126404642D01*
X136532000Y-126309404D01*
X136579619Y-126261785D01*
X136674857Y-126214166D01*
X136817714Y-126214166D01*
X136912952Y-126261785D01*
X136960571Y-126309404D01*
X137008190Y-126404642D01*
X137008190Y-126785595D01*
X137484380Y-125261785D02*
X137484380Y-125833214D01*
X137484380Y-125547500D02*
X136484380Y-125547500D01*
X136627238Y-125642738D01*
X136722476Y-125737976D01*
X136770095Y-125833214D01*
X137612380Y-115482666D02*
X137136190Y-115816000D01*
X137612380Y-116054095D02*
X136612380Y-116054095D01*
X136612380Y-115673142D01*
X136660000Y-115577904D01*
X136707619Y-115530285D01*
X136802857Y-115482666D01*
X136945714Y-115482666D01*
X137040952Y-115530285D01*
X137088571Y-115577904D01*
X137136190Y-115673142D01*
X137136190Y-116054095D01*
X136707619Y-115101714D02*
X136660000Y-115054095D01*
X136612380Y-114958857D01*
X136612380Y-114720761D01*
X136660000Y-114625523D01*
X136707619Y-114577904D01*
X136802857Y-114530285D01*
X136898095Y-114530285D01*
X137040952Y-114577904D01*
X137612380Y-115149333D01*
X137612380Y-114530285D01*
X160393142Y-98719642D02*
X160345523Y-98767261D01*
X160202666Y-98814880D01*
X160107428Y-98814880D01*
X159964571Y-98767261D01*
X159869333Y-98672023D01*
X159821714Y-98576785D01*
X159774095Y-98386309D01*
X159774095Y-98243452D01*
X159821714Y-98052976D01*
X159869333Y-97957738D01*
X159964571Y-97862500D01*
X160107428Y-97814880D01*
X160202666Y-97814880D01*
X160345523Y-97862500D01*
X160393142Y-97910119D01*
X160726476Y-97814880D02*
X161345523Y-97814880D01*
X161012190Y-98195833D01*
X161155047Y-98195833D01*
X161250285Y-98243452D01*
X161297904Y-98291071D01*
X161345523Y-98386309D01*
X161345523Y-98624404D01*
X161297904Y-98719642D01*
X161250285Y-98767261D01*
X161155047Y-98814880D01*
X160869333Y-98814880D01*
X160774095Y-98767261D01*
X160726476Y-98719642D01*
X161964571Y-97814880D02*
X162059809Y-97814880D01*
X162155047Y-97862500D01*
X162202666Y-97910119D01*
X162250285Y-98005357D01*
X162297904Y-98195833D01*
X162297904Y-98433928D01*
X162250285Y-98624404D01*
X162202666Y-98719642D01*
X162155047Y-98767261D01*
X162059809Y-98814880D01*
X161964571Y-98814880D01*
X161869333Y-98767261D01*
X161821714Y-98719642D01*
X161774095Y-98624404D01*
X161726476Y-98433928D01*
X161726476Y-98195833D01*
X161774095Y-98005357D01*
X161821714Y-97910119D01*
X161869333Y-97862500D01*
X161964571Y-97814880D01*
X150174366Y-96480380D02*
X150174366Y-97194666D01*
X150126747Y-97337523D01*
X150031509Y-97432761D01*
X149888652Y-97480380D01*
X149793414Y-97480380D01*
X150602938Y-96575619D02*
X150650557Y-96528000D01*
X150745795Y-96480380D01*
X150983890Y-96480380D01*
X151079128Y-96528000D01*
X151126747Y-96575619D01*
X151174366Y-96670857D01*
X151174366Y-96766095D01*
X151126747Y-96908952D01*
X150555319Y-97480380D01*
X151174366Y-97480380D01*
X160607476Y-100165380D02*
X161274142Y-101165380D01*
X161274142Y-100165380D02*
X160607476Y-101165380D01*
X162178904Y-101165380D02*
X161607476Y-101165380D01*
X161893190Y-101165380D02*
X161893190Y-100165380D01*
X161797952Y-100308238D01*
X161702714Y-100403476D01*
X161607476Y-100451095D01*
M02*
